G04 Layer_Color=16711935*
%FSLAX44Y44*%
%MOMM*%
G71*
G01*
G75*
%ADD51C,0.3500*%
%ADD109R,1.7000X1.7000*%
%ADD122C,3.0000*%
G04:AMPARAMS|DCode=128|XSize=0.7mm|YSize=0.7mm|CornerRadius=0.11mm|HoleSize=0mm|Usage=FLASHONLY|Rotation=180.000|XOffset=0mm|YOffset=0mm|HoleType=Round|Shape=RoundedRectangle|*
%AMROUNDEDRECTD128*
21,1,0.7000,0.4800,0,0,180.0*
21,1,0.4800,0.7000,0,0,180.0*
1,1,0.2200,-0.2400,0.2400*
1,1,0.2200,0.2400,0.2400*
1,1,0.2200,0.2400,-0.2400*
1,1,0.2200,-0.2400,-0.2400*
%
%ADD128ROUNDEDRECTD128*%
%ADD129R,4.1000X2.1000*%
G04:AMPARAMS|DCode=131|XSize=0.6mm|YSize=0.7mm|CornerRadius=0.1mm|HoleSize=0mm|Usage=FLASHONLY|Rotation=0.000|XOffset=0mm|YOffset=0mm|HoleType=Round|Shape=RoundedRectangle|*
%AMROUNDEDRECTD131*
21,1,0.6000,0.5000,0,0,0.0*
21,1,0.4000,0.7000,0,0,0.0*
1,1,0.2000,0.2000,-0.2500*
1,1,0.2000,-0.2000,-0.2500*
1,1,0.2000,-0.2000,0.2500*
1,1,0.2000,0.2000,0.2500*
%
%ADD131ROUNDEDRECTD131*%
G04:AMPARAMS|DCode=133|XSize=0.7mm|YSize=0.7mm|CornerRadius=0.11mm|HoleSize=0mm|Usage=FLASHONLY|Rotation=270.000|XOffset=0mm|YOffset=0mm|HoleType=Round|Shape=RoundedRectangle|*
%AMROUNDEDRECTD133*
21,1,0.7000,0.4800,0,0,270.0*
21,1,0.4800,0.7000,0,0,270.0*
1,1,0.2200,-0.2400,-0.2400*
1,1,0.2200,-0.2400,0.2400*
1,1,0.2200,0.2400,0.2400*
1,1,0.2200,0.2400,-0.2400*
%
%ADD133ROUNDEDRECTD133*%
G04:AMPARAMS|DCode=134|XSize=1.1mm|YSize=1mm|CornerRadius=0.1625mm|HoleSize=0mm|Usage=FLASHONLY|Rotation=180.000|XOffset=0mm|YOffset=0mm|HoleType=Round|Shape=RoundedRectangle|*
%AMROUNDEDRECTD134*
21,1,1.1000,0.6750,0,0,180.0*
21,1,0.7750,1.0000,0,0,180.0*
1,1,0.3250,-0.3875,0.3375*
1,1,0.3250,0.3875,0.3375*
1,1,0.3250,0.3875,-0.3375*
1,1,0.3250,-0.3875,-0.3375*
%
%ADD134ROUNDEDRECTD134*%
G04:AMPARAMS|DCode=135|XSize=0.6mm|YSize=0.7mm|CornerRadius=0.1mm|HoleSize=0mm|Usage=FLASHONLY|Rotation=90.000|XOffset=0mm|YOffset=0mm|HoleType=Round|Shape=RoundedRectangle|*
%AMROUNDEDRECTD135*
21,1,0.6000,0.5000,0,0,90.0*
21,1,0.4000,0.7000,0,0,90.0*
1,1,0.2000,0.2500,0.2000*
1,1,0.2000,0.2500,-0.2000*
1,1,0.2000,-0.2500,-0.2000*
1,1,0.2000,-0.2500,0.2000*
%
%ADD135ROUNDEDRECTD135*%
%ADD145R,0.4500X0.4000*%
%ADD150R,0.4000X0.4500*%
%ADD151R,1.5000X1.4000*%
%ADD152R,2.1000X1.4000*%
G04:AMPARAMS|DCode=153|XSize=1.4mm|YSize=0.9mm|CornerRadius=0.15mm|HoleSize=0mm|Usage=FLASHONLY|Rotation=270.000|XOffset=0mm|YOffset=0mm|HoleType=Round|Shape=RoundedRectangle|*
%AMROUNDEDRECTD153*
21,1,1.4000,0.6000,0,0,270.0*
21,1,1.1000,0.9000,0,0,270.0*
1,1,0.3000,-0.3000,-0.5500*
1,1,0.3000,-0.3000,0.5500*
1,1,0.3000,0.3000,0.5500*
1,1,0.3000,0.3000,-0.5500*
%
%ADD153ROUNDEDRECTD153*%
%ADD160O,4.1000X1.7000*%
%ADD161C,3.6000*%
%ADD162O,1.9000X1.4000*%
G04:AMPARAMS|DCode=163|XSize=1.9mm|YSize=1.4mm|CornerRadius=0.375mm|HoleSize=0mm|Usage=FLASHONLY|Rotation=0.000|XOffset=0mm|YOffset=0mm|HoleType=Round|Shape=RoundedRectangle|*
%AMROUNDEDRECTD163*
21,1,1.9000,0.6500,0,0,0.0*
21,1,1.1500,1.4000,0,0,0.0*
1,1,0.7500,0.5750,-0.3250*
1,1,0.7500,-0.5750,-0.3250*
1,1,0.7500,-0.5750,0.3250*
1,1,0.7500,0.5750,0.3250*
%
%ADD163ROUNDEDRECTD163*%
G04:AMPARAMS|DCode=164|XSize=1.624mm|YSize=1.624mm|CornerRadius=0.2405mm|HoleSize=0mm|Usage=FLASHONLY|Rotation=0.000|XOffset=0mm|YOffset=0mm|HoleType=Round|Shape=RoundedRectangle|*
%AMROUNDEDRECTD164*
21,1,1.6240,1.1430,0,0,0.0*
21,1,1.1430,1.6240,0,0,0.0*
1,1,0.4810,0.5715,-0.5715*
1,1,0.4810,-0.5715,-0.5715*
1,1,0.4810,-0.5715,0.5715*
1,1,0.4810,0.5715,0.5715*
%
%ADD164ROUNDEDRECTD164*%
%ADD165C,1.7000*%
%ADD166C,0.6000*%
%ADD167R,1.6500X1.1000*%
%ADD168R,1.3000X1.7000*%
%ADD169R,1.3000X1.3000*%
%ADD170R,1.3000X2.2500*%
%ADD171R,1.9000X0.4000*%
%ADD172R,0.4000X0.9000*%
%ADD173R,1.1000X0.8000*%
%ADD174R,0.8000X0.8000*%
%ADD175R,0.8000X0.8000*%
%ADD176R,0.8000X1.1000*%
G04:AMPARAMS|DCode=177|XSize=0.7mm|YSize=1.1mm|CornerRadius=0.125mm|HoleSize=0mm|Usage=FLASHONLY|Rotation=270.000|XOffset=0mm|YOffset=0mm|HoleType=Round|Shape=RoundedRectangle|*
%AMROUNDEDRECTD177*
21,1,0.7000,0.8500,0,0,270.0*
21,1,0.4500,1.1000,0,0,270.0*
1,1,0.2500,-0.4250,-0.2250*
1,1,0.2500,-0.4250,0.2250*
1,1,0.2500,0.4250,0.2250*
1,1,0.2500,0.4250,-0.2250*
%
%ADD177ROUNDEDRECTD177*%
%ADD178R,0.9500X0.5000*%
%ADD179R,0.3500X0.7250*%
G04:AMPARAMS|DCode=180|XSize=1.4mm|YSize=0.9mm|CornerRadius=0.15mm|HoleSize=0mm|Usage=FLASHONLY|Rotation=180.000|XOffset=0mm|YOffset=0mm|HoleType=Round|Shape=RoundedRectangle|*
%AMROUNDEDRECTD180*
21,1,1.4000,0.6000,0,0,180.0*
21,1,1.1000,0.9000,0,0,180.0*
1,1,0.3000,-0.5500,0.3000*
1,1,0.3000,0.5500,0.3000*
1,1,0.3000,0.5500,-0.3000*
1,1,0.3000,-0.5500,-0.3000*
%
%ADD180ROUNDEDRECTD180*%
G04:AMPARAMS|DCode=181|XSize=1.5mm|YSize=1.3mm|CornerRadius=0.2mm|HoleSize=0mm|Usage=FLASHONLY|Rotation=0.000|XOffset=0mm|YOffset=0mm|HoleType=Round|Shape=RoundedRectangle|*
%AMROUNDEDRECTD181*
21,1,1.5000,0.9000,0,0,0.0*
21,1,1.1000,1.3000,0,0,0.0*
1,1,0.4000,0.5500,-0.4500*
1,1,0.4000,-0.5500,-0.4500*
1,1,0.4000,-0.5500,0.4500*
1,1,0.4000,0.5500,0.4500*
%
%ADD181ROUNDEDRECTD181*%
%ADD182R,2.7000X2.7000*%
%ADD183O,0.3500X1.0000*%
%ADD184O,1.0000X0.3500*%
G04:AMPARAMS|DCode=185|XSize=1.1mm|YSize=1mm|CornerRadius=0.1625mm|HoleSize=0mm|Usage=FLASHONLY|Rotation=270.000|XOffset=0mm|YOffset=0mm|HoleType=Round|Shape=RoundedRectangle|*
%AMROUNDEDRECTD185*
21,1,1.1000,0.6750,0,0,270.0*
21,1,0.7750,1.0000,0,0,270.0*
1,1,0.3250,-0.3375,-0.3875*
1,1,0.3250,-0.3375,0.3875*
1,1,0.3250,0.3375,0.3875*
1,1,0.3250,0.3375,-0.3875*
%
%ADD185ROUNDEDRECTD185*%
G04:AMPARAMS|DCode=186|XSize=1mm|YSize=2.1mm|CornerRadius=0.1625mm|HoleSize=0mm|Usage=FLASHONLY|Rotation=270.000|XOffset=0mm|YOffset=0mm|HoleType=Round|Shape=RoundedRectangle|*
%AMROUNDEDRECTD186*
21,1,1.0000,1.7750,0,0,270.0*
21,1,0.6750,2.1000,0,0,270.0*
1,1,0.3250,-0.8875,-0.3375*
1,1,0.3250,-0.8875,0.3375*
1,1,0.3250,0.8875,0.3375*
1,1,0.3250,0.8875,-0.3375*
%
%ADD186ROUNDEDRECTD186*%
G04:AMPARAMS|DCode=187|XSize=1.6mm|YSize=3.1mm|CornerRadius=0.2375mm|HoleSize=0mm|Usage=FLASHONLY|Rotation=270.000|XOffset=0mm|YOffset=0mm|HoleType=Round|Shape=RoundedRectangle|*
%AMROUNDEDRECTD187*
21,1,1.6000,2.6250,0,0,270.0*
21,1,1.1250,3.1000,0,0,270.0*
1,1,0.4750,-1.3125,-0.5625*
1,1,0.4750,-1.3125,0.5625*
1,1,0.4750,1.3125,0.5625*
1,1,0.4750,1.3125,-0.5625*
%
%ADD187ROUNDEDRECTD187*%
G04:AMPARAMS|DCode=188|XSize=0.4mm|YSize=0.45mm|CornerRadius=0mm|HoleSize=0mm|Usage=FLASHONLY|Rotation=135.000|XOffset=0mm|YOffset=0mm|HoleType=Round|Shape=Rectangle|*
%AMROTATEDRECTD188*
4,1,4,0.3005,0.0177,-0.0177,-0.3005,-0.3005,-0.0177,0.0177,0.3005,0.3005,0.0177,0.0*
%
%ADD188ROTATEDRECTD188*%

G04:AMPARAMS|DCode=189|XSize=0.7mm|YSize=0.7mm|CornerRadius=0.11mm|HoleSize=0mm|Usage=FLASHONLY|Rotation=45.000|XOffset=0mm|YOffset=0mm|HoleType=Round|Shape=RoundedRectangle|*
%AMROUNDEDRECTD189*
21,1,0.7000,0.4800,0,0,45.0*
21,1,0.4800,0.7000,0,0,45.0*
1,1,0.2200,0.3394,0.0000*
1,1,0.2200,0.0000,-0.3394*
1,1,0.2200,-0.3394,0.0000*
1,1,0.2200,0.0000,0.3394*
%
%ADD189ROUNDEDRECTD189*%
%ADD190R,0.8000X1.4500*%
%ADD191R,1.4500X0.8000*%
%ADD192R,1.1000X1.4500*%
%ADD193R,1.8000X1.8000*%
%ADD194R,0.7500X0.4000*%
%ADD195R,1.8000X1.8000*%
%ADD196R,0.4000X0.7500*%
%ADD197C,0.4400*%
G36*
X415000Y1383100D02*
X398500D01*
Y1385600D01*
X415000D01*
Y1383100D01*
D02*
G37*
G36*
X367750D02*
X351250D01*
Y1385600D01*
X367750D01*
Y1383100D01*
D02*
G37*
G36*
X249500Y1371350D02*
X247750D01*
X247750Y1372350D01*
X249750Y1374350D01*
X252500Y1374350D01*
X249500Y1371350D01*
D02*
G37*
G36*
X389750Y1365600D02*
X375250D01*
Y1382600D01*
X389750D01*
Y1365600D01*
D02*
G37*
G36*
X415000Y1362100D02*
X398500D01*
Y1364600D01*
X415000D01*
Y1362100D01*
D02*
G37*
G36*
X367750D02*
X351250D01*
Y1364600D01*
X367750D01*
Y1362100D01*
D02*
G37*
G36*
X123000Y1348600D02*
X113500D01*
Y1366600D01*
X123000D01*
Y1348600D01*
D02*
G37*
G36*
X104000D02*
X94500D01*
Y1366600D01*
X104000D01*
Y1348600D01*
D02*
G37*
G36*
X246086Y1348100D02*
X244336D01*
Y1352600D01*
X246086D01*
Y1348100D01*
D02*
G37*
G36*
X113336Y1339350D02*
X111586D01*
Y1343850D01*
X113336D01*
Y1339350D01*
D02*
G37*
G36*
X159586Y1337600D02*
X157836D01*
Y1342100D01*
X159586D01*
Y1337600D01*
D02*
G37*
G36*
X443500Y1324100D02*
X408000D01*
Y1343100D01*
X443500D01*
Y1324100D01*
D02*
G37*
G36*
X209500Y1322350D02*
X178500D01*
Y1353600D01*
X209500D01*
Y1322350D01*
D02*
G37*
G36*
X400261Y1315228D02*
X395761D01*
Y1316978D01*
X400261D01*
Y1315228D01*
D02*
G37*
G36*
X415511Y1312478D02*
X411011D01*
Y1314228D01*
X415511D01*
Y1312478D01*
D02*
G37*
G36*
X434010Y1310400D02*
X429510D01*
Y1312150D01*
X434010D01*
Y1310400D01*
D02*
G37*
G36*
X390251Y1315091D02*
X390250D01*
Y1309850D01*
X391000Y1308850D01*
X388500Y1308621D01*
Y1310350D01*
X386250Y1312600D01*
Y1315091D01*
X385750D01*
Y1316841D01*
X390251D01*
Y1315091D01*
D02*
G37*
G36*
X451547Y1317850D02*
X460500D01*
Y1309900D01*
X460510D01*
Y1308150D01*
X456010D01*
Y1309850D01*
X452250D01*
Y1307350D01*
X449250D01*
Y1309850D01*
Y1317850D01*
X449796D01*
Y1317877D01*
X451547D01*
Y1317850D01*
D02*
G37*
G36*
X408000Y1307841D02*
X403500D01*
Y1309591D01*
X408000D01*
Y1307841D01*
D02*
G37*
G36*
X255200Y1305896D02*
X250700D01*
Y1307646D01*
X255200D01*
Y1305896D01*
D02*
G37*
G36*
X278750Y1305686D02*
X274250D01*
Y1307436D01*
X278750D01*
Y1305686D01*
D02*
G37*
G36*
X270850Y1305646D02*
X266350D01*
Y1307396D01*
X270850D01*
Y1305646D01*
D02*
G37*
G36*
X262650D02*
X258150D01*
Y1307396D01*
X262650D01*
Y1305646D01*
D02*
G37*
G36*
X447346Y1305564D02*
X445597D01*
Y1310064D01*
X447346D01*
Y1305564D01*
D02*
G37*
G36*
X393913Y1306147D02*
X390731Y1302965D01*
X389493Y1304202D01*
X392675Y1307384D01*
X393913Y1306147D01*
D02*
G37*
G36*
X369250Y1302600D02*
X350750D01*
Y1338100D01*
X369250D01*
Y1302600D01*
D02*
G37*
G36*
X280501Y1299950D02*
X277750Y1299850D01*
Y1303100D01*
X280501D01*
Y1299950D01*
D02*
G37*
G36*
X275251Y1299850D02*
X272500Y1299950D01*
X269750Y1299850D01*
Y1303100D01*
X275251D01*
Y1299850D01*
D02*
G37*
G36*
X267251D02*
X264501Y1299950D01*
X261750Y1299850D01*
Y1303100D01*
X267251D01*
Y1299850D01*
D02*
G37*
G36*
X259251D02*
X256500Y1299950D01*
X253750Y1299850D01*
Y1303100D01*
X259251D01*
Y1299850D01*
D02*
G37*
G36*
X241000Y1302100D02*
X241000Y1299641D01*
X232500Y1299950D01*
X229750Y1299850D01*
Y1303100D01*
X232500D01*
Y1304850D01*
X238250D01*
X241000Y1302100D01*
D02*
G37*
G36*
X409047Y1297264D02*
X407296D01*
Y1301764D01*
X409047D01*
Y1297264D01*
D02*
G37*
G36*
X309001Y1297800D02*
X305000D01*
Y1295450D01*
X302376Y1295450D01*
Y1299950D01*
X304501D01*
Y1302050D01*
X309001D01*
Y1297800D01*
D02*
G37*
G36*
X183087Y1291200D02*
X181337D01*
Y1295701D01*
X183087D01*
Y1291200D01*
D02*
G37*
G36*
X417500Y1307100D02*
X424250D01*
Y1304600D01*
X426500Y1302350D01*
X438750D01*
Y1302377D01*
X443500D01*
Y1302350D01*
X446000D01*
X448500Y1299850D01*
X451250D01*
X452500Y1301100D01*
X455000D01*
X457000Y1299100D01*
Y1292928D01*
X457010D01*
Y1291178D01*
X452510D01*
Y1292850D01*
X450750D01*
X448500Y1290600D01*
X446500D01*
X443250Y1287350D01*
X440500D01*
X440000Y1286850D01*
X440000Y1283350D01*
Y1281350D01*
X438500D01*
Y1281314D01*
X434290D01*
Y1283350D01*
X427250D01*
Y1285850D01*
X435250D01*
Y1288600D01*
X430000Y1293850D01*
X423250D01*
X422250Y1294850D01*
Y1297350D01*
X416500D01*
Y1306350D01*
X414250Y1308600D01*
Y1309350D01*
X415250Y1309350D01*
X417500Y1307100D01*
D02*
G37*
G36*
X301146Y1292514D02*
X305000D01*
Y1290764D01*
X300500D01*
Y1290798D01*
X298153D01*
X297001Y1291950D01*
X298146Y1293096D01*
X300564D01*
X301146Y1292514D01*
D02*
G37*
G36*
X210037Y1282200D02*
X208286D01*
Y1286700D01*
X210037D01*
Y1282200D01*
D02*
G37*
G36*
X216500Y1281850D02*
X214000D01*
Y1286100D01*
X216500D01*
Y1281850D01*
D02*
G37*
G36*
X314650Y1287450D02*
X312475D01*
Y1283926D01*
X309001D01*
Y1281800D01*
X304501D01*
Y1283926D01*
X302401D01*
Y1288426D01*
X310350D01*
Y1291950D01*
X310400D01*
Y1296451D01*
X314650D01*
Y1287450D01*
D02*
G37*
G36*
X394250Y1281100D02*
X389750D01*
Y1282850D01*
X394250D01*
Y1281100D01*
D02*
G37*
G36*
X453500Y1279413D02*
X449000D01*
Y1281163D01*
X453500D01*
Y1279413D01*
D02*
G37*
G36*
X140836Y1279100D02*
X125750D01*
Y1283600D01*
X140836D01*
Y1279100D01*
D02*
G37*
G36*
X314650Y1275951D02*
X310400D01*
Y1280451D01*
X314650D01*
Y1275951D01*
D02*
G37*
G36*
X210086Y1274600D02*
X208336D01*
Y1279100D01*
X210086D01*
Y1274600D01*
D02*
G37*
G36*
X496141Y1285100D02*
X496250D01*
Y1278850D01*
X491500Y1274100D01*
X489500Y1274100D01*
X488750Y1274850D01*
X488750Y1276600D01*
X491500Y1279350D01*
Y1285100D01*
X491641D01*
Y1286764D01*
X496141D01*
Y1285100D01*
D02*
G37*
G36*
X477496Y1308356D02*
X477496Y1308356D01*
X477585Y1308348D01*
X477594Y1308347D01*
X477688Y1308318D01*
X477775Y1308272D01*
X477817Y1308237D01*
X477851Y1308209D01*
X477851Y1308209D01*
X487886Y1298174D01*
X487949Y1298098D01*
X487995Y1298011D01*
X488002Y1297989D01*
X488024Y1297917D01*
X488029Y1297868D01*
X488033Y1297819D01*
X488033Y1297819D01*
X488033Y1238131D01*
X488024Y1238033D01*
X488002Y1237961D01*
X487995Y1237939D01*
X487949Y1237852D01*
X487886Y1237776D01*
X487886Y1237776D01*
X485250Y1235140D01*
Y1229100D01*
X483500D01*
Y1226100D01*
X482346D01*
Y1222814D01*
X480714D01*
X480000Y1222100D01*
X475173D01*
Y1219672D01*
X475163Y1219574D01*
X475135Y1219480D01*
X475088Y1219393D01*
X475026Y1219317D01*
X474949Y1219255D01*
X474863Y1219208D01*
X474768Y1219180D01*
X474670Y1219170D01*
X467750D01*
Y1207236D01*
X469886Y1205100D01*
Y1200600D01*
X468190D01*
Y1200600D01*
X470000D01*
Y1195600D01*
X469500D01*
Y1196100D01*
X467300D01*
Y1193514D01*
X462800D01*
Y1198350D01*
X464000D01*
Y1200600D01*
X464250D01*
X464250Y1206850D01*
X463500D01*
Y1206850D01*
X458000D01*
Y1219350D01*
X459374D01*
X459338Y1219393D01*
X459292Y1219480D01*
X459263Y1219574D01*
X459254Y1219672D01*
Y1224922D01*
X459263Y1225020D01*
X459292Y1225115D01*
X459338Y1225201D01*
X459401Y1225278D01*
X459477Y1225340D01*
X459564Y1225387D01*
X459658Y1225415D01*
X459756Y1225425D01*
X465325D01*
X465772Y1225872D01*
X465752Y1225889D01*
X465751Y1225889D01*
X455520Y1236120D01*
X449250Y1229850D01*
X448410Y1229850D01*
X453886Y1224374D01*
X453886Y1224374D01*
X453914Y1224340D01*
X453949Y1224298D01*
X453995Y1224211D01*
X454024Y1224117D01*
X454025Y1224108D01*
X454033Y1224019D01*
X454033Y1224019D01*
Y1221350D01*
X454024Y1221252D01*
X453995Y1221158D01*
X453949Y1221071D01*
X453886Y1220995D01*
X453810Y1220932D01*
X453723Y1220886D01*
X453629Y1220857D01*
X453531Y1220848D01*
X414750D01*
X414652Y1220857D01*
X414558Y1220886D01*
X414471Y1220932D01*
X414395Y1220995D01*
X414332Y1221071D01*
X414286Y1221158D01*
X414257Y1221252D01*
X414248Y1221350D01*
Y1222963D01*
X414257Y1223061D01*
X414279Y1223133D01*
X414286Y1223155D01*
X414332Y1223242D01*
X414395Y1223318D01*
X414395Y1223318D01*
X424529Y1233452D01*
Y1242774D01*
X424538Y1242872D01*
X424567Y1242967D01*
X424613Y1243053D01*
X424676Y1243130D01*
X424752Y1243192D01*
X424839Y1243238D01*
X424933Y1243267D01*
X425031Y1243277D01*
X431244Y1243277D01*
X431000Y1243521D01*
Y1244814D01*
X429347D01*
Y1249314D01*
X431000D01*
Y1251350D01*
X424500Y1251350D01*
Y1259163D01*
X424511D01*
Y1272100D01*
X429029D01*
Y1279994D01*
X429038Y1280092D01*
X429067Y1280186D01*
X429113Y1280273D01*
X429176Y1280349D01*
X429252Y1280411D01*
X429339Y1280458D01*
X429433Y1280486D01*
X429531Y1280496D01*
X441479Y1280496D01*
X441577Y1280486D01*
X441650Y1280464D01*
X441672Y1280458D01*
X441759Y1280411D01*
X441793Y1280383D01*
X441835Y1280349D01*
X441835Y1280349D01*
X448444Y1273739D01*
X453782Y1273739D01*
X457997Y1277955D01*
X457998Y1291350D01*
X457998Y1291350D01*
X458006Y1291440D01*
X458007Y1291448D01*
X458036Y1291543D01*
X458082Y1291629D01*
X458117Y1291671D01*
X458145Y1291705D01*
X458145Y1291706D01*
X461248Y1294808D01*
X461248Y1307854D01*
X461257Y1307952D01*
X461286Y1308046D01*
X461332Y1308133D01*
X461395Y1308209D01*
X461471Y1308272D01*
X461558Y1308318D01*
X461652Y1308347D01*
X461750Y1308356D01*
X477496Y1308356D01*
D02*
G37*
G36*
X175750Y1269950D02*
X172250D01*
Y1275100D01*
X175750D01*
Y1269950D01*
D02*
G37*
G36*
X209836Y1270100D02*
X216500D01*
X216500Y1267950D01*
X204250D01*
Y1270100D01*
X208086D01*
Y1272600D01*
X209836D01*
Y1270100D01*
D02*
G37*
G36*
X504716Y1283850D02*
X508750D01*
Y1278850D01*
X515750Y1278850D01*
X515750Y1267850D01*
X510250Y1267850D01*
Y1267850D01*
X506250D01*
Y1273600D01*
X504000D01*
X500500Y1270100D01*
Y1258850D01*
X496000D01*
Y1266850D01*
X495500Y1267350D01*
Y1269600D01*
X496000Y1270100D01*
Y1270350D01*
X496250D01*
X504000Y1278100D01*
Y1280271D01*
X502966D01*
Y1284771D01*
X504716D01*
Y1283850D01*
D02*
G37*
G36*
X511836Y1261350D02*
X510086D01*
Y1265850D01*
X511836D01*
Y1261350D01*
D02*
G37*
G36*
X393710Y1261200D02*
X389210D01*
Y1262950D01*
X393710D01*
Y1261200D01*
D02*
G37*
G36*
X493250Y1269350D02*
X493250Y1266100D01*
X493750D01*
Y1259100D01*
X489250D01*
Y1262850D01*
X489250D01*
Y1267600D01*
X488750Y1268100D01*
Y1270100D01*
X489750Y1271100D01*
X491500D01*
X493250Y1269350D01*
D02*
G37*
G36*
X216500Y1257600D02*
X212000D01*
Y1262100D01*
X216500D01*
Y1257600D01*
D02*
G37*
G36*
X210086Y1255350D02*
X208336D01*
Y1259850D01*
X210086D01*
Y1255350D01*
D02*
G37*
G36*
X216500Y1246100D02*
X216500D01*
X217575Y1245025D01*
X215325Y1242775D01*
X210086Y1248014D01*
Y1246850D01*
X208336D01*
Y1251350D01*
X210086D01*
Y1249100D01*
X211793Y1250807D01*
X212001Y1250600D01*
Y1252600D01*
X216500D01*
Y1246100D01*
D02*
G37*
G36*
X385500Y1247736D02*
X381000D01*
Y1249486D01*
X385500D01*
Y1247736D01*
D02*
G37*
G36*
X198501Y1256350D02*
X199000D01*
Y1254600D01*
X199001D01*
Y1245114D01*
X194501D01*
Y1247350D01*
X194000D01*
Y1256350D01*
X194001D01*
Y1258614D01*
X198501D01*
Y1256350D01*
D02*
G37*
G36*
X374996Y1244114D02*
X373246D01*
Y1248614D01*
X374996D01*
Y1244114D01*
D02*
G37*
G36*
X402751Y1281100D02*
X404250D01*
X405750Y1282600D01*
X410640Y1282520D01*
Y1279190D01*
X417480Y1272350D01*
X421475Y1272350D01*
X421475Y1267535D01*
X421501D01*
Y1255574D01*
X421475D01*
X413979Y1255574D01*
X411503Y1253098D01*
Y1250850D01*
X414378Y1247975D01*
X416725D01*
X416725Y1243725D01*
X414451D01*
Y1243600D01*
X408250D01*
X403250Y1248600D01*
X399300Y1252550D01*
X397000D01*
Y1258600D01*
X397010D01*
Y1260150D01*
X398790D01*
X401500Y1262860D01*
Y1264100D01*
X402740D01*
X405820Y1267180D01*
Y1272530D01*
X401250Y1277100D01*
X398250D01*
Y1282928D01*
X402751D01*
Y1281100D01*
D02*
G37*
G36*
X325500Y1242850D02*
X312500D01*
Y1246100D01*
X315750D01*
Y1249850D01*
X312500D01*
Y1253850D01*
X315750D01*
Y1257350D01*
X312500D01*
Y1262850D01*
X315750D01*
Y1265350D01*
X312500D01*
Y1270850D01*
X315750D01*
Y1273350D01*
X325500D01*
Y1242850D01*
D02*
G37*
G36*
X119486Y1241700D02*
X117736D01*
Y1246200D01*
X119486D01*
Y1241700D01*
D02*
G37*
G36*
X510709Y1240850D02*
X509557Y1239697D01*
X507153D01*
X506000Y1240850D01*
X507145Y1241996D01*
X509564D01*
X510709Y1240850D01*
D02*
G37*
G36*
X515216Y1238600D02*
X513466D01*
Y1243100D01*
X515216D01*
Y1238600D01*
D02*
G37*
G36*
X266601Y1231450D02*
X262500D01*
Y1228264D01*
X258000D01*
Y1231450D01*
X254750D01*
Y1224600D01*
X253750D01*
Y1220100D01*
Y1218436D01*
X249250D01*
Y1220100D01*
X248000D01*
Y1224600D01*
X243750D01*
Y1230850D01*
X246351D01*
Y1235950D01*
X250601D01*
Y1232900D01*
X254351D01*
Y1235950D01*
X258601D01*
Y1233700D01*
X262351D01*
Y1235950D01*
X266601D01*
Y1231450D01*
D02*
G37*
G36*
X515404Y1232350D02*
X519500D01*
Y1230600D01*
X518250D01*
X517000Y1231850D01*
X507930D01*
X508356Y1231425D01*
Y1229064D01*
X511424D01*
Y1224564D01*
X508964D01*
X501750Y1217350D01*
X499750Y1217350D01*
X498500Y1218600D01*
Y1219850D01*
X506000Y1227350D01*
Y1229064D01*
X506058D01*
Y1231417D01*
X506491Y1231850D01*
X505750D01*
X505000Y1232600D01*
Y1234100D01*
X507500Y1236600D01*
X511500D01*
Y1236690D01*
X515404D01*
Y1232350D01*
D02*
G37*
G36*
X119486Y1229700D02*
X117736D01*
Y1234200D01*
X119486D01*
Y1229700D01*
D02*
G37*
G36*
X393501Y1228491D02*
X389000D01*
Y1230241D01*
X393501D01*
Y1228491D01*
D02*
G37*
G36*
X400761Y1228404D02*
X396261D01*
Y1230154D01*
X400761D01*
Y1228404D01*
D02*
G37*
G36*
X490036Y1233600D02*
X494000D01*
X497220Y1230380D01*
Y1227320D01*
X492480Y1222580D01*
X490000D01*
Y1229100D01*
X488286D01*
Y1233600D01*
X490036D01*
Y1233600D01*
D02*
G37*
G36*
X274601Y1227950D02*
X272500D01*
Y1225850D01*
X271500D01*
Y1223600D01*
X273336D01*
Y1219100D01*
X267750D01*
Y1220850D01*
Y1225850D01*
X268000D01*
Y1230100D01*
X269750D01*
Y1235950D01*
X274601D01*
Y1227950D01*
D02*
G37*
G36*
X216500Y1219950D02*
X216500Y1217850D01*
X212250D01*
Y1221350D01*
X216500D01*
Y1219950D01*
D02*
G37*
G36*
X522750Y1224350D02*
X523250D01*
X527750Y1219850D01*
Y1215350D01*
X518250D01*
Y1224350D01*
X518250D01*
Y1226763D01*
X522750D01*
Y1224350D01*
D02*
G37*
G36*
X419250Y1237600D02*
Y1232350D01*
X415000D01*
X410988Y1228338D01*
Y1223350D01*
X411199Y1223139D01*
X411410Y1222928D01*
X411638Y1222377D01*
Y1221780D01*
X411410Y1221229D01*
X411199Y1221018D01*
X409431Y1219250D01*
X411199Y1217482D01*
X411410Y1217271D01*
X411638Y1216720D01*
Y1216123D01*
X411410Y1215572D01*
X411199Y1215361D01*
X410988Y1215150D01*
X410437Y1214921D01*
X409840D01*
X409289Y1215150D01*
X409078Y1215361D01*
X406602Y1217837D01*
X406602Y1217837D01*
X406426Y1218012D01*
X406249Y1218189D01*
X406038Y1218400D01*
X406038Y1218400D01*
X405897Y1218542D01*
X405706Y1219001D01*
Y1219144D01*
X402500Y1222350D01*
X409375Y1229225D01*
X402625Y1235975D01*
X405880Y1239230D01*
X413970D01*
X417620Y1239230D01*
X419250Y1237600D01*
D02*
G37*
G36*
X482786Y1214850D02*
X481036D01*
Y1219350D01*
X482786D01*
Y1214850D01*
D02*
G37*
G36*
X381001Y1213991D02*
X376500D01*
Y1215741D01*
X381001D01*
Y1213991D01*
D02*
G37*
G36*
X139837Y1213950D02*
X138087D01*
Y1218450D01*
X139837D01*
Y1213950D01*
D02*
G37*
G36*
X182837Y1213700D02*
X181087D01*
Y1218200D01*
X182837D01*
Y1213700D01*
D02*
G37*
G36*
X398536Y1213264D02*
X396786D01*
Y1217764D01*
X398536D01*
Y1213264D01*
D02*
G37*
G36*
X393000Y1213100D02*
X391250D01*
Y1213978D01*
X387011D01*
Y1215728D01*
X391250D01*
Y1217850D01*
X393000D01*
Y1213100D01*
D02*
G37*
G36*
X449520Y1216100D02*
X450600D01*
Y1209260D01*
X452090D01*
X457250Y1204100D01*
Y1201350D01*
X456500D01*
X453000Y1204850D01*
X438750D01*
Y1208350D01*
X436750D01*
Y1212600D01*
X436750D01*
Y1214314D01*
X441250D01*
Y1212600D01*
X444750D01*
Y1216100D01*
X445020D01*
Y1217778D01*
X449520D01*
Y1216100D01*
D02*
G37*
G36*
X422597Y1211564D02*
X421000D01*
Y1208350D01*
X423420Y1205930D01*
X427290D01*
Y1207140D01*
X429410Y1209260D01*
X430620D01*
Y1202600D01*
X430620D01*
X427290Y1199270D01*
X423670D01*
X422250Y1197850D01*
Y1195600D01*
X420250D01*
Y1196600D01*
X417580Y1199270D01*
X413970D01*
Y1200820D01*
X418500Y1205350D01*
Y1208060D01*
X417000Y1209560D01*
Y1211600D01*
X417500Y1212100D01*
X420500D01*
Y1212100D01*
X420846Y1211754D01*
Y1216064D01*
X422597D01*
Y1211564D01*
D02*
G37*
G36*
X273336Y1211350D02*
X271586D01*
Y1215850D01*
X273336D01*
Y1211350D01*
D02*
G37*
G36*
X268750Y1211350D02*
X264501D01*
Y1214100D01*
X268750D01*
Y1211350D01*
D02*
G37*
G36*
X280501Y1211350D02*
X277250D01*
X277250Y1214100D01*
X280500D01*
X280501Y1211350D01*
D02*
G37*
G36*
X317001Y1212100D02*
Y1209800D01*
X312501D01*
Y1214050D01*
X315051Y1214051D01*
X317001Y1212100D01*
D02*
G37*
G36*
X236750Y1209600D02*
X232250D01*
Y1215100D01*
X236750D01*
Y1209600D01*
D02*
G37*
G36*
X216500D02*
X211250D01*
Y1211950D01*
X216500D01*
X216500Y1209600D01*
D02*
G37*
G36*
X191001Y1208114D02*
X186501D01*
Y1209864D01*
X191001D01*
Y1208114D01*
D02*
G37*
G36*
X398501Y1205341D02*
X394001D01*
Y1207091D01*
X398501D01*
Y1205341D01*
D02*
G37*
G36*
X541616Y1205209D02*
X537116D01*
Y1206959D01*
X541616D01*
Y1205209D01*
D02*
G37*
G36*
X273336Y1204350D02*
X271586D01*
Y1208850D01*
X273336D01*
Y1204350D01*
D02*
G37*
G36*
X267750Y1204350D02*
X264501D01*
Y1206100D01*
X267750D01*
Y1204350D01*
D02*
G37*
G36*
X493890Y1214210D02*
Y1212590D01*
X495510D01*
X497125Y1210975D01*
X498740Y1212590D01*
X500550D01*
X501500Y1211640D01*
Y1208162D01*
X502248Y1207415D01*
X501500Y1206667D01*
Y1205350D01*
X500183D01*
X499066Y1204233D01*
X497948Y1205350D01*
X495680D01*
Y1205280D01*
X492399Y1201999D01*
X495024Y1199374D01*
X493786Y1198136D01*
X491161Y1200761D01*
X487770Y1197370D01*
X486430Y1197370D01*
X485180Y1198620D01*
Y1199870D01*
X492680Y1207370D01*
X493890D01*
Y1207740D01*
X495500Y1209350D01*
X493890Y1210960D01*
Y1212590D01*
X492260D01*
X490560Y1214290D01*
Y1215920D01*
X492180D01*
X493890Y1214210D01*
D02*
G37*
G36*
X254250Y1201686D02*
X249750D01*
Y1203436D01*
X254250D01*
Y1201686D01*
D02*
G37*
G36*
X264500Y1205350D02*
X264501Y1202561D01*
X260750Y1202561D01*
Y1201686D01*
X256250D01*
Y1203436D01*
X258500D01*
X258500Y1205350D01*
X264500Y1205350D01*
D02*
G37*
G36*
X247500Y1201686D02*
X243000D01*
Y1203436D01*
X247500D01*
Y1201686D01*
D02*
G37*
G36*
X533500Y1210600D02*
X533500Y1201100D01*
X517750Y1201100D01*
X517000Y1200350D01*
X510250D01*
Y1206600D01*
X516500D01*
Y1211350D01*
X518000Y1212850D01*
X531250Y1212850D01*
X533500Y1210600D01*
D02*
G37*
G36*
X306750Y1199350D02*
X302250D01*
Y1203950D01*
X306750D01*
Y1199350D01*
D02*
G37*
G36*
X158750Y1203700D02*
X160337D01*
Y1199200D01*
X158750D01*
Y1199100D01*
X149750D01*
Y1199200D01*
X148087D01*
Y1203700D01*
X149750D01*
Y1203850D01*
X158750D01*
Y1203700D01*
D02*
G37*
G36*
X457608Y1196710D02*
X457819Y1196499D01*
X458030Y1196288D01*
X458259Y1195736D01*
Y1195140D01*
X458030Y1194588D01*
X457819Y1194377D01*
X455000Y1191558D01*
Y1189014D01*
X446500Y1189014D01*
X446500Y1194850D01*
X454049Y1194850D01*
X455698Y1196499D01*
X455698D01*
X455909Y1196710D01*
X456460Y1196938D01*
X457057D01*
X457608Y1196710D01*
D02*
G37*
G36*
X496990Y1194464D02*
X492490D01*
Y1196214D01*
X496990D01*
Y1194464D01*
D02*
G37*
G36*
X474000Y1190264D02*
X469500D01*
Y1192014D01*
X474000D01*
Y1190264D01*
D02*
G37*
G36*
X444500Y1189764D02*
X440000D01*
Y1191514D01*
X444500D01*
Y1189764D01*
D02*
G37*
G36*
X464000Y1187350D02*
X462000D01*
Y1190350D01*
X464000D01*
Y1187350D01*
D02*
G37*
G36*
X458914Y1184600D02*
X457164D01*
Y1189100D01*
X458914D01*
Y1184600D01*
D02*
G37*
G36*
X424761Y1185350D02*
X429250D01*
Y1188464D01*
X433750D01*
Y1184100D01*
X431500D01*
Y1182850D01*
X428000Y1179350D01*
X423799D01*
Y1180814D01*
X422924D01*
Y1183064D01*
X420261D01*
Y1192728D01*
X424761D01*
Y1185350D01*
D02*
G37*
G36*
X222750Y1174100D02*
X203750D01*
Y1183100D01*
X222750D01*
Y1174100D01*
D02*
G37*
G36*
X428311Y1174028D02*
X423811D01*
Y1175778D01*
X428311D01*
Y1174028D01*
D02*
G37*
G36*
X113750Y1163436D02*
X109250D01*
Y1165186D01*
X113750D01*
Y1163436D01*
D02*
G37*
G36*
X222750Y1144600D02*
X203750D01*
Y1153600D01*
X222750D01*
Y1144600D01*
D02*
G37*
G36*
X175000Y1133850D02*
X169500D01*
Y1142100D01*
X175000D01*
Y1133850D01*
D02*
G37*
G36*
X268000Y1131600D02*
X262500D01*
Y1140100D01*
X268000D01*
Y1131600D01*
D02*
G37*
G36*
X374500Y1101350D02*
X355500D01*
Y1136850D01*
X374500D01*
Y1101350D01*
D02*
G37*
G36*
X415000Y1019400D02*
X398500D01*
Y1021900D01*
X415000D01*
Y1019400D01*
D02*
G37*
G36*
X367750D02*
X351250D01*
Y1021900D01*
X367750D01*
Y1019400D01*
D02*
G37*
G36*
X249500Y1007650D02*
X247750D01*
X247750Y1008650D01*
X249750Y1010650D01*
X252500Y1010650D01*
X249500Y1007650D01*
D02*
G37*
G36*
X389750Y1001900D02*
X375250D01*
Y1018900D01*
X389750D01*
Y1001900D01*
D02*
G37*
G36*
X415000Y998400D02*
X398500D01*
Y1000900D01*
X415000D01*
Y998400D01*
D02*
G37*
G36*
X367750D02*
X351250D01*
Y1000900D01*
X367750D01*
Y998400D01*
D02*
G37*
G36*
X123000Y984900D02*
X113500D01*
Y1002900D01*
X123000D01*
Y984900D01*
D02*
G37*
G36*
X104000D02*
X94500D01*
Y1002900D01*
X104000D01*
Y984900D01*
D02*
G37*
G36*
X246086Y984400D02*
X244336D01*
Y988900D01*
X246086D01*
Y984400D01*
D02*
G37*
G36*
X113336Y975650D02*
X111586D01*
Y980150D01*
X113336D01*
Y975650D01*
D02*
G37*
G36*
X159586Y973900D02*
X157836D01*
Y978400D01*
X159586D01*
Y973900D01*
D02*
G37*
G36*
X443500Y960400D02*
X408000D01*
Y979400D01*
X443500D01*
Y960400D01*
D02*
G37*
G36*
X209500Y958650D02*
X178500D01*
Y989900D01*
X209500D01*
Y958650D01*
D02*
G37*
G36*
X400261Y951528D02*
X395761D01*
Y953278D01*
X400261D01*
Y951528D01*
D02*
G37*
G36*
X415511Y948778D02*
X411011D01*
Y950528D01*
X415511D01*
Y948778D01*
D02*
G37*
G36*
X434010Y946700D02*
X429510D01*
Y948450D01*
X434010D01*
Y946700D01*
D02*
G37*
G36*
X390251Y951391D02*
X390250D01*
Y946150D01*
X391000Y945150D01*
X388500Y944921D01*
Y946650D01*
X386250Y948900D01*
Y951391D01*
X385750D01*
Y953141D01*
X390251D01*
Y951391D01*
D02*
G37*
G36*
X451547Y954150D02*
X460500D01*
Y946200D01*
X460510D01*
Y944450D01*
X456010D01*
Y946150D01*
X452250D01*
Y943650D01*
X449250D01*
Y946150D01*
Y954150D01*
X449796D01*
Y954177D01*
X451547D01*
Y954150D01*
D02*
G37*
G36*
X408000Y944141D02*
X403500D01*
Y945891D01*
X408000D01*
Y944141D01*
D02*
G37*
G36*
X255200Y942196D02*
X250700D01*
Y943946D01*
X255200D01*
Y942196D01*
D02*
G37*
G36*
X278750Y941986D02*
X274250D01*
Y943736D01*
X278750D01*
Y941986D01*
D02*
G37*
G36*
X270850Y941946D02*
X266350D01*
Y943696D01*
X270850D01*
Y941946D01*
D02*
G37*
G36*
X262650D02*
X258150D01*
Y943696D01*
X262650D01*
Y941946D01*
D02*
G37*
G36*
X447346Y941864D02*
X445597D01*
Y946364D01*
X447346D01*
Y941864D01*
D02*
G37*
G36*
X393913Y942447D02*
X390731Y939265D01*
X389493Y940502D01*
X392675Y943684D01*
X393913Y942447D01*
D02*
G37*
G36*
X369250Y938900D02*
X350750D01*
Y974400D01*
X369250D01*
Y938900D01*
D02*
G37*
G36*
X280501Y936250D02*
X277750Y936150D01*
Y939400D01*
X280501D01*
Y936250D01*
D02*
G37*
G36*
X275251Y936150D02*
X272500Y936250D01*
X269750Y936150D01*
Y939400D01*
X275251D01*
Y936150D01*
D02*
G37*
G36*
X267251D02*
X264501Y936250D01*
X261750Y936150D01*
Y939400D01*
X267251D01*
Y936150D01*
D02*
G37*
G36*
X259251D02*
X256500Y936250D01*
X253750Y936150D01*
Y939400D01*
X259251D01*
Y936150D01*
D02*
G37*
G36*
X241000Y938400D02*
X241000Y935941D01*
X232500Y936250D01*
X229750Y936150D01*
Y939400D01*
X232500D01*
Y941150D01*
X238250D01*
X241000Y938400D01*
D02*
G37*
G36*
X409047Y933564D02*
X407296D01*
Y938064D01*
X409047D01*
Y933564D01*
D02*
G37*
G36*
X309001Y934100D02*
X305000D01*
Y931750D01*
X302376Y931750D01*
Y936250D01*
X304501D01*
Y938350D01*
X309001D01*
Y934100D01*
D02*
G37*
G36*
X183087Y927500D02*
X181337D01*
Y932000D01*
X183087D01*
Y927500D01*
D02*
G37*
G36*
X417500Y943400D02*
X424250D01*
Y940900D01*
X426500Y938650D01*
X438750D01*
Y938677D01*
X443500D01*
Y938650D01*
X446000D01*
X448500Y936150D01*
X451250D01*
X452500Y937400D01*
X455000D01*
X457000Y935400D01*
Y929228D01*
X457010D01*
Y927478D01*
X452510D01*
Y929150D01*
X450750D01*
X448500Y926900D01*
X446500D01*
X443250Y923650D01*
X440500D01*
X440000Y923150D01*
X440000Y919650D01*
Y917650D01*
X438500D01*
Y917614D01*
X434290D01*
Y919650D01*
X427250D01*
Y922150D01*
X435250D01*
Y924900D01*
X430000Y930150D01*
X423250D01*
X422250Y931150D01*
Y933650D01*
X416500D01*
Y942650D01*
X414250Y944900D01*
Y945650D01*
X415250Y945650D01*
X417500Y943400D01*
D02*
G37*
G36*
X301146Y928814D02*
X305000D01*
Y927064D01*
X300500D01*
Y927098D01*
X298153D01*
X297001Y928250D01*
X298146Y929396D01*
X300564D01*
X301146Y928814D01*
D02*
G37*
G36*
X210037Y918500D02*
X208286D01*
Y923000D01*
X210037D01*
Y918500D01*
D02*
G37*
G36*
X216500Y918150D02*
X214000D01*
Y922400D01*
X216500D01*
Y918150D01*
D02*
G37*
G36*
X314650Y923750D02*
X312475D01*
Y920226D01*
X309001D01*
Y918100D01*
X304501D01*
Y920226D01*
X302401D01*
Y924726D01*
X310350D01*
Y928250D01*
X310400D01*
Y932751D01*
X314650D01*
Y923750D01*
D02*
G37*
G36*
X394250Y917400D02*
X389750D01*
Y919150D01*
X394250D01*
Y917400D01*
D02*
G37*
G36*
X453500Y915713D02*
X449000D01*
Y917463D01*
X453500D01*
Y915713D01*
D02*
G37*
G36*
X140836Y915400D02*
X125750D01*
Y919900D01*
X140836D01*
Y915400D01*
D02*
G37*
G36*
X314650Y912251D02*
X310400D01*
Y916751D01*
X314650D01*
Y912251D01*
D02*
G37*
G36*
X210086Y910900D02*
X208336D01*
Y915400D01*
X210086D01*
Y910900D01*
D02*
G37*
G36*
X496141Y921400D02*
X496250D01*
Y915150D01*
X491500Y910400D01*
X489500Y910400D01*
X488750Y911150D01*
X488750Y912900D01*
X491500Y915650D01*
Y921400D01*
X491641D01*
Y923064D01*
X496141D01*
Y921400D01*
D02*
G37*
G36*
X477496Y944656D02*
X477496Y944656D01*
X477585Y944648D01*
X477594Y944647D01*
X477688Y944618D01*
X477775Y944572D01*
X477817Y944537D01*
X477851Y944509D01*
X477851Y944509D01*
X487886Y934474D01*
X487949Y934398D01*
X487995Y934311D01*
X488002Y934289D01*
X488024Y934217D01*
X488029Y934168D01*
X488033Y934119D01*
X488033Y934119D01*
X488033Y874431D01*
X488024Y874333D01*
X488002Y874261D01*
X487995Y874239D01*
X487949Y874152D01*
X487886Y874076D01*
X487886Y874076D01*
X485250Y871440D01*
Y865400D01*
X483500D01*
Y862400D01*
X482346D01*
Y859114D01*
X480714D01*
X480000Y858400D01*
X475173D01*
Y855972D01*
X475163Y855874D01*
X475135Y855780D01*
X475088Y855693D01*
X475026Y855617D01*
X474949Y855555D01*
X474863Y855508D01*
X474768Y855480D01*
X474670Y855470D01*
X467750D01*
Y843537D01*
X469886Y841400D01*
Y836900D01*
X468190D01*
Y836900D01*
X470000D01*
Y831900D01*
X469500D01*
Y832400D01*
X467300D01*
Y829814D01*
X462800D01*
Y834650D01*
X464000D01*
Y836900D01*
X464250D01*
X464250Y843150D01*
X463500D01*
Y843150D01*
X458000D01*
Y855650D01*
X459374D01*
X459338Y855693D01*
X459292Y855780D01*
X459263Y855874D01*
X459254Y855972D01*
Y861222D01*
X459263Y861320D01*
X459292Y861414D01*
X459338Y861501D01*
X459401Y861578D01*
X459477Y861640D01*
X459564Y861686D01*
X459658Y861715D01*
X459756Y861725D01*
X465325D01*
X465772Y862172D01*
X465752Y862188D01*
X465751Y862188D01*
X455520Y872420D01*
X449250Y866150D01*
X448410Y866150D01*
X453886Y860674D01*
X453886Y860674D01*
X453914Y860640D01*
X453949Y860598D01*
X453995Y860511D01*
X454024Y860417D01*
X454025Y860408D01*
X454033Y860319D01*
X454033Y860319D01*
Y857650D01*
X454024Y857552D01*
X453995Y857458D01*
X453949Y857371D01*
X453886Y857295D01*
X453810Y857232D01*
X453723Y857186D01*
X453629Y857157D01*
X453531Y857148D01*
X414750D01*
X414652Y857157D01*
X414558Y857186D01*
X414471Y857232D01*
X414395Y857295D01*
X414332Y857371D01*
X414286Y857458D01*
X414257Y857552D01*
X414248Y857650D01*
Y859262D01*
X414257Y859361D01*
X414279Y859433D01*
X414286Y859455D01*
X414332Y859542D01*
X414395Y859618D01*
X414395Y859618D01*
X424529Y869752D01*
Y879074D01*
X424538Y879172D01*
X424567Y879266D01*
X424613Y879353D01*
X424676Y879429D01*
X424752Y879492D01*
X424839Y879538D01*
X424933Y879567D01*
X425031Y879577D01*
X431244Y879576D01*
X431000Y879821D01*
Y881114D01*
X429347D01*
Y885614D01*
X431000D01*
Y887650D01*
X424500Y887650D01*
Y895463D01*
X424511D01*
Y908400D01*
X429029D01*
Y916294D01*
X429038Y916392D01*
X429067Y916486D01*
X429113Y916573D01*
X429176Y916649D01*
X429252Y916711D01*
X429339Y916758D01*
X429433Y916786D01*
X429531Y916796D01*
X441479Y916796D01*
X441577Y916786D01*
X441650Y916764D01*
X441672Y916758D01*
X441759Y916711D01*
X441793Y916683D01*
X441835Y916649D01*
X441835Y916649D01*
X448444Y910039D01*
X453782Y910039D01*
X457997Y914255D01*
X457998Y927650D01*
X457998Y927650D01*
X458006Y927739D01*
X458007Y927748D01*
X458036Y927842D01*
X458082Y927929D01*
X458117Y927971D01*
X458145Y928006D01*
X458145Y928006D01*
X461248Y931108D01*
X461248Y944154D01*
X461257Y944252D01*
X461286Y944346D01*
X461332Y944433D01*
X461395Y944509D01*
X461471Y944572D01*
X461558Y944618D01*
X461652Y944647D01*
X461750Y944656D01*
X477496Y944656D01*
D02*
G37*
G36*
X175750Y906250D02*
X172250D01*
Y911400D01*
X175750D01*
Y906250D01*
D02*
G37*
G36*
X209836Y906400D02*
X216500D01*
X216500Y904250D01*
X204250D01*
Y906400D01*
X208086D01*
Y908900D01*
X209836D01*
Y906400D01*
D02*
G37*
G36*
X504716Y920150D02*
X508750D01*
Y915150D01*
X515750Y915150D01*
X515750Y904150D01*
X510250Y904150D01*
Y904150D01*
X506250D01*
Y909900D01*
X504000D01*
X500500Y906400D01*
Y895150D01*
X496000D01*
Y903150D01*
X495500Y903650D01*
Y905900D01*
X496000Y906400D01*
Y906650D01*
X496250D01*
X504000Y914400D01*
Y916571D01*
X502966D01*
Y921070D01*
X504716D01*
Y920150D01*
D02*
G37*
G36*
X511836Y897650D02*
X510086D01*
Y902150D01*
X511836D01*
Y897650D01*
D02*
G37*
G36*
X393710Y897500D02*
X389210D01*
Y899250D01*
X393710D01*
Y897500D01*
D02*
G37*
G36*
X493250Y905650D02*
X493250Y902400D01*
X493750D01*
Y895400D01*
X489250D01*
Y899150D01*
X489250D01*
Y903900D01*
X488750Y904400D01*
Y906400D01*
X489750Y907400D01*
X491500D01*
X493250Y905650D01*
D02*
G37*
G36*
X216500Y893900D02*
X212000D01*
Y898400D01*
X216500D01*
Y893900D01*
D02*
G37*
G36*
X210086Y891650D02*
X208336D01*
Y896150D01*
X210086D01*
Y891650D01*
D02*
G37*
G36*
X216500Y882400D02*
X216500D01*
X217575Y881325D01*
X215325Y879075D01*
X210086Y884314D01*
Y883150D01*
X208336D01*
Y887650D01*
X210086D01*
Y885400D01*
X211793Y887107D01*
X212001Y886900D01*
Y888900D01*
X216500D01*
Y882400D01*
D02*
G37*
G36*
X385500Y884036D02*
X381000D01*
Y885786D01*
X385500D01*
Y884036D01*
D02*
G37*
G36*
X198501Y892650D02*
X199000D01*
Y890900D01*
X199001D01*
Y881414D01*
X194501D01*
Y883650D01*
X194000D01*
Y892650D01*
X194001D01*
Y894914D01*
X198501D01*
Y892650D01*
D02*
G37*
G36*
X374996Y880414D02*
X373246D01*
Y884914D01*
X374996D01*
Y880414D01*
D02*
G37*
G36*
X402751Y917400D02*
X404250D01*
X405750Y918900D01*
X410640Y918820D01*
Y915490D01*
X417480Y908650D01*
X421475Y908650D01*
X421475Y903835D01*
X421501D01*
Y891874D01*
X421475D01*
X413979Y891874D01*
X411503Y889398D01*
Y887150D01*
X414378Y884275D01*
X416725D01*
X416725Y880025D01*
X414451D01*
Y879900D01*
X408250D01*
X403250Y884900D01*
X399300Y888850D01*
X397000D01*
Y894900D01*
X397010D01*
Y896450D01*
X398790D01*
X401500Y899160D01*
Y900400D01*
X402740D01*
X405820Y903480D01*
Y908830D01*
X401250Y913400D01*
X398250D01*
Y919228D01*
X402751D01*
Y917400D01*
D02*
G37*
G36*
X325500Y879150D02*
X312500D01*
Y882400D01*
X315750D01*
Y886150D01*
X312500D01*
Y890150D01*
X315750D01*
Y893650D01*
X312500D01*
Y899150D01*
X315750D01*
Y901650D01*
X312500D01*
Y907150D01*
X315750D01*
Y909650D01*
X325500D01*
Y879150D01*
D02*
G37*
G36*
X119486Y878000D02*
X117736D01*
Y882500D01*
X119486D01*
Y878000D01*
D02*
G37*
G36*
X510709Y877150D02*
X509557Y875997D01*
X507153D01*
X506000Y877150D01*
X507145Y878296D01*
X509564D01*
X510709Y877150D01*
D02*
G37*
G36*
X515216Y874900D02*
X513466D01*
Y879400D01*
X515216D01*
Y874900D01*
D02*
G37*
G36*
X266601Y867750D02*
X262500D01*
Y864564D01*
X258000D01*
Y867750D01*
X254750D01*
Y860900D01*
X253750D01*
Y856400D01*
Y854736D01*
X249250D01*
Y856400D01*
X248000D01*
Y860900D01*
X243750D01*
Y867150D01*
X246351D01*
Y872250D01*
X250601D01*
Y869200D01*
X254351D01*
Y872250D01*
X258601D01*
Y870000D01*
X262351D01*
Y872250D01*
X266601D01*
Y867750D01*
D02*
G37*
G36*
X515404Y868650D02*
X519500D01*
Y866900D01*
X518250D01*
X517000Y868150D01*
X507930D01*
X508356Y867725D01*
Y865364D01*
X511424D01*
Y860864D01*
X508964D01*
X501750Y853650D01*
X499750Y853650D01*
X498500Y854900D01*
Y856150D01*
X506000Y863650D01*
Y865364D01*
X506058D01*
Y867717D01*
X506491Y868150D01*
X505750D01*
X505000Y868900D01*
Y870400D01*
X507500Y872900D01*
X511500D01*
Y872990D01*
X515404D01*
Y868650D01*
D02*
G37*
G36*
X119486Y866000D02*
X117736D01*
Y870500D01*
X119486D01*
Y866000D01*
D02*
G37*
G36*
X393501Y864791D02*
X389000D01*
Y866541D01*
X393501D01*
Y864791D01*
D02*
G37*
G36*
X400761Y864704D02*
X396261D01*
Y866454D01*
X400761D01*
Y864704D01*
D02*
G37*
G36*
X490036Y869900D02*
X494000D01*
X497220Y866680D01*
Y863621D01*
X492480Y858880D01*
X490000D01*
Y865400D01*
X488286D01*
Y869900D01*
X490036D01*
Y869900D01*
D02*
G37*
G36*
X274601Y864250D02*
X272500D01*
Y862150D01*
X271500D01*
Y859900D01*
X273336D01*
Y855400D01*
X267750D01*
Y857150D01*
Y862150D01*
X268000D01*
Y866400D01*
X269750D01*
Y872250D01*
X274601D01*
Y864250D01*
D02*
G37*
G36*
X216500Y856250D02*
X216500Y854150D01*
X212250D01*
Y857650D01*
X216500D01*
Y856250D01*
D02*
G37*
G36*
X522750Y860650D02*
X523250D01*
X527750Y856150D01*
Y851650D01*
X518250D01*
Y860650D01*
X518250D01*
Y863063D01*
X522750D01*
Y860650D01*
D02*
G37*
G36*
X419250Y873900D02*
Y868650D01*
X415000D01*
X410988Y864638D01*
Y859650D01*
X411199Y859439D01*
X411410Y859228D01*
X411638Y858677D01*
Y858080D01*
X411410Y857529D01*
X411199Y857318D01*
X409431Y855550D01*
X411199Y853782D01*
X411410Y853571D01*
X411638Y853020D01*
Y852423D01*
X411410Y851872D01*
X411199Y851661D01*
X410988Y851450D01*
X410437Y851221D01*
X409840D01*
X409289Y851450D01*
X409078Y851661D01*
X406602Y854136D01*
X406602Y854137D01*
X406426Y854312D01*
X406249Y854489D01*
X406038Y854700D01*
X406038Y854700D01*
X405897Y854842D01*
X405706Y855301D01*
Y855444D01*
X402500Y858650D01*
X409375Y865525D01*
X402625Y872275D01*
X405880Y875530D01*
X413970D01*
X417620Y875530D01*
X419250Y873900D01*
D02*
G37*
G36*
X482786Y851150D02*
X481036D01*
Y855650D01*
X482786D01*
Y851150D01*
D02*
G37*
G36*
X381001Y850291D02*
X376500D01*
Y852041D01*
X381001D01*
Y850291D01*
D02*
G37*
G36*
X139837Y850250D02*
X138087D01*
Y854750D01*
X139837D01*
Y850250D01*
D02*
G37*
G36*
X182837Y850000D02*
X181087D01*
Y854500D01*
X182837D01*
Y850000D01*
D02*
G37*
G36*
X398536Y849564D02*
X396786D01*
Y854064D01*
X398536D01*
Y849564D01*
D02*
G37*
G36*
X393000Y849400D02*
X391250D01*
Y850278D01*
X387011D01*
Y852028D01*
X391250D01*
Y854150D01*
X393000D01*
Y849400D01*
D02*
G37*
G36*
X449520Y852400D02*
X450600D01*
Y845560D01*
X452090D01*
X457250Y840400D01*
Y837650D01*
X456500D01*
X453000Y841150D01*
X438750D01*
Y844650D01*
X436750D01*
Y848900D01*
X436750D01*
Y850614D01*
X441250D01*
Y848900D01*
X444750D01*
Y852400D01*
X445020D01*
Y854078D01*
X449520D01*
Y852400D01*
D02*
G37*
G36*
X422597Y847864D02*
X421000D01*
Y844650D01*
X423420Y842230D01*
X427290D01*
Y843440D01*
X429410Y845560D01*
X430620D01*
Y838900D01*
X430620D01*
X427290Y835570D01*
X423670D01*
X422250Y834150D01*
Y831900D01*
X420250D01*
Y832900D01*
X417580Y835570D01*
X413970D01*
Y837120D01*
X418500Y841650D01*
Y844360D01*
X417000Y845860D01*
Y847900D01*
X417500Y848400D01*
X420500D01*
Y848400D01*
X420846Y848054D01*
Y852364D01*
X422597D01*
Y847864D01*
D02*
G37*
G36*
X273336Y847650D02*
X271586D01*
Y852150D01*
X273336D01*
Y847650D01*
D02*
G37*
G36*
X268750Y847650D02*
X264501D01*
Y850400D01*
X268750D01*
Y847650D01*
D02*
G37*
G36*
X280501Y847650D02*
X277250D01*
X277250Y850400D01*
X280500D01*
X280501Y847650D01*
D02*
G37*
G36*
X317001Y848400D02*
Y846100D01*
X312501D01*
Y850350D01*
X315051Y850350D01*
X317001Y848400D01*
D02*
G37*
G36*
X236750Y845900D02*
X232250D01*
Y851400D01*
X236750D01*
Y845900D01*
D02*
G37*
G36*
X216500D02*
X211250D01*
Y848250D01*
X216500D01*
X216500Y845900D01*
D02*
G37*
G36*
X191001Y844414D02*
X186501D01*
Y846164D01*
X191001D01*
Y844414D01*
D02*
G37*
G36*
X398501Y841641D02*
X394001D01*
Y843391D01*
X398501D01*
Y841641D01*
D02*
G37*
G36*
X541616Y841509D02*
X537116D01*
Y843259D01*
X541616D01*
Y841509D01*
D02*
G37*
G36*
X273336Y840650D02*
X271586D01*
Y845150D01*
X273336D01*
Y840650D01*
D02*
G37*
G36*
X267750Y840650D02*
X264501D01*
Y842400D01*
X267750D01*
Y840650D01*
D02*
G37*
G36*
X493890Y850510D02*
Y848890D01*
X495510D01*
X497125Y847275D01*
X498740Y848890D01*
X500550D01*
X501500Y847940D01*
Y844462D01*
X502248Y843715D01*
X501500Y842967D01*
Y841650D01*
X500183D01*
X499066Y840533D01*
X497948Y841650D01*
X495680D01*
Y841580D01*
X492399Y838299D01*
X495024Y835674D01*
X493786Y834436D01*
X491161Y837061D01*
X487770Y833670D01*
X486430Y833670D01*
X485180Y834920D01*
Y836170D01*
X492680Y843670D01*
X493890D01*
Y844041D01*
X495500Y845650D01*
X493890Y847260D01*
Y848890D01*
X492260D01*
X490560Y850590D01*
Y852220D01*
X492180D01*
X493890Y850510D01*
D02*
G37*
G36*
X254250Y837986D02*
X249750D01*
Y839736D01*
X254250D01*
Y837986D01*
D02*
G37*
G36*
X264500Y841650D02*
X264501Y838861D01*
X260750Y838861D01*
Y837986D01*
X256250D01*
Y839736D01*
X258500D01*
X258500Y841650D01*
X264500Y841650D01*
D02*
G37*
G36*
X247500Y837986D02*
X243000D01*
Y839736D01*
X247500D01*
Y837986D01*
D02*
G37*
G36*
X533500Y846900D02*
X533500Y837400D01*
X517750Y837400D01*
X517000Y836650D01*
X510250D01*
Y842900D01*
X516500D01*
Y847650D01*
X518000Y849150D01*
X531250Y849150D01*
X533500Y846900D01*
D02*
G37*
G36*
X306750Y835650D02*
X302250D01*
Y840250D01*
X306750D01*
Y835650D01*
D02*
G37*
G36*
X158750Y840000D02*
X160337D01*
Y835500D01*
X158750D01*
Y835400D01*
X149750D01*
Y835500D01*
X148087D01*
Y840000D01*
X149750D01*
Y840150D01*
X158750D01*
Y840000D01*
D02*
G37*
G36*
X457608Y833010D02*
X457819Y832799D01*
X458030Y832588D01*
X458259Y832036D01*
Y831440D01*
X458030Y830888D01*
X457819Y830677D01*
X455000Y827858D01*
Y825314D01*
X446500Y825314D01*
X446500Y831150D01*
X454049Y831150D01*
X455698Y832799D01*
X455698D01*
X455909Y833010D01*
X456460Y833238D01*
X457057D01*
X457608Y833010D01*
D02*
G37*
G36*
X496990Y830764D02*
X492490D01*
Y832514D01*
X496990D01*
Y830764D01*
D02*
G37*
G36*
X474000Y826564D02*
X469500D01*
Y828314D01*
X474000D01*
Y826564D01*
D02*
G37*
G36*
X444500Y826064D02*
X440000D01*
Y827814D01*
X444500D01*
Y826064D01*
D02*
G37*
G36*
X464000Y823650D02*
X462000D01*
Y826650D01*
X464000D01*
Y823650D01*
D02*
G37*
G36*
X458914Y820900D02*
X457164D01*
Y825400D01*
X458914D01*
Y820900D01*
D02*
G37*
G36*
X424761Y821650D02*
X429250D01*
Y824764D01*
X433750D01*
Y820400D01*
X431500D01*
Y819150D01*
X428000Y815650D01*
X423799D01*
Y817114D01*
X422924D01*
Y819364D01*
X420261D01*
Y829028D01*
X424761D01*
Y821650D01*
D02*
G37*
G36*
X222750Y810400D02*
X203750D01*
Y819400D01*
X222750D01*
Y810400D01*
D02*
G37*
G36*
X428311Y810328D02*
X423811D01*
Y812078D01*
X428311D01*
Y810328D01*
D02*
G37*
G36*
X113750Y799736D02*
X109250D01*
Y801486D01*
X113750D01*
Y799736D01*
D02*
G37*
G36*
X222750Y780900D02*
X203750D01*
Y789900D01*
X222750D01*
Y780900D01*
D02*
G37*
G36*
X175000Y770150D02*
X169500D01*
Y778400D01*
X175000D01*
Y770150D01*
D02*
G37*
G36*
X268000Y767900D02*
X262500D01*
Y776400D01*
X268000D01*
Y767900D01*
D02*
G37*
G36*
X374500Y737650D02*
X355500D01*
Y773150D01*
X374500D01*
Y737650D01*
D02*
G37*
G36*
X415000Y655700D02*
X398500D01*
Y658200D01*
X415000D01*
Y655700D01*
D02*
G37*
G36*
X367750D02*
X351250D01*
Y658200D01*
X367750D01*
Y655700D01*
D02*
G37*
G36*
X249500Y643950D02*
X247750D01*
X247750Y644950D01*
X249750Y646950D01*
X252500Y646950D01*
X249500Y643950D01*
D02*
G37*
G36*
X389750Y638200D02*
X375250D01*
Y655200D01*
X389750D01*
Y638200D01*
D02*
G37*
G36*
X415000Y634700D02*
X398500D01*
Y637200D01*
X415000D01*
Y634700D01*
D02*
G37*
G36*
X367750D02*
X351250D01*
Y637200D01*
X367750D01*
Y634700D01*
D02*
G37*
G36*
X123000Y621200D02*
X113500D01*
Y639200D01*
X123000D01*
Y621200D01*
D02*
G37*
G36*
X104000D02*
X94500D01*
Y639200D01*
X104000D01*
Y621200D01*
D02*
G37*
G36*
X246086Y620700D02*
X244336D01*
Y625200D01*
X246086D01*
Y620700D01*
D02*
G37*
G36*
X113336Y611950D02*
X111586D01*
Y616450D01*
X113336D01*
Y611950D01*
D02*
G37*
G36*
X159586Y610200D02*
X157836D01*
Y614700D01*
X159586D01*
Y610200D01*
D02*
G37*
G36*
X443500Y596700D02*
X408000D01*
Y615700D01*
X443500D01*
Y596700D01*
D02*
G37*
G36*
X209500Y594950D02*
X178500D01*
Y626200D01*
X209500D01*
Y594950D01*
D02*
G37*
G36*
X400261Y587828D02*
X395761D01*
Y589578D01*
X400261D01*
Y587828D01*
D02*
G37*
G36*
X415511Y585078D02*
X411011D01*
Y586828D01*
X415511D01*
Y585078D01*
D02*
G37*
G36*
X434010Y583000D02*
X429510D01*
Y584750D01*
X434010D01*
Y583000D01*
D02*
G37*
G36*
X390251Y587691D02*
X390250D01*
Y582450D01*
X391000Y581450D01*
X388500Y581221D01*
Y582950D01*
X386250Y585200D01*
Y587691D01*
X385750D01*
Y589441D01*
X390251D01*
Y587691D01*
D02*
G37*
G36*
X451547Y590450D02*
X460500D01*
Y582500D01*
X460510D01*
Y580750D01*
X456010D01*
Y582450D01*
X452250D01*
Y579950D01*
X449250D01*
Y582450D01*
Y590450D01*
X449796D01*
Y590477D01*
X451547D01*
Y590450D01*
D02*
G37*
G36*
X408000Y580441D02*
X403500D01*
Y582191D01*
X408000D01*
Y580441D01*
D02*
G37*
G36*
X255200Y578496D02*
X250700D01*
Y580246D01*
X255200D01*
Y578496D01*
D02*
G37*
G36*
X278750Y578286D02*
X274250D01*
Y580036D01*
X278750D01*
Y578286D01*
D02*
G37*
G36*
X270850Y578246D02*
X266350D01*
Y579996D01*
X270850D01*
Y578246D01*
D02*
G37*
G36*
X262650D02*
X258150D01*
Y579996D01*
X262650D01*
Y578246D01*
D02*
G37*
G36*
X447346Y578164D02*
X445597D01*
Y582664D01*
X447346D01*
Y578164D01*
D02*
G37*
G36*
X393913Y578747D02*
X390731Y575565D01*
X389493Y576802D01*
X392675Y579984D01*
X393913Y578747D01*
D02*
G37*
G36*
X369250Y575200D02*
X350750D01*
Y610700D01*
X369250D01*
Y575200D01*
D02*
G37*
G36*
X280501Y572550D02*
X277750Y572450D01*
Y575700D01*
X280501D01*
Y572550D01*
D02*
G37*
G36*
X275251Y572450D02*
X272500Y572550D01*
X269750Y572450D01*
Y575700D01*
X275251D01*
Y572450D01*
D02*
G37*
G36*
X267251D02*
X264501Y572550D01*
X261750Y572450D01*
Y575700D01*
X267251D01*
Y572450D01*
D02*
G37*
G36*
X259251D02*
X256500Y572550D01*
X253750Y572450D01*
Y575700D01*
X259251D01*
Y572450D01*
D02*
G37*
G36*
X241000Y574700D02*
X241000Y572241D01*
X232500Y572550D01*
X229750Y572450D01*
Y575700D01*
X232500D01*
Y577450D01*
X238250D01*
X241000Y574700D01*
D02*
G37*
G36*
X409047Y569864D02*
X407296D01*
Y574364D01*
X409047D01*
Y569864D01*
D02*
G37*
G36*
X309001Y570400D02*
X305000D01*
Y568050D01*
X302376Y568050D01*
Y572550D01*
X304501D01*
Y574650D01*
X309001D01*
Y570400D01*
D02*
G37*
G36*
X183087Y563800D02*
X181337D01*
Y568300D01*
X183087D01*
Y563800D01*
D02*
G37*
G36*
X417500Y579700D02*
X424250D01*
Y577200D01*
X426500Y574950D01*
X438750D01*
Y574977D01*
X443500D01*
Y574950D01*
X446000D01*
X448500Y572450D01*
X451250D01*
X452500Y573700D01*
X455000D01*
X457000Y571700D01*
Y565528D01*
X457010D01*
Y563778D01*
X452510D01*
Y565450D01*
X450750D01*
X448500Y563200D01*
X446500D01*
X443250Y559950D01*
X440500D01*
X440000Y559450D01*
X440000Y555950D01*
Y553950D01*
X438500D01*
Y553914D01*
X434290D01*
Y555950D01*
X427250D01*
Y558450D01*
X435250D01*
Y561200D01*
X430000Y566450D01*
X423250D01*
X422250Y567450D01*
Y569950D01*
X416500D01*
Y578950D01*
X414250Y581200D01*
Y581950D01*
X415250Y581950D01*
X417500Y579700D01*
D02*
G37*
G36*
X301146Y565114D02*
X305000D01*
Y563364D01*
X300500D01*
Y563398D01*
X298153D01*
X297001Y564550D01*
X298146Y565696D01*
X300564D01*
X301146Y565114D01*
D02*
G37*
G36*
X210037Y554800D02*
X208286D01*
Y559300D01*
X210037D01*
Y554800D01*
D02*
G37*
G36*
X216500Y554450D02*
X214000D01*
Y558700D01*
X216500D01*
Y554450D01*
D02*
G37*
G36*
X314650Y560050D02*
X312475D01*
Y556526D01*
X309001D01*
Y554400D01*
X304501D01*
Y556526D01*
X302401D01*
Y561026D01*
X310350D01*
Y564550D01*
X310400D01*
Y569051D01*
X314650D01*
Y560050D01*
D02*
G37*
G36*
X394250Y553700D02*
X389750D01*
Y555450D01*
X394250D01*
Y553700D01*
D02*
G37*
G36*
X453500Y552013D02*
X449000D01*
Y553763D01*
X453500D01*
Y552013D01*
D02*
G37*
G36*
X140836Y551700D02*
X125750D01*
Y556200D01*
X140836D01*
Y551700D01*
D02*
G37*
G36*
X314650Y548551D02*
X310400D01*
Y553051D01*
X314650D01*
Y548551D01*
D02*
G37*
G36*
X210086Y547200D02*
X208336D01*
Y551700D01*
X210086D01*
Y547200D01*
D02*
G37*
G36*
X496141Y557700D02*
X496250D01*
Y551450D01*
X491500Y546700D01*
X489500Y546700D01*
X488750Y547450D01*
X488750Y549200D01*
X491500Y551950D01*
Y557700D01*
X491641D01*
Y559364D01*
X496141D01*
Y557700D01*
D02*
G37*
G36*
X477496Y580956D02*
X477496Y580956D01*
X477585Y580947D01*
X477594Y580947D01*
X477688Y580918D01*
X477775Y580872D01*
X477817Y580837D01*
X477851Y580809D01*
X477851Y580809D01*
X487886Y570774D01*
X487949Y570698D01*
X487995Y570611D01*
X488002Y570589D01*
X488024Y570517D01*
X488029Y570468D01*
X488033Y570419D01*
X488033Y570419D01*
X488033Y510731D01*
X488024Y510633D01*
X488002Y510561D01*
X487995Y510539D01*
X487949Y510452D01*
X487886Y510376D01*
X487886Y510376D01*
X485250Y507739D01*
Y501700D01*
X483500D01*
Y498700D01*
X482346D01*
Y495414D01*
X480714D01*
X480000Y494700D01*
X475173D01*
Y492272D01*
X475163Y492174D01*
X475135Y492080D01*
X475088Y491993D01*
X475026Y491917D01*
X474949Y491855D01*
X474863Y491808D01*
X474768Y491780D01*
X474670Y491770D01*
X467750D01*
Y479836D01*
X469886Y477700D01*
Y473200D01*
X468190D01*
Y473200D01*
X470000D01*
Y468200D01*
X469500D01*
Y468700D01*
X467300D01*
Y466114D01*
X462800D01*
Y470950D01*
X464000D01*
Y473200D01*
X464250D01*
X464250Y479450D01*
X463500D01*
Y479450D01*
X458000D01*
Y491950D01*
X459374D01*
X459338Y491993D01*
X459292Y492080D01*
X459263Y492174D01*
X459254Y492272D01*
Y497522D01*
X459263Y497620D01*
X459292Y497715D01*
X459338Y497801D01*
X459401Y497878D01*
X459477Y497940D01*
X459564Y497986D01*
X459658Y498015D01*
X459756Y498025D01*
X465325D01*
X465772Y498472D01*
X465752Y498488D01*
X465751Y498489D01*
X455520Y508720D01*
X449250Y502450D01*
X448410Y502450D01*
X453886Y496974D01*
X453886Y496974D01*
X453914Y496940D01*
X453949Y496898D01*
X453995Y496811D01*
X454024Y496717D01*
X454025Y496708D01*
X454033Y496619D01*
X454033Y496619D01*
Y493950D01*
X454024Y493852D01*
X453995Y493758D01*
X453949Y493671D01*
X453886Y493595D01*
X453810Y493532D01*
X453723Y493486D01*
X453629Y493457D01*
X453531Y493448D01*
X414750D01*
X414652Y493457D01*
X414558Y493486D01*
X414471Y493532D01*
X414395Y493595D01*
X414332Y493671D01*
X414286Y493758D01*
X414257Y493852D01*
X414248Y493950D01*
Y495563D01*
X414257Y495661D01*
X414279Y495733D01*
X414286Y495755D01*
X414332Y495842D01*
X414395Y495918D01*
X414395Y495918D01*
X424529Y506052D01*
Y515374D01*
X424538Y515472D01*
X424567Y515566D01*
X424613Y515653D01*
X424676Y515729D01*
X424752Y515792D01*
X424839Y515838D01*
X424933Y515867D01*
X425031Y515877D01*
X431244Y515876D01*
X431000Y516121D01*
Y517414D01*
X429347D01*
Y521914D01*
X431000D01*
Y523950D01*
X424500Y523950D01*
Y531763D01*
X424511D01*
Y544700D01*
X429029D01*
Y552593D01*
X429038Y552692D01*
X429067Y552786D01*
X429113Y552873D01*
X429176Y552949D01*
X429252Y553011D01*
X429339Y553058D01*
X429433Y553086D01*
X429531Y553096D01*
X441479Y553096D01*
X441577Y553086D01*
X441650Y553064D01*
X441672Y553058D01*
X441759Y553011D01*
X441793Y552983D01*
X441835Y552949D01*
X441835Y552949D01*
X448444Y546339D01*
X453782Y546339D01*
X457997Y550555D01*
X457998Y563950D01*
X457998Y563950D01*
X458006Y564039D01*
X458007Y564048D01*
X458036Y564142D01*
X458082Y564229D01*
X458117Y564271D01*
X458145Y564305D01*
X458145Y564306D01*
X461248Y567408D01*
X461248Y580454D01*
X461257Y580552D01*
X461286Y580646D01*
X461332Y580733D01*
X461395Y580809D01*
X461471Y580872D01*
X461558Y580918D01*
X461652Y580947D01*
X461750Y580956D01*
X477496Y580956D01*
D02*
G37*
G36*
X175750Y542550D02*
X172250D01*
Y547700D01*
X175750D01*
Y542550D01*
D02*
G37*
G36*
X209836Y542700D02*
X216500D01*
X216500Y540550D01*
X204250D01*
Y542700D01*
X208086D01*
Y545200D01*
X209836D01*
Y542700D01*
D02*
G37*
G36*
X504716Y556450D02*
X508750D01*
Y551450D01*
X515750Y551450D01*
X515750Y540450D01*
X510250Y540450D01*
Y540450D01*
X506250D01*
Y546200D01*
X504000D01*
X500500Y542700D01*
Y531450D01*
X496000D01*
Y539450D01*
X495500Y539950D01*
Y542200D01*
X496000Y542700D01*
Y542950D01*
X496250D01*
X504000Y550700D01*
Y552870D01*
X502966D01*
Y557370D01*
X504716D01*
Y556450D01*
D02*
G37*
G36*
X511836Y533950D02*
X510086D01*
Y538450D01*
X511836D01*
Y533950D01*
D02*
G37*
G36*
X393710Y533800D02*
X389210D01*
Y535550D01*
X393710D01*
Y533800D01*
D02*
G37*
G36*
X493250Y541950D02*
X493250Y538700D01*
X493750D01*
Y531700D01*
X489250D01*
Y535450D01*
X489250D01*
Y540200D01*
X488750Y540700D01*
Y542700D01*
X489750Y543700D01*
X491500D01*
X493250Y541950D01*
D02*
G37*
G36*
X216500Y530200D02*
X212000D01*
Y534700D01*
X216500D01*
Y530200D01*
D02*
G37*
G36*
X210086Y527950D02*
X208336D01*
Y532450D01*
X210086D01*
Y527950D01*
D02*
G37*
G36*
X216500Y518700D02*
X216500D01*
X217575Y517625D01*
X215325Y515375D01*
X210086Y520614D01*
Y519450D01*
X208336D01*
Y523950D01*
X210086D01*
Y521700D01*
X211793Y523407D01*
X212001Y523200D01*
Y525200D01*
X216500D01*
Y518700D01*
D02*
G37*
G36*
X385500Y520336D02*
X381000D01*
Y522086D01*
X385500D01*
Y520336D01*
D02*
G37*
G36*
X198501Y528950D02*
X199000D01*
Y527200D01*
X199001D01*
Y517714D01*
X194501D01*
Y519950D01*
X194000D01*
Y528950D01*
X194001D01*
Y531214D01*
X198501D01*
Y528950D01*
D02*
G37*
G36*
X374996Y516714D02*
X373246D01*
Y521214D01*
X374996D01*
Y516714D01*
D02*
G37*
G36*
X402751Y553700D02*
X404250D01*
X405750Y555200D01*
X410640Y555120D01*
Y551790D01*
X417480Y544950D01*
X421475Y544950D01*
X421475Y540135D01*
X421501D01*
Y528174D01*
X421475D01*
X413979Y528174D01*
X411503Y525697D01*
Y523450D01*
X414378Y520575D01*
X416725D01*
X416725Y516325D01*
X414451D01*
Y516200D01*
X408250D01*
X403250Y521200D01*
X399300Y525150D01*
X397000D01*
Y531200D01*
X397010D01*
Y532750D01*
X398790D01*
X401500Y535460D01*
Y536700D01*
X402740D01*
X405820Y539780D01*
Y545130D01*
X401250Y549700D01*
X398250D01*
Y555528D01*
X402751D01*
Y553700D01*
D02*
G37*
G36*
X325500Y515450D02*
X312500D01*
Y518700D01*
X315750D01*
Y522450D01*
X312500D01*
Y526450D01*
X315750D01*
Y529950D01*
X312500D01*
Y535450D01*
X315750D01*
Y537950D01*
X312500D01*
Y543450D01*
X315750D01*
Y545950D01*
X325500D01*
Y515450D01*
D02*
G37*
G36*
X119486Y514300D02*
X117736D01*
Y518800D01*
X119486D01*
Y514300D01*
D02*
G37*
G36*
X510709Y513450D02*
X509557Y512297D01*
X507153D01*
X506000Y513450D01*
X507145Y514595D01*
X509564D01*
X510709Y513450D01*
D02*
G37*
G36*
X515216Y511200D02*
X513466D01*
Y515700D01*
X515216D01*
Y511200D01*
D02*
G37*
G36*
X266601Y504050D02*
X262500D01*
Y500864D01*
X258000D01*
Y504050D01*
X254750D01*
Y497200D01*
X253750D01*
Y492700D01*
Y491036D01*
X249250D01*
Y492700D01*
X248000D01*
Y497200D01*
X243750D01*
Y503450D01*
X246351D01*
Y508550D01*
X250601D01*
Y505500D01*
X254351D01*
Y508550D01*
X258601D01*
Y506300D01*
X262351D01*
Y508550D01*
X266601D01*
Y504050D01*
D02*
G37*
G36*
X515404Y504950D02*
X519500D01*
Y503200D01*
X518250D01*
X517000Y504450D01*
X507930D01*
X508356Y504025D01*
Y501664D01*
X511424D01*
Y497164D01*
X508964D01*
X501750Y489950D01*
X499750Y489950D01*
X498500Y491200D01*
Y492450D01*
X506000Y499950D01*
Y501664D01*
X506058D01*
Y504017D01*
X506491Y504450D01*
X505750D01*
X505000Y505200D01*
Y506700D01*
X507500Y509200D01*
X511500D01*
Y509290D01*
X515404D01*
Y504950D01*
D02*
G37*
G36*
X119486Y502300D02*
X117736D01*
Y506800D01*
X119486D01*
Y502300D01*
D02*
G37*
G36*
X393501Y501091D02*
X389000D01*
Y502841D01*
X393501D01*
Y501091D01*
D02*
G37*
G36*
X400761Y501004D02*
X396261D01*
Y502754D01*
X400761D01*
Y501004D01*
D02*
G37*
G36*
X490036Y506200D02*
X494000D01*
X497220Y502980D01*
Y499920D01*
X492480Y495180D01*
X490000D01*
Y501700D01*
X488286D01*
Y506200D01*
X490036D01*
Y506200D01*
D02*
G37*
G36*
X274601Y500550D02*
X272500D01*
Y498450D01*
X271500D01*
Y496200D01*
X273336D01*
Y491700D01*
X267750D01*
Y493450D01*
Y498450D01*
X268000D01*
Y502700D01*
X269750D01*
Y508550D01*
X274601D01*
Y500550D01*
D02*
G37*
G36*
X216500Y492550D02*
X216500Y490450D01*
X212250D01*
Y493950D01*
X216500D01*
Y492550D01*
D02*
G37*
G36*
X522750Y496950D02*
X523250D01*
X527750Y492450D01*
Y487950D01*
X518250D01*
Y496950D01*
X518250D01*
Y499363D01*
X522750D01*
Y496950D01*
D02*
G37*
G36*
X419250Y510200D02*
Y504950D01*
X415000D01*
X410988Y500938D01*
Y495950D01*
X411199Y495739D01*
X411410Y495528D01*
X411638Y494977D01*
Y494380D01*
X411410Y493829D01*
X411199Y493618D01*
X409431Y491850D01*
X411199Y490082D01*
X411410Y489871D01*
X411638Y489320D01*
Y488723D01*
X411410Y488172D01*
X411199Y487961D01*
X410988Y487750D01*
X410437Y487521D01*
X409840D01*
X409289Y487750D01*
X409078Y487961D01*
X406602Y490436D01*
X406602Y490436D01*
X406426Y490612D01*
X406249Y490789D01*
X406038Y491000D01*
X406038Y491000D01*
X405897Y491142D01*
X405706Y491601D01*
Y491744D01*
X402500Y494950D01*
X409375Y501825D01*
X402625Y508575D01*
X405880Y511830D01*
X413970D01*
X417620Y511830D01*
X419250Y510200D01*
D02*
G37*
G36*
X482786Y487450D02*
X481036D01*
Y491950D01*
X482786D01*
Y487450D01*
D02*
G37*
G36*
X381001Y486591D02*
X376500D01*
Y488341D01*
X381001D01*
Y486591D01*
D02*
G37*
G36*
X139837Y486550D02*
X138087D01*
Y491050D01*
X139837D01*
Y486550D01*
D02*
G37*
G36*
X182837Y486300D02*
X181087D01*
Y490800D01*
X182837D01*
Y486300D01*
D02*
G37*
G36*
X398536Y485864D02*
X396786D01*
Y490364D01*
X398536D01*
Y485864D01*
D02*
G37*
G36*
X393000Y485700D02*
X391250D01*
Y486578D01*
X387011D01*
Y488328D01*
X391250D01*
Y490450D01*
X393000D01*
Y485700D01*
D02*
G37*
G36*
X449520Y488700D02*
X450600D01*
Y481860D01*
X452090D01*
X457250Y476700D01*
Y473950D01*
X456500D01*
X453000Y477450D01*
X438750D01*
Y480950D01*
X436750D01*
Y485200D01*
X436750D01*
Y486914D01*
X441250D01*
Y485200D01*
X444750D01*
Y488700D01*
X445020D01*
Y490378D01*
X449520D01*
Y488700D01*
D02*
G37*
G36*
X422597Y484164D02*
X421000D01*
Y480950D01*
X423420Y478530D01*
X427290D01*
Y479740D01*
X429410Y481860D01*
X430620D01*
Y475200D01*
X430620D01*
X427290Y471870D01*
X423670D01*
X422250Y470450D01*
Y468200D01*
X420250D01*
Y469200D01*
X417580Y471870D01*
X413970D01*
Y473420D01*
X418500Y477950D01*
Y480659D01*
X417000Y482160D01*
Y484200D01*
X417500Y484700D01*
X420500D01*
Y484700D01*
X420846Y484354D01*
Y488664D01*
X422597D01*
Y484164D01*
D02*
G37*
G36*
X273336Y483950D02*
X271586D01*
Y488450D01*
X273336D01*
Y483950D01*
D02*
G37*
G36*
X268750Y483950D02*
X264501D01*
Y486700D01*
X268750D01*
Y483950D01*
D02*
G37*
G36*
X280501Y483950D02*
X277250D01*
X277250Y486700D01*
X280500D01*
X280501Y483950D01*
D02*
G37*
G36*
X317001Y484700D02*
Y482400D01*
X312501D01*
Y486650D01*
X315051Y486650D01*
X317001Y484700D01*
D02*
G37*
G36*
X236750Y482200D02*
X232250D01*
Y487700D01*
X236750D01*
Y482200D01*
D02*
G37*
G36*
X216500D02*
X211250D01*
Y484550D01*
X216500D01*
X216500Y482200D01*
D02*
G37*
G36*
X191001Y480714D02*
X186501D01*
Y482464D01*
X191001D01*
Y480714D01*
D02*
G37*
G36*
X398501Y477941D02*
X394001D01*
Y479691D01*
X398501D01*
Y477941D01*
D02*
G37*
G36*
X541616Y477809D02*
X537116D01*
Y479559D01*
X541616D01*
Y477809D01*
D02*
G37*
G36*
X273336Y476950D02*
X271586D01*
Y481450D01*
X273336D01*
Y476950D01*
D02*
G37*
G36*
X267750Y476950D02*
X264501D01*
Y478700D01*
X267750D01*
Y476950D01*
D02*
G37*
G36*
X493890Y486810D02*
Y485190D01*
X495510D01*
X497125Y483575D01*
X498740Y485190D01*
X500550D01*
X501500Y484240D01*
Y480762D01*
X502248Y480014D01*
X501500Y479267D01*
Y477950D01*
X500183D01*
X499066Y476833D01*
X497948Y477950D01*
X495680D01*
Y477880D01*
X492399Y474599D01*
X495024Y471974D01*
X493786Y470736D01*
X491161Y473361D01*
X487770Y469970D01*
X486430Y469970D01*
X485180Y471220D01*
Y472470D01*
X492680Y479970D01*
X493890D01*
Y480340D01*
X495500Y481950D01*
X493890Y483560D01*
Y485190D01*
X492260D01*
X490560Y486890D01*
Y488520D01*
X492180D01*
X493890Y486810D01*
D02*
G37*
G36*
X254250Y474286D02*
X249750D01*
Y476036D01*
X254250D01*
Y474286D01*
D02*
G37*
G36*
X264500Y477950D02*
X264501Y475161D01*
X260750Y475161D01*
Y474286D01*
X256250D01*
Y476036D01*
X258500D01*
X258500Y477950D01*
X264500Y477950D01*
D02*
G37*
G36*
X247500Y474286D02*
X243000D01*
Y476036D01*
X247500D01*
Y474286D01*
D02*
G37*
G36*
X533500Y483200D02*
X533500Y473700D01*
X517750Y473700D01*
X517000Y472950D01*
X510250D01*
Y479200D01*
X516500D01*
Y483950D01*
X518000Y485450D01*
X531250Y485450D01*
X533500Y483200D01*
D02*
G37*
G36*
X306750Y471950D02*
X302250D01*
Y476550D01*
X306750D01*
Y471950D01*
D02*
G37*
G36*
X158750Y476300D02*
X160337D01*
Y471800D01*
X158750D01*
Y471700D01*
X149750D01*
Y471800D01*
X148087D01*
Y476300D01*
X149750D01*
Y476450D01*
X158750D01*
Y476300D01*
D02*
G37*
G36*
X457608Y469310D02*
X457819Y469099D01*
X458030Y468888D01*
X458259Y468336D01*
Y467740D01*
X458030Y467188D01*
X457819Y466977D01*
X455000Y464158D01*
Y461614D01*
X446500Y461614D01*
X446500Y467450D01*
X454049Y467450D01*
X455698Y469099D01*
X455698D01*
X455909Y469310D01*
X456460Y469538D01*
X457057D01*
X457608Y469310D01*
D02*
G37*
G36*
X496990Y467064D02*
X492490D01*
Y468814D01*
X496990D01*
Y467064D01*
D02*
G37*
G36*
X474000Y462864D02*
X469500D01*
Y464614D01*
X474000D01*
Y462864D01*
D02*
G37*
G36*
X444500Y462364D02*
X440000D01*
Y464114D01*
X444500D01*
Y462364D01*
D02*
G37*
G36*
X464000Y459950D02*
X462000D01*
Y462950D01*
X464000D01*
Y459950D01*
D02*
G37*
G36*
X458914Y457200D02*
X457164D01*
Y461700D01*
X458914D01*
Y457200D01*
D02*
G37*
G36*
X424761Y457950D02*
X429250D01*
Y461064D01*
X433750D01*
Y456700D01*
X431500D01*
Y455450D01*
X428000Y451950D01*
X423799D01*
Y453414D01*
X422924D01*
Y455664D01*
X420261D01*
Y465328D01*
X424761D01*
Y457950D01*
D02*
G37*
G36*
X222750Y446700D02*
X203750D01*
Y455700D01*
X222750D01*
Y446700D01*
D02*
G37*
G36*
X428311Y446628D02*
X423811D01*
Y448378D01*
X428311D01*
Y446628D01*
D02*
G37*
G36*
X113750Y436036D02*
X109250D01*
Y437786D01*
X113750D01*
Y436036D01*
D02*
G37*
G36*
X222750Y417200D02*
X203750D01*
Y426200D01*
X222750D01*
Y417200D01*
D02*
G37*
G36*
X175000Y406450D02*
X169500D01*
Y414700D01*
X175000D01*
Y406450D01*
D02*
G37*
G36*
X268000Y404200D02*
X262500D01*
Y412700D01*
X268000D01*
Y404200D01*
D02*
G37*
G36*
X374500Y373950D02*
X355500D01*
Y409450D01*
X374500D01*
Y373950D01*
D02*
G37*
G36*
X415000Y292000D02*
X398500D01*
Y294500D01*
X415000D01*
Y292000D01*
D02*
G37*
G36*
X367750D02*
X351250D01*
Y294500D01*
X367750D01*
Y292000D01*
D02*
G37*
G36*
X249500Y280250D02*
X247750D01*
X247750Y281250D01*
X249750Y283250D01*
X252500Y283250D01*
X249500Y280250D01*
D02*
G37*
G36*
X389750Y274500D02*
X375250D01*
Y291500D01*
X389750D01*
Y274500D01*
D02*
G37*
G36*
X415000Y271000D02*
X398500D01*
Y273500D01*
X415000D01*
Y271000D01*
D02*
G37*
G36*
X367750D02*
X351250D01*
Y273500D01*
X367750D01*
Y271000D01*
D02*
G37*
G36*
X123000Y257500D02*
X113500D01*
Y275500D01*
X123000D01*
Y257500D01*
D02*
G37*
G36*
X104000D02*
X94500D01*
Y275500D01*
X104000D01*
Y257500D01*
D02*
G37*
G36*
X246086Y257000D02*
X244336D01*
Y261500D01*
X246086D01*
Y257000D01*
D02*
G37*
G36*
X113336Y248250D02*
X111586D01*
Y252750D01*
X113336D01*
Y248250D01*
D02*
G37*
G36*
X159586Y246500D02*
X157836D01*
Y251000D01*
X159586D01*
Y246500D01*
D02*
G37*
G36*
X443500Y233000D02*
X408000D01*
Y252000D01*
X443500D01*
Y233000D01*
D02*
G37*
G36*
X209500Y231250D02*
X178500D01*
Y262500D01*
X209500D01*
Y231250D01*
D02*
G37*
G36*
X400261Y224128D02*
X395761D01*
Y225878D01*
X400261D01*
Y224128D01*
D02*
G37*
G36*
X415511Y221378D02*
X411011D01*
Y223128D01*
X415511D01*
Y221378D01*
D02*
G37*
G36*
X434010Y219300D02*
X429510D01*
Y221050D01*
X434010D01*
Y219300D01*
D02*
G37*
G36*
X390251Y223991D02*
X390250D01*
Y218750D01*
X391000Y217750D01*
X388500Y217521D01*
Y219250D01*
X386250Y221500D01*
Y223991D01*
X385750D01*
Y225741D01*
X390251D01*
Y223991D01*
D02*
G37*
G36*
X451547Y226750D02*
X460500D01*
Y218800D01*
X460510D01*
Y217050D01*
X456010D01*
Y218750D01*
X452250D01*
Y216250D01*
X449250D01*
Y218750D01*
Y226750D01*
X449796D01*
Y226777D01*
X451547D01*
Y226750D01*
D02*
G37*
G36*
X408000Y216741D02*
X403500D01*
Y218491D01*
X408000D01*
Y216741D01*
D02*
G37*
G36*
X255200Y214796D02*
X250700D01*
Y216546D01*
X255200D01*
Y214796D01*
D02*
G37*
G36*
X278750Y214586D02*
X274250D01*
Y216336D01*
X278750D01*
Y214586D01*
D02*
G37*
G36*
X270850Y214546D02*
X266350D01*
Y216296D01*
X270850D01*
Y214546D01*
D02*
G37*
G36*
X262650D02*
X258150D01*
Y216296D01*
X262650D01*
Y214546D01*
D02*
G37*
G36*
X447346Y214464D02*
X445597D01*
Y218964D01*
X447346D01*
Y214464D01*
D02*
G37*
G36*
X393913Y215047D02*
X390731Y211865D01*
X389493Y213102D01*
X392675Y216284D01*
X393913Y215047D01*
D02*
G37*
G36*
X369250Y211500D02*
X350750D01*
Y247000D01*
X369250D01*
Y211500D01*
D02*
G37*
G36*
X280501Y208850D02*
X277750Y208750D01*
Y212000D01*
X280501D01*
Y208850D01*
D02*
G37*
G36*
X275251Y208750D02*
X272500Y208850D01*
X269750Y208750D01*
Y212000D01*
X275251D01*
Y208750D01*
D02*
G37*
G36*
X267251D02*
X264501Y208850D01*
X261750Y208750D01*
Y212000D01*
X267251D01*
Y208750D01*
D02*
G37*
G36*
X259251D02*
X256500Y208850D01*
X253750Y208750D01*
Y212000D01*
X259251D01*
Y208750D01*
D02*
G37*
G36*
X241000Y211000D02*
X241000Y208541D01*
X232500Y208850D01*
X229750Y208750D01*
Y212000D01*
X232500D01*
Y213750D01*
X238250D01*
X241000Y211000D01*
D02*
G37*
G36*
X409047Y206164D02*
X407296D01*
Y210664D01*
X409047D01*
Y206164D01*
D02*
G37*
G36*
X309001Y206700D02*
X305000D01*
Y204350D01*
X302376Y204350D01*
Y208850D01*
X304501D01*
Y210950D01*
X309001D01*
Y206700D01*
D02*
G37*
G36*
X183087Y200100D02*
X181337D01*
Y204600D01*
X183087D01*
Y200100D01*
D02*
G37*
G36*
X417500Y216000D02*
X424250D01*
Y213500D01*
X426500Y211250D01*
X438750D01*
Y211277D01*
X443500D01*
Y211250D01*
X446000D01*
X448500Y208750D01*
X451250D01*
X452500Y210000D01*
X455000D01*
X457000Y208000D01*
Y201828D01*
X457010D01*
Y200078D01*
X452510D01*
Y201750D01*
X450750D01*
X448500Y199500D01*
X446500D01*
X443250Y196250D01*
X440500D01*
X440000Y195750D01*
X440000Y192250D01*
Y190250D01*
X438500D01*
Y190214D01*
X434290D01*
Y192250D01*
X427250D01*
Y194750D01*
X435250D01*
Y197500D01*
X430000Y202750D01*
X423250D01*
X422250Y203750D01*
Y206250D01*
X416500D01*
Y215250D01*
X414250Y217500D01*
Y218250D01*
X415250Y218250D01*
X417500Y216000D01*
D02*
G37*
G36*
X301146Y201414D02*
X305000D01*
Y199664D01*
X300500D01*
Y199697D01*
X298153D01*
X297001Y200850D01*
X298146Y201996D01*
X300564D01*
X301146Y201414D01*
D02*
G37*
G36*
X210037Y191100D02*
X208286D01*
Y195600D01*
X210037D01*
Y191100D01*
D02*
G37*
G36*
X216500Y190750D02*
X214000D01*
Y195000D01*
X216500D01*
Y190750D01*
D02*
G37*
G36*
X314650Y196350D02*
X312475D01*
Y192826D01*
X309001D01*
Y190700D01*
X304501D01*
Y192826D01*
X302401D01*
Y197326D01*
X310350D01*
Y200850D01*
X310400D01*
Y205350D01*
X314650D01*
Y196350D01*
D02*
G37*
G36*
X394250Y190000D02*
X389750D01*
Y191750D01*
X394250D01*
Y190000D01*
D02*
G37*
G36*
X453500Y188313D02*
X449000D01*
Y190063D01*
X453500D01*
Y188313D01*
D02*
G37*
G36*
X140836Y188000D02*
X125750D01*
Y192500D01*
X140836D01*
Y188000D01*
D02*
G37*
G36*
X314650Y184851D02*
X310400D01*
Y189351D01*
X314650D01*
Y184851D01*
D02*
G37*
G36*
X210086Y183500D02*
X208336D01*
Y188000D01*
X210086D01*
Y183500D01*
D02*
G37*
G36*
X496141Y194000D02*
X496250D01*
Y187750D01*
X491500Y183000D01*
X489500Y183000D01*
X488750Y183750D01*
X488750Y185500D01*
X491500Y188250D01*
Y194000D01*
X491641D01*
Y195664D01*
X496141D01*
Y194000D01*
D02*
G37*
G36*
X477496Y217256D02*
X477496Y217256D01*
X477585Y217247D01*
X477594Y217247D01*
X477688Y217218D01*
X477775Y217171D01*
X477817Y217137D01*
X477851Y217109D01*
X477851Y217109D01*
X487886Y207074D01*
X487949Y206998D01*
X487995Y206911D01*
X488002Y206889D01*
X488024Y206817D01*
X488029Y206768D01*
X488033Y206719D01*
X488033Y206719D01*
X488033Y147031D01*
X488024Y146933D01*
X488002Y146861D01*
X487995Y146839D01*
X487949Y146752D01*
X487886Y146676D01*
X487886Y146676D01*
X485250Y144039D01*
Y138000D01*
X483500D01*
Y135000D01*
X482346D01*
Y131714D01*
X480714D01*
X480000Y131000D01*
X475173D01*
Y128572D01*
X475163Y128474D01*
X475135Y128380D01*
X475088Y128293D01*
X475026Y128217D01*
X474949Y128154D01*
X474863Y128108D01*
X474768Y128079D01*
X474670Y128070D01*
X467750D01*
Y116136D01*
X469886Y114000D01*
Y109500D01*
X468190D01*
Y109500D01*
X470000D01*
Y104500D01*
X469500D01*
Y105000D01*
X467300D01*
Y102414D01*
X462800D01*
Y107250D01*
X464000D01*
Y109500D01*
X464250D01*
X464250Y115750D01*
X463500D01*
Y115750D01*
X458000D01*
Y128250D01*
X459374D01*
X459338Y128293D01*
X459292Y128380D01*
X459263Y128474D01*
X459254Y128572D01*
Y133822D01*
X459263Y133920D01*
X459292Y134014D01*
X459338Y134101D01*
X459401Y134177D01*
X459477Y134240D01*
X459564Y134286D01*
X459658Y134315D01*
X459756Y134325D01*
X465325D01*
X465772Y134772D01*
X465752Y134788D01*
X465751Y134788D01*
X455520Y145020D01*
X449250Y138750D01*
X448410Y138750D01*
X453886Y133274D01*
X453886Y133274D01*
X453914Y133240D01*
X453949Y133198D01*
X453995Y133111D01*
X454024Y133017D01*
X454025Y133008D01*
X454033Y132919D01*
X454033Y132919D01*
Y130250D01*
X454024Y130152D01*
X453995Y130058D01*
X453949Y129971D01*
X453886Y129895D01*
X453810Y129832D01*
X453723Y129786D01*
X453629Y129757D01*
X453531Y129748D01*
X414750D01*
X414652Y129757D01*
X414558Y129786D01*
X414471Y129832D01*
X414395Y129895D01*
X414332Y129971D01*
X414286Y130058D01*
X414257Y130152D01*
X414248Y130250D01*
Y131862D01*
X414257Y131960D01*
X414279Y132033D01*
X414286Y132055D01*
X414332Y132142D01*
X414395Y132218D01*
X414395Y132218D01*
X424529Y142352D01*
Y151674D01*
X424538Y151772D01*
X424567Y151866D01*
X424613Y151953D01*
X424676Y152029D01*
X424752Y152092D01*
X424839Y152138D01*
X424933Y152167D01*
X425031Y152177D01*
X431244Y152176D01*
X431000Y152421D01*
Y153714D01*
X429347D01*
Y158214D01*
X431000D01*
Y160250D01*
X424500Y160250D01*
Y168063D01*
X424511D01*
Y181000D01*
X429029D01*
Y188894D01*
X429038Y188992D01*
X429067Y189086D01*
X429113Y189173D01*
X429176Y189249D01*
X429252Y189311D01*
X429339Y189358D01*
X429433Y189386D01*
X429531Y189396D01*
X441479Y189396D01*
X441577Y189386D01*
X441650Y189364D01*
X441672Y189358D01*
X441759Y189311D01*
X441793Y189283D01*
X441835Y189249D01*
X441835Y189249D01*
X448444Y182639D01*
X453782Y182639D01*
X457997Y186855D01*
X457998Y200250D01*
X457998Y200250D01*
X458006Y200339D01*
X458007Y200348D01*
X458036Y200442D01*
X458082Y200529D01*
X458117Y200571D01*
X458145Y200605D01*
X458145Y200606D01*
X461248Y203708D01*
X461248Y216754D01*
X461257Y216852D01*
X461286Y216946D01*
X461332Y217033D01*
X461395Y217109D01*
X461471Y217172D01*
X461558Y217218D01*
X461652Y217247D01*
X461750Y217256D01*
X477496Y217256D01*
D02*
G37*
G36*
X175750Y178850D02*
X172250D01*
Y184000D01*
X175750D01*
Y178850D01*
D02*
G37*
G36*
X209836Y179000D02*
X216500D01*
X216500Y176850D01*
X204250D01*
Y179000D01*
X208086D01*
Y181500D01*
X209836D01*
Y179000D01*
D02*
G37*
G36*
X504716Y192750D02*
X508750D01*
Y187750D01*
X515750Y187750D01*
X515750Y176750D01*
X510250Y176750D01*
Y176750D01*
X506250D01*
Y182500D01*
X504000D01*
X500500Y179000D01*
Y167750D01*
X496000D01*
Y175750D01*
X495500Y176250D01*
Y178500D01*
X496000Y179000D01*
Y179250D01*
X496250D01*
X504000Y187000D01*
Y189170D01*
X502966D01*
Y193670D01*
X504716D01*
Y192750D01*
D02*
G37*
G36*
X511836Y170250D02*
X510086D01*
Y174750D01*
X511836D01*
Y170250D01*
D02*
G37*
G36*
X393710Y170100D02*
X389210D01*
Y171850D01*
X393710D01*
Y170100D01*
D02*
G37*
G36*
X493250Y178250D02*
X493250Y175000D01*
X493750D01*
Y168000D01*
X489250D01*
Y171750D01*
X489250D01*
Y176500D01*
X488750Y177000D01*
Y179000D01*
X489750Y180000D01*
X491500D01*
X493250Y178250D01*
D02*
G37*
G36*
X216500Y166500D02*
X212000D01*
Y171000D01*
X216500D01*
Y166500D01*
D02*
G37*
G36*
X210086Y164250D02*
X208336D01*
Y168750D01*
X210086D01*
Y164250D01*
D02*
G37*
G36*
X216500Y155000D02*
X216500D01*
X217575Y153925D01*
X215325Y151675D01*
X210086Y156914D01*
Y155750D01*
X208336D01*
Y160250D01*
X210086D01*
Y158000D01*
X211793Y159707D01*
X212001Y159500D01*
Y161500D01*
X216500D01*
Y155000D01*
D02*
G37*
G36*
X385500Y156636D02*
X381000D01*
Y158386D01*
X385500D01*
Y156636D01*
D02*
G37*
G36*
X198501Y165250D02*
X199000D01*
Y163500D01*
X199001D01*
Y154014D01*
X194501D01*
Y156250D01*
X194000D01*
Y165250D01*
X194001D01*
Y167514D01*
X198501D01*
Y165250D01*
D02*
G37*
G36*
X374996Y153014D02*
X373246D01*
Y157514D01*
X374996D01*
Y153014D01*
D02*
G37*
G36*
X402751Y190000D02*
X404250D01*
X405750Y191500D01*
X410640Y191420D01*
Y188090D01*
X417480Y181250D01*
X421475Y181250D01*
X421475Y176435D01*
X421501D01*
Y164474D01*
X421475D01*
X413979Y164474D01*
X411503Y161997D01*
Y159750D01*
X414378Y156875D01*
X416725D01*
X416725Y152625D01*
X414451D01*
Y152500D01*
X408250D01*
X403250Y157500D01*
X399300Y161450D01*
X397000D01*
Y167500D01*
X397010D01*
Y169050D01*
X398790D01*
X401500Y171760D01*
Y173000D01*
X402740D01*
X405820Y176080D01*
Y181430D01*
X401250Y186000D01*
X398250D01*
Y191828D01*
X402751D01*
Y190000D01*
D02*
G37*
G36*
X325500Y151750D02*
X312500D01*
Y155000D01*
X315750D01*
Y158750D01*
X312500D01*
Y162750D01*
X315750D01*
Y166250D01*
X312500D01*
Y171750D01*
X315750D01*
Y174250D01*
X312500D01*
Y179750D01*
X315750D01*
Y182250D01*
X325500D01*
Y151750D01*
D02*
G37*
G36*
X119486Y150600D02*
X117736D01*
Y155100D01*
X119486D01*
Y150600D01*
D02*
G37*
G36*
X510709Y149750D02*
X509557Y148597D01*
X507153D01*
X506000Y149750D01*
X507145Y150895D01*
X509564D01*
X510709Y149750D01*
D02*
G37*
G36*
X515216Y147500D02*
X513466D01*
Y152000D01*
X515216D01*
Y147500D01*
D02*
G37*
G36*
X266601Y140350D02*
X262500D01*
Y137164D01*
X258000D01*
Y140350D01*
X254750D01*
Y133500D01*
X253750D01*
Y129000D01*
Y127336D01*
X249250D01*
Y129000D01*
X248000D01*
Y133500D01*
X243750D01*
Y139750D01*
X246351D01*
Y144850D01*
X250601D01*
Y141800D01*
X254351D01*
Y144850D01*
X258601D01*
Y142600D01*
X262351D01*
Y144850D01*
X266601D01*
Y140350D01*
D02*
G37*
G36*
X515404Y141250D02*
X519500D01*
Y139500D01*
X518250D01*
X517000Y140750D01*
X507930D01*
X508356Y140324D01*
Y137964D01*
X511424D01*
Y133464D01*
X508964D01*
X501750Y126250D01*
X499750Y126250D01*
X498500Y127500D01*
Y128750D01*
X506000Y136250D01*
Y137964D01*
X506058D01*
Y140317D01*
X506491Y140750D01*
X505750D01*
X505000Y141500D01*
Y143000D01*
X507500Y145500D01*
X511500D01*
Y145589D01*
X515404D01*
Y141250D01*
D02*
G37*
G36*
X119486Y138600D02*
X117736D01*
Y143100D01*
X119486D01*
Y138600D01*
D02*
G37*
G36*
X393501Y137391D02*
X389000D01*
Y139141D01*
X393501D01*
Y137391D01*
D02*
G37*
G36*
X400761Y137303D02*
X396261D01*
Y139053D01*
X400761D01*
Y137303D01*
D02*
G37*
G36*
X490036Y142500D02*
X494000D01*
X497220Y139280D01*
Y136220D01*
X492480Y131480D01*
X490000D01*
Y138000D01*
X488286D01*
Y142500D01*
X490036D01*
Y142500D01*
D02*
G37*
G36*
X274601Y136850D02*
X272500D01*
Y134750D01*
X271500D01*
Y132500D01*
X273336D01*
Y128000D01*
X267750D01*
Y129750D01*
Y134750D01*
X268000D01*
Y139000D01*
X269750D01*
Y144850D01*
X274601D01*
Y136850D01*
D02*
G37*
G36*
X216500Y128850D02*
X216500Y126750D01*
X212250D01*
Y130250D01*
X216500D01*
Y128850D01*
D02*
G37*
G36*
X522750Y133250D02*
X523250D01*
X527750Y128750D01*
Y124250D01*
X518250D01*
Y133250D01*
X518250D01*
Y135663D01*
X522750D01*
Y133250D01*
D02*
G37*
G36*
X419250Y146500D02*
Y141250D01*
X415000D01*
X410988Y137238D01*
Y132250D01*
X411199Y132039D01*
X411410Y131828D01*
X411638Y131276D01*
Y130680D01*
X411410Y130128D01*
X411199Y129917D01*
X409431Y128150D01*
X411199Y126382D01*
X411410Y126171D01*
X411638Y125620D01*
Y125023D01*
X411410Y124472D01*
X411199Y124261D01*
X410988Y124050D01*
X410437Y123821D01*
X409840D01*
X409289Y124050D01*
X409078Y124261D01*
X406602Y126736D01*
X406602Y126736D01*
X406426Y126912D01*
X406249Y127089D01*
X406038Y127300D01*
X406038Y127300D01*
X405897Y127442D01*
X405706Y127901D01*
Y128044D01*
X402500Y131250D01*
X409375Y138125D01*
X402625Y144875D01*
X405880Y148130D01*
X413970D01*
X417620Y148130D01*
X419250Y146500D01*
D02*
G37*
G36*
X482786Y123750D02*
X481036D01*
Y128250D01*
X482786D01*
Y123750D01*
D02*
G37*
G36*
X381001Y122891D02*
X376500D01*
Y124641D01*
X381001D01*
Y122891D01*
D02*
G37*
G36*
X139837Y122850D02*
X138087D01*
Y127350D01*
X139837D01*
Y122850D01*
D02*
G37*
G36*
X182837Y122600D02*
X181087D01*
Y127100D01*
X182837D01*
Y122600D01*
D02*
G37*
G36*
X398536Y122164D02*
X396786D01*
Y126664D01*
X398536D01*
Y122164D01*
D02*
G37*
G36*
X393000Y122000D02*
X391250D01*
Y122878D01*
X387011D01*
Y124628D01*
X391250D01*
Y126750D01*
X393000D01*
Y122000D01*
D02*
G37*
G36*
X449520Y125000D02*
X450600D01*
Y118160D01*
X452090D01*
X457250Y113000D01*
Y110250D01*
X456500D01*
X453000Y113750D01*
X438750D01*
Y117250D01*
X436750D01*
Y121500D01*
X436750D01*
Y123214D01*
X441250D01*
Y121500D01*
X444750D01*
Y125000D01*
X445020D01*
Y126678D01*
X449520D01*
Y125000D01*
D02*
G37*
G36*
X422597Y120464D02*
X421000D01*
Y117250D01*
X423420Y114830D01*
X427290D01*
Y116040D01*
X429410Y118160D01*
X430620D01*
Y111500D01*
X430620D01*
X427290Y108169D01*
X423670D01*
X422250Y106750D01*
Y104500D01*
X420250D01*
Y105500D01*
X417580Y108169D01*
X413970D01*
Y109720D01*
X418500Y114250D01*
Y116959D01*
X417000Y118460D01*
Y120500D01*
X417500Y121000D01*
X420500D01*
Y121000D01*
X420846Y120653D01*
Y124964D01*
X422597D01*
Y120464D01*
D02*
G37*
G36*
X273336Y120250D02*
X271586D01*
Y124750D01*
X273336D01*
Y120250D01*
D02*
G37*
G36*
X268750Y120250D02*
X264501D01*
Y123000D01*
X268750D01*
Y120250D01*
D02*
G37*
G36*
X280501Y120250D02*
X277250D01*
X277250Y123000D01*
X280500D01*
X280501Y120250D01*
D02*
G37*
G36*
X317001Y121000D02*
Y118700D01*
X312501D01*
Y122950D01*
X315051Y122950D01*
X317001Y121000D01*
D02*
G37*
G36*
X236750Y118500D02*
X232250D01*
Y124000D01*
X236750D01*
Y118500D01*
D02*
G37*
G36*
X216500D02*
X211250D01*
Y120850D01*
X216500D01*
X216500Y118500D01*
D02*
G37*
G36*
X191001Y117014D02*
X186501D01*
Y118764D01*
X191001D01*
Y117014D01*
D02*
G37*
G36*
X398501Y114241D02*
X394001D01*
Y115991D01*
X398501D01*
Y114241D01*
D02*
G37*
G36*
X541616Y114109D02*
X537116D01*
Y115859D01*
X541616D01*
Y114109D01*
D02*
G37*
G36*
X273336Y113250D02*
X271586D01*
Y117750D01*
X273336D01*
Y113250D01*
D02*
G37*
G36*
X267750Y113250D02*
X264501D01*
Y115000D01*
X267750D01*
Y113250D01*
D02*
G37*
G36*
X493890Y123110D02*
Y121490D01*
X495510D01*
X497125Y119875D01*
X498740Y121490D01*
X500550D01*
X501500Y120540D01*
Y117062D01*
X502248Y116314D01*
X501500Y115567D01*
Y114250D01*
X500183D01*
X499066Y113132D01*
X497948Y114250D01*
X495680D01*
Y114180D01*
X492399Y110899D01*
X495024Y108274D01*
X493786Y107036D01*
X491161Y109661D01*
X487770Y106270D01*
X486430Y106270D01*
X485180Y107520D01*
Y108770D01*
X492680Y116270D01*
X493890D01*
Y116640D01*
X495500Y118250D01*
X493890Y119860D01*
Y121490D01*
X492260D01*
X490560Y123190D01*
Y124820D01*
X492180D01*
X493890Y123110D01*
D02*
G37*
G36*
X254250Y110586D02*
X249750D01*
Y112336D01*
X254250D01*
Y110586D01*
D02*
G37*
G36*
X264500Y114250D02*
X264501Y111461D01*
X260750Y111461D01*
Y110586D01*
X256250D01*
Y112336D01*
X258500D01*
X258500Y114250D01*
X264500Y114250D01*
D02*
G37*
G36*
X247500Y110586D02*
X243000D01*
Y112336D01*
X247500D01*
Y110586D01*
D02*
G37*
G36*
X533500Y119500D02*
X533500Y110000D01*
X517750Y110000D01*
X517000Y109250D01*
X510250D01*
Y115500D01*
X516500D01*
Y120250D01*
X518000Y121750D01*
X531250Y121750D01*
X533500Y119500D01*
D02*
G37*
G36*
X306750Y108250D02*
X302250D01*
Y112850D01*
X306750D01*
Y108250D01*
D02*
G37*
G36*
X158750Y112600D02*
X160337D01*
Y108100D01*
X158750D01*
Y108000D01*
X149750D01*
Y108100D01*
X148087D01*
Y112600D01*
X149750D01*
Y112750D01*
X158750D01*
Y112600D01*
D02*
G37*
G36*
X457608Y105610D02*
X457819Y105399D01*
X458030Y105188D01*
X458259Y104636D01*
Y104039D01*
X458030Y103488D01*
X457819Y103277D01*
X455000Y100458D01*
Y97914D01*
X446500Y97914D01*
X446500Y103750D01*
X454049Y103750D01*
X455698Y105399D01*
X455698D01*
X455909Y105610D01*
X456460Y105838D01*
X457057D01*
X457608Y105610D01*
D02*
G37*
G36*
X496990Y103364D02*
X492490D01*
Y105114D01*
X496990D01*
Y103364D01*
D02*
G37*
G36*
X474000Y99164D02*
X469500D01*
Y100914D01*
X474000D01*
Y99164D01*
D02*
G37*
G36*
X444500Y98664D02*
X440000D01*
Y100414D01*
X444500D01*
Y98664D01*
D02*
G37*
G36*
X464000Y96250D02*
X462000D01*
Y99250D01*
X464000D01*
Y96250D01*
D02*
G37*
G36*
X458914Y93500D02*
X457164D01*
Y98000D01*
X458914D01*
Y93500D01*
D02*
G37*
G36*
X424761Y94250D02*
X429250D01*
Y97364D01*
X433750D01*
Y93000D01*
X431500D01*
Y91750D01*
X428000Y88250D01*
X423799D01*
Y89714D01*
X422924D01*
Y91964D01*
X420261D01*
Y101628D01*
X424761D01*
Y94250D01*
D02*
G37*
G36*
X222750Y83000D02*
X203750D01*
Y92000D01*
X222750D01*
Y83000D01*
D02*
G37*
G36*
X428311Y82928D02*
X423811D01*
Y84678D01*
X428311D01*
Y82928D01*
D02*
G37*
G36*
X113750Y72336D02*
X109250D01*
Y74086D01*
X113750D01*
Y72336D01*
D02*
G37*
G36*
X222750Y53500D02*
X203750D01*
Y62500D01*
X222750D01*
Y53500D01*
D02*
G37*
G36*
X175000Y42750D02*
X169500D01*
Y51000D01*
X175000D01*
Y42750D01*
D02*
G37*
G36*
X268000Y40500D02*
X262500D01*
Y49000D01*
X268000D01*
Y40500D01*
D02*
G37*
G36*
X374500Y10250D02*
X355500D01*
Y45750D01*
X374500D01*
Y10250D01*
D02*
G37*
%LPC*%
G36*
X434894Y1252850D02*
X432750D01*
Y1252600D01*
X435500Y1249850D01*
Y1246200D01*
X432576Y1243277D01*
X436598Y1243277D01*
X436598Y1251146D01*
X434894Y1252850D01*
D02*
G37*
G36*
Y889150D02*
X432750D01*
Y888900D01*
X435500Y886150D01*
Y882500D01*
X432576Y879576D01*
X436598Y879576D01*
X436598Y887446D01*
X434894Y889150D01*
D02*
G37*
G36*
Y525450D02*
X432750D01*
Y525200D01*
X435500Y522450D01*
Y518800D01*
X432576Y515876D01*
X436598Y515876D01*
X436598Y523746D01*
X434894Y525450D01*
D02*
G37*
G36*
Y161750D02*
X432750D01*
Y161500D01*
X435500Y158750D01*
Y155100D01*
X432576Y152176D01*
X436598Y152176D01*
X436598Y160046D01*
X434894Y161750D01*
D02*
G37*
%LPD*%
D51*
X467250Y201410D02*
D03*
X487230Y108169D02*
D03*
X427290Y208070D02*
D03*
X500550Y181430D02*
D03*
X503880Y184760D02*
D03*
X506000Y149750D02*
D03*
X503880Y131480D02*
D03*
X497220Y138140D02*
D03*
X443940Y118160D02*
D03*
X490560Y131480D02*
D03*
X457260Y104840D02*
D03*
X453930Y101510D02*
D03*
X403980Y164780D02*
D03*
X400650Y161450D02*
D03*
X430620Y204740D02*
D03*
X423960D02*
D03*
X437280Y198080D02*
D03*
X407310Y188090D02*
D03*
X430620Y111500D02*
D03*
X410640Y131480D02*
D03*
X403980Y184760D02*
D03*
X433950Y201410D02*
D03*
X453930Y208070D02*
D03*
X450600Y204740D02*
D03*
X443940Y204740D02*
D03*
X410640Y124820D02*
D03*
X447270Y114830D02*
D03*
X440610Y108170D02*
D03*
X447270Y201410D02*
D03*
X497220Y178100D02*
D03*
X423960Y211400D02*
D03*
X427290Y194750D02*
D03*
X430620Y118160D02*
D03*
X413970Y168110D02*
D03*
X407310Y161450D02*
D03*
X403980Y158120D02*
D03*
X410640Y158120D02*
D03*
X413970Y148130D02*
D03*
X410640Y144800D02*
D03*
X423960Y111500D02*
D03*
X427290Y114830D02*
D03*
X420630D02*
D03*
X450600Y118160D02*
D03*
X440610Y114830D02*
D03*
X490560Y111500D02*
D03*
X440610Y201410D02*
D03*
X433950Y208070D02*
D03*
X410640Y191420D02*
D03*
Y171440D02*
D03*
X413970Y174770D02*
D03*
X407310Y181430D02*
D03*
X413970Y181430D02*
D03*
X410640Y184760D02*
D03*
X407310Y141470D02*
D03*
X403980Y144800D02*
D03*
X407310Y128150D02*
D03*
X410640Y178100D02*
D03*
X413970Y108169D02*
D03*
X427290Y108169D02*
D03*
X420630Y108170D02*
D03*
X414010Y141464D02*
D03*
X407310Y134810D02*
D03*
X410640Y138140D02*
D03*
X410640Y118160D02*
D03*
X417300Y111500D02*
D03*
X417300Y118160D02*
D03*
X407310Y148130D02*
D03*
Y154790D02*
D03*
X413970Y154790D02*
D03*
X403980Y131480D02*
D03*
X490560Y178100D02*
D03*
Y184760D02*
D03*
X493890Y188090D02*
D03*
X483900Y118160D02*
D03*
X490560Y124820D02*
D03*
X493890Y134810D02*
D03*
X507210Y141470D02*
D03*
X500550Y121490D02*
D03*
X500550Y128150D02*
D03*
X497220Y144800D02*
D03*
X493890Y121490D02*
D03*
X470580Y198080D02*
D03*
X493890Y114830D02*
D03*
X453930Y114830D02*
D03*
X457250Y111527D02*
D03*
X403980Y171440D02*
D03*
X407310Y174770D02*
D03*
X467250Y565110D02*
D03*
X487230Y471870D02*
D03*
X427290Y571770D02*
D03*
X500550Y545130D02*
D03*
X503880Y548460D02*
D03*
X506000Y513450D02*
D03*
X503880Y495180D02*
D03*
X497220Y501840D02*
D03*
X443940Y481860D02*
D03*
X490560Y495180D02*
D03*
X457260Y468540D02*
D03*
X453930Y465210D02*
D03*
X403980Y528480D02*
D03*
X400650Y525150D02*
D03*
X430620Y568440D02*
D03*
X423960D02*
D03*
X437280Y561780D02*
D03*
X407310Y551790D02*
D03*
X430620Y475200D02*
D03*
X410640Y495180D02*
D03*
X403980Y548460D02*
D03*
X433950Y565110D02*
D03*
X453930Y571770D02*
D03*
X450600Y568440D02*
D03*
X443940Y568440D02*
D03*
X410640Y488520D02*
D03*
X447270Y478530D02*
D03*
X440610Y471870D02*
D03*
X447270Y565110D02*
D03*
X497220Y541800D02*
D03*
X423960Y575100D02*
D03*
X427290Y558450D02*
D03*
X430620Y481860D02*
D03*
X413970Y531810D02*
D03*
X407310Y525150D02*
D03*
X403980Y521820D02*
D03*
X410640Y521820D02*
D03*
X413970Y511830D02*
D03*
X410640Y508500D02*
D03*
X423960Y475200D02*
D03*
X427290Y478530D02*
D03*
X420630D02*
D03*
X450600Y481860D02*
D03*
X440610Y478530D02*
D03*
X490560Y475200D02*
D03*
X440610Y565110D02*
D03*
X433950Y571770D02*
D03*
X410640Y555120D02*
D03*
Y535140D02*
D03*
X413970Y538470D02*
D03*
X407310Y545130D02*
D03*
X413970Y545130D02*
D03*
X410640Y548460D02*
D03*
X407310Y505170D02*
D03*
X403980Y508500D02*
D03*
X407310Y491850D02*
D03*
X410640Y541800D02*
D03*
X413970Y471870D02*
D03*
X427290Y471870D02*
D03*
X420630Y471870D02*
D03*
X414010Y505164D02*
D03*
X407310Y498510D02*
D03*
X410640Y501840D02*
D03*
X410640Y481860D02*
D03*
X417300Y475200D02*
D03*
X417300Y481860D02*
D03*
X407310Y511830D02*
D03*
Y518490D02*
D03*
X413970Y518490D02*
D03*
X403980Y495180D02*
D03*
X490560Y541800D02*
D03*
Y548460D02*
D03*
X493890Y551790D02*
D03*
X483900Y481860D02*
D03*
X490560Y488520D02*
D03*
X493890Y498510D02*
D03*
X507210Y505170D02*
D03*
X500550Y485190D02*
D03*
X500550Y491850D02*
D03*
X497220Y508500D02*
D03*
X493890Y485190D02*
D03*
X470580Y561780D02*
D03*
X493890Y478530D02*
D03*
X453930Y478530D02*
D03*
X457250Y475227D02*
D03*
X403980Y535140D02*
D03*
X407310Y538470D02*
D03*
X467250Y928810D02*
D03*
X487230Y835570D02*
D03*
X427290Y935470D02*
D03*
X500550Y908830D02*
D03*
X503880Y912160D02*
D03*
X506000Y877150D02*
D03*
X503880Y858880D02*
D03*
X497220Y865540D02*
D03*
X443940Y845560D02*
D03*
X490560Y858880D02*
D03*
X457260Y832240D02*
D03*
X453930Y828910D02*
D03*
X403980Y892180D02*
D03*
X400650Y888850D02*
D03*
X430620Y932140D02*
D03*
X423960D02*
D03*
X437280Y925480D02*
D03*
X407310Y915490D02*
D03*
X430620Y838900D02*
D03*
X410640Y858880D02*
D03*
X403980Y912160D02*
D03*
X433950Y928810D02*
D03*
X453930Y935470D02*
D03*
X450600Y932140D02*
D03*
X443940Y932140D02*
D03*
X410640Y852220D02*
D03*
X447270Y842230D02*
D03*
X440610Y835570D02*
D03*
X447270Y928810D02*
D03*
X497220Y905500D02*
D03*
X423960Y938800D02*
D03*
X427290Y922150D02*
D03*
X430620Y845560D02*
D03*
X413970Y895510D02*
D03*
X407310Y888850D02*
D03*
X403980Y885520D02*
D03*
X410640Y885520D02*
D03*
X413970Y875530D02*
D03*
X410640Y872200D02*
D03*
X423960Y838900D02*
D03*
X427290Y842230D02*
D03*
X420630D02*
D03*
X450600Y845560D02*
D03*
X440610Y842230D02*
D03*
X490560Y838900D02*
D03*
X440610Y928810D02*
D03*
X433950Y935470D02*
D03*
X410640Y918820D02*
D03*
Y898840D02*
D03*
X413970Y902170D02*
D03*
X407310Y908830D02*
D03*
X413970Y908830D02*
D03*
X410640Y912160D02*
D03*
X407310Y868870D02*
D03*
X403980Y872200D02*
D03*
X407310Y855550D02*
D03*
X410640Y905500D02*
D03*
X413970Y835570D02*
D03*
X427290Y835570D02*
D03*
X420630Y835570D02*
D03*
X414010Y868864D02*
D03*
X407310Y862210D02*
D03*
X410640Y865540D02*
D03*
X410640Y845560D02*
D03*
X417300Y838900D02*
D03*
X417300Y845560D02*
D03*
X407310Y875530D02*
D03*
Y882190D02*
D03*
X413970Y882190D02*
D03*
X403980Y858880D02*
D03*
X490560Y905500D02*
D03*
Y912160D02*
D03*
X493890Y915490D02*
D03*
X483900Y845560D02*
D03*
X490560Y852220D02*
D03*
X493890Y862210D02*
D03*
X507210Y868870D02*
D03*
X500550Y848890D02*
D03*
X500550Y855550D02*
D03*
X497220Y872200D02*
D03*
X493890Y848890D02*
D03*
X470580Y925480D02*
D03*
X493890Y842230D02*
D03*
X453930Y842230D02*
D03*
X457250Y838927D02*
D03*
X403980Y898840D02*
D03*
X407310Y902170D02*
D03*
X467250Y1292510D02*
D03*
X487230Y1199270D02*
D03*
X427290Y1299170D02*
D03*
X500550Y1272530D02*
D03*
X503880Y1275860D02*
D03*
X506000Y1240850D02*
D03*
X503880Y1222580D02*
D03*
X497220Y1229240D02*
D03*
X443940Y1209260D02*
D03*
X490560Y1222580D02*
D03*
X457260Y1195940D02*
D03*
X453930Y1192610D02*
D03*
X403980Y1255880D02*
D03*
X400650Y1252550D02*
D03*
X430620Y1295840D02*
D03*
X423960D02*
D03*
X437280Y1289180D02*
D03*
X407310Y1279190D02*
D03*
X430620Y1202600D02*
D03*
X410640Y1222580D02*
D03*
X403980Y1275860D02*
D03*
X433950Y1292510D02*
D03*
X453930Y1299170D02*
D03*
X450600Y1295840D02*
D03*
X443940Y1295840D02*
D03*
X410640Y1215920D02*
D03*
X447270Y1205930D02*
D03*
X440610Y1199270D02*
D03*
X447270Y1292510D02*
D03*
X497220Y1269200D02*
D03*
X423960Y1302500D02*
D03*
X427290Y1285850D02*
D03*
X430620Y1209260D02*
D03*
X413970Y1259210D02*
D03*
X407310Y1252550D02*
D03*
X403980Y1249220D02*
D03*
X410640Y1249220D02*
D03*
X413970Y1239230D02*
D03*
X410640Y1235900D02*
D03*
X423960Y1202600D02*
D03*
X427290Y1205930D02*
D03*
X420630D02*
D03*
X450600Y1209260D02*
D03*
X440610Y1205930D02*
D03*
X490560Y1202600D02*
D03*
X440610Y1292510D02*
D03*
X433950Y1299170D02*
D03*
X410640Y1282520D02*
D03*
Y1262540D02*
D03*
X413970Y1265870D02*
D03*
X407310Y1272530D02*
D03*
X413970Y1272530D02*
D03*
X410640Y1275860D02*
D03*
X407310Y1232570D02*
D03*
X403980Y1235900D02*
D03*
X407310Y1219250D02*
D03*
X410640Y1269200D02*
D03*
X413970Y1199270D02*
D03*
X427290Y1199270D02*
D03*
X420630Y1199270D02*
D03*
X414010Y1232564D02*
D03*
X407310Y1225910D02*
D03*
X410640Y1229240D02*
D03*
X410640Y1209260D02*
D03*
X417300Y1202600D02*
D03*
X417300Y1209260D02*
D03*
X407310Y1239230D02*
D03*
Y1245890D02*
D03*
X413970Y1245890D02*
D03*
X403980Y1222580D02*
D03*
X490560Y1269200D02*
D03*
Y1275860D02*
D03*
X493890Y1279190D02*
D03*
X483900Y1209260D02*
D03*
X490560Y1215920D02*
D03*
X493890Y1225910D02*
D03*
X507210Y1232570D02*
D03*
X500550Y1212590D02*
D03*
X500550Y1219250D02*
D03*
X497220Y1235900D02*
D03*
X493890Y1212590D02*
D03*
X470580Y1289180D02*
D03*
X493890Y1205930D02*
D03*
X453930Y1205930D02*
D03*
X457250Y1202627D02*
D03*
X403980Y1262540D02*
D03*
X407310Y1265870D02*
D03*
D109*
X360000Y229250D02*
D03*
Y592950D02*
D03*
Y956650D02*
D03*
Y1320350D02*
D03*
D122*
X618000Y-80000D02*
D03*
X72000D02*
D03*
X617999Y1482800D02*
D03*
X71999D02*
D03*
D128*
X245885Y240025D02*
D03*
Y230025D02*
D03*
X631125Y186875D02*
D03*
Y196875D02*
D03*
X632250Y173250D02*
D03*
Y163250D02*
D03*
X37750Y176000D02*
D03*
Y166000D02*
D03*
X208750Y148250D02*
D03*
Y138250D02*
D03*
X195250Y141750D02*
D03*
Y131750D02*
D03*
X195750Y204250D02*
D03*
Y194250D02*
D03*
X181750Y174750D02*
D03*
Y164750D02*
D03*
X209750Y127750D02*
D03*
Y117750D02*
D03*
X344250Y170500D02*
D03*
Y180500D02*
D03*
X346250Y140250D02*
D03*
Y150250D02*
D03*
X363000Y178250D02*
D03*
Y188250D02*
D03*
X339000Y219000D02*
D03*
Y229000D02*
D03*
X347500Y75250D02*
D03*
Y65250D02*
D03*
X87750Y134250D02*
D03*
Y124250D02*
D03*
Y113250D02*
D03*
Y103250D02*
D03*
X117000Y227500D02*
D03*
Y237500D02*
D03*
X80250Y265500D02*
D03*
Y255500D02*
D03*
X102250Y77500D02*
D03*
Y87500D02*
D03*
X153000Y72000D02*
D03*
Y82000D02*
D03*
X643750Y167000D02*
D03*
Y157000D02*
D03*
X419760Y144714D02*
D03*
Y154714D02*
D03*
X233750Y257750D02*
D03*
Y247750D02*
D03*
X49250Y286750D02*
D03*
Y276750D02*
D03*
X654500Y295000D02*
D03*
Y285000D02*
D03*
X643500Y295000D02*
D03*
Y285000D02*
D03*
X245885Y603725D02*
D03*
Y593725D02*
D03*
X631125Y550575D02*
D03*
Y560575D02*
D03*
X632250Y536950D02*
D03*
Y526950D02*
D03*
X37750Y539700D02*
D03*
Y529700D02*
D03*
X208750Y511950D02*
D03*
Y501950D02*
D03*
X195250Y505450D02*
D03*
Y495450D02*
D03*
X195750Y567950D02*
D03*
Y557950D02*
D03*
X181750Y538450D02*
D03*
Y528450D02*
D03*
X209750Y491450D02*
D03*
Y481450D02*
D03*
X344250Y534200D02*
D03*
Y544200D02*
D03*
X346250Y503950D02*
D03*
Y513950D02*
D03*
X363000Y541950D02*
D03*
Y551950D02*
D03*
X339000Y582700D02*
D03*
Y592700D02*
D03*
X347500Y438950D02*
D03*
Y428950D02*
D03*
X87750Y497950D02*
D03*
Y487950D02*
D03*
Y476950D02*
D03*
Y466950D02*
D03*
X117000Y591200D02*
D03*
Y601200D02*
D03*
X80250Y629200D02*
D03*
Y619200D02*
D03*
X102250Y441200D02*
D03*
Y451200D02*
D03*
X153000Y435700D02*
D03*
Y445700D02*
D03*
X643750Y530700D02*
D03*
Y520700D02*
D03*
X419760Y508414D02*
D03*
Y518414D02*
D03*
X233750Y621450D02*
D03*
Y611450D02*
D03*
X49250Y650450D02*
D03*
Y640450D02*
D03*
X654500Y658700D02*
D03*
Y648700D02*
D03*
X643500Y658700D02*
D03*
Y648700D02*
D03*
X245885Y967425D02*
D03*
Y957425D02*
D03*
X631125Y914275D02*
D03*
Y924275D02*
D03*
X632250Y900650D02*
D03*
Y890650D02*
D03*
X37750Y903400D02*
D03*
Y893400D02*
D03*
X208750Y875650D02*
D03*
Y865650D02*
D03*
X195250Y869150D02*
D03*
Y859150D02*
D03*
X195750Y931650D02*
D03*
Y921650D02*
D03*
X181750Y902150D02*
D03*
Y892150D02*
D03*
X209750Y855150D02*
D03*
Y845150D02*
D03*
X344250Y897900D02*
D03*
Y907900D02*
D03*
X346250Y867650D02*
D03*
Y877650D02*
D03*
X363000Y905650D02*
D03*
Y915650D02*
D03*
X339000Y946400D02*
D03*
Y956400D02*
D03*
X347500Y802650D02*
D03*
Y792650D02*
D03*
X87750Y861650D02*
D03*
Y851650D02*
D03*
Y840650D02*
D03*
Y830650D02*
D03*
X117000Y954900D02*
D03*
Y964900D02*
D03*
X80250Y992900D02*
D03*
Y982900D02*
D03*
X102250Y804900D02*
D03*
Y814900D02*
D03*
X153000Y799400D02*
D03*
Y809400D02*
D03*
X643750Y894400D02*
D03*
Y884400D02*
D03*
X419760Y872114D02*
D03*
Y882114D02*
D03*
X233750Y985150D02*
D03*
Y975150D02*
D03*
X49250Y1014150D02*
D03*
Y1004150D02*
D03*
X654500Y1022400D02*
D03*
Y1012400D02*
D03*
X643500Y1022400D02*
D03*
Y1012400D02*
D03*
X245885Y1331125D02*
D03*
Y1321125D02*
D03*
X631125Y1277975D02*
D03*
Y1287975D02*
D03*
X632250Y1264350D02*
D03*
Y1254350D02*
D03*
X37750Y1267100D02*
D03*
Y1257100D02*
D03*
X208750Y1239350D02*
D03*
Y1229350D02*
D03*
X195250Y1232850D02*
D03*
Y1222850D02*
D03*
X195750Y1295350D02*
D03*
Y1285350D02*
D03*
X181750Y1265850D02*
D03*
Y1255850D02*
D03*
X209750Y1218850D02*
D03*
Y1208850D02*
D03*
X344250Y1261600D02*
D03*
Y1271600D02*
D03*
X346250Y1231350D02*
D03*
Y1241350D02*
D03*
X363000Y1269350D02*
D03*
Y1279350D02*
D03*
X339000Y1310100D02*
D03*
Y1320100D02*
D03*
X347500Y1166350D02*
D03*
Y1156350D02*
D03*
X87750Y1225350D02*
D03*
Y1215350D02*
D03*
Y1204350D02*
D03*
Y1194350D02*
D03*
X117000Y1318600D02*
D03*
Y1328600D02*
D03*
X80250Y1356600D02*
D03*
Y1346600D02*
D03*
X102250Y1168600D02*
D03*
Y1178600D02*
D03*
X153000Y1163100D02*
D03*
Y1173100D02*
D03*
X643750Y1258100D02*
D03*
Y1248100D02*
D03*
X419760Y1235814D02*
D03*
Y1245814D02*
D03*
X233750Y1348850D02*
D03*
Y1338850D02*
D03*
X49250Y1377850D02*
D03*
Y1367850D02*
D03*
X654500Y1386100D02*
D03*
Y1376100D02*
D03*
X643500Y1386100D02*
D03*
Y1376100D02*
D03*
D129*
X669450Y201675D02*
D03*
Y257075D02*
D03*
Y112075D02*
D03*
Y56675D02*
D03*
Y565375D02*
D03*
Y620775D02*
D03*
Y475775D02*
D03*
Y420375D02*
D03*
Y929075D02*
D03*
Y984475D02*
D03*
Y839475D02*
D03*
Y784075D02*
D03*
Y1292775D02*
D03*
Y1348175D02*
D03*
Y1203175D02*
D03*
Y1147775D02*
D03*
D131*
X568250Y205750D02*
D03*
Y195750D02*
D03*
X576750Y272500D02*
D03*
Y282500D02*
D03*
X74500Y44250D02*
D03*
Y34250D02*
D03*
X77250Y103250D02*
D03*
Y93250D02*
D03*
X374500Y62250D02*
D03*
Y52250D02*
D03*
X120250Y77750D02*
D03*
Y67750D02*
D03*
X227000Y228000D02*
D03*
Y238000D02*
D03*
X339250Y199000D02*
D03*
Y209000D02*
D03*
X413750Y81250D02*
D03*
X413750Y91250D02*
D03*
X223250Y37250D02*
D03*
Y47250D02*
D03*
X213254D02*
D03*
Y37250D02*
D03*
X256000Y256000D02*
D03*
Y246000D02*
D03*
X246500Y268000D02*
D03*
Y278000D02*
D03*
X237250Y268000D02*
D03*
Y278000D02*
D03*
X610250Y228000D02*
D03*
Y218000D02*
D03*
X599000Y264750D02*
D03*
Y254750D02*
D03*
X543819Y89319D02*
D03*
Y99319D02*
D03*
X125000Y88250D02*
D03*
Y98250D02*
D03*
X642250Y245500D02*
D03*
Y235500D02*
D03*
X639500Y59000D02*
D03*
Y49000D02*
D03*
Y79500D02*
D03*
Y69500D02*
D03*
X568250Y569450D02*
D03*
Y559450D02*
D03*
X576750Y636200D02*
D03*
Y646200D02*
D03*
X74500Y407950D02*
D03*
Y397950D02*
D03*
X77250Y466950D02*
D03*
Y456950D02*
D03*
X374500Y425950D02*
D03*
Y415950D02*
D03*
X120250Y441450D02*
D03*
Y431450D02*
D03*
X227000Y591700D02*
D03*
Y601700D02*
D03*
X339250Y562700D02*
D03*
Y572700D02*
D03*
X413750Y444950D02*
D03*
X413750Y454950D02*
D03*
X223250Y400950D02*
D03*
Y410950D02*
D03*
X213254D02*
D03*
Y400950D02*
D03*
X256000Y619700D02*
D03*
Y609700D02*
D03*
X246500Y631700D02*
D03*
Y641700D02*
D03*
X237250Y631700D02*
D03*
Y641700D02*
D03*
X610250Y591700D02*
D03*
Y581700D02*
D03*
X599000Y628450D02*
D03*
Y618450D02*
D03*
X543819Y453019D02*
D03*
Y463019D02*
D03*
X125000Y451950D02*
D03*
Y461950D02*
D03*
X642250Y609200D02*
D03*
Y599200D02*
D03*
X639500Y422700D02*
D03*
Y412700D02*
D03*
Y443200D02*
D03*
Y433200D02*
D03*
X568250Y933150D02*
D03*
Y923150D02*
D03*
X576750Y999900D02*
D03*
Y1009900D02*
D03*
X74500Y771650D02*
D03*
Y761650D02*
D03*
X77250Y830650D02*
D03*
Y820650D02*
D03*
X374500Y789650D02*
D03*
Y779650D02*
D03*
X120250Y805150D02*
D03*
Y795150D02*
D03*
X227000Y955400D02*
D03*
Y965400D02*
D03*
X339250Y926400D02*
D03*
Y936400D02*
D03*
X413750Y808650D02*
D03*
X413750Y818650D02*
D03*
X223250Y764650D02*
D03*
Y774650D02*
D03*
X213254D02*
D03*
Y764650D02*
D03*
X256000Y983400D02*
D03*
Y973400D02*
D03*
X246500Y995400D02*
D03*
Y1005400D02*
D03*
X237250Y995400D02*
D03*
Y1005400D02*
D03*
X610250Y955400D02*
D03*
Y945400D02*
D03*
X599000Y992150D02*
D03*
Y982150D02*
D03*
X543819Y816719D02*
D03*
Y826719D02*
D03*
X125000Y815650D02*
D03*
Y825650D02*
D03*
X642250Y972900D02*
D03*
Y962900D02*
D03*
X639500Y786400D02*
D03*
Y776400D02*
D03*
Y806900D02*
D03*
Y796900D02*
D03*
X568250Y1296850D02*
D03*
Y1286850D02*
D03*
X576750Y1363600D02*
D03*
Y1373600D02*
D03*
X74500Y1135350D02*
D03*
Y1125350D02*
D03*
X77250Y1194350D02*
D03*
Y1184350D02*
D03*
X374500Y1153350D02*
D03*
Y1143350D02*
D03*
X120250Y1168850D02*
D03*
Y1158850D02*
D03*
X227000Y1319100D02*
D03*
Y1329100D02*
D03*
X339250Y1290100D02*
D03*
Y1300100D02*
D03*
X413750Y1172350D02*
D03*
X413750Y1182350D02*
D03*
X223250Y1128350D02*
D03*
Y1138350D02*
D03*
X213254D02*
D03*
Y1128350D02*
D03*
X256000Y1347100D02*
D03*
Y1337100D02*
D03*
X246500Y1359100D02*
D03*
Y1369100D02*
D03*
X237250Y1359100D02*
D03*
Y1369100D02*
D03*
X610250Y1319100D02*
D03*
Y1309100D02*
D03*
X599000Y1355850D02*
D03*
Y1345850D02*
D03*
X543819Y1180419D02*
D03*
Y1190419D02*
D03*
X125000Y1179350D02*
D03*
Y1189350D02*
D03*
X642250Y1336600D02*
D03*
Y1326600D02*
D03*
X639500Y1150100D02*
D03*
Y1140100D02*
D03*
Y1170600D02*
D03*
Y1160600D02*
D03*
D133*
X255750Y230000D02*
D03*
X245750D02*
D03*
X74500Y80750D02*
D03*
X84500D02*
D03*
X124000Y37500D02*
D03*
X134000D02*
D03*
X108000Y48500D02*
D03*
X118000D02*
D03*
X620125Y162625D02*
D03*
X610125D02*
D03*
X587500Y282500D02*
D03*
X597500D02*
D03*
X587250Y118750D02*
D03*
X577250D02*
D03*
X588750Y195750D02*
D03*
X578750Y195750D02*
D03*
X627625Y151625D02*
D03*
X617625D02*
D03*
X632875Y207875D02*
D03*
X622875D02*
D03*
X643250Y219000D02*
D03*
X633250D02*
D03*
X642750Y140500D02*
D03*
X632750Y140500D02*
D03*
X206250Y215250D02*
D03*
X196250D02*
D03*
X48750Y265750D02*
D03*
X38750D02*
D03*
X48750Y254750D02*
D03*
X38750D02*
D03*
X368000Y135750D02*
D03*
X378000D02*
D03*
X365750Y253750D02*
D03*
X375750D02*
D03*
X344750D02*
D03*
X354750D02*
D03*
X22525Y151705D02*
D03*
X12525D02*
D03*
X360500Y54250D02*
D03*
X350500D02*
D03*
X119500Y201750D02*
D03*
X129500D02*
D03*
X149750D02*
D03*
X139750D02*
D03*
X48750Y243750D02*
D03*
X38750D02*
D03*
X96000Y164750D02*
D03*
X106000D02*
D03*
X94250Y237500D02*
D03*
X104250D02*
D03*
X216250Y280250D02*
D03*
X226250D02*
D03*
X164500Y93750D02*
D03*
X174500D02*
D03*
X176391Y81901D02*
D03*
X186391D02*
D03*
X269500Y82000D02*
D03*
X279500D02*
D03*
X186391Y70901D02*
D03*
X176391D02*
D03*
X279500Y71000D02*
D03*
X269500D02*
D03*
X632750Y129500D02*
D03*
X642750D02*
D03*
X368010Y146214D02*
D03*
X378010D02*
D03*
X373260Y193714D02*
D03*
X383260D02*
D03*
X373223Y182750D02*
D03*
X383223D02*
D03*
X373000Y112777D02*
D03*
X383000D02*
D03*
X371000Y94277D02*
D03*
X361000D02*
D03*
X401500Y89027D02*
D03*
X391500D02*
D03*
X393500Y100027D02*
D03*
X383500D02*
D03*
X401510Y77964D02*
D03*
X391510D02*
D03*
X306000Y261750D02*
D03*
X316000D02*
D03*
X305944Y272913D02*
D03*
X315944D02*
D03*
X151750Y268250D02*
D03*
X161750D02*
D03*
X618000Y58780D02*
D03*
X628000D02*
D03*
X618000Y69750D02*
D03*
X628000D02*
D03*
X255750Y593700D02*
D03*
X245750D02*
D03*
X74500Y444450D02*
D03*
X84500D02*
D03*
X124000Y401200D02*
D03*
X134000D02*
D03*
X108000Y412200D02*
D03*
X118000D02*
D03*
X620125Y526325D02*
D03*
X610125D02*
D03*
X587500Y646200D02*
D03*
X597500D02*
D03*
X587250Y482450D02*
D03*
X577250D02*
D03*
X588750Y559450D02*
D03*
X578750Y559450D02*
D03*
X627625Y515325D02*
D03*
X617625D02*
D03*
X632875Y571575D02*
D03*
X622875D02*
D03*
X643250Y582700D02*
D03*
X633250D02*
D03*
X642750Y504200D02*
D03*
X632750Y504200D02*
D03*
X206250Y578950D02*
D03*
X196250D02*
D03*
X48750Y629450D02*
D03*
X38750D02*
D03*
X48750Y618450D02*
D03*
X38750D02*
D03*
X368000Y499450D02*
D03*
X378000D02*
D03*
X365750Y617450D02*
D03*
X375750D02*
D03*
X344750D02*
D03*
X354750D02*
D03*
X22525Y515405D02*
D03*
X12525D02*
D03*
X360500Y417950D02*
D03*
X350500D02*
D03*
X119500Y565450D02*
D03*
X129500D02*
D03*
X149750D02*
D03*
X139750D02*
D03*
X48750Y607450D02*
D03*
X38750D02*
D03*
X96000Y528450D02*
D03*
X106000D02*
D03*
X94250Y601200D02*
D03*
X104250D02*
D03*
X216250Y643950D02*
D03*
X226250D02*
D03*
X164500Y457450D02*
D03*
X174500D02*
D03*
X176391Y445601D02*
D03*
X186391D02*
D03*
X269500Y445700D02*
D03*
X279500D02*
D03*
X186391Y434601D02*
D03*
X176391D02*
D03*
X279500Y434700D02*
D03*
X269500D02*
D03*
X632750Y493200D02*
D03*
X642750D02*
D03*
X368010Y509914D02*
D03*
X378010D02*
D03*
X373260Y557414D02*
D03*
X383260D02*
D03*
X373223Y546450D02*
D03*
X383223D02*
D03*
X373000Y476477D02*
D03*
X383000D02*
D03*
X371000Y457977D02*
D03*
X361000D02*
D03*
X401500Y452727D02*
D03*
X391500D02*
D03*
X393500Y463727D02*
D03*
X383500D02*
D03*
X401510Y441664D02*
D03*
X391510D02*
D03*
X306000Y625450D02*
D03*
X316000D02*
D03*
X305944Y636613D02*
D03*
X315944D02*
D03*
X151750Y631950D02*
D03*
X161750D02*
D03*
X618000Y422480D02*
D03*
X628000D02*
D03*
X618000Y433450D02*
D03*
X628000D02*
D03*
X255750Y957400D02*
D03*
X245750D02*
D03*
X74500Y808150D02*
D03*
X84500D02*
D03*
X124000Y764900D02*
D03*
X134000D02*
D03*
X108000Y775900D02*
D03*
X118000D02*
D03*
X620125Y890025D02*
D03*
X610125D02*
D03*
X587500Y1009900D02*
D03*
X597500D02*
D03*
X587250Y846150D02*
D03*
X577250D02*
D03*
X588750Y923150D02*
D03*
X578750Y923150D02*
D03*
X627625Y879025D02*
D03*
X617625D02*
D03*
X632875Y935275D02*
D03*
X622875D02*
D03*
X643250Y946400D02*
D03*
X633250D02*
D03*
X642750Y867900D02*
D03*
X632750Y867900D02*
D03*
X206250Y942650D02*
D03*
X196250D02*
D03*
X48750Y993150D02*
D03*
X38750D02*
D03*
X48750Y982150D02*
D03*
X38750D02*
D03*
X368000Y863150D02*
D03*
X378000D02*
D03*
X365750Y981150D02*
D03*
X375750D02*
D03*
X344750D02*
D03*
X354750D02*
D03*
X22525Y879105D02*
D03*
X12525D02*
D03*
X360500Y781650D02*
D03*
X350500D02*
D03*
X119500Y929150D02*
D03*
X129500D02*
D03*
X149750D02*
D03*
X139750D02*
D03*
X48750Y971150D02*
D03*
X38750D02*
D03*
X96000Y892150D02*
D03*
X106000D02*
D03*
X94250Y964900D02*
D03*
X104250D02*
D03*
X216250Y1007650D02*
D03*
X226250D02*
D03*
X164500Y821150D02*
D03*
X174500D02*
D03*
X176391Y809301D02*
D03*
X186391D02*
D03*
X269500Y809400D02*
D03*
X279500D02*
D03*
X186391Y798301D02*
D03*
X176391D02*
D03*
X279500Y798400D02*
D03*
X269500D02*
D03*
X632750Y856900D02*
D03*
X642750D02*
D03*
X368010Y873614D02*
D03*
X378010D02*
D03*
X373260Y921114D02*
D03*
X383260D02*
D03*
X373223Y910150D02*
D03*
X383223D02*
D03*
X373000Y840177D02*
D03*
X383000D02*
D03*
X371000Y821677D02*
D03*
X361000D02*
D03*
X401500Y816427D02*
D03*
X391500D02*
D03*
X393500Y827427D02*
D03*
X383500D02*
D03*
X401510Y805364D02*
D03*
X391510D02*
D03*
X306000Y989150D02*
D03*
X316000D02*
D03*
X305944Y1000313D02*
D03*
X315944D02*
D03*
X151750Y995650D02*
D03*
X161750D02*
D03*
X618000Y786180D02*
D03*
X628000D02*
D03*
X618000Y797150D02*
D03*
X628000D02*
D03*
X255750Y1321100D02*
D03*
X245750D02*
D03*
X74500Y1171850D02*
D03*
X84500D02*
D03*
X124000Y1128600D02*
D03*
X134000D02*
D03*
X108000Y1139600D02*
D03*
X118000D02*
D03*
X620125Y1253725D02*
D03*
X610125D02*
D03*
X587500Y1373600D02*
D03*
X597500D02*
D03*
X587250Y1209850D02*
D03*
X577250D02*
D03*
X588750Y1286850D02*
D03*
X578750Y1286850D02*
D03*
X627625Y1242725D02*
D03*
X617625D02*
D03*
X632875Y1298975D02*
D03*
X622875D02*
D03*
X643250Y1310100D02*
D03*
X633250D02*
D03*
X642750Y1231600D02*
D03*
X632750Y1231600D02*
D03*
X206250Y1306350D02*
D03*
X196250D02*
D03*
X48750Y1356850D02*
D03*
X38750D02*
D03*
X48750Y1345850D02*
D03*
X38750D02*
D03*
X368000Y1226850D02*
D03*
X378000D02*
D03*
X365750Y1344850D02*
D03*
X375750D02*
D03*
X344750D02*
D03*
X354750D02*
D03*
X22525Y1242805D02*
D03*
X12525D02*
D03*
X360500Y1145350D02*
D03*
X350500D02*
D03*
X119500Y1292850D02*
D03*
X129500D02*
D03*
X149750D02*
D03*
X139750D02*
D03*
X48750Y1334850D02*
D03*
X38750D02*
D03*
X96000Y1255850D02*
D03*
X106000D02*
D03*
X94250Y1328600D02*
D03*
X104250D02*
D03*
X216250Y1371350D02*
D03*
X226250D02*
D03*
X164500Y1184850D02*
D03*
X174500D02*
D03*
X176391Y1173001D02*
D03*
X186391D02*
D03*
X269500Y1173100D02*
D03*
X279500D02*
D03*
X186391Y1162001D02*
D03*
X176391D02*
D03*
X279500Y1162100D02*
D03*
X269500D02*
D03*
X632750Y1220600D02*
D03*
X642750D02*
D03*
X368010Y1237314D02*
D03*
X378010D02*
D03*
X373260Y1284814D02*
D03*
X383260D02*
D03*
X373223Y1273850D02*
D03*
X383223D02*
D03*
X373000Y1203877D02*
D03*
X383000D02*
D03*
X371000Y1185377D02*
D03*
X361000D02*
D03*
X401500Y1180127D02*
D03*
X391500D02*
D03*
X393500Y1191127D02*
D03*
X383500D02*
D03*
X401510Y1169064D02*
D03*
X391510D02*
D03*
X306000Y1352850D02*
D03*
X316000D02*
D03*
X305944Y1364014D02*
D03*
X315944D02*
D03*
X151750Y1359350D02*
D03*
X161750D02*
D03*
X618000Y1149880D02*
D03*
X628000D02*
D03*
X618000Y1160850D02*
D03*
X628000D02*
D03*
D134*
X302500Y87250D02*
D03*
Y104250D02*
D03*
X312500Y192350D02*
D03*
Y209350D02*
D03*
X106750Y109850D02*
D03*
Y126850D02*
D03*
X320500Y99750D02*
D03*
Y116750D02*
D03*
X130000Y246000D02*
D03*
Y229000D02*
D03*
X302500Y450950D02*
D03*
Y467950D02*
D03*
X312500Y556050D02*
D03*
Y573050D02*
D03*
X106750Y473550D02*
D03*
Y490550D02*
D03*
X320500Y463450D02*
D03*
Y480450D02*
D03*
X130000Y609700D02*
D03*
Y592700D02*
D03*
X302500Y814650D02*
D03*
Y831650D02*
D03*
X312500Y919750D02*
D03*
Y936750D02*
D03*
X106750Y837250D02*
D03*
Y854250D02*
D03*
X320500Y827150D02*
D03*
Y844150D02*
D03*
X130000Y973400D02*
D03*
Y956400D02*
D03*
X302500Y1178350D02*
D03*
Y1195350D02*
D03*
X312500Y1283450D02*
D03*
Y1300450D02*
D03*
X106750Y1200950D02*
D03*
Y1217950D02*
D03*
X320500Y1190850D02*
D03*
Y1207850D02*
D03*
X130000Y1337100D02*
D03*
Y1320100D02*
D03*
D135*
X309500Y247000D02*
D03*
X319500D02*
D03*
X566500Y129250D02*
D03*
X576500D02*
D03*
X48750Y233250D02*
D03*
X38750D02*
D03*
X12500Y162000D02*
D03*
X22500D02*
D03*
X104750Y97750D02*
D03*
X114750D02*
D03*
X400500Y252000D02*
D03*
X390500D02*
D03*
X101000Y250250D02*
D03*
X91000D02*
D03*
X160501Y125100D02*
D03*
X150500D02*
D03*
X160751Y202350D02*
D03*
X170751D02*
D03*
X201750Y280250D02*
D03*
X191750D02*
D03*
X555853Y93750D02*
D03*
X565853D02*
D03*
X523250Y98750D02*
D03*
X533250D02*
D03*
X434000Y45750D02*
D03*
X444000D02*
D03*
X443918Y74667D02*
D03*
X433918D02*
D03*
X151750Y257750D02*
D03*
X161750D02*
D03*
X151750Y278750D02*
D03*
X161750D02*
D03*
X612000Y107750D02*
D03*
X602000D02*
D03*
X593750Y80250D02*
D03*
X583750D02*
D03*
X555853Y103750D02*
D03*
X565853D02*
D03*
X433918Y64667D02*
D03*
X443918D02*
D03*
X434000Y35500D02*
D03*
X444000D02*
D03*
X657000Y274500D02*
D03*
X647000D02*
D03*
X309500Y610700D02*
D03*
X319500D02*
D03*
X566500Y492950D02*
D03*
X576500D02*
D03*
X48750Y596950D02*
D03*
X38750D02*
D03*
X12500Y525700D02*
D03*
X22500D02*
D03*
X104750Y461450D02*
D03*
X114750D02*
D03*
X400500Y615700D02*
D03*
X390500D02*
D03*
X101000Y613950D02*
D03*
X91000D02*
D03*
X160501Y488800D02*
D03*
X150500D02*
D03*
X160751Y566050D02*
D03*
X170751D02*
D03*
X201750Y643950D02*
D03*
X191750D02*
D03*
X555853Y457450D02*
D03*
X565853D02*
D03*
X523250Y462450D02*
D03*
X533250D02*
D03*
X434000Y409450D02*
D03*
X444000D02*
D03*
X443918Y438367D02*
D03*
X433918D02*
D03*
X151750Y621450D02*
D03*
X161750D02*
D03*
X151750Y642450D02*
D03*
X161750D02*
D03*
X612000Y471450D02*
D03*
X602000D02*
D03*
X593750Y443950D02*
D03*
X583750D02*
D03*
X555853Y467450D02*
D03*
X565853D02*
D03*
X433918Y428367D02*
D03*
X443918D02*
D03*
X434000Y399200D02*
D03*
X444000D02*
D03*
X657000Y638200D02*
D03*
X647000D02*
D03*
X309500Y974400D02*
D03*
X319500D02*
D03*
X566500Y856650D02*
D03*
X576500D02*
D03*
X48750Y960650D02*
D03*
X38750D02*
D03*
X12500Y889400D02*
D03*
X22500D02*
D03*
X104750Y825150D02*
D03*
X114750D02*
D03*
X400500Y979400D02*
D03*
X390500D02*
D03*
X101000Y977650D02*
D03*
X91000D02*
D03*
X160501Y852500D02*
D03*
X150500D02*
D03*
X160751Y929750D02*
D03*
X170751D02*
D03*
X201750Y1007650D02*
D03*
X191750D02*
D03*
X555853Y821150D02*
D03*
X565853D02*
D03*
X523250Y826150D02*
D03*
X533250D02*
D03*
X434000Y773150D02*
D03*
X444000D02*
D03*
X443918Y802067D02*
D03*
X433918D02*
D03*
X151750Y985150D02*
D03*
X161750D02*
D03*
X151750Y1006150D02*
D03*
X161750D02*
D03*
X612000Y835150D02*
D03*
X602000D02*
D03*
X593750Y807650D02*
D03*
X583750D02*
D03*
X555853Y831150D02*
D03*
X565853D02*
D03*
X433918Y792067D02*
D03*
X443918D02*
D03*
X434000Y762900D02*
D03*
X444000D02*
D03*
X657000Y1001900D02*
D03*
X647000D02*
D03*
X309500Y1338100D02*
D03*
X319500D02*
D03*
X566500Y1220350D02*
D03*
X576500D02*
D03*
X48750Y1324350D02*
D03*
X38750D02*
D03*
X12500Y1253100D02*
D03*
X22500D02*
D03*
X104750Y1188850D02*
D03*
X114750D02*
D03*
X400500Y1343100D02*
D03*
X390500D02*
D03*
X101000Y1341350D02*
D03*
X91000D02*
D03*
X160501Y1216200D02*
D03*
X150500D02*
D03*
X160751Y1293450D02*
D03*
X170751D02*
D03*
X201750Y1371350D02*
D03*
X191750D02*
D03*
X555853Y1184850D02*
D03*
X565853D02*
D03*
X523250Y1189850D02*
D03*
X533250D02*
D03*
X434000Y1136850D02*
D03*
X444000D02*
D03*
X443918Y1165767D02*
D03*
X433918D02*
D03*
X151750Y1348850D02*
D03*
X161750D02*
D03*
X151750Y1369850D02*
D03*
X161750D02*
D03*
X612000Y1198850D02*
D03*
X602000D02*
D03*
X593750Y1171350D02*
D03*
X583750D02*
D03*
X555853Y1194850D02*
D03*
X565853D02*
D03*
X433918Y1155767D02*
D03*
X443918D02*
D03*
X434000Y1126600D02*
D03*
X444000D02*
D03*
X657000Y1365600D02*
D03*
X647000D02*
D03*
D145*
X491500Y168200D02*
D03*
Y173800D02*
D03*
X493890Y191950D02*
D03*
Y197550D02*
D03*
X498250Y173800D02*
D03*
Y168200D02*
D03*
X258500Y114300D02*
D03*
Y108700D02*
D03*
X196751Y157650D02*
D03*
Y152050D02*
D03*
X188750Y115050D02*
D03*
Y120650D02*
D03*
X111500Y76050D02*
D03*
Y70450D02*
D03*
X196250Y169400D02*
D03*
Y163800D02*
D03*
X245250Y108700D02*
D03*
Y114300D02*
D03*
X252000Y108700D02*
D03*
X252000Y114300D02*
D03*
X267500Y134950D02*
D03*
X267500Y140550D02*
D03*
X260400Y218260D02*
D03*
Y212660D02*
D03*
X252950Y218510D02*
D03*
Y212910D02*
D03*
X260250Y135200D02*
D03*
Y140800D02*
D03*
X252500Y135200D02*
D03*
X252500Y140800D02*
D03*
X268600Y218260D02*
D03*
Y212660D02*
D03*
X234500Y118700D02*
D03*
Y124300D02*
D03*
X251500Y125450D02*
D03*
Y131050D02*
D03*
X246000Y137550D02*
D03*
X246000Y131950D02*
D03*
X276500Y218300D02*
D03*
Y212700D02*
D03*
X302750Y203300D02*
D03*
Y197700D02*
D03*
X398510Y140940D02*
D03*
Y135340D02*
D03*
X391250Y141027D02*
D03*
Y135427D02*
D03*
X383250Y154750D02*
D03*
Y160350D02*
D03*
X399260Y165414D02*
D03*
Y171014D02*
D03*
X391460Y168214D02*
D03*
Y173814D02*
D03*
X392000Y193714D02*
D03*
Y188114D02*
D03*
X400500Y193714D02*
D03*
Y188114D02*
D03*
X398010Y227764D02*
D03*
Y222164D02*
D03*
X388000Y222027D02*
D03*
Y227627D02*
D03*
X418760Y208414D02*
D03*
Y214014D02*
D03*
X405750Y214777D02*
D03*
Y220377D02*
D03*
X413260Y219414D02*
D03*
Y225014D02*
D03*
X426760Y168014D02*
D03*
Y162414D02*
D03*
X419250Y168110D02*
D03*
Y162510D02*
D03*
X426760Y179014D02*
D03*
Y173414D02*
D03*
X419250Y179014D02*
D03*
Y173414D02*
D03*
X454760Y203714D02*
D03*
Y198114D02*
D03*
X431760Y217414D02*
D03*
Y223014D02*
D03*
X451250Y192027D02*
D03*
Y186427D02*
D03*
X458260Y215164D02*
D03*
Y220764D02*
D03*
X520500Y132027D02*
D03*
Y137627D02*
D03*
X531214Y117673D02*
D03*
Y112073D02*
D03*
X539437Y117817D02*
D03*
Y112217D02*
D03*
X439000Y125100D02*
D03*
Y119500D02*
D03*
X447270Y122964D02*
D03*
Y128564D02*
D03*
X442250Y102300D02*
D03*
Y96700D02*
D03*
X512460Y113514D02*
D03*
Y107914D02*
D03*
X422510Y103514D02*
D03*
Y97914D02*
D03*
X389260Y126514D02*
D03*
Y120914D02*
D03*
X378750Y126527D02*
D03*
Y120927D02*
D03*
X396250Y112277D02*
D03*
Y117877D02*
D03*
X448750Y101550D02*
D03*
Y95950D02*
D03*
X494740Y107000D02*
D03*
Y101400D02*
D03*
X426060Y86564D02*
D03*
Y80964D02*
D03*
X431500Y99250D02*
D03*
Y93650D02*
D03*
X471750Y97200D02*
D03*
Y102800D02*
D03*
X465050Y100450D02*
D03*
Y106050D02*
D03*
X491500Y531900D02*
D03*
Y537500D02*
D03*
X493890Y555650D02*
D03*
Y561250D02*
D03*
X498250Y537500D02*
D03*
Y531900D02*
D03*
X258500Y478000D02*
D03*
Y472400D02*
D03*
X196751Y521350D02*
D03*
Y515750D02*
D03*
X188750Y478750D02*
D03*
Y484350D02*
D03*
X111500Y439750D02*
D03*
Y434150D02*
D03*
X196250Y533100D02*
D03*
Y527500D02*
D03*
X245250Y472400D02*
D03*
Y478000D02*
D03*
X252000Y472400D02*
D03*
X252000Y478000D02*
D03*
X267500Y498650D02*
D03*
X267500Y504250D02*
D03*
X260400Y581960D02*
D03*
Y576360D02*
D03*
X252950Y582210D02*
D03*
Y576610D02*
D03*
X260250Y498900D02*
D03*
Y504500D02*
D03*
X252500Y498900D02*
D03*
X252500Y504500D02*
D03*
X268600Y581960D02*
D03*
Y576360D02*
D03*
X234500Y482400D02*
D03*
Y488000D02*
D03*
X251500Y489150D02*
D03*
Y494750D02*
D03*
X246000Y501250D02*
D03*
X246000Y495650D02*
D03*
X276500Y582000D02*
D03*
Y576400D02*
D03*
X302750Y567000D02*
D03*
Y561400D02*
D03*
X398510Y504640D02*
D03*
Y499040D02*
D03*
X391250Y504727D02*
D03*
Y499127D02*
D03*
X383250Y518450D02*
D03*
Y524050D02*
D03*
X399260Y529114D02*
D03*
Y534714D02*
D03*
X391460Y531914D02*
D03*
Y537514D02*
D03*
X392000Y557414D02*
D03*
Y551814D02*
D03*
X400500Y557414D02*
D03*
Y551814D02*
D03*
X398010Y591464D02*
D03*
Y585864D02*
D03*
X388000Y585727D02*
D03*
Y591327D02*
D03*
X418760Y572114D02*
D03*
Y577714D02*
D03*
X405750Y578477D02*
D03*
Y584077D02*
D03*
X413260Y583114D02*
D03*
Y588714D02*
D03*
X426760Y531714D02*
D03*
Y526114D02*
D03*
X419250Y531810D02*
D03*
Y526210D02*
D03*
X426760Y542714D02*
D03*
Y537114D02*
D03*
X419250Y542714D02*
D03*
Y537114D02*
D03*
X454760Y567414D02*
D03*
Y561814D02*
D03*
X431760Y581114D02*
D03*
Y586714D02*
D03*
X451250Y555727D02*
D03*
Y550127D02*
D03*
X458260Y578864D02*
D03*
Y584464D02*
D03*
X520500Y495727D02*
D03*
Y501327D02*
D03*
X531214Y481373D02*
D03*
Y475773D02*
D03*
X539437Y481517D02*
D03*
Y475917D02*
D03*
X439000Y488800D02*
D03*
Y483200D02*
D03*
X447270Y486664D02*
D03*
Y492264D02*
D03*
X442250Y466000D02*
D03*
Y460400D02*
D03*
X512460Y477214D02*
D03*
Y471614D02*
D03*
X422510Y467214D02*
D03*
Y461614D02*
D03*
X389260Y490214D02*
D03*
Y484614D02*
D03*
X378750Y490227D02*
D03*
Y484627D02*
D03*
X396250Y475977D02*
D03*
Y481577D02*
D03*
X448750Y465250D02*
D03*
Y459650D02*
D03*
X494740Y470700D02*
D03*
Y465100D02*
D03*
X426060Y450264D02*
D03*
Y444664D02*
D03*
X431500Y462950D02*
D03*
Y457350D02*
D03*
X471750Y460900D02*
D03*
Y466500D02*
D03*
X465050Y464150D02*
D03*
Y469750D02*
D03*
X491500Y895600D02*
D03*
Y901200D02*
D03*
X493890Y919350D02*
D03*
Y924950D02*
D03*
X498250Y901200D02*
D03*
Y895600D02*
D03*
X258500Y841700D02*
D03*
Y836100D02*
D03*
X196751Y885050D02*
D03*
Y879450D02*
D03*
X188750Y842450D02*
D03*
Y848050D02*
D03*
X111500Y803450D02*
D03*
Y797850D02*
D03*
X196250Y896800D02*
D03*
Y891200D02*
D03*
X245250Y836100D02*
D03*
Y841700D02*
D03*
X252000Y836100D02*
D03*
X252000Y841700D02*
D03*
X267500Y862350D02*
D03*
X267500Y867950D02*
D03*
X260400Y945660D02*
D03*
Y940060D02*
D03*
X252950Y945910D02*
D03*
Y940310D02*
D03*
X260250Y862600D02*
D03*
Y868200D02*
D03*
X252500Y862600D02*
D03*
X252500Y868200D02*
D03*
X268600Y945660D02*
D03*
Y940060D02*
D03*
X234500Y846100D02*
D03*
Y851700D02*
D03*
X251500Y852850D02*
D03*
Y858450D02*
D03*
X246000Y864950D02*
D03*
X246000Y859350D02*
D03*
X276500Y945700D02*
D03*
Y940100D02*
D03*
X302750Y930700D02*
D03*
Y925100D02*
D03*
X398510Y868340D02*
D03*
Y862740D02*
D03*
X391250Y868427D02*
D03*
Y862827D02*
D03*
X383250Y882150D02*
D03*
Y887750D02*
D03*
X399260Y892814D02*
D03*
Y898414D02*
D03*
X391460Y895614D02*
D03*
Y901214D02*
D03*
X392000Y921114D02*
D03*
Y915514D02*
D03*
X400500Y921114D02*
D03*
Y915514D02*
D03*
X398010Y955164D02*
D03*
Y949564D02*
D03*
X388000Y949427D02*
D03*
Y955027D02*
D03*
X418760Y935814D02*
D03*
Y941414D02*
D03*
X405750Y942177D02*
D03*
Y947777D02*
D03*
X413260Y946814D02*
D03*
Y952414D02*
D03*
X426760Y895414D02*
D03*
Y889814D02*
D03*
X419250Y895510D02*
D03*
Y889910D02*
D03*
X426760Y906414D02*
D03*
Y900814D02*
D03*
X419250Y906414D02*
D03*
Y900814D02*
D03*
X454760Y931114D02*
D03*
Y925514D02*
D03*
X431760Y944814D02*
D03*
Y950414D02*
D03*
X451250Y919427D02*
D03*
Y913827D02*
D03*
X458260Y942564D02*
D03*
Y948164D02*
D03*
X520500Y859427D02*
D03*
Y865027D02*
D03*
X531214Y845073D02*
D03*
Y839473D02*
D03*
X539437Y845217D02*
D03*
Y839617D02*
D03*
X439000Y852500D02*
D03*
Y846900D02*
D03*
X447270Y850364D02*
D03*
Y855964D02*
D03*
X442250Y829700D02*
D03*
Y824100D02*
D03*
X512460Y840914D02*
D03*
Y835314D02*
D03*
X422510Y830914D02*
D03*
Y825314D02*
D03*
X389260Y853914D02*
D03*
Y848314D02*
D03*
X378750Y853927D02*
D03*
Y848327D02*
D03*
X396250Y839677D02*
D03*
Y845277D02*
D03*
X448750Y828950D02*
D03*
Y823350D02*
D03*
X494740Y834400D02*
D03*
Y828800D02*
D03*
X426060Y813964D02*
D03*
Y808364D02*
D03*
X431500Y826650D02*
D03*
Y821050D02*
D03*
X471750Y824600D02*
D03*
Y830200D02*
D03*
X465050Y827850D02*
D03*
Y833450D02*
D03*
X491500Y1259300D02*
D03*
Y1264900D02*
D03*
X493890Y1283050D02*
D03*
Y1288650D02*
D03*
X498250Y1264900D02*
D03*
Y1259300D02*
D03*
X258500Y1205400D02*
D03*
Y1199800D02*
D03*
X196751Y1248750D02*
D03*
Y1243150D02*
D03*
X188750Y1206150D02*
D03*
Y1211750D02*
D03*
X111500Y1167150D02*
D03*
Y1161550D02*
D03*
X196250Y1260500D02*
D03*
Y1254900D02*
D03*
X245250Y1199800D02*
D03*
Y1205400D02*
D03*
X252000Y1199800D02*
D03*
X252000Y1205400D02*
D03*
X267500Y1226050D02*
D03*
X267500Y1231650D02*
D03*
X260400Y1309360D02*
D03*
Y1303760D02*
D03*
X252950Y1309610D02*
D03*
Y1304010D02*
D03*
X260250Y1226300D02*
D03*
Y1231900D02*
D03*
X252500Y1226300D02*
D03*
X252500Y1231900D02*
D03*
X268600Y1309360D02*
D03*
Y1303760D02*
D03*
X234500Y1209800D02*
D03*
Y1215400D02*
D03*
X251500Y1216550D02*
D03*
Y1222150D02*
D03*
X246000Y1228650D02*
D03*
X246000Y1223050D02*
D03*
X276500Y1309400D02*
D03*
Y1303800D02*
D03*
X302750Y1294400D02*
D03*
Y1288800D02*
D03*
X398510Y1232040D02*
D03*
Y1226440D02*
D03*
X391250Y1232127D02*
D03*
Y1226527D02*
D03*
X383250Y1245850D02*
D03*
Y1251450D02*
D03*
X399260Y1256514D02*
D03*
Y1262114D02*
D03*
X391460Y1259314D02*
D03*
Y1264914D02*
D03*
X392000Y1284814D02*
D03*
Y1279214D02*
D03*
X400500Y1284814D02*
D03*
Y1279214D02*
D03*
X398010Y1318864D02*
D03*
Y1313264D02*
D03*
X388000Y1313127D02*
D03*
Y1318727D02*
D03*
X418760Y1299514D02*
D03*
Y1305114D02*
D03*
X405750Y1305877D02*
D03*
Y1311477D02*
D03*
X413260Y1310514D02*
D03*
Y1316114D02*
D03*
X426760Y1259114D02*
D03*
Y1253514D02*
D03*
X419250Y1259210D02*
D03*
Y1253610D02*
D03*
X426760Y1270114D02*
D03*
Y1264514D02*
D03*
X419250Y1270114D02*
D03*
Y1264514D02*
D03*
X454760Y1294814D02*
D03*
Y1289214D02*
D03*
X431760Y1308514D02*
D03*
Y1314114D02*
D03*
X451250Y1283127D02*
D03*
Y1277527D02*
D03*
X458260Y1306264D02*
D03*
Y1311864D02*
D03*
X520500Y1223127D02*
D03*
Y1228727D02*
D03*
X531214Y1208773D02*
D03*
Y1203173D02*
D03*
X539437Y1208917D02*
D03*
Y1203317D02*
D03*
X439000Y1216200D02*
D03*
Y1210600D02*
D03*
X447270Y1214064D02*
D03*
Y1219664D02*
D03*
X442250Y1193400D02*
D03*
Y1187800D02*
D03*
X512460Y1204614D02*
D03*
Y1199014D02*
D03*
X422510Y1194614D02*
D03*
Y1189014D02*
D03*
X389260Y1217614D02*
D03*
Y1212014D02*
D03*
X378750Y1217627D02*
D03*
Y1212027D02*
D03*
X396250Y1203377D02*
D03*
Y1208977D02*
D03*
X448750Y1192650D02*
D03*
Y1187050D02*
D03*
X494740Y1198100D02*
D03*
Y1192500D02*
D03*
X426060Y1177664D02*
D03*
Y1172064D02*
D03*
X431500Y1190350D02*
D03*
Y1184750D02*
D03*
X471750Y1188300D02*
D03*
Y1193900D02*
D03*
X465050Y1191550D02*
D03*
Y1197150D02*
D03*
D150*
X155950Y248750D02*
D03*
X161550D02*
D03*
X275300Y115500D02*
D03*
X269700D02*
D03*
X317700Y154000D02*
D03*
X323300D02*
D03*
X275300Y122500D02*
D03*
X269700D02*
D03*
X317700Y173500D02*
D03*
X323300Y173500D02*
D03*
X317700Y160500D02*
D03*
X323300Y160500D02*
D03*
X317700Y167250D02*
D03*
X323300D02*
D03*
X508200Y179000D02*
D03*
X513800D02*
D03*
X501080Y191420D02*
D03*
X506680D02*
D03*
X513800Y172500D02*
D03*
X508200D02*
D03*
X115300Y250500D02*
D03*
X109700D02*
D03*
X156700Y110350D02*
D03*
X162300D02*
D03*
X151800D02*
D03*
X146201D02*
D03*
X121450Y152850D02*
D03*
X115850D02*
D03*
X185051Y202350D02*
D03*
X179450Y202350D02*
D03*
X179200Y124850D02*
D03*
X184800D02*
D03*
X125950Y190250D02*
D03*
X131550D02*
D03*
X142800Y190250D02*
D03*
X137200D02*
D03*
X121450Y140850D02*
D03*
X115850D02*
D03*
X206450Y166500D02*
D03*
X212050Y166500D02*
D03*
X206450Y158000D02*
D03*
X212050D02*
D03*
X323300Y180000D02*
D03*
X317700D02*
D03*
X206400Y193350D02*
D03*
X212000D02*
D03*
X206200Y179250D02*
D03*
X211800D02*
D03*
X206450Y185750D02*
D03*
X212050Y185750D02*
D03*
X141800Y125100D02*
D03*
X136201D02*
D03*
X269700Y130250D02*
D03*
X275300D02*
D03*
X507700Y185500D02*
D03*
X513300D02*
D03*
X424560Y122714D02*
D03*
X418960D02*
D03*
X400500Y124414D02*
D03*
X394900D02*
D03*
X376960Y155264D02*
D03*
X371360D02*
D03*
X411010Y208414D02*
D03*
X405410D02*
D03*
X427461Y155964D02*
D03*
X433060D02*
D03*
X432326Y192464D02*
D03*
X437926D02*
D03*
X444000Y209027D02*
D03*
X438400D02*
D03*
X453510Y224527D02*
D03*
X447910D02*
D03*
X449310Y216714D02*
D03*
X443710D02*
D03*
X492000Y140250D02*
D03*
X486400D02*
D03*
X484310Y133964D02*
D03*
X478710D02*
D03*
X517103Y149750D02*
D03*
X511503D02*
D03*
X517290Y143340D02*
D03*
X511690D02*
D03*
X507710Y135714D02*
D03*
X513310D02*
D03*
X525850Y119527D02*
D03*
X520250D02*
D03*
X520210Y126464D02*
D03*
X525811D02*
D03*
X479150Y126000D02*
D03*
X484750D02*
D03*
X518510Y113014D02*
D03*
X524110D02*
D03*
X426560Y91964D02*
D03*
X420960D02*
D03*
X460800Y95750D02*
D03*
X455200D02*
D03*
X460200Y118000D02*
D03*
X465800D02*
D03*
X466250Y111750D02*
D03*
X471850D02*
D03*
X465550Y124500D02*
D03*
X459950D02*
D03*
X248050Y259250D02*
D03*
X242450D02*
D03*
X155950Y612450D02*
D03*
X161550D02*
D03*
X275300Y479200D02*
D03*
X269700D02*
D03*
X317700Y517700D02*
D03*
X323300D02*
D03*
X275300Y486200D02*
D03*
X269700D02*
D03*
X317700Y537200D02*
D03*
X323300Y537200D02*
D03*
X317700Y524200D02*
D03*
X323300Y524200D02*
D03*
X317700Y530950D02*
D03*
X323300D02*
D03*
X508200Y542700D02*
D03*
X513800D02*
D03*
X501080Y555120D02*
D03*
X506680D02*
D03*
X513800Y536200D02*
D03*
X508200D02*
D03*
X115300Y614200D02*
D03*
X109700D02*
D03*
X156700Y474050D02*
D03*
X162300D02*
D03*
X151800D02*
D03*
X146201D02*
D03*
X121450Y516550D02*
D03*
X115850D02*
D03*
X185051Y566050D02*
D03*
X179450Y566050D02*
D03*
X179200Y488550D02*
D03*
X184800D02*
D03*
X125950Y553950D02*
D03*
X131550D02*
D03*
X142800Y553950D02*
D03*
X137200D02*
D03*
X121450Y504550D02*
D03*
X115850D02*
D03*
X206450Y530200D02*
D03*
X212050Y530200D02*
D03*
X206450Y521700D02*
D03*
X212050D02*
D03*
X323300Y543700D02*
D03*
X317700D02*
D03*
X206400Y557050D02*
D03*
X212000D02*
D03*
X206200Y542950D02*
D03*
X211800D02*
D03*
X206450Y549450D02*
D03*
X212050Y549450D02*
D03*
X141800Y488800D02*
D03*
X136201D02*
D03*
X269700Y493950D02*
D03*
X275300D02*
D03*
X507700Y549200D02*
D03*
X513300D02*
D03*
X424560Y486414D02*
D03*
X418960D02*
D03*
X400500Y488114D02*
D03*
X394900D02*
D03*
X376960Y518964D02*
D03*
X371360D02*
D03*
X411010Y572114D02*
D03*
X405410D02*
D03*
X427461Y519664D02*
D03*
X433060D02*
D03*
X432326Y556164D02*
D03*
X437926D02*
D03*
X444000Y572727D02*
D03*
X438400D02*
D03*
X453510Y588227D02*
D03*
X447910D02*
D03*
X449310Y580414D02*
D03*
X443710D02*
D03*
X492000Y503950D02*
D03*
X486400D02*
D03*
X484310Y497664D02*
D03*
X478710D02*
D03*
X517103Y513450D02*
D03*
X511503D02*
D03*
X517290Y507040D02*
D03*
X511690D02*
D03*
X507710Y499414D02*
D03*
X513310D02*
D03*
X525850Y483227D02*
D03*
X520250D02*
D03*
X520210Y490164D02*
D03*
X525811D02*
D03*
X479150Y489700D02*
D03*
X484750D02*
D03*
X518510Y476714D02*
D03*
X524110D02*
D03*
X426560Y455664D02*
D03*
X420960D02*
D03*
X460800Y459450D02*
D03*
X455200D02*
D03*
X460200Y481700D02*
D03*
X465800D02*
D03*
X466250Y475450D02*
D03*
X471850D02*
D03*
X465550Y488200D02*
D03*
X459950D02*
D03*
X248050Y622950D02*
D03*
X242450D02*
D03*
X155950Y976150D02*
D03*
X161550D02*
D03*
X275300Y842900D02*
D03*
X269700D02*
D03*
X317700Y881400D02*
D03*
X323300D02*
D03*
X275300Y849900D02*
D03*
X269700D02*
D03*
X317700Y900900D02*
D03*
X323300Y900900D02*
D03*
X317700Y887900D02*
D03*
X323300Y887900D02*
D03*
X317700Y894650D02*
D03*
X323300D02*
D03*
X508200Y906400D02*
D03*
X513800D02*
D03*
X501080Y918820D02*
D03*
X506680D02*
D03*
X513800Y899900D02*
D03*
X508200D02*
D03*
X115300Y977900D02*
D03*
X109700D02*
D03*
X156700Y837750D02*
D03*
X162300D02*
D03*
X151800D02*
D03*
X146201D02*
D03*
X121450Y880250D02*
D03*
X115850D02*
D03*
X185051Y929750D02*
D03*
X179450Y929750D02*
D03*
X179200Y852250D02*
D03*
X184800D02*
D03*
X125950Y917650D02*
D03*
X131550D02*
D03*
X142800Y917650D02*
D03*
X137200D02*
D03*
X121450Y868250D02*
D03*
X115850D02*
D03*
X206450Y893900D02*
D03*
X212050Y893900D02*
D03*
X206450Y885400D02*
D03*
X212050D02*
D03*
X323300Y907400D02*
D03*
X317700D02*
D03*
X206400Y920750D02*
D03*
X212000D02*
D03*
X206200Y906650D02*
D03*
X211800D02*
D03*
X206450Y913150D02*
D03*
X212050Y913150D02*
D03*
X141800Y852500D02*
D03*
X136201D02*
D03*
X269700Y857650D02*
D03*
X275300D02*
D03*
X507700Y912900D02*
D03*
X513300D02*
D03*
X424560Y850114D02*
D03*
X418960D02*
D03*
X400500Y851814D02*
D03*
X394900D02*
D03*
X376960Y882664D02*
D03*
X371360D02*
D03*
X411010Y935814D02*
D03*
X405410D02*
D03*
X427461Y883364D02*
D03*
X433060D02*
D03*
X432326Y919864D02*
D03*
X437926D02*
D03*
X444000Y936427D02*
D03*
X438400D02*
D03*
X453510Y951927D02*
D03*
X447910D02*
D03*
X449310Y944114D02*
D03*
X443710D02*
D03*
X492000Y867650D02*
D03*
X486400D02*
D03*
X484310Y861364D02*
D03*
X478710D02*
D03*
X517103Y877150D02*
D03*
X511503D02*
D03*
X517290Y870740D02*
D03*
X511690D02*
D03*
X507710Y863114D02*
D03*
X513310D02*
D03*
X525850Y846927D02*
D03*
X520250D02*
D03*
X520210Y853864D02*
D03*
X525811D02*
D03*
X479150Y853400D02*
D03*
X484750D02*
D03*
X518510Y840414D02*
D03*
X524110D02*
D03*
X426560Y819364D02*
D03*
X420960D02*
D03*
X460800Y823150D02*
D03*
X455200D02*
D03*
X460200Y845400D02*
D03*
X465800D02*
D03*
X466250Y839150D02*
D03*
X471850D02*
D03*
X465550Y851900D02*
D03*
X459950D02*
D03*
X248050Y986650D02*
D03*
X242450D02*
D03*
X155950Y1339850D02*
D03*
X161550D02*
D03*
X275300Y1206600D02*
D03*
X269700D02*
D03*
X317700Y1245100D02*
D03*
X323300D02*
D03*
X275300Y1213600D02*
D03*
X269700D02*
D03*
X317700Y1264600D02*
D03*
X323300Y1264600D02*
D03*
X317700Y1251600D02*
D03*
X323300Y1251600D02*
D03*
X317700Y1258350D02*
D03*
X323300D02*
D03*
X508200Y1270100D02*
D03*
X513800D02*
D03*
X501080Y1282520D02*
D03*
X506680D02*
D03*
X513800Y1263600D02*
D03*
X508200D02*
D03*
X115300Y1341600D02*
D03*
X109700D02*
D03*
X156700Y1201450D02*
D03*
X162300D02*
D03*
X151800D02*
D03*
X146201D02*
D03*
X121450Y1243950D02*
D03*
X115850D02*
D03*
X185051Y1293450D02*
D03*
X179450Y1293450D02*
D03*
X179200Y1215950D02*
D03*
X184800D02*
D03*
X125950Y1281350D02*
D03*
X131550D02*
D03*
X142800Y1281350D02*
D03*
X137200D02*
D03*
X121450Y1231950D02*
D03*
X115850D02*
D03*
X206450Y1257600D02*
D03*
X212050Y1257600D02*
D03*
X206450Y1249100D02*
D03*
X212050D02*
D03*
X323300Y1271100D02*
D03*
X317700D02*
D03*
X206400Y1284450D02*
D03*
X212000D02*
D03*
X206200Y1270350D02*
D03*
X211800D02*
D03*
X206450Y1276850D02*
D03*
X212050Y1276850D02*
D03*
X141800Y1216200D02*
D03*
X136201D02*
D03*
X269700Y1221350D02*
D03*
X275300D02*
D03*
X507700Y1276600D02*
D03*
X513300D02*
D03*
X424560Y1213814D02*
D03*
X418960D02*
D03*
X400500Y1215514D02*
D03*
X394900D02*
D03*
X376960Y1246364D02*
D03*
X371360D02*
D03*
X411010Y1299514D02*
D03*
X405410D02*
D03*
X427461Y1247064D02*
D03*
X433060D02*
D03*
X432326Y1283564D02*
D03*
X437926D02*
D03*
X444000Y1300127D02*
D03*
X438400D02*
D03*
X453510Y1315627D02*
D03*
X447910D02*
D03*
X449310Y1307814D02*
D03*
X443710D02*
D03*
X492000Y1231350D02*
D03*
X486400D02*
D03*
X484310Y1225064D02*
D03*
X478710D02*
D03*
X517103Y1240850D02*
D03*
X511503D02*
D03*
X517290Y1234440D02*
D03*
X511690D02*
D03*
X507710Y1226814D02*
D03*
X513310D02*
D03*
X525850Y1210627D02*
D03*
X520250D02*
D03*
X520210Y1217564D02*
D03*
X525811D02*
D03*
X479150Y1217100D02*
D03*
X484750D02*
D03*
X518510Y1204114D02*
D03*
X524110D02*
D03*
X426560Y1183064D02*
D03*
X420960D02*
D03*
X460800Y1186850D02*
D03*
X455200D02*
D03*
X460200Y1209100D02*
D03*
X465800D02*
D03*
X466250Y1202850D02*
D03*
X471850D02*
D03*
X465550Y1215600D02*
D03*
X459950D02*
D03*
X248050Y1350350D02*
D03*
X242450D02*
D03*
D151*
X114750Y24250D02*
D03*
X279750D02*
D03*
X114750Y289250D02*
D03*
X279750D02*
D03*
X114750Y387950D02*
D03*
X279750D02*
D03*
X114750Y652950D02*
D03*
X279750D02*
D03*
X114750Y751650D02*
D03*
X279750D02*
D03*
X114750Y1016650D02*
D03*
X279750D02*
D03*
X114750Y1115350D02*
D03*
X279750D02*
D03*
X114750Y1380350D02*
D03*
X279750D02*
D03*
D152*
X94750Y24250D02*
D03*
X134750D02*
D03*
X299750D02*
D03*
X259750D02*
D03*
X94750Y289250D02*
D03*
X134750D02*
D03*
X299750D02*
D03*
X259750D02*
D03*
X94750Y387950D02*
D03*
X134750D02*
D03*
X299750D02*
D03*
X259750D02*
D03*
X94750Y652950D02*
D03*
X134750D02*
D03*
X299750D02*
D03*
X259750D02*
D03*
X94750Y751650D02*
D03*
X134750D02*
D03*
X299750D02*
D03*
X259750D02*
D03*
X94750Y1016650D02*
D03*
X134750D02*
D03*
X299750D02*
D03*
X259750D02*
D03*
X94750Y1115350D02*
D03*
X134750D02*
D03*
X299750D02*
D03*
X259750D02*
D03*
X94750Y1380350D02*
D03*
X134750D02*
D03*
X299750D02*
D03*
X259750D02*
D03*
D153*
X297750Y43750D02*
D03*
X317750D02*
D03*
X297750Y407450D02*
D03*
X317750D02*
D03*
X297750Y771150D02*
D03*
X317750D02*
D03*
X297750Y1134850D02*
D03*
X317750D02*
D03*
D160*
X24500Y214850D02*
D03*
Y98850D02*
D03*
Y578550D02*
D03*
Y462550D02*
D03*
Y942250D02*
D03*
Y826250D02*
D03*
Y1305950D02*
D03*
Y1189950D02*
D03*
D161*
X20000Y30000D02*
D03*
Y283700D02*
D03*
Y393700D02*
D03*
Y647400D02*
D03*
Y757400D02*
D03*
Y1011100D02*
D03*
Y1121100D02*
D03*
Y1374800D02*
D03*
D162*
X233536Y305750D02*
D03*
X208107D02*
D03*
X106393D02*
D03*
X131821D02*
D03*
X157250D02*
D03*
X182679D02*
D03*
X106821Y7950D02*
D03*
X132250D02*
D03*
X157679D02*
D03*
X183107D02*
D03*
X233536Y669450D02*
D03*
X208107D02*
D03*
X106393D02*
D03*
X131821D02*
D03*
X157250D02*
D03*
X182679D02*
D03*
X106821Y371650D02*
D03*
X132250D02*
D03*
X157679D02*
D03*
X183107D02*
D03*
X233536Y1033150D02*
D03*
X208107D02*
D03*
X106393D02*
D03*
X131821D02*
D03*
X157250D02*
D03*
X182679D02*
D03*
X106821Y735350D02*
D03*
X132250D02*
D03*
X157679D02*
D03*
X183107D02*
D03*
X233536Y1396850D02*
D03*
X208107D02*
D03*
X106393D02*
D03*
X131821D02*
D03*
X157250D02*
D03*
X182679D02*
D03*
X106821Y1099050D02*
D03*
X132250D02*
D03*
X157679D02*
D03*
X183107D02*
D03*
D163*
X80964Y305750D02*
D03*
X81393Y7950D02*
D03*
X80964Y669450D02*
D03*
X81393Y371650D02*
D03*
X80964Y1033150D02*
D03*
X81393Y735350D02*
D03*
X80964Y1396850D02*
D03*
X81393Y1099050D02*
D03*
D164*
X49250Y37700D02*
D03*
Y401400D02*
D03*
Y765100D02*
D03*
Y1128800D02*
D03*
D165*
Y12300D02*
D03*
Y376000D02*
D03*
Y739700D02*
D03*
Y1103400D02*
D03*
D166*
X128250Y134850D02*
D03*
X128250Y145850D02*
D03*
X128250Y156850D02*
D03*
Y167850D02*
D03*
Y178850D02*
D03*
X139250Y134850D02*
D03*
Y145850D02*
D03*
X139250Y156850D02*
D03*
X139250Y167850D02*
D03*
Y178850D02*
D03*
X150250Y134850D02*
D03*
Y145850D02*
D03*
Y156850D02*
D03*
Y167850D02*
D03*
Y178850D02*
D03*
X161250Y134850D02*
D03*
Y145850D02*
D03*
Y156850D02*
D03*
Y167850D02*
D03*
Y178850D02*
D03*
X172250Y134850D02*
D03*
Y145850D02*
D03*
Y156850D02*
D03*
Y167850D02*
D03*
Y178850D02*
D03*
X128250Y498550D02*
D03*
X128250Y509550D02*
D03*
X128250Y520550D02*
D03*
Y531550D02*
D03*
Y542550D02*
D03*
X139250Y498550D02*
D03*
Y509550D02*
D03*
X139250Y520550D02*
D03*
X139250Y531550D02*
D03*
Y542550D02*
D03*
X150250Y498550D02*
D03*
Y509550D02*
D03*
Y520550D02*
D03*
Y531550D02*
D03*
Y542550D02*
D03*
X161250Y498550D02*
D03*
Y509550D02*
D03*
Y520550D02*
D03*
Y531550D02*
D03*
Y542550D02*
D03*
X172250Y498550D02*
D03*
Y509550D02*
D03*
Y520550D02*
D03*
Y531550D02*
D03*
Y542550D02*
D03*
X128250Y862250D02*
D03*
X128250Y873250D02*
D03*
X128250Y884250D02*
D03*
Y895250D02*
D03*
Y906250D02*
D03*
X139250Y862250D02*
D03*
Y873250D02*
D03*
X139250Y884250D02*
D03*
X139250Y895250D02*
D03*
Y906250D02*
D03*
X150250Y862250D02*
D03*
Y873250D02*
D03*
Y884250D02*
D03*
Y895250D02*
D03*
Y906250D02*
D03*
X161250Y862250D02*
D03*
Y873250D02*
D03*
Y884250D02*
D03*
Y895250D02*
D03*
Y906250D02*
D03*
X172250Y862250D02*
D03*
Y873250D02*
D03*
Y884250D02*
D03*
Y895250D02*
D03*
Y906250D02*
D03*
X128250Y1225950D02*
D03*
X128250Y1236950D02*
D03*
X128250Y1247950D02*
D03*
Y1258950D02*
D03*
Y1269950D02*
D03*
X139250Y1225950D02*
D03*
Y1236950D02*
D03*
X139250Y1247950D02*
D03*
X139250Y1258950D02*
D03*
Y1269950D02*
D03*
X150250Y1225950D02*
D03*
Y1236950D02*
D03*
Y1247950D02*
D03*
Y1258950D02*
D03*
Y1269950D02*
D03*
X161250Y1225950D02*
D03*
Y1236950D02*
D03*
Y1247950D02*
D03*
Y1258950D02*
D03*
Y1269950D02*
D03*
X172250Y1225950D02*
D03*
Y1236950D02*
D03*
Y1247950D02*
D03*
Y1258950D02*
D03*
Y1269950D02*
D03*
D167*
X406750Y266000D02*
D03*
Y300000D02*
D03*
X359500Y266000D02*
D03*
Y300000D02*
D03*
X406750Y629700D02*
D03*
Y663700D02*
D03*
X359500Y629700D02*
D03*
Y663700D02*
D03*
X406750Y993400D02*
D03*
Y1027400D02*
D03*
X359500Y993400D02*
D03*
Y1027400D02*
D03*
X406750Y1357100D02*
D03*
Y1391100D02*
D03*
X359500Y1357100D02*
D03*
Y1391100D02*
D03*
D168*
X389750Y283000D02*
D03*
X423750D02*
D03*
X342500D02*
D03*
X376500D02*
D03*
X389750Y646700D02*
D03*
X423750D02*
D03*
X342500D02*
D03*
X376500D02*
D03*
X389750Y1010400D02*
D03*
X423750D02*
D03*
X342500D02*
D03*
X376500D02*
D03*
X389750Y1374100D02*
D03*
X423750D02*
D03*
X342500D02*
D03*
X376500D02*
D03*
D169*
X406750Y299000D02*
D03*
X406750Y267000D02*
D03*
X359500Y299000D02*
D03*
Y267000D02*
D03*
X406750Y662700D02*
D03*
X406750Y630700D02*
D03*
X359500Y662700D02*
D03*
Y630700D02*
D03*
X406750Y1026400D02*
D03*
X406750Y994400D02*
D03*
X359500Y1026400D02*
D03*
Y994400D02*
D03*
X406750Y1390100D02*
D03*
X406750Y1358100D02*
D03*
X359500Y1390100D02*
D03*
Y1358100D02*
D03*
D170*
X420750Y283000D02*
D03*
X392750D02*
D03*
X373500D02*
D03*
X345500D02*
D03*
X420750Y646700D02*
D03*
X392750D02*
D03*
X373500D02*
D03*
X345500D02*
D03*
X420750Y1010400D02*
D03*
X392750D02*
D03*
X373500D02*
D03*
X345500D02*
D03*
X420750Y1374100D02*
D03*
X392750D02*
D03*
X373500D02*
D03*
X345500D02*
D03*
D171*
X213250Y72750D02*
D03*
Y436450D02*
D03*
Y800150D02*
D03*
Y1163850D02*
D03*
D172*
X205750Y58000D02*
D03*
X210750D02*
D03*
X215750D02*
D03*
X220750D02*
D03*
Y87500D02*
D03*
X215750D02*
D03*
X210750D02*
D03*
X205750D02*
D03*
Y421700D02*
D03*
X210750D02*
D03*
X215750D02*
D03*
X220750D02*
D03*
Y451200D02*
D03*
X215750D02*
D03*
X210750D02*
D03*
X205750D02*
D03*
Y785400D02*
D03*
X210750D02*
D03*
X215750D02*
D03*
X220750D02*
D03*
Y814900D02*
D03*
X215750D02*
D03*
X210750D02*
D03*
X205750D02*
D03*
Y1149100D02*
D03*
X210750D02*
D03*
X215750D02*
D03*
X220750D02*
D03*
Y1178600D02*
D03*
X215750D02*
D03*
X210750D02*
D03*
X205750D02*
D03*
D173*
X615250Y263750D02*
D03*
Y627450D02*
D03*
Y991150D02*
D03*
Y1354850D02*
D03*
D174*
X632500Y263750D02*
D03*
X632250Y283500D02*
D03*
X613250D02*
D03*
X632500Y627450D02*
D03*
X632250Y647200D02*
D03*
X613250D02*
D03*
X632500Y991150D02*
D03*
X632250Y1010900D02*
D03*
X613250D02*
D03*
X632500Y1354850D02*
D03*
X632250Y1374600D02*
D03*
X613250D02*
D03*
D175*
X597500Y118500D02*
D03*
Y137500D02*
D03*
X617250Y137750D02*
D03*
X620000Y196000D02*
D03*
X600250Y195750D02*
D03*
Y176750D02*
D03*
X597500Y482200D02*
D03*
Y501200D02*
D03*
X617250Y501450D02*
D03*
X620000Y559700D02*
D03*
X600250Y559450D02*
D03*
Y540450D02*
D03*
X597500Y845900D02*
D03*
Y864900D02*
D03*
X617250Y865150D02*
D03*
X620000Y923400D02*
D03*
X600250Y923150D02*
D03*
Y904150D02*
D03*
X597500Y1209600D02*
D03*
Y1228600D02*
D03*
X617250Y1228850D02*
D03*
X620000Y1287100D02*
D03*
X600250Y1286850D02*
D03*
Y1267850D02*
D03*
D176*
X617250Y120500D02*
D03*
X620000Y178750D02*
D03*
X617250Y484200D02*
D03*
X620000Y542450D02*
D03*
X617250Y847900D02*
D03*
X620000Y906150D02*
D03*
X617250Y1211600D02*
D03*
X620000Y1269850D02*
D03*
D177*
X97000Y64250D02*
D03*
Y45250D02*
D03*
X74000Y54750D02*
D03*
X97000Y427950D02*
D03*
Y408950D02*
D03*
X74000Y418450D02*
D03*
X97000Y791650D02*
D03*
Y772650D02*
D03*
X74000Y782150D02*
D03*
X97000Y1155350D02*
D03*
Y1136350D02*
D03*
X74000Y1145850D02*
D03*
D178*
X118250Y273000D02*
D03*
Y266500D02*
D03*
Y260000D02*
D03*
X99250D02*
D03*
Y266500D02*
D03*
Y273000D02*
D03*
X118250Y636700D02*
D03*
Y630200D02*
D03*
Y623700D02*
D03*
X99250D02*
D03*
Y630200D02*
D03*
Y636700D02*
D03*
X118250Y1000400D02*
D03*
Y993900D02*
D03*
Y987400D02*
D03*
X99250D02*
D03*
Y993900D02*
D03*
Y1000400D02*
D03*
X118250Y1364100D02*
D03*
Y1357600D02*
D03*
Y1351100D02*
D03*
X99250D02*
D03*
Y1357600D02*
D03*
Y1364100D02*
D03*
D179*
X352500Y243250D02*
D03*
X357500D02*
D03*
X362500D02*
D03*
X367500D02*
D03*
X367500Y215250D02*
D03*
X362500Y215250D02*
D03*
X357500Y215250D02*
D03*
X352500D02*
D03*
Y606950D02*
D03*
X357500D02*
D03*
X362500D02*
D03*
X367500D02*
D03*
X367500Y578950D02*
D03*
X362500Y578950D02*
D03*
X357500Y578950D02*
D03*
X352500D02*
D03*
Y970650D02*
D03*
X357500D02*
D03*
X362500D02*
D03*
X367500D02*
D03*
X367500Y942650D02*
D03*
X362500Y942650D02*
D03*
X357500Y942650D02*
D03*
X352500D02*
D03*
Y1334350D02*
D03*
X357500D02*
D03*
X362500D02*
D03*
X367500D02*
D03*
X367500Y1306350D02*
D03*
X362500Y1306350D02*
D03*
X357500Y1306350D02*
D03*
X352500D02*
D03*
D180*
X46750Y116500D02*
D03*
Y136500D02*
D03*
Y480200D02*
D03*
Y500200D02*
D03*
Y843900D02*
D03*
Y863900D02*
D03*
Y1207600D02*
D03*
Y1227600D02*
D03*
D181*
X79250Y206000D02*
D03*
X101250D02*
D03*
Y223000D02*
D03*
X79250D02*
D03*
Y569700D02*
D03*
X101250D02*
D03*
Y586700D02*
D03*
X79250D02*
D03*
Y933400D02*
D03*
X101250D02*
D03*
Y950400D02*
D03*
X79250D02*
D03*
Y1297100D02*
D03*
X101250D02*
D03*
Y1314100D02*
D03*
X79250D02*
D03*
D182*
X194000Y246850D02*
D03*
Y610550D02*
D03*
Y974250D02*
D03*
Y1337950D02*
D03*
D183*
X206500Y266100D02*
D03*
X201500D02*
D03*
X196500D02*
D03*
X191500D02*
D03*
X186500D02*
D03*
X181500D02*
D03*
Y227600D02*
D03*
X186500D02*
D03*
X191500D02*
D03*
X196500D02*
D03*
X201500D02*
D03*
X206500D02*
D03*
Y629800D02*
D03*
X201500D02*
D03*
X196500D02*
D03*
X191500D02*
D03*
X186500D02*
D03*
X181500D02*
D03*
Y591300D02*
D03*
X186500D02*
D03*
X191500D02*
D03*
X196500D02*
D03*
X201500D02*
D03*
X206500D02*
D03*
Y993500D02*
D03*
X201500D02*
D03*
X196500D02*
D03*
X191500D02*
D03*
X186500D02*
D03*
X181500D02*
D03*
Y955000D02*
D03*
X186500D02*
D03*
X191500D02*
D03*
X196500D02*
D03*
X201500D02*
D03*
X206500D02*
D03*
Y1357200D02*
D03*
X201500D02*
D03*
X196500D02*
D03*
X191500D02*
D03*
X186500D02*
D03*
X181500D02*
D03*
Y1318700D02*
D03*
X186500D02*
D03*
X191500D02*
D03*
X196500D02*
D03*
X201500D02*
D03*
X206500D02*
D03*
D184*
X174750Y259350D02*
D03*
Y254350D02*
D03*
Y249350D02*
D03*
Y244350D02*
D03*
Y239350D02*
D03*
Y234350D02*
D03*
X213250D02*
D03*
Y239350D02*
D03*
Y244350D02*
D03*
Y249350D02*
D03*
Y254350D02*
D03*
Y259350D02*
D03*
X174750Y623050D02*
D03*
Y618050D02*
D03*
Y613050D02*
D03*
Y608050D02*
D03*
Y603050D02*
D03*
Y598050D02*
D03*
X213250D02*
D03*
Y603050D02*
D03*
Y608050D02*
D03*
Y613050D02*
D03*
Y618050D02*
D03*
Y623050D02*
D03*
X174750Y986750D02*
D03*
Y981750D02*
D03*
Y976750D02*
D03*
Y971750D02*
D03*
Y966750D02*
D03*
Y961750D02*
D03*
X213250D02*
D03*
Y966750D02*
D03*
Y971750D02*
D03*
Y976750D02*
D03*
Y981750D02*
D03*
Y986750D02*
D03*
X174750Y1350450D02*
D03*
Y1345450D02*
D03*
Y1340450D02*
D03*
Y1335450D02*
D03*
Y1330450D02*
D03*
Y1325450D02*
D03*
X213250D02*
D03*
Y1330450D02*
D03*
Y1335450D02*
D03*
Y1340450D02*
D03*
Y1345450D02*
D03*
Y1350450D02*
D03*
D185*
X229000Y106000D02*
D03*
X212000D02*
D03*
X234000Y217250D02*
D03*
X217000D02*
D03*
X170000Y53051D02*
D03*
X187000D02*
D03*
X250500Y40500D02*
D03*
X267500D02*
D03*
X157391Y40401D02*
D03*
X174391D02*
D03*
X280109Y52650D02*
D03*
X263109D02*
D03*
X178250Y187000D02*
D03*
X161250D02*
D03*
X153000Y97250D02*
D03*
X136000D02*
D03*
X299000Y58750D02*
D03*
X316000D02*
D03*
X229000Y469700D02*
D03*
X212000D02*
D03*
X234000Y580950D02*
D03*
X217000D02*
D03*
X170000Y416751D02*
D03*
X187000D02*
D03*
X250500Y404200D02*
D03*
X267500D02*
D03*
X157391Y404101D02*
D03*
X174391D02*
D03*
X280109Y416351D02*
D03*
X263109D02*
D03*
X178250Y550700D02*
D03*
X161250D02*
D03*
X153000Y460950D02*
D03*
X136000D02*
D03*
X299000Y422450D02*
D03*
X316000D02*
D03*
X229000Y833400D02*
D03*
X212000D02*
D03*
X234000Y944650D02*
D03*
X217000D02*
D03*
X170000Y780451D02*
D03*
X187000D02*
D03*
X250500Y767900D02*
D03*
X267500D02*
D03*
X157391Y767801D02*
D03*
X174391D02*
D03*
X280109Y780051D02*
D03*
X263109D02*
D03*
X178250Y914400D02*
D03*
X161250D02*
D03*
X153000Y824650D02*
D03*
X136000D02*
D03*
X299000Y786150D02*
D03*
X316000D02*
D03*
X229000Y1197101D02*
D03*
X212000D02*
D03*
X234000Y1308350D02*
D03*
X217000D02*
D03*
X170000Y1144151D02*
D03*
X187000D02*
D03*
X250500Y1131600D02*
D03*
X267500D02*
D03*
X157391Y1131501D02*
D03*
X174391D02*
D03*
X280109Y1143751D02*
D03*
X263109D02*
D03*
X178250Y1278100D02*
D03*
X161250D02*
D03*
X153000Y1188350D02*
D03*
X136000D02*
D03*
X299000Y1149850D02*
D03*
X316000D02*
D03*
D186*
X663000Y156850D02*
D03*
Y520550D02*
D03*
Y884250D02*
D03*
Y1247950D02*
D03*
D187*
X668000Y174350D02*
D03*
Y139350D02*
D03*
Y538050D02*
D03*
Y503050D02*
D03*
Y901750D02*
D03*
Y866750D02*
D03*
Y1265450D02*
D03*
Y1230450D02*
D03*
D188*
X410990Y164484D02*
D03*
X407030Y168444D02*
D03*
X389750Y216027D02*
D03*
X393710Y212067D02*
D03*
X498031Y117350D02*
D03*
X501990Y113390D02*
D03*
X410990Y528184D02*
D03*
X407030Y532144D02*
D03*
X389750Y579727D02*
D03*
X393710Y575767D02*
D03*
X498031Y481050D02*
D03*
X501990Y477090D02*
D03*
X410990Y891884D02*
D03*
X407030Y895844D02*
D03*
X389750Y943427D02*
D03*
X393710Y939467D02*
D03*
X498031Y844750D02*
D03*
X501990Y840790D02*
D03*
X410990Y1255584D02*
D03*
X407030Y1259544D02*
D03*
X389750Y1307127D02*
D03*
X393710Y1303167D02*
D03*
X498031Y1208450D02*
D03*
X501990Y1204490D02*
D03*
D189*
X449715Y144312D02*
D03*
X456786Y137241D02*
D03*
X449715Y508012D02*
D03*
X456786Y500941D02*
D03*
X449715Y871712D02*
D03*
X456786Y864641D02*
D03*
X449715Y1235413D02*
D03*
X456786Y1228341D02*
D03*
D190*
X280000Y268000D02*
D03*
X280000Y229500D02*
D03*
X280000Y631700D02*
D03*
X280000Y593200D02*
D03*
X280000Y995400D02*
D03*
X280000Y956900D02*
D03*
X280000Y1359100D02*
D03*
X280000Y1320600D02*
D03*
D191*
X270250Y254750D02*
D03*
Y242750D02*
D03*
X289750Y242750D02*
D03*
X289750Y254750D02*
D03*
X270250Y618450D02*
D03*
Y606450D02*
D03*
X289750Y606450D02*
D03*
X289750Y618450D02*
D03*
X270250Y982150D02*
D03*
Y970150D02*
D03*
X289750Y970150D02*
D03*
X289750Y982150D02*
D03*
X270250Y1345850D02*
D03*
Y1333850D02*
D03*
X289750Y1333850D02*
D03*
X289750Y1345850D02*
D03*
D192*
X268500Y268000D02*
D03*
Y229500D02*
D03*
X291500Y229500D02*
D03*
Y268000D02*
D03*
X268500Y631700D02*
D03*
Y593200D02*
D03*
X291500Y593200D02*
D03*
Y631700D02*
D03*
X268500Y995400D02*
D03*
Y956900D02*
D03*
X291500Y956900D02*
D03*
Y995400D02*
D03*
X268500Y1359100D02*
D03*
Y1320600D02*
D03*
X291500Y1320600D02*
D03*
Y1359100D02*
D03*
D193*
X425750Y242500D02*
D03*
Y606200D02*
D03*
Y969900D02*
D03*
Y1333600D02*
D03*
D194*
X411750Y250000D02*
D03*
Y245000D02*
D03*
Y240000D02*
D03*
Y235000D02*
D03*
X439750D02*
D03*
Y240000D02*
D03*
Y245000D02*
D03*
Y250000D02*
D03*
X411750Y613700D02*
D03*
Y608700D02*
D03*
Y603700D02*
D03*
Y598700D02*
D03*
X439750D02*
D03*
Y603700D02*
D03*
Y608700D02*
D03*
Y613700D02*
D03*
X411750Y977400D02*
D03*
Y972400D02*
D03*
Y967400D02*
D03*
Y962400D02*
D03*
X439750D02*
D03*
Y967400D02*
D03*
Y972400D02*
D03*
Y977400D02*
D03*
X411750Y1341100D02*
D03*
Y1336100D02*
D03*
Y1331100D02*
D03*
Y1326100D02*
D03*
X439750D02*
D03*
Y1331100D02*
D03*
Y1336100D02*
D03*
Y1341100D02*
D03*
D195*
X365000Y28000D02*
D03*
Y391700D02*
D03*
Y755400D02*
D03*
Y1119100D02*
D03*
D196*
X372500Y42000D02*
D03*
X367500D02*
D03*
X362500D02*
D03*
X357500D02*
D03*
Y14000D02*
D03*
X362500D02*
D03*
X367500D02*
D03*
X372500D02*
D03*
Y405700D02*
D03*
X367500D02*
D03*
X362500D02*
D03*
X357500D02*
D03*
Y377700D02*
D03*
X362500D02*
D03*
X367500D02*
D03*
X372500D02*
D03*
Y769400D02*
D03*
X367500D02*
D03*
X362500D02*
D03*
X357500D02*
D03*
Y741400D02*
D03*
X362500D02*
D03*
X367500D02*
D03*
X372500D02*
D03*
Y1133100D02*
D03*
X367500D02*
D03*
X362500D02*
D03*
X357500D02*
D03*
Y1105100D02*
D03*
X362500D02*
D03*
X367500D02*
D03*
X372500D02*
D03*
D197*
X288500Y104850D02*
D03*
X296500Y192850D02*
D03*
X232500Y176850D02*
D03*
X216500Y160850D02*
D03*
X232500Y136850D02*
D03*
X216500Y120850D02*
D03*
Y136850D02*
D03*
Y128850D02*
D03*
Y152850D02*
D03*
Y144850D02*
D03*
Y192850D02*
D03*
Y200850D02*
D03*
Y168850D02*
D03*
X224501Y120850D02*
D03*
Y136850D02*
D03*
Y128850D02*
D03*
Y152850D02*
D03*
Y144850D02*
D03*
Y192850D02*
D03*
Y200850D02*
D03*
Y176850D02*
D03*
Y184850D02*
D03*
Y208850D02*
D03*
X232500Y192850D02*
D03*
Y200850D02*
D03*
Y184850D02*
D03*
Y208850D02*
D03*
X272500Y136850D02*
D03*
Y152850D02*
D03*
Y144850D02*
D03*
Y176850D02*
D03*
Y184850D02*
D03*
Y168850D02*
D03*
Y208850D02*
D03*
X264501D02*
D03*
Y184850D02*
D03*
Y176850D02*
D03*
Y200850D02*
D03*
Y144850D02*
D03*
Y120850D02*
D03*
Y112850D02*
D03*
X256500Y208850D02*
D03*
Y168850D02*
D03*
Y184850D02*
D03*
Y176850D02*
D03*
Y200850D02*
D03*
Y144850D02*
D03*
Y152850D02*
D03*
X248500Y160850D02*
D03*
Y168850D02*
D03*
Y184850D02*
D03*
Y176850D02*
D03*
Y200850D02*
D03*
Y144850D02*
D03*
Y152850D02*
D03*
X240501Y160850D02*
D03*
Y168850D02*
D03*
Y176850D02*
D03*
Y200850D02*
D03*
Y192850D02*
D03*
X280501Y120850D02*
D03*
Y152850D02*
D03*
Y144850D02*
D03*
Y200850D02*
D03*
Y176850D02*
D03*
Y184850D02*
D03*
Y168850D02*
D03*
Y160850D02*
D03*
Y208850D02*
D03*
X288500Y112850D02*
D03*
Y120850D02*
D03*
Y192850D02*
D03*
Y200850D02*
D03*
Y184850D02*
D03*
X296500Y112850D02*
D03*
Y120850D02*
D03*
Y136850D02*
D03*
Y128850D02*
D03*
Y144850D02*
D03*
Y200850D02*
D03*
Y184850D02*
D03*
Y208850D02*
D03*
X304501Y112850D02*
D03*
Y120850D02*
D03*
Y136850D02*
D03*
Y128850D02*
D03*
Y144850D02*
D03*
Y192850D02*
D03*
Y176850D02*
D03*
Y184850D02*
D03*
Y168850D02*
D03*
Y160850D02*
D03*
Y208850D02*
D03*
X312500Y160850D02*
D03*
Y168850D02*
D03*
Y184850D02*
D03*
Y176850D02*
D03*
Y144850D02*
D03*
Y152850D02*
D03*
Y128850D02*
D03*
Y136850D02*
D03*
Y120850D02*
D03*
X216500Y176850D02*
D03*
X288500Y168850D02*
D03*
Y144850D02*
D03*
Y152850D02*
D03*
X240501Y208850D02*
D03*
X232500Y144850D02*
D03*
X224501Y160850D02*
D03*
X276000Y104193D02*
D03*
X320500Y200850D02*
D03*
X312500D02*
D03*
X240501Y152850D02*
D03*
X288500Y468550D02*
D03*
X296500Y556550D02*
D03*
X232500Y540550D02*
D03*
X216500Y524550D02*
D03*
X232500Y500550D02*
D03*
X216500Y484550D02*
D03*
Y500550D02*
D03*
Y492550D02*
D03*
Y516550D02*
D03*
Y508550D02*
D03*
Y556550D02*
D03*
Y564550D02*
D03*
Y532550D02*
D03*
X224501Y484550D02*
D03*
Y500550D02*
D03*
Y492550D02*
D03*
Y516550D02*
D03*
Y508550D02*
D03*
Y556550D02*
D03*
Y564550D02*
D03*
Y540550D02*
D03*
Y548550D02*
D03*
Y572550D02*
D03*
X232500Y556550D02*
D03*
Y564550D02*
D03*
Y548550D02*
D03*
Y572550D02*
D03*
X272500Y500550D02*
D03*
Y516550D02*
D03*
Y508550D02*
D03*
Y540550D02*
D03*
Y548550D02*
D03*
Y532550D02*
D03*
Y572550D02*
D03*
X264501D02*
D03*
Y548550D02*
D03*
Y540550D02*
D03*
Y564550D02*
D03*
Y508550D02*
D03*
Y484550D02*
D03*
Y476550D02*
D03*
X256500Y572550D02*
D03*
Y532550D02*
D03*
Y548550D02*
D03*
Y540550D02*
D03*
Y564550D02*
D03*
Y508550D02*
D03*
Y516550D02*
D03*
X248500Y524550D02*
D03*
Y532550D02*
D03*
Y548550D02*
D03*
Y540550D02*
D03*
Y564550D02*
D03*
Y508550D02*
D03*
Y516550D02*
D03*
X240501Y524550D02*
D03*
Y532550D02*
D03*
Y540550D02*
D03*
Y564550D02*
D03*
Y556550D02*
D03*
X280501Y484550D02*
D03*
Y516550D02*
D03*
Y508550D02*
D03*
Y564550D02*
D03*
Y540550D02*
D03*
Y548550D02*
D03*
Y532550D02*
D03*
Y524550D02*
D03*
Y572550D02*
D03*
X288500Y476550D02*
D03*
Y484550D02*
D03*
Y556550D02*
D03*
Y564550D02*
D03*
Y548550D02*
D03*
X296500Y476550D02*
D03*
Y484550D02*
D03*
Y500550D02*
D03*
Y492550D02*
D03*
Y508550D02*
D03*
Y564550D02*
D03*
Y548550D02*
D03*
Y572550D02*
D03*
X304501Y476550D02*
D03*
Y484550D02*
D03*
Y500550D02*
D03*
Y492550D02*
D03*
Y508550D02*
D03*
Y556550D02*
D03*
Y540550D02*
D03*
Y548550D02*
D03*
Y532550D02*
D03*
Y524550D02*
D03*
Y572550D02*
D03*
X312500Y524550D02*
D03*
Y532550D02*
D03*
Y548550D02*
D03*
Y540550D02*
D03*
Y508550D02*
D03*
Y516550D02*
D03*
Y492550D02*
D03*
Y500550D02*
D03*
Y484550D02*
D03*
X216500Y540550D02*
D03*
X288500Y532550D02*
D03*
Y508550D02*
D03*
Y516550D02*
D03*
X240501Y572550D02*
D03*
X232500Y508550D02*
D03*
X224501Y524550D02*
D03*
X276000Y467893D02*
D03*
X320500Y564550D02*
D03*
X312500D02*
D03*
X240501Y516550D02*
D03*
X288500Y832250D02*
D03*
X296500Y920250D02*
D03*
X232500Y904250D02*
D03*
X216500Y888250D02*
D03*
X232500Y864250D02*
D03*
X216500Y848250D02*
D03*
Y864250D02*
D03*
Y856250D02*
D03*
Y880250D02*
D03*
Y872250D02*
D03*
Y920250D02*
D03*
Y928250D02*
D03*
Y896250D02*
D03*
X224501Y848250D02*
D03*
Y864250D02*
D03*
Y856250D02*
D03*
Y880250D02*
D03*
Y872250D02*
D03*
Y920250D02*
D03*
Y928250D02*
D03*
Y904250D02*
D03*
Y912250D02*
D03*
Y936250D02*
D03*
X232500Y920250D02*
D03*
Y928250D02*
D03*
Y912250D02*
D03*
Y936250D02*
D03*
X272500Y864250D02*
D03*
Y880250D02*
D03*
Y872250D02*
D03*
Y904250D02*
D03*
Y912250D02*
D03*
Y896250D02*
D03*
Y936250D02*
D03*
X264501D02*
D03*
Y912250D02*
D03*
Y904250D02*
D03*
Y928250D02*
D03*
Y872250D02*
D03*
Y848250D02*
D03*
Y840250D02*
D03*
X256500Y936250D02*
D03*
Y896250D02*
D03*
Y912250D02*
D03*
Y904250D02*
D03*
Y928250D02*
D03*
Y872250D02*
D03*
Y880250D02*
D03*
X248500Y888250D02*
D03*
Y896250D02*
D03*
Y912250D02*
D03*
Y904250D02*
D03*
Y928250D02*
D03*
Y872250D02*
D03*
Y880250D02*
D03*
X240501Y888250D02*
D03*
Y896250D02*
D03*
Y904250D02*
D03*
Y928250D02*
D03*
Y920250D02*
D03*
X280501Y848250D02*
D03*
Y880250D02*
D03*
Y872250D02*
D03*
Y928250D02*
D03*
Y904250D02*
D03*
Y912250D02*
D03*
Y896250D02*
D03*
Y888250D02*
D03*
Y936250D02*
D03*
X288500Y840250D02*
D03*
Y848250D02*
D03*
Y920250D02*
D03*
Y928250D02*
D03*
Y912250D02*
D03*
X296500Y840250D02*
D03*
Y848250D02*
D03*
Y864250D02*
D03*
Y856250D02*
D03*
Y872250D02*
D03*
Y928250D02*
D03*
Y912250D02*
D03*
Y936250D02*
D03*
X304501Y840250D02*
D03*
Y848250D02*
D03*
Y864250D02*
D03*
Y856250D02*
D03*
Y872250D02*
D03*
Y920250D02*
D03*
Y904250D02*
D03*
Y912250D02*
D03*
Y896250D02*
D03*
Y888250D02*
D03*
Y936250D02*
D03*
X312500Y888250D02*
D03*
Y896250D02*
D03*
Y912250D02*
D03*
Y904250D02*
D03*
Y872250D02*
D03*
Y880250D02*
D03*
Y856250D02*
D03*
Y864250D02*
D03*
Y848250D02*
D03*
X216500Y904250D02*
D03*
X288500Y896250D02*
D03*
Y872250D02*
D03*
Y880250D02*
D03*
X240501Y936250D02*
D03*
X232500Y872250D02*
D03*
X224501Y888250D02*
D03*
X276000Y831593D02*
D03*
X320500Y928250D02*
D03*
X312500D02*
D03*
X240501Y880250D02*
D03*
X288500Y1195950D02*
D03*
X296500Y1283950D02*
D03*
X232500Y1267950D02*
D03*
X216500Y1251950D02*
D03*
X232500Y1227950D02*
D03*
X216500Y1211950D02*
D03*
Y1227950D02*
D03*
Y1219950D02*
D03*
Y1243950D02*
D03*
Y1235950D02*
D03*
Y1283950D02*
D03*
Y1291950D02*
D03*
Y1259950D02*
D03*
X224501Y1211950D02*
D03*
Y1227950D02*
D03*
Y1219950D02*
D03*
Y1243950D02*
D03*
Y1235950D02*
D03*
Y1283950D02*
D03*
Y1291950D02*
D03*
Y1267950D02*
D03*
Y1275950D02*
D03*
Y1299950D02*
D03*
X232500Y1283950D02*
D03*
Y1291950D02*
D03*
Y1275950D02*
D03*
Y1299950D02*
D03*
X272500Y1227950D02*
D03*
Y1243950D02*
D03*
Y1235950D02*
D03*
Y1267950D02*
D03*
Y1275950D02*
D03*
Y1259950D02*
D03*
Y1299950D02*
D03*
X264501D02*
D03*
Y1275950D02*
D03*
Y1267950D02*
D03*
Y1291950D02*
D03*
Y1235950D02*
D03*
Y1211950D02*
D03*
Y1203950D02*
D03*
X256500Y1299950D02*
D03*
Y1259950D02*
D03*
Y1275950D02*
D03*
Y1267950D02*
D03*
Y1291950D02*
D03*
Y1235950D02*
D03*
Y1243950D02*
D03*
X248500Y1251950D02*
D03*
Y1259950D02*
D03*
Y1275950D02*
D03*
Y1267950D02*
D03*
Y1291950D02*
D03*
Y1235950D02*
D03*
Y1243950D02*
D03*
X240501Y1251950D02*
D03*
Y1259950D02*
D03*
Y1267950D02*
D03*
Y1291950D02*
D03*
Y1283950D02*
D03*
X280501Y1211950D02*
D03*
Y1243950D02*
D03*
Y1235950D02*
D03*
Y1291950D02*
D03*
Y1267950D02*
D03*
Y1275950D02*
D03*
Y1259950D02*
D03*
Y1251950D02*
D03*
Y1299950D02*
D03*
X288500Y1203950D02*
D03*
Y1211950D02*
D03*
Y1283950D02*
D03*
Y1291950D02*
D03*
Y1275950D02*
D03*
X296500Y1203950D02*
D03*
Y1211950D02*
D03*
Y1227950D02*
D03*
Y1219950D02*
D03*
Y1235950D02*
D03*
Y1291950D02*
D03*
Y1275950D02*
D03*
Y1299950D02*
D03*
X304501Y1203950D02*
D03*
Y1211950D02*
D03*
Y1227950D02*
D03*
Y1219950D02*
D03*
Y1235950D02*
D03*
Y1283950D02*
D03*
Y1267950D02*
D03*
Y1275950D02*
D03*
Y1259950D02*
D03*
Y1251950D02*
D03*
Y1299950D02*
D03*
X312500Y1251950D02*
D03*
Y1259950D02*
D03*
Y1275950D02*
D03*
Y1267950D02*
D03*
Y1235950D02*
D03*
Y1243950D02*
D03*
Y1219950D02*
D03*
Y1227950D02*
D03*
Y1211950D02*
D03*
X216500Y1267950D02*
D03*
X288500Y1259950D02*
D03*
Y1235950D02*
D03*
Y1243950D02*
D03*
X240501Y1299950D02*
D03*
X232500Y1235950D02*
D03*
X224501Y1251950D02*
D03*
X276000Y1195294D02*
D03*
X320500Y1291950D02*
D03*
X312500D02*
D03*
X240501Y1243950D02*
D03*
M02*
