M48
;Layer_Color=9474304
;FILE_FORMAT=4:4
METRIC,LZ
;TYPE=PLATED
T1F00S00C0.2000
T2F00S00C1.0000
;TYPE=NON_PLATED
T5F00S00C0.8000
T6F00S00C1.1000
T7F00S00C3.0000
%
T01
X0006625Y0003175
X0007375Y0003
X00073401Y00024599
X0008Y00045
X000855
X00091179Y0005275
Y00057821
X0009875Y000525
X0011675Y000415
X00123Y000435
X0012425Y000665
X0013725
X0014375Y00065
Y000705
X0014325Y000895
X0014625Y0010535
X0013825
X0013025Y0010535
X0012225Y0010535
X0011425Y0010535
X0011825Y0011885
X0012625Y0011885
X0013425
X0014225Y0011885
X0015025Y0011885
X0015825
X0016625Y0011885
X0017425Y0011885
X0018225
X0018875Y001251
X0018625Y0010535
X0017825Y0010535
X0017025Y0010535
X0016225
X0015425
X0015025Y0013485
X0016125
X0017225
X0013925
X0012825
X0009875Y0012085
X0008775Y0011875
X0005775Y0011
X0005775Y0010475
X000525Y0010475
X000525Y0011
X000375Y0012425
X000375Y0012925
X000325Y0012925
X000325Y0012425
X0005675Y00078
X00061Y0007125
X0006725Y0007375
X0007275Y00074
X0007875Y00074
X0006625Y0006125
X00066614Y0005475
X00061Y00055
X0006625Y0004725
X00061Y000395
X001435Y0004725
X001615Y0004175
X001815Y000415
X001825Y0006525
X0017535
X0016715
X0016975Y00079
X0016675Y0008275
X00173Y0008275
X001825Y0008275
X00189
X0018575Y00079
X0012975Y0007775
Y0008225
X0012025Y0008825
X00112Y0008675
X00111Y00082
X00150901Y0002435
X00158651Y000201
X00166401Y0002435
X0020675Y0001325
X0022075
X00236Y0001225
X002446Y000211
X0024725Y000415
X0026425Y0004325
X0027575Y0004325
X00272Y0005725
X002651
X002569
X002595Y00071
X002565Y0007475
X0026275Y0007475
X002835Y000725
X002885Y000725
X0028475Y000805
X0028Y000685
X0030125Y00067
X00301Y000725
Y0007875
X003155Y0007675
X00321
X0031825Y0008075
X003175Y0009225
X0032425Y00091
X0035375Y00094277
X00361Y00101777
X0036475Y00112777
X00361Y00122027
X0035575Y00122027
X00350697Y00122027
X0035275Y00135027
X00358Y00135027
X00346Y001335
X00369Y0012225
X00391Y00130527
X0040398Y0013148
X0040731Y0012815
Y0013481
X0041064Y0013148
Y0013814
X0041425Y00135
X0042Y00129
X004265Y0012875
X0042625Y0013625
X00432Y001365
X0043191Y0013151
X00432Y0012625
X0043062Y0011816
X0043062Y001115
X0042396Y001115
X0042729Y0011483
X0042063
Y0010817
X004173Y001115
X0041397Y00108169
X0041064Y0011816
Y0012482
X0040398
X004173Y0011816
X0042729Y00108169
X0044061Y0010817
X0044061Y0011483
X0044727Y0011483
X0044394Y0011816
X004506Y0011816
X0045393Y0011483
X0045725Y00111527
X0045726Y0010484
X0045393Y0010151
X0043575Y00096027
X0042071Y00085964
X0042056Y00080964
X0041925Y0007175
X0041525Y00068
X0041575Y0005475
X00407Y0006025
X0038675Y00078027
Y00089027
X003755Y00085
X00376Y00094277
X00374475Y00068346
X00365Y0006875
X00365409Y0005425
X003501Y000246
X0034235Y000196
X003346Y000246
X003255Y0003
X00320125
X0031475
X003191Y000246
X0031135Y000196
X0029375Y000585
X0028675Y00097
X00281Y0009575
X002765Y00099
X00276Y00104193
X002885Y0010485
X002885Y0011285
Y0012085
Y0012885
X00280501
Y0012085
X00264501
X002565
Y0012885
Y0013685
X00264501Y0012885
X002725Y0013685
X00280501
X002885
X002965
X00304501
Y0012885
X002965
Y0012085
X00304501
Y0011285
X002965
X003125
Y0012085
Y0012885
Y0013685
X00240501
Y0012885
X002325
X002325Y0013685
X00224501Y0013685
X002165
Y0012885
Y0012085
Y0011285
X00224501Y0012085
Y0012885
X0020175Y0012885
X0020175Y0013685
X0019925Y0011675
X0020225Y0008275
X0021375Y00094
X00226Y00088
X00226Y00083
X00233Y0006675
X00217Y00066
X00211Y00066
X0021675Y00057
X00242Y0009075
X00239Y0009475
X0024025Y0009975
X002485Y0009875
X0025175Y0010275
X00266Y001005
X00264501Y0011285
X002485Y0012085
X00240501
X002405Y0011285
X00266859Y00032901
X004276Y000246
X0043535Y000196
X004431Y000246
X0045085Y000196
X004586Y000246
X0046635Y000196
X004741Y000246
X0048185Y000196
X004896Y000246
X0049735Y000196
X0051285Y0001935
X005155Y0001225
X005205
X005255
X005206Y000246
X0049575Y00037
X005015Y00072
X005065
X0052675Y00075
X00525551Y00106573
X005135Y001015
X0054Y00102
Y000955
X00569853Y000955
Y00102
X0058675Y0009925
X00579Y0008475
X0057525Y00081
X005754Y0003505
X005635Y0003625
X005849Y000388
X00448168Y00037417
Y00043917
Y00066417
Y00072917
X004565Y0008
X004663Y000833
X0048723Y00108169
X0049056Y001115
X0049389Y0011483
X0049389Y0012149
X0049056Y0012482
X0049056Y0013148
X0049389Y0013481
X0049722Y0013814
X0050388Y0013148
X0050055Y0012815
X0050055Y0012149
X004839Y0011816
X0047191Y0013151
Y0013651
X0046191Y0013151
X0045191Y0013141
X0044191Y0013151
X00442Y001365
X004065Y00100277
X0039625Y00108
X00526Y001245
X0053125Y001295
X005225Y001375
X00612Y00129
X006175
X00623
X0064925Y001198
X006555Y0012375
X00671
X006865
X0064925Y001043
Y0006445
X0064225Y0006025
X0063675
X0063Y000765
X00613Y0006975
Y0005878
X006136Y000246
X0062135Y0001935
X006291Y000246
X0063685Y0001935
X006446Y000246
X0065235Y0001935
X006601Y000246
X0066785Y0001935
X006756Y000246
X006845Y00035
X006865Y00045
X00671
X006555
X0064925Y0004895
X0060585Y0001935
X005981Y000246
X0059035Y0001935
X0059875Y0008025
X006025Y0009925
X0059725Y001115
X006125Y00175
X0063825Y00167
X0065Y0016525
X00652Y00174
X006555Y0019
X0064925Y0019395
Y0020945
X00621Y00219
X0060525Y00228
X0060675Y0025375
X00599Y0026975
X005971Y002891
X0060485Y0029435
X00619152
X00626303Y00289199
X006385Y00295
X006545Y003
X00665053Y00294199
X00672803Y00288949
X00680553Y00294199
X006855Y0028175
X006865Y0026875
X00671
X006555
X0064925Y002648
X0064225Y0025875
X0064225Y00254
X0064925Y002493
X0063825Y0027275
X0063275
X0058935Y0029435
X0059035Y0038305
X005981Y003883
X0060585Y0038305
X006136Y003883
X0062135Y0038305
X006291Y003883
X0063685Y0038305
X006446Y003883
X0065235Y0038305
X006601Y003883
X0066785Y0038305
X006756Y003883
X006845Y003987
X006865Y004087
X00671
X006555
X0064925Y0041265
Y0042815
X0064225Y0042395
X0063675
X0063Y004402
X00613Y0043345
Y0042248
X0059875Y0044395
X006025Y0046295
X0059725Y004752
X00612Y004927
X006175
X00623
X0064925Y004835
X006555Y0048745
X00671
X006865
X0067975Y0052055
X0065Y0052895
X0063825Y005307
X0063925Y00512325
X0065Y0051195
X0064925Y00468
X00671Y0019
X006865
X0067975Y0015685
X0065Y0014825
X0063925Y00148625
X0058575Y0020175
X0058Y002035
X005745
X0055425
X0054155Y00197
X005315Y00202
X005333Y00187
X0054155Y00177
X0051905Y001725
X0051575Y0016075
X0052254Y0014309
X005285Y00146603
X0050721Y0014147
X0049722Y001448
X004835Y0014775
Y001535
X0048075Y0015875
X0047825Y0016375
Y0016875
Y0017375
Y0017875
X0047826Y00185214
Y00190214
X0047191Y0018151
Y0017651
Y0017151
Y0016651
Y0016151
X0046191
Y0016651
Y0017151
Y0017651
Y0018151
X0045191Y0018141
Y0017641
Y0017141
Y0016641
Y0016141
Y0015141
Y0014141
X0046191Y0014151
Y0014651
Y0015151
X0047191
Y0014651
Y0014151
X0044191
Y0014651
Y0015151
X0043191
Y0014651
Y0014151
X0041401Y00141464
X0041397Y0014813
X0041064Y001448
X0040731Y0014813
X0040731Y0014147
X0040398Y001448
X0040398Y0015812
X0040731Y0016145
X0041064Y0015812
X0041397Y0015479
X0040731Y0015479
X0040398Y0016478
Y0017144
X0040731Y0017477
X0041064Y0017144
X0041397Y0017477
X0041064Y001781
X0040731Y0018143
Y0018809
X0041064Y0018476
X0041397Y0018143
X0040398Y0018476
X0041064Y0019142
X0042729Y0019475
X0042396Y0020474
X0042729Y0020807
X0043062Y0020474
X0043395Y0020807
X0043395Y0020141
X0044061
X0043728Y0019808
X0044394Y0020474
X0044727Y0020141
X004506Y0020474
X0045393Y0020807
X0044976Y00196714
X0046725Y0020141
X0047058Y0019808
X00471Y0021275
X0046625Y00228
X004595Y0023775
X0042525Y00223
X0041725Y00224
X00406Y002265
X0039251Y00227764
X00384
X0038675Y0021825
X003875Y0023725
X0037975Y00249
X0037225Y0024375
X003625Y0024875
X003575Y0024875
X003465Y00258
X0034625Y0023725
X003195Y002415
X0032Y0025425
X0032475Y0026125
X0032175Y002675
X00319944Y00280413
X003181Y002891
X0031135Y0029435
X0032585
X003336Y002891
X0034135Y0029435
X0035075Y003
X003595Y0028075
X003595Y0027525
X004055
X00411Y0027625
X00404Y002575
X0040375Y0024625
X0039025Y0025875
X003985Y00209527
X0042396Y002114
X0043191Y0018151
X0043691Y0018151
Y0017651
X0044191
Y0017151
Y0016651
Y0016151
X0043191
Y0016651
Y0017151
X0044191Y0018151
X0041397Y0016811
X0040065Y0016145
X0038951Y00152714
X00380148Y00162527
X003685Y001665
X003605Y00167527
X00355Y00167527
X00355Y0017535
X0035175Y0017935
X0035725Y0018435
X0037775Y0018875
X00365Y00155277
X003565Y00149777
X0033625Y0014475
X0032775
X003125Y0014485
X00304501
X002965
Y0015285
Y0016085
X00304501
Y0015285
X003125
Y0016085
Y0016885
X00304501
Y0017685
X002965
X002885
X00280501
X002725
Y0018485
Y0019285
X00280501
Y0018485
X002885
Y0019285
X002965Y0019285
X002965Y0018485
X00304501
Y0019285
X003125Y0020085
X003205
X003205Y0021075
X0032475Y00208
X0032875Y002045
X0031975Y002235
X00304501Y0020885
X002965
Y0020085
X002885
X00280501
X002725
Y0020885
X00280501
X00284Y0021275
X0028425Y0021975
X0028825Y002095
X00264501Y0020885
Y0020085
X002565
Y0020885
X002485Y0020885
X002485Y0020085
Y0019285
Y0018485
X002565
X00264501
Y0019285
X002565
Y0017685
X00264501
Y0016885
X002565
Y0016085
Y0015285
X00264501
Y0016085
X002725
Y0015285
X00280501
Y0016085
Y0016885
X002725
X002885
X002965Y0016885
X002885Y0016085
Y0015285
Y0014485
X00280501
X002725
X00264501
X002565
X002485
Y0015285
Y0016085
Y0016885
Y0017685
X00240501
Y0016885
X002325
X002325Y0017685
X00224501Y0017685
Y0018485
Y0019285
X002165
Y0020085
X00224501
Y0020885
X002167Y0020905
X002325Y0020885
Y0020085
X00240501
Y0020885
Y0019285
X002325
Y0018485
X00240501
Y0016085
X002325
Y0015285
X00240501
Y0014485
X002325
X00224501
X002165
Y0015285
Y0016085
Y0016885
X00224501
Y0016085
Y0015285
X0020175Y0015285
Y0014485
X0020175Y0016085
X0020175Y0016885
Y0017685
X0020175Y0018485
X0020175Y0019285
X00206Y002015
X002015Y0022085
X0019425Y002205
X001995Y0024135
Y0025235
X002015Y0027285
X002065
X002115Y0027425
X0021625Y0027425
X002315Y0027325
X0023285Y002936
X002476Y0029435
X0025275Y002726
X002515Y00251
X0024675Y0025275
X0024225Y002505
X00252Y0024475
Y002395
X0023525Y002335
X0021925Y0023435
X0022Y0023935
X0022Y0024935
X0022Y0025435
Y0025935
X001965Y0027285
X001941Y002891
X0020185Y002936
X00207Y00289999
X0020675Y0037695
X0022075
X00236Y0037595
X002446Y003848
X0024725Y004052
X0026425Y0040695
X0027575Y0040695
X00272Y0042095
X002651
X002569
X002595Y004347
X002565Y0043845
X0026275Y0043845
X002835Y004362
X002885Y004362
X0028475Y004442
X0028Y004322
X0030125Y004307
X00301Y004362
Y0044245
X003155Y0044045
X00321
X0031825Y0044445
X003175Y0045595
X0032425Y004547
X0035375Y00457977
X00361Y00465477
X0036475Y00476477
X00361Y00485727
X0035575Y00485727
X00350697Y00485727
X0035275Y00498727
X00358Y00498727
X00346Y004972
X0033625Y0050845
X0032775
X003125Y0050855
Y0050055
X00304501
X002965
Y0050855
X00304501
Y0051655
X002965
Y0052455
X00304501
Y0053255
X003125
Y0052455
Y0051655
X00329Y0052345
X00334Y005237
X00355Y00531227
X003605Y00531227
X003685Y005302
X00365Y00518977
X003565Y00513477
X0038951Y00516414
X00380148Y00526227
X0040065Y0052515
X0040398Y0052848
Y0053514
X0041064Y0053514
X0041397Y0053181
X0041064Y0052182
X0040731Y0052515
X0040398Y0052182
X0040731Y0051849
X0041397Y0051849
X0041397Y0051183
X0041064Y005085
X0040731Y0051183
X0040731Y0050517
X0041064Y0050184
Y0049518
X0040731Y0049851
Y0049185
X0040398Y0049518
X0040398Y0048852
X0041064
Y0048186
X004173Y0048186
X0042063Y0047853
Y0047187
X004173Y004752
X0041397Y0047187
X0042729Y0047187
X0043062Y004752
X0043062Y0048186
X0042729Y0047853
X0042396Y004752
X004265Y0049245
X0042Y004927
X0041425Y004987
X0041401Y00505164
X0040398Y005085
X00391Y00494227
X0039625Y004717
X004065Y00463977
X0042071Y00449664
X0042056Y00444664
X0041925Y0043545
X0041525Y004317
X0041575Y0041845
X00407Y0042395
X0038675Y00441727
Y00452727
X003755Y004487
X00376Y00457977
X00374475Y00432046
X00365Y0043245
X00365409Y0041795
X003501Y003883
X0034235Y003833
X003346Y003883
X003255Y003937
X00320125
X0031475
X003191Y003883
X0031135Y003833
X0029375Y004222
X0028675Y004607
X00281Y0045945
X002765Y004627
X00276Y00467893
X002885Y0046855
X002885Y0047655
Y0048455
Y0049255
X00280501
Y0048455
X00264501
X002565
Y0049255
Y0050055
Y0050855
X00264501
X002725
Y0050055
X00280501
Y0050855
Y0051655
X002725
Y0052455
X00280501
Y0053255
X002725
X00264501
X002565
Y0052455
Y0051655
X00264501
Y0052455
X002485
Y0051655
Y0050855
X00240501
Y0050055
Y0049255
X002325
X002325Y0050055
X00224501Y0050055
Y0050855
X002325
X002325Y0051655
Y0052455
X00240501
Y0051655
X00224501
Y0052455
X002165
Y0051655
Y0050855
Y0050055
Y0049255
Y0048455
Y0047655
X00224501Y0048455
Y0049255
X0020175Y0049255
X0020175Y0050055
X0020175Y0050855
Y0051655
X0020175Y0052455
X0020175Y0053255
X002165Y0053255
X00224501
X002325
X00240501
X002485
X002885
X002965Y0053255
X002885Y0052455
Y0051655
Y0050855
Y0050055
X002965Y0049255
X00304501
Y0048455
X002965
Y0047655
X00304501
X003125
Y0048455
Y0049255
X00264501
Y0047655
X00266Y004642
X0025175Y0046645
X002485Y0046245
X0024025Y0046345
X00239Y0045845
X00242Y0045445
X00226Y004517
X00226Y004467
X0021375Y004577
X0020225Y0044645
X00211Y004297
X00217Y004297
X0021675Y004207
X00233Y0043045
X002405Y0047655
X00240501Y0048455
X002485
X0019925Y0048045
X00266859Y00396601
X0028365Y0027935
X002905Y0028025
X0029975Y0025475
X00306Y0025325
X0028Y002555
Y002405
X003125Y0018485
Y0017685
X00329Y0015975
X00334Y0016
X002165Y0017685
X0049056Y001781
Y0018476
X0049389Y0018809
X0049722Y001781
X0050055Y0018143
X0050388Y0018476
X0051125Y001895
X00507Y0021025
X0049575Y0021275
X005039Y002767
X005041Y002891
X0049635Y0029435
X004886Y002891
X0048085Y0029435
X004731Y002891
X0046535Y0029435
X004576Y002891
X0044985Y0029435
X004421Y002891
X0043435Y0029435
X0051185
X005196Y002891
X00525Y0029425
X005244Y002767
X0054075Y0029875
X0057125Y002515
X005689Y0024395
X00586Y0025375
X005849Y004025
X005754Y0039875
X005635Y0039995
X005206Y003883
X005205Y0037595
X005255
X005155
X0051285Y0038305
X0049735Y003833
X004896Y003883
X0048185Y003833
X004741Y003883
X0046635Y003833
X004586Y003883
X0045085Y003833
X004431Y003883
X0043535Y003833
X004276Y003883
X00448168Y00401118
Y00407618
Y00430117
Y00436617
X004565Y004437
X004663Y00447
X0045393Y0046521
X0045726Y0046854
X0045725Y00475227
X0045393Y0047853
X004506Y0048186
X0044394Y0048186
X0044727Y0047853
X0044061Y0047853
X0044061Y0047187
X0043575Y00459727
X00432Y0048995
X0043191Y0049521
X00432Y005002
X0043191Y0050521
Y0051021
Y0051521
X0044191
Y0051021
Y0050521
X00442Y005002
X0044191Y0049521
X0045191Y0049511
Y0050511
Y0051511
Y0052511
Y0053011
Y0053511
X0046191Y0053521
Y0053021
Y0052521
X0047191
Y0053021
Y0053521
X0047825Y0053745
Y0053245
Y0052745
X0048075Y0052245
X004835Y005172
Y0051145
X0047191Y0051021
Y0050521
Y0050021
Y0049521
X0046191
Y0050521
Y0051021
Y0051521
X0047191
X0049722Y005085
Y0050184
X0049389Y0049851
X0049056Y0049518
X0049056Y0048852
X0049389Y0048519
X0050055
X0050055Y0049185
X0050388Y0049518
X0050721Y0050517
X0052254Y0050679
X005225Y005012
X005285Y00510303
X0053125Y004932
X00526Y004882
X00525551Y00470273
X005135Y004652
X0054Y004657
Y004592
X00569853Y004592
Y004657
X0058675Y0046295
X00579Y0044845
X0057525Y004447
X0052675Y004387
X005065Y004357
X005015
X0049575Y004007
X0048723Y0047187
X0049056Y004752
X0049389Y0047853
X004839Y0048186
X0051575Y0052445
X0051905Y005362
X0044191Y0053521
Y0053021
Y0052521
X0043191
Y0053021
Y0053521
X0042625Y0049995
X00369Y0048595
X0018875Y004888
X0018225Y0048255
X0017425
X0016625Y0048255
X0015825Y0048255
X0015025
X0014225Y0048255
X0013425Y0048255
X0012625
X0011825Y0048255
X0012225Y0046905
X0011425Y0046905
X0013025
X0013825Y0046905
X0014625
X0015425
X0016225
X0017025
X0017825Y0046905
X0018625Y0046905
X00189Y0044645
X001825
X0018575Y004427
X0016975Y004427
X0016675Y0044645
X00173Y0044645
X0017535Y0042895
X001825
X0016715
X0014375Y004287
Y004342
X0013725Y004302
X0012425
X0012975Y0044145
Y0044595
X0012025Y0045195
X00112Y0045045
X00111Y004457
X0014325Y004532
X001435Y0041095
X001615Y0040545
X001815Y004052
X00166401Y0038805
X00158651Y003838
X00150901Y0038805
X00123Y004072
X0011675Y004052
X0009875Y004162
X00091179Y0041645
Y00421521
X000855Y004087
X0008
X0006625Y0041095
X00066614Y0041845
X00061Y004187
X0006625Y0042495
X0006725Y0043745
X0007275Y004377
X0007875Y004377
X00061Y0043495
X0005675Y004417
X0005775Y0046845
X0005775Y004737
X000525Y004737
X000525Y0046845
X000375Y0048795
X000375Y0049295
X000325Y0049295
X000325Y0048795
X0003775Y005182
X0003775Y005232
X000225Y005207
X000685Y0051345
Y0050765
X0007275Y005044
Y005167
X0011175Y0051655
Y0052855
X001164Y0052455
X0012825Y0052055
Y0053155
X0013925
Y0052055
X0015025
X0016125
Y0053155
X0015025
X0017225
Y0052055
X0018125Y005212
X001815Y005152
X0018275Y005082
X001885Y0050455
X001885Y0051255
X001885Y0052055
Y0052855
X001885Y0053655
X0017225Y0050955
Y0049855
X0016125
X0015025
Y0050955
X0016125
X0013925
Y0049855
X0012825
Y0050955
X0011175Y0050455
X0009875Y0048455
X0008775Y0048245
X0007375Y003937
X00073401Y003883
X0006625Y0039545
X00061Y004032
X00062Y0028375
X00061Y002742
X00072Y0028675
X0008975Y0027975
X0008235Y0027035
X0008875Y0026
X0008485Y0024735
X0008775Y002345
X0008775Y002195
X000925Y00215
X0009275Y002095
X00113Y002125
X001095Y0019775
X0011275Y0018985
Y0018385
X0011175Y0017685
Y0016485
X001164Y0016085
X0011175Y0015285
Y0014085
X0012825Y0014585
X0013925
X0015025
X0016125
X0017225
Y0015685
X0018125Y001575
X001815Y001515
X0018275Y001445
X001885Y0014085
X001885Y0014885
X001885Y0015685
Y0016485
X001885Y0017285
X001885Y0018085
Y0018885
X00171Y001925
X0016625Y0019535
X0015825
X0015025Y0019535
X0014225Y0019535
X0013425
X0012625
X0013025Y0020835
X0013825
X0014625Y0020835
X0015425
X001545Y002135
X0016225Y0020835
X0017025
X0017825
X0018625
X001865Y0022085
X001688Y0022055
X00164Y002205
X0016175Y002345
X0015675
X0016125Y0023975
X00167Y002406
X0016675Y002356
X00167Y00251
X00168Y0025935
X001815Y0027285
X001865
X0018635Y0029385
X00178601Y002891
X00170851Y002936
X0015425Y0028575
X0014175Y00265646
X0012475Y002655
Y0026
X001265Y00273
X0012325Y0024575
X0011775
X001275Y0022185
X0012825Y0017885
X0013925
X0015025
X0016125
X0017225
Y0016785
X0016125
Y0015685
X0015025
Y0016785
X0013925
Y0015685
X0012825
Y0016785
X0007275Y00153
X000685Y0014975
Y0014395
X0007275Y001407
X0006225Y001767
Y0018295
X0006225Y0019075
Y00197
X00075Y0019675
X000595Y0022425
X00061Y002432
X000545Y002435
X0005Y002505
X0006625Y0025095
X0003775Y001895
X0003775Y001845
X0003275Y001845
X0003275Y001895
X0003775Y001595
X0003775Y001545
X000225Y00157
X001885Y0024135
Y0025235
X001885Y0054455
Y0055255
X00171Y005562
X0016625Y0055905
X0015825
X0015025Y0055905
X0014225Y0055905
X0013425
X0012625
X0013025Y0057205
X0013825
X0014625Y0057205
X0015425
X001545Y005772
X0016225Y0057205
X0017025
X0017825
X0018625
X001865Y0058455
X001688Y0058425
X00164Y005842
X0016175Y005982
X0015675
X0016125Y0060345
X00167Y006043
X0016675Y005993
X00167Y006147
X00168Y0062305
X001815Y0063655
X001865
X0018635Y0065755
X00178601Y006528
X00170851Y006573
X0015425Y0064945
X0014175Y00629346
X0012475Y006292
Y006237
X001265Y006367
X0012325Y0060945
X0011775
X001275Y0058555
X00113Y005762
X001095Y0056145
X0011275Y0055355
Y0054755
X0011175Y0054055
X0012825Y0054255
X0013925
X0015025
X0016125
X0017225
X001885Y0060505
Y0061605
X0008875Y006237
X0008485Y0061105
X0008775Y005982
X0008775Y005832
X000925Y005787
X0009275Y005732
X00075Y0056045
X0006225Y005607
Y0055445
X0006225Y0054665
Y005404
X0003775Y005482
X0003775Y005532
X0003275Y005532
X0003275Y005482
X000595Y0058795
X00061Y006069
X000545Y006072
X0005Y006142
X0006625Y0061465
X00061Y006379
X00062Y0064745
X00072Y0065045
X0008975Y0064345
X0008235Y0063405
X00073401Y00752
X0007375Y007574
X0006625Y0075915
X00061Y007669
X0006625Y0077465
X00066614Y0078215
X00061Y007824
X0006625Y0078865
X0006725Y0080115
X0007275Y008014
X0007875Y008014
X00061Y0079865
X0005675Y008054
X0005775Y0083215
X0005775Y008374
X000525Y008374
X000525Y0083215
X000375Y0085165
X000375Y0085665
X000325Y0085665
X000325Y0085165
X0003775Y008819
X0003775Y008869
X000225Y008844
X0003275Y009119
X0003275Y009169
X0003775Y009169
X0003775Y009119
X0006225Y0091035
Y009041
X0006225Y0091815
Y009244
X00075Y0092415
X001095Y0092515
X0011275Y0091725
Y0091125
X0011175Y0090425
Y0089225
X001164Y0088825
X0011175Y0088025
Y0086825
X0012825Y0087325
X0013925
X0015025
X0016125
X0017225
Y0088425
X0018125Y008849
X001815Y008789
X0018275Y008719
X001885Y0086825
X001885Y0087625
X001885Y0088425
Y0089225
X001885Y0090025
X001885Y0090825
Y0091625
X00171Y009199
X0016625Y0092275
X0015825
X0015025Y0092275
X0014225Y0092275
X0013425
X0012625
X0012825Y0090625
X0013925
X0015025
X0016125
X0017225
Y0089525
X0016125
Y0088425
X0015025
Y0089525
X0013925
Y0088425
X0012825
Y0089525
Y0086225
X0013925
X0015025
X0016125
X0017225
X0017425Y0084625
X0018225
X0018875Y008525
X0018625Y0083275
X0017825Y0083275
X0017025Y0083275
X0016225
X0015425
X0014625
X0013825
X0013025Y0083275
X0012225Y0083275
X0011425Y0083275
X0011825Y0084625
X0012625Y0084625
X0013425
X0014225Y0084625
X0015025Y0084625
X0015825
X0016625Y0084625
X0016675Y0081015
X00173Y0081015
X0016975Y008064
X0018575Y008064
X00189Y0081015
X001825
Y0079265
X0017535
X0016715
X0014375Y007924
Y007979
X0013725Y007939
X0012425
X0012975Y0080515
Y0080965
X0012025Y0081565
X00112Y0081415
X00111Y008094
X0014325Y008169
X001435Y0077465
X001615Y0076915
X001815Y007689
X00166401Y0075175
X00158651Y007475
X00150901Y0075175
X00123Y007709
X0011675Y007689
X0009875Y007799
X00091179Y0078015
Y00785221
X000855Y007724
X0008
X0008775Y0084615
X0009875Y0084825
X0007275Y008681
X000685Y0087135
Y0087715
X0007275Y008804
X0020175Y0088025
Y0087225
X0020175Y0086425
X0020175Y0085625
X0019925Y0084415
X002165Y0084025
Y0084825
Y0085625
Y0086425
Y0087225
Y0088025
Y0088825
Y0089625
X00224501
Y0090425
X002325Y0090425
X002325Y0089625
X00240501
X002485
X002565
X00264501
X002725
X00280501
Y0090425
X002725
Y0091225
Y0092025
X00280501
Y0091225
X002885
Y0092025
X002965Y0092025
X002965Y0091225
X00304501
Y0092025
X003125Y0092825
X003205
X0032875Y009319
X002965Y0092825
X002885
X00280501
X002725
X00264501
X002565
Y0092025
X00264501
Y0091225
X002565
Y0090425
X00264501
X002485
Y0091225
Y0092025
Y0092825
X00240501
X002325
X00224501
X002165
Y0092025
X00224501
Y0091225
X002325
Y0092025
X00240501
Y0091225
Y0090425
Y0088825
X002325
Y0088025
X00240501
X002485
Y0088825
X002565
Y0088025
X00264501
Y0088825
X002725
Y0088025
X00280501
Y0088825
X002885
Y0088025
X002965
Y0088825
X00304501
Y0088025
Y0087225
X002965
Y0086425
X00304501
Y0085625
X002965
X002885
X00280501
Y0084825
X002885
Y0084025
X002965
X00304501
Y0084825
X002965
X003125
Y0085625
Y0086425
Y0087225
Y0088025
Y0088825
Y0089625
X00304501
Y0090425
X002965
X002885
Y0089625
X002965Y0089625
X003125Y0090425
Y0091225
X00329Y0088715
X00334Y008874
X0033625Y0087215
X0032775
X00346Y008609
X0035275Y00862427
X00358Y00862427
X0035575Y00849427
X00350697Y00849427
X00361Y00849427
X00369Y0084965
X0036475Y00840177
X00361Y00829177
X0035375Y00821677
X00376
X003755Y008124
X0038675Y00816427
Y00805427
X00374475Y00795746
X00365Y0079615
X00365409Y0078165
X003501Y00752
X0034235Y00747
X003346Y00752
X003255Y007574
X00320125
X0031475
X003191Y00752
X0031135Y00747
X0029375Y007859
X0030125Y007944
X00301Y007999
Y0080615
X003155Y0080415
X00321
X0031825Y0080815
X003175Y0081965
X0032425Y008184
X003125Y0084025
X002885Y0083225
X0028675Y008244
X00281Y0082315
X002765Y008264
X00276Y00831593
X00266Y008279
X00264501Y0084025
Y0084825
X002565
Y0085625
Y0086425
Y0087225
X00264501
X002725
Y0086425
X00280501
Y0087225
X002885
Y0086425
X00264501Y0085625
X002485Y0084825
X00240501
Y0085625
X002325
X002325Y0086425
X00224501Y0086425
Y0087225
X002325
X00240501
Y0086425
X002485Y0087225
X00224501Y0088025
Y0088825
X0020175Y0088825
X0020175Y0089625
Y0090425
X0020175Y0091225
X0020175Y0092025
X00206Y009289
X002165Y0090425
X00224501Y0085625
Y0084825
X002405Y0084025
X0024025Y0082715
X00239Y0082215
X00242Y0081815
X002485Y0082615
X0025175Y0083015
X002565Y0080215
X0026275Y0080215
X002595Y007984
X002569Y0078465
X002651
X00272
X0027575Y0077065
X0026425Y0077065
X00266859Y00760301
X0024725Y007689
X002446Y007485
X00236Y0073965
X0022075Y0074065
X0020675
X0021675Y007844
X00217Y007934
X00211Y007934
X00233Y0079415
X00226Y008104
X00226Y008154
X0021375Y008214
X0020225Y0081015
X0028475Y008079
X002835Y007999
X002885Y007999
X0028Y007959
X00407Y0078765
X0041575Y0078215
X0041525Y007954
X0041925Y0079915
X0042056Y00808364
X0042071Y00813364
X0042063Y0083557
X004173Y008389
X0041397Y0083557
X0041064Y0084556
Y0085222
X0040398
X0040731Y0085555
X0040398Y0085888
X0040731Y0086221
X0041064Y0085888
Y0086554
X0040731Y0086887
X0040398Y008722
X0040731Y0087553
X0041064Y008722
X0041397Y0087553
X0041397Y0088219
X0041064Y0088552
X0040731Y0088885
X0040398Y0088552
X0040731Y0088219
X0040398Y0089218
Y0089884
X0040731Y0090217
X0041064Y0089884
X0041397Y0090217
X0041064Y009055
X0040731Y0090883
Y0091549
X0041064Y0091216
X0041397Y0090883
X0040398Y0091216
X0041064Y0091882
X0042729Y0092215
X0042396Y0093214
X0043062
X0043395Y0092881
X0044061
X0043728Y0092548
X0044394Y0093214
X0044727Y0092881
X004506Y0093214
X0044976Y00924114
X0045191Y0090881
Y0090381
Y0089881
Y0089381
Y0088881
Y0087881
Y0086881
Y0085881
X0046191Y0085891
X0047191
Y0086391
Y0086891
Y0087391
Y0087891
X0046191
Y0087391
Y0086891
Y0088891
Y0089391
Y0089891
Y0090391
Y0090891
X0047191
Y0090391
Y0089891
Y0089391
Y0088891
X0047825Y0089115
Y0089615
Y0090115
Y0090615
X0047826Y00912614
Y00917614
X0047058Y0092548
X0046725Y0092881
X0049389Y0091549
X0049056Y0091216
Y009055
X0049722
X0050055Y0090883
X0050388Y0091216
X0051125Y009169
X005333Y009144
X005315Y009294
X0054155Y009244
X0055425Y009309
X005745
X0058
X0058575Y0092915
X0054155Y009044
X0051905Y008999
X0051575Y0088815
X0052254Y0087049
X005225Y008649
X005285Y00874003
X0053125Y008569
X00526Y008519
X00525551Y00833973
X005135Y008289
X0054Y008294
Y008229
X00569853Y008229
Y008294
X0058675Y0082665
X00579Y0081215
X0057525Y008084
X005754Y0076245
X005635Y0076365
X005849Y007662
X005206Y00752
X005205Y0073965
X005255
X005155
X0051285Y0074675
X0049735Y00747
X004896Y00752
X0048185Y00747
X004741Y00752
X0046635Y00747
X004586Y00752
X0045085Y00747
X004431Y00752
X0043535Y00747
X004276Y00752
X00448168Y00764818
Y00771318
Y00793817
Y00800317
X004565Y008074
X004663Y008107
X0045393Y0082891
X0045726Y0083224
X0045725Y00838927
X0045393Y0084223
X004506Y0084556
X0044394Y0084556
X0044727Y0084223
X0044061Y0084223
X0044061Y0083557
X0043062Y008389
X0043062Y0084556
X0042729Y0084223
X0042396Y008389
X0042063Y0084223
X004173Y0084556
X0042Y008564
X004265Y0085615
X0042625Y0086365
X00432Y008639
X0043191Y0085891
X00432Y0085365
X0044191Y0085891
X00442Y008639
X0044191Y0086891
Y0087391
Y0087891
X0043191
Y0087391
Y0086891
X0041401Y00868864
X0041425Y008624
X00391Y00857927
X0038951Y00880114
X00380148Y00889927
X003685Y008939
X003605Y00894927
X00355Y00894927
X00355Y0090275
X0035175Y0090675
X0035725Y0091175
X0037775Y0091615
X00365Y00882677
X003565Y00877177
X0040065Y0088885
X0041397Y0089551
X0043191Y0089391
Y0088891
X0044191
Y0089391
Y0089891
Y0090391
X0043691
Y0090891
X0043191Y0090891
X0044191
X0043191Y0089891
X0048075Y0088615
X004835Y008809
Y0087515
X0049722Y008722
Y0086554
X0049389Y0086221
X0049056Y0085888
X0049056Y0085222
X0049389Y0084889
X0050055
X0050055Y0085555
X0050388Y0085888
X0050721Y0086887
X0049389Y0084223
X0049056Y008389
X0048723Y0083557
X004839Y0084556
X005015Y007994
X005065
X0052675Y008024
X0049575Y007644
X0049635Y0065805
X004886Y006528
X0048085Y0065805
X004731Y006528
X0046535Y0065805
X004576Y006528
X0044985Y0065805
X004421Y006528
X0043435Y0065805
X00411Y0063995
X004055Y0063895
X00404Y006212
X0040375Y0060995
X00406Y005902
X0041725Y005877
X0042525Y005867
X0042396Y005751
X0042729Y0057177
X0043062Y0056844
X0042396
X0042729Y0055845
X0043728Y0056178
X0044061Y0056511
X0043395
X0043395Y0057177
X0044394Y0056844
X0044727Y0056511
X004506Y0056844
X0045393Y0057177
X0044976Y00560414
X0045191Y0054511
Y0054011
X0044191Y0054021
X0043691
Y0054521
X0043191Y0054521
X0044191
X0046191
Y0054021
X0047191Y0054021
Y0054521
X0047825Y0054245
X0047826Y00548914
Y00553914
X0047058Y0056178
X0046725Y0056511
X00471Y0057645
X0046625Y005917
X004595Y0060145
X0049575Y0057645
X00507Y0057395
X0051125Y005532
X0050388Y0054846
X0050055Y0054513
X0049722Y005418
X0049056
Y0054846
X0049389Y0055179
X005333Y005507
X005315Y005657
X0054155Y005607
X0055425Y005672
X005745
X0058
X0058575Y0056545
X00586Y0061745
X0057125Y006152
X005689Y0060765
X005244Y006404
X005196Y006528
X00525Y0065795
X0051185Y0065805
X005041Y006528
X005039Y006404
X0054075Y0066245
X0054155Y005407
X0041397Y0053847
X0041064Y005418
X0040731Y0054513
Y0053847
Y0055179
X0041064Y0054846
X0041397Y0054513
X0040398Y0054846
X0041064Y0055512
X003985Y00573227
X0038675Y0058195
X00384Y00591464
X0039251
X003875Y0060095
X0037975Y006127
X0037225Y0060745
X003625Y0061245
X003575Y0061245
X003465Y006217
X0034625Y0060095
X003195Y006052
X0032Y0061795
X0032475Y0062495
X0032175Y006312
X00319944Y00644113
X003181Y006528
X0031135Y0065805
X0032585
X003336Y006528
X0034135Y0065805
X0035075Y006637
X003595Y0064445
X003595Y0063895
X0039025Y0062245
X0037775Y0055245
X0035725Y0054805
X0035175Y0054305
X00355Y0053905
X003125Y0054055
X00304501
X002965
X002885
X00280501
X002725
Y0054855
Y0055655
X00280501
Y0054855
X002885
Y0055655
X002965Y0055655
X002965Y0054855
X00304501
Y0055655
X003125Y0056455
X003205
X003205Y0057445
X0032475Y005717
X0032875Y005682
X0031975Y005872
X00304501Y0057255
X002965
Y0056455
X002885
X00280501
X002725
Y0057255
X00280501
X00284Y0057645
X0028425Y0058345
X0028825Y005732
X00264501Y0057255
Y0056455
X002565
Y0057255
X002485Y0057255
X002485Y0056455
Y0055655
Y0054855
X002565
X00264501
Y0055655
X002565
Y0054055
X00264501
X002485
X00240501
Y0054855
X002325
Y0055655
X00240501
Y0056455
X002325
Y0057255
X00240501
X00224501
X002167Y0057275
X002165Y0056455
Y0055655
X00224501
Y0054855
Y0054055
X002325Y0054055
X002165Y0054055
X0020175Y0054055
X0020175Y0054855
X0020175Y0055655
X00206Y005652
X00224501Y0056455
X0021925Y0059805
X0022Y0060305
X0022Y0061305
X0022Y0061805
Y0062305
X0021625Y0063795
X002115Y0063795
X002065Y0063655
X002015
X001965
X001941Y006528
X0020185Y006573
X00207Y00653699
X0023285Y006573
X002476Y0065805
X0025275Y006363
X002315Y0063695
X0024225Y006142
X0024675Y0061645
X002515Y006147
X00252Y0060845
Y006032
X0023525Y005972
X001995Y0060505
Y0061605
X002015Y0058455
X0019425Y005842
X0028Y006042
Y006192
X0029975Y0061845
X00306Y0061695
X002905Y0064395
X0028365Y0064305
X003125Y0054855
X0039625Y008354
X004065Y00827677
X0042729Y0083557
X0043575Y00823427
X006025Y0082665
X0059725Y008389
X00612Y008564
X006175
X00623
X0064925Y008472
X006555Y0085115
X00671
X006865
X0067975Y0088425
X0065Y0089265
X00652Y009014
X006555Y009174
X0064925Y0092135
X00671Y009174
X006865
X0063825Y008944
X0063925Y00876025
X0065Y0087565
X0064925Y008317
Y0079185
X0064225Y0078765
X0063675
X0063Y008039
X00613Y0079715
Y0078618
X006136Y00752
X0062135Y0074675
X006291Y00752
X0063685Y0074675
X006446Y00752
X0065235Y0074675
X006601Y00752
X0066785Y0074675
X006756Y00752
X006845Y007624
X006865Y007724
X00671
X006555
X0064925Y0077635
X0060585Y0074675
X005981Y00752
X0059035Y0074675
X0059875Y0080765
X006125Y009024
X00619152Y0065805
X00626303Y00652899
X006385Y006587
X006545Y006637
X00665053Y00657899
X00672803Y0065265
X00680553Y00657899
X006855Y0064545
X006865Y0063245
X00671
X006555
X0064925Y006285
X0064225Y0062245
X0064225Y006177
X0064925Y00613
X0063825Y0063645
X0063275
X00599Y0063345
X005971Y006528
X0060485Y0065805
X0058935
X0060675Y0061745
X0060525Y005917
X00621Y005827
X0064925Y0057315
Y0055765
X006555Y005537
X00671
X006865
X00652Y005377
X006125Y005387
X00621Y009464
X0060525Y009554
X0060675Y0098115
X00599Y0099715
X005971Y010165
X0060485Y0102175
X00619152
X00626303Y010166
X006385Y010224
X006545Y010274
X00665053Y010216
X00672803Y01016349
X00680553Y010216
X006855Y0100915
X006865Y0099615
X00671
X006555
X0064925Y009922
X0064225Y0098615
X0064225Y009814
X0064925Y009767
X0063825Y0100015
X0063275
X0058935Y0102175
X0059035Y0111045
X005981Y011157
X0060585Y0111045
X006136Y011157
X0062135Y0111045
X006291Y011157
X0063685Y0111045
X006446Y011157
X0065235Y0111045
X006601Y011157
X0066785Y0111045
X006756Y011157
X006845Y011261
X006865Y011361
X00671
X006555
X0064925Y0114005
Y0115555
X0064225Y0115135
X0063675
X0063Y011676
X00613Y0116085
Y0114988
X0059875Y0117135
X006025Y0119035
X0059725Y012026
X00612Y012201
X006175
X00623
X0064925Y012109
X006555Y0121485
X00671
X006865
X0067975Y0124795
X0065Y0125635
X00652Y012651
X006555Y012811
X0064925Y0128505
Y0130055
X00621Y013101
X0060525Y013191
X006125Y012661
X0063825Y012581
X0063925Y01239725
X0065Y0123935
X0064925Y011954
X00671Y012811
X006865
X0064925Y0093685
X00586Y0098115
X0057125Y009789
X005689Y0097135
X005244Y010041
X005196Y010165
X00525Y0102165
X0051185Y0102175
X005041Y010165
X005039Y010041
X0049635Y0102175
X004886Y010165
X0048085Y0102175
X004731Y010165
X0046535Y0102175
X004576Y010165
X0044985Y0102175
X004421Y010165
X0043435Y0102175
X00411Y0100365
X004055Y0100265
X00404Y009849
X0040375Y0097365
X00406Y009539
X0041725Y009514
X0042525Y009504
X0042396Y009388
X0042729Y0093547
X0043395
X0045393Y0093547
X00471Y0094015
X0046625Y009554
X004595Y0096515
X0049575Y0094015
X00507Y0093765
X003985Y00936927
X0038675Y0094565
X00384Y00955164
X0039251
X003875Y0096465
X0037975Y009764
X0037225Y0097115
X003625Y0097615
X003575Y0097615
X003465Y009854
X0034625Y0096465
X003195Y009689
X0032Y0098165
X0032475Y0098865
X0032175Y009949
X00319944Y01007813
X003181Y010165
X0031135Y0102175
X0032585
X003336Y010165
X0034135Y0102175
X0035075Y010274
X003595Y0100815
X003595Y0100265
X0039025Y0098615
X00306Y0098065
X0029975Y0098215
X0028Y009829
Y009679
X0028425Y0094715
X00284Y0094015
X00280501Y0093625
X002725
X00264501
X002565
X002485Y0093625
X00240501Y0093625
X002325
X00224501
X002167Y0093645
X002015Y0094825
X0019425Y009479
X001995Y0096875
Y0097975
X002015Y0100025
X002065
X002115Y0100165
X0021625Y0100165
X002315Y0100065
X0023285Y01021
X002476Y0102175
X0025275Y01
X002515Y009784
X0024675Y0098015
X0024225Y009779
X00252Y0097215
Y009669
X0023525Y009609
X0021925Y0096175
X0022Y0096675
X0022Y0097675
X0022Y0098175
Y0098675
X001965Y0100025
X001941Y010165
X0020185Y01021
X00207Y010174
X0020675Y0110435
X0022075
X00236Y0110335
X002446Y011122
X0024725Y011326
X0026425Y0113435
X0027575Y0113435
X00272Y0114835
X002651
X002569
X002595Y011621
X002565Y0116585
X0026275Y0116585
X002835Y011636
X002885Y011636
X0028475Y011716
X0028Y011596
X0030125Y011581
X00301Y011636
Y0116985
X003155Y0116785
X00321
X0031825Y0117185
X003175Y0118335
X0032425Y011821
X0035375Y01185377
X00361Y01192877
X0036475Y01203877
X00361Y01213127
X0035575Y01213127
X00350697Y01213127
X0035275Y01226127
X00358Y01226127
X00346Y012246
X0033625Y0123585
X0032775
X003125Y0123595
Y0122795
X00304501
X002965
Y0123595
X00304501
Y0124395
X002965
Y0125195
X00304501
Y0125995
Y0126795
X002965
X002885
X00280501
X002725
Y0127595
Y0128395
X00280501
Y0127595
X002885
Y0128395
X002965Y0128395
X002965Y0127595
X00304501
Y0128395
X003125Y0129195
X003205
X003205Y0130185
X0032475Y012991
X0032875Y012956
X0031975Y013146
X00304501Y0129995
X002965
Y0129195
X002885
X00280501
X002725
Y0129995
X00280501
X00284Y0130385
X0028425Y0131085
X0028825Y013006
X00264501Y0129995
Y0129195
X002565
Y0129995
X002485Y0129995
X002485Y0129195
Y0128395
Y0127595
X002565
X00264501
Y0128395
X002565
Y0126795
X00264501
Y0125995
X002565
Y0125195
Y0124395
X00264501
Y0125195
X002725
Y0124395
X00280501
Y0125195
Y0125995
X002725
X002885
X002965Y0125995
X002885Y0125195
Y0124395
Y0123595
Y0122795
Y0121995
X00280501
Y0121195
X002885
Y0120395
X002965
X00304501
Y0121195
X002965
Y0121995
X00304501
X003125
Y0121195
Y0120395
X002885Y0119595
X0028675Y011881
X00281Y0118685
X002765Y011901
X00276Y01195294
X00266Y011916
X00264501Y0120395
Y0121195
X002565
Y0121995
Y0122795
Y0123595
X00264501
X002725
Y0122795
X00280501
Y0123595
X00264501Y0121995
X002485Y0121195
X00240501
Y0121995
X002325
X002325Y0122795
X00224501Y0122795
Y0123595
X002325
X00240501
Y0122795
X002485Y0123595
Y0124395
Y0125195
Y0125995
Y0126795
X00240501
Y0125995
X002325
X002325Y0126795
X00224501Y0126795
Y0127595
Y0128395
X002165
Y0129195
X00224501
Y0129995
X002167Y0130015
X002325Y0129995
Y0129195
X00240501
Y0129995
Y0128395
X002325
Y0127595
X00240501
Y0125195
X002325
Y0124395
X00240501
X00224501
Y0125195
X002165
Y0124395
Y0123595
Y0122795
Y0121995
Y0121195
Y0120395
X00224501Y0121195
Y0121995
X0020175Y0121995
X0020175Y0122795
X0020175Y0123595
Y0124395
X0020175Y0125195
X0020175Y0125995
Y0126795
X0020175Y0127595
X0020175Y0128395
X00206Y012926
X002015Y0131195
X0019425Y013116
X0021925Y0132545
X0022Y0133045
X0023525Y013246
X00252Y013306
X0034625Y0132835
X003875
X00384Y01318864
X0039251
X00406Y013176
X0041725Y013151
X0042525Y013141
X0042396Y013025
X0042729Y0129917
X0043062Y0129584
X0042396
X0042729Y0128585
X0043728Y0128918
X0044061Y0129251
X0043395
X0043395Y0129917
X0044394Y0129584
X0044727Y0129251
X004506Y0129584
X0045393Y0129917
X0044976Y01287814
X0045191Y0127251
Y0126751
Y0126251
Y0125751
Y0125251
Y0124251
Y0123251
Y0122251
X0046191Y0122261
X0047191
Y0122761
Y0123261
Y0123761
Y0124261
X0046191
Y0123761
Y0123261
Y0125261
Y0125761
Y0126261
Y0126761
Y0127261
X0047191
Y0126761
Y0126261
Y0125761
Y0125261
X0047825Y0125485
Y0125985
Y0126485
Y0126985
X0047826Y01276314
Y01281314
X0047058Y0128918
X0046725Y0129251
X00471Y0130385
X0046625Y013191
X004595Y0132885
X0049575Y0130385
X00507Y0130135
X0051125Y012806
X0050388Y0127586
X0050055Y0127253
X0049722Y012692
X0049056
Y0127586
X0049389Y0127919
X005333Y012781
X005315Y012931
X0054155Y012881
X0055425Y012946
X005745
X0058
X0058575Y0129285
X0054155Y012681
X0051905Y012636
X0051575Y0125185
X0052254Y0123419
X005225Y012286
X005285Y01237703
X0053125Y012206
X00526Y012156
X00525551Y01197673
X005135Y011926
X0054Y011931
Y011866
X00569853Y011866
Y011931
X0058675Y0119035
X00579Y0117585
X0057525Y011721
X005754Y0112615
X005635Y0112735
X005849Y011299
X005206Y011157
X005205Y0110335
X005255
X005155
X0051285Y0111045
X0049735Y011107
X004896Y011157
X0048185Y011107
X004741Y011157
X0046635Y011107
X004586Y011157
X0045085Y011107
X004431Y011157
X0043535Y011107
X004276Y011157
X00448168Y01128518
Y01135018
Y01157517
Y01164017
X004565Y011711
X004663Y011744
X0045393Y0119261
X0045726Y0119594
X0045725Y01202627
X0045393Y0120593
X004506Y0120926
X0044394Y0120926
X0044727Y0120593
X0044061Y0120593
X0044061Y0119927
X0043062Y012026
X0043062Y0120926
X0042729Y0120593
X0042396Y012026
X0042063Y0120593
Y0119927
X004173Y012026
X0041397Y0119927
X0041064Y0120926
Y0121592
X0040398
X0040731Y0121925
X0040398Y0122258
X0040731Y0122591
X0041064Y0122258
Y0122924
X0040731Y0123257
X0040398Y012359
X0040731Y0123923
X0041064Y012359
X0041397Y0123923
X0041397Y0124589
X0041064Y0124922
X0040731Y0125255
X0040398Y0124922
X0040731Y0124589
X0040398Y0125588
Y0126254
X0040731Y0126587
X0041064Y0126254
X0041397Y0126587
X0041064Y012692
X0040731Y0127253
Y0127919
X0041064Y0127586
X0041397Y0127253
X0040398Y0127586
X0041064Y0128252
X0041397Y0125921
X0043191Y0125761
Y0125261
X0044191
Y0125761
Y0126261
Y0126761
X0043691
Y0127261
X0043191Y0127261
X0044191
X0043191Y0126261
Y0124261
Y0123761
Y0123261
X00432Y012276
X0043191Y0122261
X00432Y0121735
X004265Y0121985
X0042Y012201
X0041425Y012261
X0041401Y01232564
X0042625Y0122735
X00442Y012276
X0044191Y0122261
Y0123261
Y0123761
Y0124261
X004835Y012446
Y0123885
X0048075Y0124985
X0049722Y012359
Y0122924
X0049389Y0122591
X0049056Y0122258
X0049056Y0121592
X0049389Y0121259
X0050055
X0050055Y0121925
X0050388Y0122258
X0050721Y0123257
X0049389Y0120593
X0049056Y012026
X0048723Y0119927
X004839Y0120926
X005015Y011631
X005065
X0052675Y011661
X0049575Y011281
X0041575Y0114585
X0041525Y011591
X0041925Y0116285
X0042056Y01172064
X0042071Y01177064
X0043575Y01187127
X0042729Y0119927
X004173Y0120926
X004065Y01191377
X0039625Y011991
X00391Y01221627
X0038951Y01243814
X00380148Y01253627
X003685Y012576
X003605Y01258627
X00355Y01258627
X00355Y0126645
X0035175Y0127045
X0035725Y0127545
X0037775Y0127985
X0038675Y0130935
X003985Y01300627
X0040065Y0125255
X00365Y01246377
X003565Y01240877
X00334Y012511
X00329Y0125085
X003125Y0125195
Y0124395
Y0125995
Y0126795
Y0127595
X00224501Y0125995
X002165
Y0126795
X0019925Y0120785
X0020225Y0117385
X0021375Y011851
X00226Y011791
X00226Y011741
X00233Y0115785
X00217Y011571
X00211Y011571
X0021675Y011481
X00242Y0118185
X00239Y0118585
X0024025Y0119085
X002485Y0118985
X0025175Y0119385
X002405Y0120395
X00266859Y01124001
X0031475Y011211
X00320125
X003255
X003191Y011157
X0031135Y011107
X003346Y011157
X0034235Y011107
X003501Y011157
X00365409Y0114535
X00365Y0115985
X00374475Y01159446
X003755Y011761
X00376Y01185377
X0038675Y01180127
Y01169127
X00407Y0115135
X00369Y0121335
X0029375Y011496
X002905Y0100765
X0028365Y0100675
X0028825Y009369
X002965Y0093625
X00304501
X003205Y0093815
X0032475Y009354
X0031975Y009509
X0054075Y0102615
X0018635Y0102125
X00178601Y010165
X00170851Y01021
X0015425Y0101315
X0014175Y00993046
X0012475Y009929
Y009874
X001265Y010004
X0012325Y0097315
X0011775
X001275Y0094925
X0013025Y0093575
X0013825
X0014625Y0093575
X0015425
X001545Y009409
X0016225Y0093575
X0017025
X0017825
X0018625
X001865Y0094825
X001688Y0094795
X00164Y009479
X0016175Y009619
X0015675
X0016125Y0096715
X00167Y00968
X0016675Y00963
X00167Y009784
X00168Y0098675
X001815Y0100025
X001865
X001885Y0097975
Y0096875
X00113Y009399
X000925Y009424
X0009275Y009369
X0008775Y009469
X0008775Y009619
X0008485Y0097475
X0008875Y009874
X0008235Y0099775
X0008975Y0100715
X00072Y0101415
X00062Y0101115
X00061Y010016
X0006625Y0097835
X00061Y009706
X000545Y009709
X0005Y009779
X000595Y0095165
X0006625Y0112285
X0007375Y011211
X00073401Y011157
X0008Y011361
X000855
X00091179Y0114385
Y01148921
X0009875Y011436
X0011675Y011326
X00123Y011346
X0012425Y011576
X0013725
X0014375Y011561
Y011616
X0014325Y011806
X0014625Y0119645
X0013825
X0013025Y0119645
X0012225Y0119645
X0011425Y0119645
X0011825Y0120995
X0012625Y0120995
X0013425
X0014225Y0120995
X0015025Y0120995
X0015825
X0016625Y0120995
X0017425Y0120995
X0018225
X0018875Y012162
X001885Y0123195
X001885Y0123995
X001885Y0124795
X0018125Y012486
X001815Y012426
X0018275Y012356
X0017225Y0123695
Y0124795
Y0125895
Y0126995
X0016125
X0015025
Y0125895
X0016125
Y0124795
X0015025
Y0123695
X0016125
Y0122595
X0015025
X0013925
Y0123695
Y0124795
Y0125895
Y0126995
X0012825
Y0125895
Y0124795
Y0123695
Y0122595
X0011175Y0123195
Y0124395
Y0125595
X001164Y0125195
X0011175Y0126795
X0011275Y0127495
Y0128095
X001095Y0128885
X00113Y013036
X0013025Y0129945
X0013825
X0014625Y0129945
X0015425
X001545Y013046
X0016225Y0129945
X0017025
X0017825
X0018625
X001865Y0131195
X001688Y0131165
X00164Y013116
X0016175Y013256
X0015675
X0016125Y0133085
X0016675Y013267
X0016625Y0128645
X00171Y012836
X0015825Y0128645
X0015025Y0128645
X0014225Y0128645
X0013425
X0012625
X001275Y0131295
X000925Y013061
X0009275Y013006
X0008775Y013106
X0008775Y013256
X000595Y0131535
X0006225Y012881
Y0128185
X0006225Y0127405
Y012678
X0003775Y012756
X0003775Y012806
X0003275Y012806
X0003275Y012756
X0003775Y012506
X0003775Y012456
X000225Y012481
X000325Y0122035
X000325Y0121535
X000375Y0121535
X000375Y0122035
X000525Y012011
X0005775Y012011
X0005775Y0119585
X000525Y0119585
X0005675Y011691
X00061Y0116235
X0006725Y0116485
X0007275Y011651
X0007875Y011651
X0006625Y0115235
X00066614Y0114585
X00061Y011461
X0006625Y0113835
X00061Y011306
X001435Y0113835
X001615Y0113285
X001815Y011326
X001825Y0115635
X0017535
X0016715
X0016975Y011701
X0016675Y0117385
X00173Y0117385
X001825Y0117385
X00189
X0018575Y011701
X0018625Y0119645
X0017825Y0119645
X0017025Y0119645
X0016225
X0015425
X0017225Y0122595
X001885Y0125595
X001885Y0126395
X001885Y0127195
Y0127995
X00075Y0128785
X0007275Y012441
X000685Y0124085
Y0123505
X0007275Y012318
X0008775Y0120985
X0009875Y0121195
X00112Y0117785
X00111Y011731
X0012025Y0117935
X0012975Y0117335
Y0116885
X00150901Y0111545
X00158651Y011112
X00166401Y0111545
X00167Y013317
X00167Y013421
X00168Y0135045
X001815Y0136395
X001865
X0018635Y0138495
X00178601Y013802
X00170851Y013847
X0015425Y0137685
X0014175Y01356746
X0012475Y013566
Y013511
X001265Y013641
X0012325Y0133685
X0011775
X0008485Y0133845
X0008875Y013511
X0008235Y0136145
X0008975Y0137085
X00072Y0137785
X00062Y0137485
X00061Y013653
X0006625Y0134205
X00061Y013343
X000545Y013346
X0005Y013416
X001885Y0134345
Y0133245
X001995
Y0134345
X002015Y0136395
X002065
X002115Y0136535
X0021625Y0136535
X002315Y0136435
X0023285Y013847
X002476Y0138545
X0025275Y013637
X002515Y013421
X0024675Y0134385
X0024225Y013416
X00252Y0133585
X0028Y013316
Y013466
X0029975Y0134585
X00306Y0134435
X0032Y0134535
X0032475Y0135235
X0032175Y013586
X00319944Y01371514
X003181Y013802
X0031135Y0138545
X0032585
X003336Y013802
X0034135Y0138545
X0035075Y013911
X003595Y0137185
X003595Y0136635
X003575Y0133985
X003625Y0133985
X0037225Y0133485
X0037975Y013401
X0039025Y0134985
X00404Y013486
X0040375Y0133735
X004055Y0136635
X00411Y0136735
X0043435Y0138545
X004421Y013802
X0044985Y0138545
X004576Y013802
X0046535Y0138545
X004731Y013802
X0048085Y0138545
X004886Y013802
X0049635Y0138545
X005041Y013802
X005039Y013678
X005244
X005196Y013802
X00525Y0138535
X0051185Y0138545
X0054075Y0138985
X0057125Y013426
X005689Y0133505
X00586Y0134485
X003465Y013491
X003195Y013326
X002905Y0137135
X0028365Y0137045
X0022Y0135045
Y0134545
X0022Y0134045
X001965Y0136395
X001941Y013802
X0020185Y013847
X00207Y013811
X0058935Y0138545
X005971Y013802
X0060485Y0138545
X00619152
X00626303Y013803
X006385Y013861
X006545Y013911
X00665053Y013853
X00672803Y0138005
X00680553Y013853
X006855Y0137285
X006865Y0135985
X00671
X006555
X0064925Y013559
X0064225Y0134985
X0064225Y013451
X0064925Y013404
X0063825Y0136385
X0063275
X00599Y0136085
X0060675Y0134485
T02
X00081393Y0000795
X00106821
X0013225
X00157679
X00183107
X00465536Y0000795
X00490964
Y0037165
X00465536
X00233536Y0030575
X00208107
X00182679
X0015725
X00131821
X00106393
X00080964
X00081393Y0037165
X00106821
X0013225
X00157679
X00183107
X00182679Y0066945
X0015725
X00131821
X00106393
X00080964
X00081393Y0073535
X00106821
X0013225
X00157679
X00183107
X00208107Y0066945
X00233536
X00465536Y0073535
X00490964
Y0109905
X00465536
X00233536Y0103315
X00208107
X00182679
X0015725
X00131821
X00106393
X00080964
X00081393Y0109905
X00106821
X0013225
X00157679
X00183107
X00182679Y0139685
X0015725
X00131821
X00106393
X00080964
X00208107
X00233536
T05
X0002625Y0
X00037
X00653Y0
X0066375
Y003137
X00653
Y003637
X0066375
X00037Y003637
X0002625
X0002625Y003137
X00037
Y006774
X0002625
X0002625Y007274
X00037
X00653Y007274
X0066375
Y006774
X00653
Y010411
X0066375
Y010911
X00653
X00037Y010911
X0002625
X0002625Y010411
X00037
Y014048
X0002625
X00653Y014048
X0066375
T06
X000245Y0013485
Y0017985
Y0049855
Y0054355
Y0086225
Y0090725
Y0122595
Y0127095
T07
X00265Y-00002
X00565
Y003157
Y003617
X00265
Y003157
Y006794
Y007254
X00565
Y006794
Y010431
Y010891
X00265
Y010431
Y014068
X00565
M30
