M48
;Layer_Color=9474304
;FILE_FORMAT=4:4
METRIC,LZ
;TYPE=PLATED
T3F00S00C1.0000
T4F00S00C3.2000
;TYPE=NON_PLATED
%
G90
G05
T03
G00X00032Y0009885
M15
G01X00017
M16
G00X00032Y0021485
M15
G01X00017
M16
G00X00032Y0046255
M15
G01X00017
M16
G00X00032Y0057855
M15
G01X00017
M16
G00X00032Y0082625
M15
G01X00017
M16
G00X00032Y0094225
M15
G01X00017
M16
G00X00032Y0118995
M15
G01X00017
M16
G00X00032Y0130595
M15
G01X00017
M16
T04
G00X00025Y000423
M15
G01Y000313
M16
G00X00025Y002823
M15
G01Y002713
M16
G00X00025Y00406
M15
G01Y00395
M16
G00X00025Y00646
M15
G01Y00635
M16
G00X00025Y007697
M15
G01Y007587
M16
G00X00025Y010097
M15
G01Y009987
M16
G00X00025Y011334
M15
G01Y011224
M16
G00X00025Y013734
M15
G01Y013624
M16
M17
M30
