M48
;Layer_Color=9474304
;FILE_FORMAT=4:4
METRIC,LZ
;TYPE=PLATED
T1F00S00C0.2000
T2F00S00C1.0000
T4F00S00C2.0000
;TYPE=NON_PLATED
T5F00S00C0.8000
T6F00S00C1.1000
T7F00S00C3.0000
%
T01
X0006625Y0003175
X00061Y000395
X0006625Y0004725
X00061Y00055
X0006625Y0006125
X0006725Y0007375
X0007275Y00074
X0007875Y00074
X00061Y0007125
X0005675Y00078
X0005775Y0010475
X0005775Y0011
X000525Y0011
X000525Y0010475
X000375Y0012425
X000375Y0012925
X000325Y0012925
X000325Y0012425
X0008775Y0011875
X0009875Y0012085
X0011825Y0011885
X0012625Y0011885
X0013425
X0014225Y0011885
X0015025Y0011885
X0015825
X0016625Y0011885
X0017425Y0011885
X0018225
X0018875Y0012485
X0018275Y001405
X0017225Y0013485
X0016125
X0015025
X0013925Y0013485
X0012825Y0013485
X0013025Y0010535
X0013825Y0010535
X0014625
X0015425
X0016225
X0017025
X0017825Y0010535
X0018625Y0010535
X00169391Y0008766
X00169391Y00076141
X00145881Y00081901
X0014375Y00068
Y000625
X00137Y0006925
X0012425Y000675
X0012975Y0007675
Y00082
X0012025Y0008825
X00112Y0008675
X00111Y00082
X0011425Y0010535
X0012225Y0010535
X00123Y000435
X0011675Y000415
X0009875Y000525
X00091179Y0005275
Y00057821
X000855Y00045
X0008
X00073401Y00024599
X00150901
X00158651Y000201
X00166401Y00024599
X0016225Y00030801
X00145881Y00037901
X001475Y000435
X00145881Y00048901
X00194Y0004975
X00196782Y00045051
X00194151Y00040401
X00218252Y0004
X0023899Y00038
X00240641Y000435
X0023899Y00049
X00233Y0006675
X002165Y000645
X002115Y0006625
X0020375Y000805
X00193901Y00081901
Y00070901
X0022525Y00088
X0023
X00235Y0008875
X0024Y000885
X0023975Y0010175
X002475Y00104
X0024675Y00097
X002515Y00100193
X00266Y001005
X002765Y00099
X00276Y00104193
X002885Y0010485
X002885Y0011285
Y0012085
Y0012885
X00280501
Y0012085
X00264501
X002565
Y0012885
X00264501
X002725Y0013685
X00280501
X002885
X002965
X00304501
Y0012885
X002965
Y0012085
X00304501
Y0011285
X002965
X003125
Y0012085
Y0012885
Y0013685
X00346Y001335
X0035275Y00135027
X00358Y00135027
X0035575Y00122027
X00350697Y00122027
X00361Y00122027
X00369Y0012225
X0036475Y00112777
X00361Y00101777
X0035375Y00094277
X00376
X003755Y00085
X0038675Y00089027
Y00078027
X00374475Y00068346
X00365Y0006875
X00365409Y0005425
X0035785Y0001935
X003501Y000246
X0034235Y0001935
X003346Y000246
X0032685Y0001935
X003255Y0003
X00320125
X0031475
X003191Y000246
X0031135Y0001935
X0028701Y0003875
X00285391Y00043651
X0028701Y0004875
X00271109Y00054901
X00266859Y00032901
X00257859
X002446Y000211
X00236Y0001225
X00256359Y00072651
X002625Y0007624
X002625Y0008825
X00281Y0009575
X0028675Y00097
X0028701Y00082
Y00071
X00301Y000725
X0030125Y00067
X00301Y0007875
X003155Y0007675
X00321
X0031825Y0008075
X003175Y0009225
X00264501Y0011285
X002485Y0012085
X00240501
Y0012885
X002325
X002325Y0013685
X00224501Y0013685
X002165
Y0012885
Y0012085
Y0011285
X00224501Y0012085
Y0012885
X0020175Y0012885
X0020175Y0012085
Y0013685
X00240501Y0013685
X002405Y0011285
X00391Y00130527
X0040398Y0013148
X0040731Y0012815
Y0013481
X0041064Y0013148
Y0013814
X0041064Y0012482
Y0011816
X004173Y0011816
X0042063Y0011483
Y0010817
X004173Y001115
X0041397Y00108169
X0042729Y00108169
X0043062Y001115
X0043062Y0011816
X0042729Y0011483
X0042396Y001115
X004265Y0012875
X0042Y00129
X0042625Y0013625
X00432Y001365
X0043191Y0013151
X00432Y0012625
X0044191Y0013151
X00442Y001365
X0045191Y0013141
X0046191Y0013151
X0047191
Y0013651
X0049056Y0013148
X0049389Y0013481
X0049722Y0013814
X0050388Y0013148
X0050055Y0012815
X0050055Y0012149
X0049389
X0049056Y0012482
X0049389Y0011483
X0049056Y001115
X0048723Y00108169
X004839Y0011816
X0045725Y00111527
X0045393Y0011483
X004506Y0011816
X0044394Y0011816
X0044727Y0011483
X0044061Y0011483
X0044061Y0010817
X0043575Y00096027
X0045393Y0010151
X0045726Y0010484
X004663Y000833
X00448168Y00072917
Y00066417
Y00043917
Y00037417
X004431Y000246
X0043535Y0001935
X004276Y000246
X0045085Y0001935
X004586Y000246
X0046635Y0001935
X004741Y000246
X0048185Y0001935
X004896Y000246
X0049735Y0001935
X005051Y000246
X0051285Y0001935
X005206Y000246
X0052675Y00075
X00525551Y00106573
X0054Y00102
Y000955
X00569853Y000955
Y00102
X0058675Y000955
X00578252Y0007035
X00570002Y0007635
X00561752Y0007035
X0052575Y00136527
X0040398Y0012482
X004065Y00100277
X0042071Y00085964
X0042056Y00080964
X0059875Y0008025
X006025Y000955
X0059725Y001095
X00612Y00129
X006175
X00623
X0064925Y001198
X006555Y0012375
X00671
X006865
X0064925Y001043
Y0006445
X0064225Y0006025
X0063675
X0063Y00077
X00613Y0006975
Y0005878
X006136Y000246
X0062135Y0001935
X006291Y000246
X0063685Y0001935
X006446Y000246
X0065235Y0001935
X006601Y000246
X0066785Y0001935
X006756Y000246
X006845Y00035
X006865Y00045
X00671
X006555
X0064925Y0004895
X0060585Y0001935
X005981Y000246
X0059035Y0001935
X0063925Y00148625
X0065Y0014825
Y0016525
X00652Y00174
X006555Y0019
X0064925Y0019395
Y0020945
X00621Y00219
X0060525Y00228
X0060675Y0025375
X00599Y0026975
X005971Y002891
X0060485Y0029435
X00619152
X00626303Y00289199
X006385Y00295
X006545Y003
X00665053Y00294199
X00672803Y00288949
X00680553Y00294199
X006855Y0028175
X006865Y0026875
X00671
X006555
X0064925Y002648
X0064225Y0025875
X0064225Y00254
X0064925Y002493
X0063825Y0027275
X0063275
X0058935Y0029435
X0059035Y0038305
X005981Y003883
X0060585Y0038305
X006136Y003883
X0062135Y0038305
X006291Y003883
X0063685Y0038305
X006446Y003883
X0065235Y0038305
X006601Y003883
X0066785Y0038305
X006756Y003883
X006845Y003987
X006865Y004087
X00671
X006555
X0064925Y0041265
Y0042815
X0064225Y0042395
X0063675
X0063Y004407
X00613Y0043345
Y0042248
X0059875Y0044395
X006025Y004592
X0059725Y004732
X00612Y004927
X006175
X00623
X0064925Y004835
X006555Y0048745
X00671
X006865
X0067975Y0052055
X0065Y0052895
X0063825Y005307
X0063925Y00512325
X0065Y0051195
X0064925Y00468
X00671Y0019
X006865
X0067975Y0015685
X0063825Y00167
X005398Y0017625
Y0019275
X0053155Y001845
X0051125Y001895
X0050388Y0018476
X0050055Y0018143
X0049722Y001781
X0049056
Y0018476
X0049389Y0018809
X0047826Y00190214
Y00185214
X0047825Y0017875
Y0017375
Y0016875
Y0016375
X0048075Y0015875
X004835Y001535
Y0014775
X0047191Y0014651
Y0014151
Y0015151
X0046191
Y0014651
Y0014151
X0045191Y0014141
Y0015141
Y0016141
Y0016641
Y0017141
Y0017641
Y0018141
X0044191Y0018151
Y0017651
Y0017151
Y0016651
Y0016151
X0043191
Y0016651
Y0017151
X0043691Y0017651
Y0018151
X0043191Y0018151
X0042729Y0019475
X0042396Y0020474
X0042729Y0020807
X0043062Y0020474
X0043395Y0020807
X0043395Y0020141
X0044061
X0043728Y0019808
X0044394Y0020474
X0044727Y0020141
X004506Y0020474
X0045393Y0020807
X0044976Y00196714
X0046725Y0020141
X0047058Y0019808
X00471Y0021275
X0045826Y00231264
X0042525Y00223
X0042396Y002114
X003985Y00209527
X0038675Y0021825
X0038325Y00227764
X0039251
X003875Y0023725
X0037975Y00249
X0037225Y0024375
X003625Y0024875
X003575Y0024875
X003465Y00258
X0034625Y0023725
X003195Y002415
X0032Y0025425
X0032475Y0026125
X0032175Y002675
X00319944Y00280413
X003181Y002891
X0031135Y0029435
X0032585
X003336Y002891
X0034135Y0029435
X0035075Y003
X003595Y0027525
X004055
X0039025Y0025875
X0043435Y0029435
X004421Y002891
X0044985Y0029435
X004576Y002891
X0046535Y0029435
X004731Y002891
X0048085Y0029435
X004886Y002891
X0049635Y0029435
X005041Y002891
X0051185Y0029435
X005196Y002891
X00525Y0029425
X0054075Y0029875
X0051515Y0027695
X0049865
X005739Y002457
X0058215Y0025195
X005138Y0016725
X00506Y0014975
X0050721Y0014147
X0049722Y001448
X0052254Y0014309
X00522353Y0014975
X0047191Y0016151
Y0016651
Y0017151
Y0017651
Y0018151
X0046191
Y0017651
Y0017151
Y0016651
Y0016151
X0044191Y0015151
Y0014651
Y0014151
X0043191
Y0014651
Y0015151
X0041397Y0015479
X0041064Y0015812
X0040731Y0016145
X0040398Y0015812
X0040731Y0015479
Y0014813
X0041064Y001448
X0041397Y0014813
X0041401Y00141464
X0040731Y0014147
X0040398Y001448
Y0016478
Y0017144
X0040731Y0017477
X0041064Y0017144
X0041397Y0017477
X0041064Y001781
X0040731Y0018143
Y0018809
X0041064Y0018476
X0041397Y0018143
X0040398Y0018476
X0041064Y0019142
X0041397Y0016811
X0040065Y0016145
X0038951Y00152714
X00380148Y00162527
X00365Y00155277
X003565Y00149777
X00355Y00167527
X003605Y00167527
X00355Y0017535
X0035175Y0017935
X0035725Y0018435
X0037775Y0018875
X0032875Y002045
X0032475Y00208
X003205Y0021075
X003205Y0020085
X003125
X00304501Y0019285
Y0018485
X002965
X002965Y0019285
X002885Y0019285
Y0018485
X00280501
X002725
Y0019285
X00280501
Y0020085
X002725
Y0020885
X00280501
X00284Y0021275
X0028425Y0021975
X0028825Y002095
X002885Y0020085
X002965
Y0020885
X00304501
X0031975Y002235
X00306Y0025325
X0029975Y0025475
X0028Y002555
Y002405
X00252Y002395
Y0024475
X002515Y00251
X0024675Y0025275
X0024225Y002505
X0022Y0024935
X0022Y0025435
Y0025935
X0021625Y0027425
X002115Y0027425
X002065Y0027285
X002015
X001965
X001941Y002891
X0020185Y002936
X00207Y00289999
X0023285Y002936
X002476Y0029435
X0025275Y002726
X002315Y0027325
X0023525Y002335
X0021925Y0023435
X0022Y0023935
X001995Y0024135
Y0025235
X002015Y0022085
X0019425Y002205
X00206Y002015
X002165Y0020085
Y0019285
X00224501
Y0018485
Y0017685
X002325Y0017685
X002325Y0016885
X00240501
X002485
X002565
X00264501
X002725
X00280501
Y0017685
X002725
X00264501
X002565
Y0018485
X00264501
Y0019285
X002565
Y0020085
X00264501
Y0020885
X002565
X002485Y0020885
X002485Y0020085
Y0019285
Y0018485
Y0017685
X00240501
Y0018485
X002325
Y0019285
X00240501
Y0020085
X002325
Y0020885
X00240501
X00224501
X002167Y0020905
X00224501Y0020085
X0020175Y0019285
X0020175Y0018485
X0020175Y0017685
Y0016885
X0020175Y0016085
X0020175Y0015285
Y0014485
X002165Y0014485
Y0015285
Y0016085
Y0016885
X00224501
Y0016085
Y0015285
Y0014485
X002325
X00240501
X002485
X002565
X00264501
X002725
X00280501
Y0015285
X002725
Y0016085
X00280501
X002885
Y0015285
X002965
Y0016085
X00304501
Y0015285
Y0014485
X002965
X002885
X003125
Y0015285
Y0016085
Y0016885
X00304501
Y0017685
X002965
X002885
Y0016885
X002965Y0016885
X003125Y0017685
Y0018485
X00329Y0015975
X00334Y0016
X0033625Y0014475
X0032775
X00264501Y0015285
Y0016085
X002565
Y0015285
X002485
Y0016085
X00240501
X002325
Y0015285
X00240501
X002165Y0017685
X0028365Y0027935
X002905Y0028025
X0031135Y0038305
X003191Y003883
X00320125Y003937
X003255
X0031475
X0032685Y0038305
X003346Y003883
X0034235Y0038305
X003501Y003883
X0035785Y0038305
X00365409Y0041795
X00365Y0043245
X00374475Y00432046
X003755Y004487
X00376Y00457977
X0038675Y00452727
Y00441727
X0042056Y00444664
X0042071Y00449664
X0042063Y0047187
X004173Y004752
X0041397Y0047187
X0041064Y0048186
Y0048852
X0040398
X0040731Y0049185
X0040398Y0049518
X0040731Y0049851
X0041064Y0049518
Y0050184
X0040731Y0050517
X0040398Y005085
X0040731Y0051183
X0041064Y005085
X0041397Y0051183
X0041397Y0051849
X0041064Y0052182
X0040731Y0052515
X0040398Y0052182
X0040731Y0051849
X0040398Y0052848
Y0053514
X0041064Y0053514
X0041397Y0053181
X0043191Y0053021
Y0052521
X0044191
Y0053021
Y0053521
X0043191
Y0051521
Y0051021
Y0050521
X00432Y005002
X0043191Y0049521
X00432Y0048995
X004265Y0049245
X0042Y004927
X0042625Y0049995
X00442Y005002
X0044191Y0049521
Y0050521
Y0051021
Y0051521
X0045191Y0051511
Y0050511
Y0049511
X0046191Y0049521
X0047191
Y0050021
Y0050521
Y0051021
Y0051521
X0046191
Y0051021
Y0050521
Y0052521
Y0053021
Y0053521
X0047191
Y0053021
Y0052521
X0047825Y0052745
Y0053245
Y0053745
X0048075Y0052245
X004835Y005172
Y0051145
X0049722Y005085
Y0050184
X0049389Y0049851
X0049056Y0049518
X0049056Y0048852
X0049389Y0048519
X0050055
X0050055Y0049185
X0050388Y0049518
X0050721Y0050517
X00506Y0051345
X00522353Y0051345
X0052254Y0050679
X0052575Y00500227
X00525551Y00470273
X0054Y004657
Y004592
X00569853Y004592
Y004657
X0058675Y004592
X00578252Y0043405
X00570002Y0044005
X00561752Y0043405
X0052675Y004387
X005206Y003883
X0051285Y0038305
X005051Y003883
X0049735Y0038305
X004896Y003883
X0048185Y0038305
X004741Y003883
X0046635Y0038305
X004586Y003883
X0045085Y0038305
X004431Y003883
X0043535Y0038305
X004276Y003883
X00448168Y00401118
Y00407618
Y00430117
Y00436617
X004663Y00447
X0045393Y0046521
X0045726Y0046854
X0045725Y00475227
X0045393Y0047853
X004506Y0048186
X0044394Y0048186
X0044727Y0047853
X0044061Y0047853
X0044061Y0047187
X0043062Y004752
X0043062Y0048186
X0042729Y0047853
X0042396Y004752
X0042063Y0047853
X004173Y0048186
X0042729Y0047187
X0043575Y00459727
X004065Y00463977
X00391Y00494227
X0038951Y00516414
X00380148Y00526227
X0040065Y0052515
X0041401Y00505164
X0045191Y0052511
Y0053011
Y0053511
X005138Y0053095
X0049389Y0047853
X0049056Y004752
X0048723Y0047187
X004839Y0048186
X00369Y0048595
X00361Y00485727
X0035575Y00485727
X00350697Y00485727
X0035275Y00498727
X00358Y00498727
X00346Y004972
X0033625Y0050845
X0032775
X003125Y0050855
Y0050055
X00304501
X002965
Y0050855
X00304501
Y0051655
X002965
Y0052455
X00304501
Y0053255
X003125
Y0052455
Y0051655
X00329Y0052345
X00334Y005237
X00355Y00531227
X003605Y00531227
X00365Y00518977
X003565Y00513477
X0036475Y00476477
X00361Y00465477
X0035375Y00457977
X003175Y0045595
X0031825Y0044445
X00321Y0044045
X003155
X00301Y0044245
Y004362
X0030125Y004307
X0028701Y004347
Y004457
X0028675Y004607
X00281Y0045945
X002765Y004627
X00276Y00467893
X002885Y0046855
X002885Y0047655
Y0048455
Y0049255
X00280501
Y0048455
X00264501
X002565
Y0049255
X00264501
Y0050855
X002565
Y0051655
X00264501
Y0052455
X002565
Y0053255
X00264501
X002725
X00280501
Y0052455
X002725
Y0051655
X00280501
Y0050855
X002725
Y0050055
X00280501
X002885
Y0050855
Y0051655
Y0052455
Y0053255
X002965Y0053255
X002965Y0049255
X00304501
Y0048455
X002965
Y0047655
X00304501
X003125
Y0048455
Y0049255
X00264501Y0047655
X00266Y004642
X002515Y00463893
X002475Y004677
X0024675Y004607
X0023975Y0046545
X002405Y0047655
X00240501Y0048455
X002485
X00240501Y0049255
X002325
X002325Y0050055
X00224501Y0050055
Y0050855
X002325
X00240501
Y0050055
X002485Y0050855
Y0051655
Y0052455
Y0053255
X00240501
X002325
Y0052455
Y0051655
X00240501
Y0052455
X00224501
Y0051655
X002165
Y0052455
Y0053255
X00224501
X0020175Y0053255
X0020175Y0052455
X0020175Y0051655
Y0050855
X0020175Y0050055
X0020175Y0049255
X0020175Y0048455
X002165Y0048455
Y0047655
Y0049255
Y0050055
Y0050855
X00224501Y0049255
Y0048455
X0022525Y004517
X0023
X00235Y0045245
X0024Y004522
X002625Y0045195
X002625Y0043994
X00256359Y00436351
X00233Y0043045
X002165Y004282
X002115Y0042995
X0020375Y004442
X00193901Y00445601
Y00434601
X00194Y0041345
X00196782Y00408751
X00194151Y00404101
X00218252Y004037
X0023899Y004017
X00240641Y004072
X0023899Y004127
X002446Y003848
X00236Y0037595
X00257859Y00396601
X00266859
X0028701Y0040245
X00285391Y00407351
X0028701Y0041245
X00271109Y00418601
X00169391Y00439841
X00169391Y0045136
X0017025Y0046905
X0016225
X0015425
X0014625
X0013825
X0013025Y0046905
X0012225Y0046905
X0011425Y0046905
X0011825Y0048255
X0012625Y0048255
X0013425
X0014225Y0048255
X0015025Y0048255
X0015825
X0016625Y0048255
X0017425Y0048255
X0018225
X0018875Y0048855
X001885Y0050455
X0018275Y005042
X001815Y005152
X0018125Y005212
X001885Y0052055
Y0052855
X001885Y0053655
X0017225Y0053155
Y0052055
X0016125
X0015025
X0013925
X0013925Y0053155
X0012825
Y0052055
X0012825Y0050955
X0013925
Y0049855
X0012825Y0049855
X0015025
X0016125
Y0050955
X0015025Y0050955
Y0053155
X0016125
X0017225Y0050955
Y0049855
X001885Y0051255
X0018625Y0046905
X0017825Y0046905
X00145881Y00445601
X0014375Y004317
Y004262
X00137Y0043295
X0012425Y004312
X0012975Y0044045
Y004457
X0012025Y0045195
X00112Y0045045
X00111Y004457
X0007875Y004377
X0007275Y004377
X0006725Y0043745
X00061Y0043495
X0005675Y004417
X0006625Y0042495
X00061Y004187
X0006625Y0041095
X00061Y004032
X0006625Y0039545
X00073401Y003883
X0008Y004087
X000855
X00091179Y0041645
Y00421521
X0009875Y004162
X0011675Y004052
X00123Y004072
X001475Y004072
X00145881Y00412601
Y00401601
X00150901Y003883
X00158651Y003838
X00166401Y003883
X0016225Y00394501
X00170851Y002936
X00178601Y002891
X0018635Y0029385
X001865Y0027285
X001815
X00168Y0025935
X00167Y00251
X00167Y002406
X0016675Y002356
X0016125Y00239
X001575Y002345
X00164Y002205
X001688Y0022055
X0017025Y0020835
X0016225
X0015425
X001545Y002135
X0014625Y0020835
X0013825Y0020835
X0013025
X001275Y0022185
X00113Y002125
X001095Y0019775
X0011275Y0018985
Y0018385
X0011175Y0017685
Y0016485
X001164Y0016085
X0011175Y0015285
Y0014085
X0012825Y0014585
X0013925
X0013925Y0015685
X0015025
Y0014585
X0016125Y0014585
Y0015685
Y0016785
X0015025
X0013925
X0012825
Y0015685
Y0017885
X0013925
X0015025
X0016125
X0017225
Y0016785
Y0015685
X0018125Y001575
X001815Y001515
X001885Y0014885
X001885Y0015685
Y0016485
X001885Y0017285
X001885Y0018085
Y0018885
X00171Y001925
X0016625Y0019535
X0015825
X0015025Y0019535
X0014225Y0019535
X0013425
X0012625
X0009275Y002095
X0008775Y002195
X0008775Y002345
X0008485Y0024735
X0008875Y0026
X0008235Y0027035
X0008975Y0027975
X00072Y0028675
X00062Y0028375
X00061Y002742
X0004875Y0026025
X0003875Y0024925
X000545Y002435
X00061Y002432
X0006625Y0025095
X0011775Y0024575
X0012325
X0012475Y0026
Y002655
X001265Y00273
X0014175Y00265646
X0015425Y0028575
X001885Y0025235
Y0024135
X001865Y0022085
X0018625Y0020835
X0017825
X0017225Y0014585
X001885Y0014085
X0007275Y001407
X000685Y0014395
Y0014975
X0007275Y00153
X0006225Y001767
Y0018295
X0006225Y0019075
Y00197
X00075Y0019675
X0003775Y001895
X0003775Y001845
X000335Y00187
X0003775Y001595
X0003775Y001545
X000225Y00157
X000325Y0048795
X000325Y0049295
X000375Y0049295
X000375Y0048795
X000525Y004737
X0005775Y004737
X0005775Y0046845
X000525Y0046845
X0008775Y0048245
X0009875Y0048455
X0011175Y0050455
Y0051655
Y0052855
X001164Y0052455
X0007275Y005167
X000685Y0051345
Y0050765
X0007275Y005044
X0003775Y005182
X0003775Y005232
X000225Y005207
X000335Y005507
X0003775Y005532
X0003775Y005482
X0006225Y0054665
Y005404
X0006225Y0055445
Y005607
X00075Y0056045
X0009275Y005732
X0008775Y005832
X0008775Y005982
X0008485Y0061105
X0008875Y006237
X0008235Y0063405
X0008975Y0064345
X00072Y0065045
X00062Y0064745
X00061Y006379
X0004875Y0062395
X0003875Y0061295
X000545Y006072
X00061Y006069
X0006625Y0061465
X0011775Y0060945
X0012325
X0012475Y006237
Y006292
X001265Y006367
X0014175Y00629346
X00168Y0062305
X00167Y006147
X00167Y006043
X0016675Y005993
X0016125Y006027
X001575Y005982
X00164Y005842
X001688Y0058425
X0017025Y0057205
X0016225
X0015425
X001545Y005772
X0014625Y0057205
X0013825Y0057205
X0013025
X001275Y0058555
X00113Y005762
X001095Y0056145
X0011275Y0055355
Y0054755
X0011175Y0054055
X0012825Y0054255
X0013925
X0015025
X0016125
X0017225
X00171Y005562
X0016625Y0055905
X0015825
X0015025Y0055905
X0014225Y0055905
X0013425
X0012625
X0017825Y0057205
X0018625
X001865Y0058455
X001885Y0060505
Y0061605
X001865Y0063655
X001815
X00178601Y006528
X00170851Y006573
X0018635Y0065755
X0015425Y0064945
X00158651Y007475
X00150901Y00752
X00166401
X0016225Y00758201
X00145881Y00765301
X001475Y007709
X00145881Y00776301
X0014375Y007899
Y007954
X00137Y0079665
X0012425Y007949
X0012975Y0080415
Y008094
X0012025Y0081565
X00112Y0081415
X00111Y008094
X0011425Y0083275
X0012225Y0083275
X0013025Y0083275
X0013825Y0083275
X0014625
X0015425
X0016225
X0017025
X0017825Y0083275
X0018625Y0083275
X0018225Y0084625
X0017425
X0016625Y0084625
X0015825Y0084625
X0015025
X0014225Y0084625
X0013425Y0084625
X0012625
X0011825Y0084625
X0009875Y0084825
X0008775Y0084615
X0007275Y008681
X000685Y0087135
Y0087715
X0007275Y008804
X0006225Y009041
Y0091035
X0006225Y0091815
Y009244
X00075Y0092415
X001095Y0092515
X0011275Y0091725
Y0091125
X0011175Y0090425
Y0089225
X001164Y0088825
X0011175Y0088025
Y0086825
X0012825Y0087325
X0013925
Y0086225
X0012825Y0086225
Y0088425
Y0089525
Y0090625
X0013925
Y0089525
X0013925Y0088425
X0015025
Y0087325
X0016125Y0087325
Y0086225
X0015025
X0017225
Y0087325
Y0088425
X0018125Y008849
X001815Y008789
X001885Y0087625
X001885Y0088425
Y0089225
X001885Y0090025
X001885Y0090825
Y0091625
X00171Y009199
X0016625Y0092275
X0015825
X0015025Y0092275
X0014225Y0092275
X0013425
X0012625
X0015025Y0090625
X0016125
Y0089525
X0015025
X0016125Y0088425
X0017225Y0089525
Y0090625
X0018275Y008679
X001885Y0086825
X0018875Y0085225
X00169391Y00815061
X00169391Y00803541
X00145881Y00809301
X00123Y007709
X0011675Y007689
X0009875Y007799
X00091179Y0078015
Y00785221
X000855Y007724
X0008
X0006625Y0077465
X00061Y007824
X0006625Y0078865
X0006725Y0080115
X0007275Y008014
X0007875Y008014
X00061Y0079865
X0005675Y008054
X0005775Y0083215
X0005775Y008374
X000525Y008374
X000525Y0083215
X000375Y0085165
X000375Y0085665
X000325Y0085665
X000325Y0085165
X0003775Y008819
X0003775Y008869
X000225Y008844
X000335Y009144
X0003775Y009169
X0003775Y009119
X00061Y007669
X0006625Y0075915
X00073401Y00752
X001885Y0055255
Y0054455
X0020175Y0054855
X0020175Y0055655
X00206Y005652
X002165Y0056455
Y0055655
X00224501
Y0054855
Y0054055
X002325Y0054055
X00240501Y0054055
X002485
X002565
X00264501
X002725
X00280501
Y0054855
X002725
Y0055655
X00280501
Y0056455
X002725
Y0057255
X00280501
X00284Y0057645
X0028425Y0058345
X0028825Y005732
X002885Y0056455
Y0055655
Y0054855
Y0054055
X002965
X00304501
Y0054855
X002965
X002965Y0055655
X00304501Y0055655
X003125Y0056455
X003205
X003205Y0057445
X0032475Y005717
X0032875Y005682
X0031975Y005872
X003195Y006052
X0032Y0061795
X0032475Y0062495
X0032175Y006312
X00319944Y00644113
X003181Y006528
X0031135Y0065805
X0032585
X003336Y006528
X0034135Y0065805
X0035075Y006637
X003595Y0063895
X003575Y0061245
X003625Y0061245
X0037225Y0060745
X0037975Y006127
X003875Y0060095
X0038325Y00591464
X0039251
X0038675Y0058195
X003985Y00573227
X0042396Y005751
X0042729Y0057177
X0043062Y0056844
X0042396
X0042729Y0055845
X0043728Y0056178
X0044061Y0056511
X0043395
X0043395Y0057177
X0044394Y0056844
X0044727Y0056511
X004506Y0056844
X0045393Y0057177
X0044976Y00560414
X0045191Y0054511
Y0054011
X0044191Y0054021
X0043691
Y0054521
X0044191Y0054521
X0043191
X0041397Y0054513
X0041064Y0054846
X0040731Y0055179
X0040398Y0054846
X0040731Y0054513
X0041064Y005418
X0041397Y0053847
X0040731Y0053847
X0041064Y0055512
X0037775Y0055245
X0035725Y0054805
X0035175Y0054305
X00355Y0053905
X003125Y0054055
Y0054855
X002965Y0056455
Y0057255
X00304501
X00264501
Y0056455
X002565
Y0057255
X002485Y0057255
X002485Y0056455
Y0055655
Y0054855
X002565
X00264501
Y0055655
X002565
X00240501
X002325
Y0054855
X00240501
Y0056455
X002325
Y0057255
X00240501
X00224501
X002167Y0057275
X00224501Y0056455
X002165Y0054055
X0020175Y0054055
X002015Y0058455
X0019425Y005842
X001995Y0060505
Y0061605
X002015Y0063655
X002065
X002115Y0063795
X0021625Y0063795
X002315Y0063695
X0023285Y006573
X002476Y0065805
X0025275Y006363
X002515Y006147
X0024675Y0061645
X0024225Y006142
X00252Y0060845
Y006032
X0023525Y005972
X0021925Y0059805
X0022Y0060305
X0022Y0061305
X0022Y0061805
Y0062305
X001965Y0063655
X001941Y006528
X0020185Y006573
X00207Y00653699
X0028365Y0064305
X002905Y0064395
X0029975Y0061845
X00306Y0061695
X0028Y006192
Y006042
X0034625Y0060095
X003465Y006217
X0039025Y0062245
X004055Y0063895
X0043435Y0065805
X004421Y006528
X0044985Y0065805
X004576Y006528
X0046535Y0065805
X004731Y006528
X0048085Y0065805
X004886Y006528
X0049635Y0065805
X005041Y006528
X0051185Y0065805
X005196Y006528
X00525Y0065795
X0054075Y0066245
X0051515Y0064065
X0049865
X0045826Y00594964
X00471Y0057645
X0046725Y0056511
X0047058Y0056178
X0047826Y00553914
Y00548914
X0047825Y0054245
X0047191Y0054021
Y0054521
X0046191
Y0054021
X0049056Y005418
X0049722
X0050055Y0054513
X0050388Y0054846
X0051125Y005532
X0049389Y0055179
X0049056Y0054846
X0053155Y005482
X005398Y0055645
Y0053995
X005739Y006094
X0058215Y0061565
X0042525Y005867
X004276Y00752
X0043535Y0074675
X004431Y00752
X0045085Y0074675
X004586Y00752
X0046635Y0074675
X004741Y00752
X0048185Y0074675
X004896Y00752
X0049735Y0074675
X005051Y00752
X0051285Y0074675
X005206Y00752
X0052675Y008024
X00525551Y00833973
X0054Y008294
Y008229
X00569853Y008229
Y008294
X0058675Y008229
X00578252Y0079775
X00570002Y0080375
X00561752Y0079775
X0052575Y00863927
X0052254Y0087049
X00522353Y0087715
X00506Y0087715
X0050721Y0086887
X0049722Y0086554
Y008722
X0049389Y0086221
X0049056Y0085888
X0049056Y0085222
X0049389Y0084889
X0050055
X0050055Y0085555
X0050388Y0085888
X0049389Y0084223
X0049056Y008389
X0048723Y0083557
X004839Y0084556
X0047191Y0085891
Y0086391
Y0086891
Y0087391
Y0087891
X0046191
Y0087391
Y0086891
Y0085891
X0045191Y0085881
Y0086881
Y0087881
Y0088881
Y0089381
Y0089881
Y0090381
Y0090881
X0044191Y0090891
Y0090391
Y0089891
Y0089391
Y0088891
X0043191
Y0089391
Y0089891
X0043691Y0090391
Y0090891
X0043191Y0090891
X0042729Y0092215
X0042396Y0093214
X0043062
X0043395Y0092881
X0044061
X0043728Y0092548
X0044394Y0093214
X0044727Y0092881
X004506Y0093214
X0044976Y00924114
X0046725Y0092881
X0047058Y0092548
X0047826Y00917614
Y00912614
X0047825Y0090615
Y0090115
Y0089615
Y0089115
X0048075Y0088615
X004835Y008809
Y0087515
X0047191Y0088891
Y0089391
Y0089891
Y0090391
Y0090891
X0046191
Y0090391
Y0089891
Y0089391
Y0088891
X0044191Y0087891
Y0087391
Y0086891
X00442Y008639
X0044191Y0085891
X0043191
X00432Y008639
X0043191Y0086891
Y0087391
Y0087891
X0042625Y0086365
X004265Y0085615
X0042Y008564
X0041064Y0085888
X0040731Y0086221
Y0085555
X0040398Y0085888
X0040398Y0085222
X0041064
Y0084556
X004173Y0084556
X0042063Y0084223
Y0083557
X004173Y008389
X0041397Y0083557
X0042729Y0083557
X0043062Y008389
X0043062Y0084556
X0042729Y0084223
X0042396Y008389
X0044061Y0084223
X0044061Y0083557
X0044727Y0084223
X0044394Y0084556
X004506Y0084556
X0045393Y0084223
X0045725Y00838927
X0045726Y0083224
X0045393Y0082891
X0043575Y00823427
X0042071Y00813364
X0042056Y00808364
X004065Y00827677
X0038675Y00816427
Y00805427
X003755Y008124
X00376Y00821677
X0035375
X00361Y00829177
X0036475Y00840177
X00361Y00849427
X0035575Y00849427
X00350697Y00849427
X0035275Y00862427
X00358Y00862427
X00346Y008609
X0033625Y0087215
X0032775
X003125Y0087225
Y0086425
X00304501
X002965
Y0087225
X00304501
Y0088025
X002965
Y0088825
X00304501
Y0089625
Y0090425
X002965
X002885
X00280501
X002725
Y0091225
Y0092025
X00280501
Y0091225
X002885
Y0092025
X002965Y0092025
X002965Y0091225
X00304501
Y0092025
X003125Y0092825
X003205
X0032875Y009319
X002965Y0092825
X002885
X00280501
X002725
X00264501
X002565
Y0092025
X00264501
Y0091225
X002565
Y0090425
X00264501
Y0089625
X002565
Y0088825
X00264501
Y0088025
X002565
Y0087225
X00264501
X002725
Y0086425
X00280501
Y0087225
Y0088025
X002725
Y0088825
X00280501
Y0089625
X002725
X002885
X002965Y0089625
X002885Y0088825
Y0088025
Y0087225
Y0086425
Y0085625
X00280501
Y0084825
X002885
Y0084025
X002965
X00304501
Y0084825
X002965
Y0085625
X00304501
X003125
Y0084825
Y0084025
X003175Y0081965
X0031825Y0080815
X00321Y0080415
X003155
X00301Y0080615
Y007999
X0030125Y007944
X0028701Y007984
Y008094
X0028675Y008244
X00281Y0082315
X002765Y008264
X00276Y00831593
X002885Y0083225
X00266Y008279
X00264501Y0084025
Y0084825
X002565
Y0085625
X00264501
X002485Y0084825
X00240501
Y0085625
X002325
X002325Y0086425
X00224501Y0086425
Y0087225
X002325
X00240501
Y0086425
X002485Y0087225
Y0088025
Y0088825
Y0089625
Y0090425
Y0091225
Y0092025
Y0092825
X00240501
X002325
X00224501
X002165
Y0092025
X00224501
Y0091225
Y0090425
X002325Y0090425
X002325Y0089625
X00240501
Y0088825
X002325
Y0088025
X00240501
X00224501
Y0088825
X002165
Y0088025
Y0087225
Y0086425
Y0085625
Y0084825
Y0084025
X00224501Y0084825
Y0085625
X0020175Y0085625
X0020175Y0084825
Y0086425
X0020175Y0087225
Y0088025
X0020175Y0088825
X0020175Y0089625
Y0090425
X0020175Y0091225
X0020175Y0092025
X00206Y009289
X002165Y0090425
Y0089625
X00224501
X00240501Y0090425
Y0091225
X002325
Y0092025
X00240501
X003125Y0091225
Y0090425
Y0089625
Y0088825
Y0088025
X00329Y0088715
X00334Y008874
X00355Y00894927
X003605Y00894927
X00355Y0090275
X0035175Y0090675
X0035725Y0091175
X0037775Y0091615
X00380148Y00889927
X0038951Y00880114
X0040065Y0088885
X0040398Y0089218
Y0089884
X0040731Y0090217
X0041064Y0089884
X0041397Y0090217
X0041064Y009055
X0040731Y0090883
Y0091549
X0041064Y0091216
X0041397Y0090883
X0040398Y0091216
X0041064Y0091882
X0041397Y0089551
X0041064Y0088552
X0040731Y0088885
X0040398Y0088552
X0040731Y0088219
X0041397Y0088219
X0041397Y0087553
X0041064Y008722
X0040731Y0087553
X0040731Y0086887
X0041064Y0086554
X0041401Y00868864
X0040398Y008722
X00391Y00857927
X00369Y0084965
X00365Y00882677
X003565Y00877177
X00365Y0079615
X00374475Y00795746
X00365409Y0078165
X0035785Y0074675
X003501Y00752
X0034235Y0074675
X003346Y00752
X0032685Y0074675
X003255Y007574
X00320125
X0031475
X003191Y00752
X0031135Y0074675
X0028701Y0076615
X00285391Y00771051
X0028701Y0077615
X00271109Y00782301
X00266859Y00760301
X00257859
X0023899Y007654
X00240641Y007709
X0023899Y007764
X00233Y0079415
X002165Y007919
X002115Y0079365
X0020375Y008079
X00193901Y00809301
Y00798301
X00194Y0077715
X00196782Y00772452
X00194151Y00767801
X00218252Y007674
X002446Y007485
X00236Y0073965
X00235Y0081615
X0024Y008159
X0023Y008154
X0022525
X0023975Y0082915
X002475Y008314
X0024675Y008244
X002515Y00827593
X002625Y0081565
X002625Y0080364
X00256359Y00800051
X002405Y0084025
X00432Y0085365
X00448168Y00800317
Y00793817
Y00771318
Y00764818
X004663Y008107
X0049056Y009055
X0049722
X0050055Y0090883
X0050388Y0091216
X0051125Y009169
X0049389Y0091549
X0049056Y0091216
X005138Y0089465
X005398Y0090365
Y0092015
X0053155Y009119
X0063825Y008944
X0065Y0089265
X00652Y009014
X006555Y009174
X0064925Y0092135
X00671Y009174
X006865
X0067975Y0088425
X0065Y0087565
X0063925Y00876025
X00623Y008564
X006175
X00612
X0059725Y008369
X006025Y008229
X0059875Y0080765
X00613Y0079715
Y0078618
X0063675Y0078765
X0064225
X0064925Y0079185
Y0077635
X006555Y007724
X00671
X006865
X006845Y007624
X006756Y00752
X0066785Y0074675
X006601Y00752
X0065235Y0074675
X006446Y00752
X0063685Y0074675
X006291Y00752
X0062135Y0074675
X006136Y00752
X0060585Y0074675
X005981Y00752
X0059035Y0074675
X0058935Y0065805
X005971Y006528
X0060485Y0065805
X00619152
X00626303Y00652899
X006385Y006587
X006545Y006637
X00665053Y00657899
X00672803Y0065265
X00680553Y00657899
X006855Y0064545
X006865Y0063245
X00671
X006555
X0064925Y006285
X0064225Y0062245
X0064225Y006177
X0064925Y00613
X0063825Y0063645
X0063275
X00599Y0063345
X0060675Y0061745
X0060525Y005917
X00621Y005827
X0064925Y0057315
Y0055765
X006555Y005537
X00671
X006865
X00652Y005377
X0063Y008044
X0064925Y008317
Y008472
X006555Y0085115
X00671
X006865
X0064925Y0093685
X00621Y009464
X0060525Y009554
X0060675Y0098115
X00599Y0099715
X005971Y010165
X0060485Y0102175
X00619152
X00626303Y010166
X006385Y010224
X006545Y010274
X00665053Y010216
X00672803Y01016349
X00680553Y010216
X006855Y0100915
X006865Y0099615
X00671
X006555
X0064925Y009922
X0064225Y0098615
X0064225Y009814
X0064925Y009767
X0063825Y0100015
X0063275
X0058935Y0102175
X0059035Y0111045
X005981Y011157
X0060585Y0111045
X006136Y011157
X0062135Y0111045
X006291Y011157
X0063685Y0111045
X006446Y011157
X0065235Y0111045
X006601Y011157
X0066785Y0111045
X006756Y011157
X006845Y011261
X006865Y011361
X00671
X006555
X0064925Y0114005
Y0115555
X0064225Y0115135
X0063675
X0063Y011681
X00613Y0116085
Y0114988
X0059875Y0117135
X006025Y011866
X0059725Y012006
X00612Y012201
X006175
X00623
X0064925Y012109
X006555Y0121485
X00671
X006865
X0067975Y0124795
X0065Y0125635
X00652Y012651
X006555Y012811
X0064925Y0128505
Y0130055
X00621Y013101
X0060525Y013191
X0063825Y012581
X0063925Y01239725
X0065Y0123935
X0064925Y011954
X00671Y012811
X006865
X005398Y0128385
Y0126735
X0053155Y012756
X0051125Y012806
X0050388Y0127586
X0050055Y0127253
X0049722Y012692
X0049056
Y0127586
X0049389Y0127919
X0047826Y01281314
Y01276314
X0047825Y0126985
Y0126485
Y0125985
Y0125485
X0048075Y0124985
X004835Y012446
Y0123885
X0047191Y0123761
Y0123261
Y0122761
Y0122261
X0046191
Y0123261
Y0123761
Y0124261
X0047191
Y0125261
Y0125761
Y0126261
Y0126761
Y0127261
X0046191
Y0126761
Y0126261
Y0125761
Y0125261
X0045191Y0125251
Y0125751
Y0126251
Y0126751
Y0127251
X0044191Y0127261
Y0126761
Y0126261
Y0125761
Y0125261
X0043191
Y0125761
Y0126261
X0043691Y0126761
Y0127261
X0043191Y0127261
X0042729Y0128585
X0042396Y0129584
X0042729Y0129917
X0043062Y0129584
X0043395Y0129917
X0043395Y0129251
X0044061
X0043728Y0128918
X0044394Y0129584
X0044727Y0129251
X004506Y0129584
X0045393Y0129917
X0044976Y01287814
X0046725Y0129251
X0047058Y0128918
X00471Y0130385
X0045826Y01322364
X0042525Y013141
X0042396Y013025
X003985Y01300627
X0038675Y0130935
X0038325Y01318864
X0039251
X003875Y0132835
X0034625
X0031975Y013146
X003205Y0130185
X0032475Y012991
X0032875Y012956
X003205Y0129195
X003125
X00304501Y0128395
Y0127595
X002965
X002965Y0128395
X002885Y0128395
Y0127595
X00280501
X002725
Y0128395
X00280501
Y0129195
X002725
Y0129995
X00280501
X00284Y0130385
X0028425Y0131085
X0028825Y013006
X002885Y0129195
X002965
Y0129995
X00304501
Y0126795
X002965
X002885
X00280501
X002725
Y0125995
X00280501
Y0125195
X002725
Y0124395
X00280501
Y0123595
X002725
Y0122795
X00280501
Y0121995
X002885
Y0121195
X00280501
X00264501
X002565
Y0121995
X00264501
Y0123595
X002565
Y0124395
X00264501
Y0125195
X002565
Y0125995
X00264501
Y0126795
X002565
Y0127595
X00264501
Y0128395
X002565
Y0129195
X00264501
Y0129995
X002565
X002485Y0129995
X002485Y0129195
Y0128395
Y0127595
Y0126795
Y0125995
Y0125195
Y0124395
Y0123595
X00240501
Y0122795
Y0121995
X002325
X002325Y0122795
X00224501Y0122795
Y0123595
X002325
X002325Y0124395
Y0125195
X00240501
Y0124395
X00224501
Y0125195
X002165
Y0124395
Y0123595
Y0122795
Y0121995
Y0121195
Y0120395
X00224501Y0121195
Y0121995
X0020175Y0121995
X0020175Y0121195
Y0122795
X0020175Y0123595
Y0124395
X0020175Y0125195
X0020175Y0125995
Y0126795
X0020175Y0127595
X0020175Y0128395
X00206Y012926
X002165Y0129195
Y0128395
X00224501
Y0127595
Y0126795
X002325Y0126795
X002325Y0125995
X00240501
Y0126795
Y0127595
X002325
Y0128395
X00240501
Y0129195
X002325
Y0129995
X00240501
X00224501
X002167Y0130015
X00224501Y0129195
Y0125995
X002165
Y0126795
X002015Y0131195
X0019425Y013116
X0021925Y0132545
X0022Y0133045
X0023525Y013246
X00252Y013306
X002885Y0125995
X002965Y0125995
X002965Y0125195
Y0124395
X00304501
Y0125195
Y0125995
X003125
Y0125195
Y0124395
Y0123595
Y0122795
X00304501
X002965
Y0123595
X00304501
Y0121995
X002965
Y0121195
X00304501
Y0120395
X002965
X002885
X002885Y0119595
X0028675Y011881
X00281Y0118685
X002765Y011901
X00276Y01195294
X00266Y011916
X00264501Y0120395
X002485Y0121195
X00240501
X002405Y0120395
X0023975Y0119285
X002475Y011951
X0024675Y011881
X002515Y01191293
X002625Y0117935
X002625Y0116734
X00256359Y01163751
X00233Y0115785
X002165Y011556
X002115Y0115735
X0020375Y011716
X00193901Y01173001
Y01162001
X00194Y0114085
X00196782Y01136152
X00194151Y01131501
X00218252Y011311
X0023899Y011291
X00240641Y011346
X0023899Y011401
X002446Y011122
X00236Y0110335
X00257859Y01124001
X00266859
X0028701Y0112985
X00285391Y01134751
X0028701Y0113985
X00271109Y01146001
X0028701Y011621
Y011731
X00301Y0116985
Y011636
X0030125Y011581
X003155Y0116785
X00321
X0031825Y0117185
X003175Y0118335
X003125Y0120395
Y0121195
Y0121995
X0032775Y0123585
X0033625
X00334Y012511
X00329Y0125085
X003125Y0126795
Y0127595
X0035175Y0127045
X00355Y0126645
X00355Y01258627
X003605Y01258627
X00365Y01246377
X003565Y01240877
X00358Y01226127
X0035275Y01226127
X00346Y012246
X00350697Y01213127
X0035575Y01213127
X00361Y01213127
X00369Y0121335
X0036475Y01203877
X00361Y01192877
X0035375Y01185377
X00376
X003755Y011761
X0038675Y01180127
Y01169127
X00374475Y01159446
X00365Y0115985
X00365409Y0114535
X0035785Y0111045
X003501Y011157
X0034235Y0111045
X003346Y011157
X0032685Y0111045
X003255Y011211
X00320125
X0031475
X003191Y011157
X0031135Y0111045
X0031135Y0102175
X003181Y010165
X00319944Y01007813
X0032175Y009949
X0032475Y0098865
X0032Y0098165
X003195Y009689
X0031975Y009509
X003205Y0093815
X0032475Y009354
X00304501Y0093625
X002965
X0028825Y009369
X00284Y0094015
X0028425Y0094715
X00280501Y0093625
X002725
X00264501
X002565
X002485Y0093625
X00240501Y0093625
X002325
X00224501
X002167Y0093645
X002015Y0094825
X0019425Y009479
X001995Y0096875
Y0097975
X002015Y0100025
X002065
X002115Y0100165
X0021625Y0100165
X002315Y0100065
X0023285Y01021
X002476Y0102175
X0025275Y01
X002515Y009784
X0024675Y0098015
X0024225Y009779
X00252Y0097215
Y009669
X0023525Y009609
X0021925Y0096175
X0022Y0096675
X0022Y0097675
X0022Y0098175
Y0098675
X001965Y0100025
X001941Y010165
X0020185Y01021
X00207Y010174
X0028365Y0100675
X002905Y0100765
X0029975Y0098215
X00306Y0098065
X0028Y009829
Y009679
X0034625Y0096465
X003465Y009854
X003575Y0097615
X003625Y0097615
X0037225Y0097115
X0037975Y009764
X003875Y0096465
X0038325Y00955164
X0039251
X0038675Y0094565
X003985Y00936927
X0042396Y009388
X0042729Y0093547
X0043395
X0045393Y0093547
X00471Y0094015
X0045826Y00958664
X0042525Y009504
X0039025Y0098615
X004055Y0100265
X003595
X0035075Y010274
X0034135Y0102175
X003336Y010165
X0032585Y0102175
X0043435
X004421Y010165
X0044985Y0102175
X004576Y010165
X0046535Y0102175
X004731Y010165
X0048085Y0102175
X004886Y010165
X0049635Y0102175
X005041Y010165
X0051185Y0102175
X005196Y010165
X00525Y0102165
X0054075Y0102615
X0051515Y0100435
X0049865
X005739Y009731
X0058215Y0097935
X00578252Y01161451
X00570002Y0116745
X00561752Y01161451
X00569853Y011866
Y011931
X0058675Y011866
X0054Y011866
Y011931
X00525551Y01197673
X0052575Y01227627
X0052254Y0123419
X00522353Y0124085
X00506Y0124085
X0050721Y0123257
X0049722Y0122924
Y012359
X0049389Y0122591
X0049056Y0122258
X0049056Y0121592
X0049389Y0121259
X0050055
X0050055Y0121925
X0050388Y0122258
X0049389Y0120593
X0049056Y012026
X0048723Y0119927
X004839Y0120926
X0045725Y01202627
X0045393Y0120593
X004506Y0120926
X0044394Y0120926
X0044727Y0120593
X0044061Y0120593
X0044061Y0119927
X0043062Y012026
X0043062Y0120926
X0042729Y0120593
X0042396Y012026
X0042063Y0120593
Y0119927
X004173Y012026
X0041397Y0119927
X0041064Y0120926
Y0121592
X0040398
X0040731Y0121925
X0040398Y0122258
X0040731Y0122591
X0041064Y0122258
Y0122924
X0040731Y0123257
X0040398Y012359
X0040731Y0123923
X0041064Y012359
X0041397Y0123923
X0041397Y0124589
X0041064Y0124922
X0040731Y0125255
X0040398Y0124922
X0040731Y0124589
X0040398Y0125588
Y0126254
X0040731Y0126587
X0041064Y0126254
X0041397Y0126587
X0041064Y012692
X0040731Y0127253
Y0127919
X0041064Y0127586
X0041397Y0127253
X0040398Y0127586
X0041064Y0128252
X0041397Y0125921
X0040065Y0125255
X0038951Y01243814
X00380148Y01253627
X0037775Y0127985
X0035725Y0127545
X00391Y01221627
X0042Y012201
X004265Y0121985
X0042625Y0122735
X00432Y012276
X0043191Y0122261
X00432Y0121735
X0044191Y0122261
X00442Y012276
X0044191Y0123261
Y0123761
Y0124261
X0043191
Y0123761
Y0123261
X0041401Y01232564
X004173Y0120926
X0042729Y0119927
X0043575Y01187127
X0045393Y0119261
X0045726Y0119594
X004663Y011744
X00448168Y01164017
Y01157517
Y01135018
Y01128518
X004431Y011157
X0043535Y0111045
X004276Y011157
X0045085Y0111045
X004586Y011157
X0046635Y0111045
X004741Y011157
X0048185Y0111045
X004896Y011157
X0049735Y0111045
X005051Y011157
X0051285Y0111045
X005206Y011157
X0052675Y011661
X005138Y0125835
X0045191Y0124251
Y0123251
Y0122251
X004065Y01191377
X0042071Y01177064
X0042056Y01172064
X002885Y0122795
Y0123595
Y0124395
Y0125195
X0024Y011796
X00235Y0117985
X0023Y011791
X0022525
X00169391Y01178761
X00169391Y01167241
X00145881Y01173001
X0014375Y011591
Y011536
X00137Y0116035
X0012425Y011586
X0012975Y0116785
Y011731
X0012025Y0117935
X00112Y0117785
X00111Y011731
X0011425Y0119645
X0012225Y0119645
X0013025Y0119645
X0013825Y0119645
X0014625
X0015425
X0016225
X0017025
X0017825Y0119645
X0018625Y0119645
X0018225Y0120995
X0017425
X0016625Y0120995
X0015825Y0120995
X0015025
X0014225Y0120995
X0013425Y0120995
X0012625
X0011825Y0120995
X0009875Y0121195
X0008775Y0120985
X0007275Y012318
X000685Y0123505
Y0124085
X0007275Y012441
X0006225Y012678
Y0127405
X0006225Y0128185
Y012881
X00075Y0128785
X0009275Y013006
X0008775Y013106
X0008775Y013256
X00113Y013036
X001095Y0128885
X0011275Y0128095
Y0127495
X0011175Y0126795
Y0125595
X001164Y0125195
X0011175Y0124395
Y0123195
X0012825Y0123695
X0013925
Y0122595
X0012825Y0122595
Y0124795
Y0125895
Y0126995
X0013925
Y0125895
X0013925Y0124795
X0015025
Y0123695
X0016125Y0123695
Y0122595
X0015025
X0017225
Y0123695
Y0124795
X0018125Y012486
X001815Y012426
X001885Y0123995
X001885Y0124795
Y0125595
X001885Y0126395
X001885Y0127195
Y0127995
X00171Y012836
X0016625Y0128645
X0015825
X0015025Y0128645
X0014225Y0128645
X0013425
X0012625
X0013025Y0129945
X0013825
X0014625Y0129945
X0015425
X001545Y013046
X0016225Y0129945
X0017025
X0017825
X0018625
X001865Y0131195
X001688Y0131165
X00164Y013116
X0016675Y013267
X0016125Y013301
X001575Y013256
X001275Y0131295
X0015025Y0126995
X0016125
Y0125895
X0015025
X0016125Y0124795
X0017225Y0125895
Y0126995
X0018275Y012316
X001885Y0123195
X0018875Y0121595
X00145881Y01140001
X001475Y011346
X00145881Y01129001
X00150901Y011157
X00158651Y011112
X00166401Y011157
X0016225Y01121901
X00123Y011346
X0011675Y011326
X0009875Y011436
X00091179Y0114385
Y01148921
X000855Y011361
X0008
X0006625Y0113835
X00061Y011461
X0006625Y0115235
X0006725Y0116485
X0007275Y011651
X0007875Y011651
X00061Y0116235
X0005675Y011691
X0005775Y0119585
X0005775Y012011
X000525Y012011
X000525Y0119585
X000375Y0121535
X000375Y0122035
X000325Y0122035
X000325Y0121535
X0003775Y012456
X0003775Y012506
X000225Y012481
X000335Y012781
X0003775Y012806
X0003775Y012756
X00061Y011306
X0006625Y0112285
X00073401Y011157
X00072Y0101415
X00062Y0101115
X00061Y010016
X0008235Y0099775
X0008875Y009874
X0008485Y0097475
X0008775Y009619
X0008775Y009469
X0009275Y009369
X00113Y009399
X0013025Y0093575
X0013825
X0014625Y0093575
X0015425
X001545Y009409
X0016225Y0093575
X0017025
X0017825
X0018625
X001865Y0094825
X001688Y0094795
X00164Y009479
X0016675Y00963
X00167Y00968
X0016125Y009664
X001575Y009619
X00167Y009784
X00168Y0098675
X001815Y0100025
X001865
X0018635Y0102125
X00178601Y010165
X00170851Y01021
X0015425Y0101315
X0014175Y00993046
X0012475Y009929
Y009874
X001265Y010004
X0012325Y0097315
X0011775
X001275Y0094925
X001885Y0096875
Y0097975
X0006625Y0097835
X00061Y009706
X000545Y009709
X0003875Y0097665
X0004875Y0098765
X0008975Y0100715
X0008485Y0133845
X0008875Y013511
X0008235Y0136145
X0008975Y0137085
X00072Y0137785
X00062Y0137485
X00061Y013653
X0004875Y0135135
X0003875Y0134035
X000545Y013346
X00061Y013343
X0006625Y0134205
X0011775Y0133685
X0012325
X0012475Y013511
Y013566
X001265Y013641
X0014175Y01356746
X00168Y0135045
X00167Y013421
X00167Y013317
X001885Y0133245
Y0134345
X001865Y0136395
X001815
X00178601Y013802
X00170851Y013847
X0018635Y0138495
X0015425Y0137685
X001941Y013802
X0020185Y013847
X00207Y013811
X002065Y0136395
X002015
X001965
X002115Y0136535
X0021625Y0136535
X002315Y0136435
X0023285Y013847
X002476Y0138545
X0025275Y013637
X002515Y013421
X0024675Y0134385
X0024225Y013416
X00252Y0133585
X0028Y013316
Y013466
X0029975Y0134585
X00306Y0134435
X0032Y0134535
X0032475Y0135235
X0032175Y013586
X00319944Y01371514
X003181Y013802
X0031135Y0138545
X0032585
X003336Y013802
X0034135Y0138545
X0035075Y013911
X003595Y0136635
X003575Y0133985
X003625Y0133985
X0037225Y0133485
X0037975Y013401
X0039025Y0134985
X004055Y0136635
X0043435Y0138545
X004421Y013802
X0044985Y0138545
X004576Y013802
X0046535Y0138545
X004731Y013802
X0048085Y0138545
X004886Y013802
X0049635Y0138545
X005041Y013802
X0051185Y0138545
X005196Y013802
X00525Y0138535
X0054075Y0138985
X0051515Y0136805
X0049865
X005739Y013368
X0058215Y0134305
X003465Y013491
X003195Y013326
X002905Y0137135
X0028365Y0137045
X0022Y0135045
Y0134545
X0022Y0134045
X001995Y0134345
Y0133245
X0060675Y0134485
X00599Y0136085
X005971Y013802
X0060485Y0138545
X00619152
X00626303Y013803
X006385Y013861
X006545Y013911
X00665053Y013853
X00672803Y0138005
X00680553Y013853
X006855Y0137285
X006865Y0135985
X00671
X006555
X0064925Y013559
X0064225Y0134985
X0064225Y013451
X0064925Y013404
X0063825Y0136385
X0063275
X0058935Y0138545
T02
X0004925Y000123
Y000377
X00081393Y0000795
X00106821
X0013225
X00157679
X00183107
X00208107Y0030575
X00233536
X00182679
X0015725
X00131821
X00106393
X00080964
X00081393Y0037165
X00106821
X0013225
X00157679
X00183107
X0004925Y00376
Y004014
X00080964Y0066945
X00106393
X00131821
X0015725
X00182679
X00183107Y0073535
X00157679
X0013225
X00106821
X00081393
X0004925Y007397
Y007651
X00208107Y0066945
X00233536
Y0103315
X00208107
X00182679
X0015725
X00131821
X00106393
X00080964
X00081393Y0109905
X00106821
X0013225
X00157679
X00183107
X0004925Y011034
Y011288
X00080964Y0139685
X00106393
X00131821
X0015725
X00182679
X00208107
X00233536
T04
X0002Y0003
Y002837
Y003937
Y006474
Y007574
Y010111
Y011211
Y013748
T05
X0002625Y0
X00037
X00653Y0
X0066375
Y003137
X00653
Y003637
X0066375
X00037Y003637
X0002625
X0002625Y003137
X00037
Y006774
X0002625
X0002625Y007274
X00037
X00653Y007274
X0066375
Y006774
X00653
Y010411
X0066375
Y010911
X00653
X00037Y010911
X0002625
X0002625Y010411
X00037
Y014048
X0002625
X00653Y014048
X0066375
T06
X000245Y0013485
Y0017985
Y0049855
Y0054355
Y0086225
Y0090725
Y0122595
Y0127095
T07
X00265Y-00002
X00565
Y003157
Y003617
X00265
Y003157
Y006794
Y007254
X00565
Y006794
Y010431
Y010891
X00265
Y010431
Y014068
X00565
M30
