G04 Layer_Color=255*
%FSLAX44Y44*%
%MOMM*%
G71*
G01*
G75*
%ADD10C,1.0000*%
%ADD14R,0.3000X0.3100*%
G04:AMPARAMS|DCode=15|XSize=0.6mm|YSize=0.6mm|CornerRadius=0.06mm|HoleSize=0mm|Usage=FLASHONLY|Rotation=180.000|XOffset=0mm|YOffset=0mm|HoleType=Round|Shape=RoundedRectangle|*
%AMROUNDEDRECTD15*
21,1,0.6000,0.4800,0,0,180.0*
21,1,0.4800,0.6000,0,0,180.0*
1,1,0.1200,-0.2400,0.2400*
1,1,0.1200,0.2400,0.2400*
1,1,0.1200,0.2400,-0.2400*
1,1,0.1200,-0.2400,-0.2400*
%
%ADD15ROUNDEDRECTD15*%
%ADD16R,4.0000X2.0000*%
%ADD17R,4.2500X2.0000*%
G04:AMPARAMS|DCode=18|XSize=0.5mm|YSize=0.6mm|CornerRadius=0.05mm|HoleSize=0mm|Usage=FLASHONLY|Rotation=0.000|XOffset=0mm|YOffset=0mm|HoleType=Round|Shape=RoundedRectangle|*
%AMROUNDEDRECTD18*
21,1,0.5000,0.5000,0,0,0.0*
21,1,0.4000,0.6000,0,0,0.0*
1,1,0.1000,0.2000,-0.2500*
1,1,0.1000,-0.2000,-0.2500*
1,1,0.1000,-0.2000,0.2500*
1,1,0.1000,0.2000,0.2500*
%
%ADD18ROUNDEDRECTD18*%
%ADD19C,0.3500*%
%ADD20R,0.2000X0.2000*%
G04:AMPARAMS|DCode=21|XSize=0.6mm|YSize=0.6mm|CornerRadius=0.06mm|HoleSize=0mm|Usage=FLASHONLY|Rotation=270.000|XOffset=0mm|YOffset=0mm|HoleType=Round|Shape=RoundedRectangle|*
%AMROUNDEDRECTD21*
21,1,0.6000,0.4800,0,0,270.0*
21,1,0.4800,0.6000,0,0,270.0*
1,1,0.1200,-0.2400,-0.2400*
1,1,0.1200,-0.2400,0.2400*
1,1,0.1200,0.2400,0.2400*
1,1,0.1200,0.2400,-0.2400*
%
%ADD21ROUNDEDRECTD21*%
G04:AMPARAMS|DCode=22|XSize=1mm|YSize=0.9mm|CornerRadius=0.1125mm|HoleSize=0mm|Usage=FLASHONLY|Rotation=180.000|XOffset=0mm|YOffset=0mm|HoleType=Round|Shape=RoundedRectangle|*
%AMROUNDEDRECTD22*
21,1,1.0000,0.6750,0,0,180.0*
21,1,0.7750,0.9000,0,0,180.0*
1,1,0.2250,-0.3875,0.3375*
1,1,0.2250,0.3875,0.3375*
1,1,0.2250,0.3875,-0.3375*
1,1,0.2250,-0.3875,-0.3375*
%
%ADD22ROUNDEDRECTD22*%
G04:AMPARAMS|DCode=23|XSize=0.5mm|YSize=0.6mm|CornerRadius=0.05mm|HoleSize=0mm|Usage=FLASHONLY|Rotation=90.000|XOffset=0mm|YOffset=0mm|HoleType=Round|Shape=RoundedRectangle|*
%AMROUNDEDRECTD23*
21,1,0.5000,0.5000,0,0,90.0*
21,1,0.4000,0.6000,0,0,90.0*
1,1,0.1000,0.2500,0.2000*
1,1,0.1000,0.2500,-0.2000*
1,1,0.1000,-0.2500,-0.2000*
1,1,0.1000,-0.2500,0.2000*
%
%ADD23ROUNDEDRECTD23*%
%ADD24R,2.4000X0.7500*%
%ADD25C,0.5000*%
%ADD26O,0.4700X0.5000*%
%ADD27O,0.5000X0.4500*%
%ADD28C,0.4700*%
%ADD29R,1.8000X0.7000*%
%ADD30R,5.5500X5.5500*%
%ADD31R,0.9000X0.2000*%
%ADD32R,0.2000X0.9000*%
%ADD33R,0.3500X0.3000*%
%ADD34R,1.1000X0.7000*%
%ADD35R,0.6500X0.4500*%
%ADD36R,0.4000X0.2500*%
%ADD37R,0.5000X0.2500*%
%ADD38R,0.3000X0.3500*%
%ADD39R,1.4000X1.3000*%
%ADD40R,2.0000X1.3000*%
G04:AMPARAMS|DCode=41|XSize=1.3mm|YSize=0.8mm|CornerRadius=0.1mm|HoleSize=0mm|Usage=FLASHONLY|Rotation=270.000|XOffset=0mm|YOffset=0mm|HoleType=Round|Shape=RoundedRectangle|*
%AMROUNDEDRECTD41*
21,1,1.3000,0.6000,0,0,270.0*
21,1,1.1000,0.8000,0,0,270.0*
1,1,0.2000,-0.3000,-0.5500*
1,1,0.2000,-0.3000,0.5500*
1,1,0.2000,0.3000,0.5500*
1,1,0.2000,0.3000,-0.5500*
%
%ADD41ROUNDEDRECTD41*%
G04:AMPARAMS|DCode=42|XSize=0.7mm|YSize=0.4mm|CornerRadius=0.05mm|HoleSize=0mm|Usage=FLASHONLY|Rotation=180.000|XOffset=0mm|YOffset=0mm|HoleType=Round|Shape=RoundedRectangle|*
%AMROUNDEDRECTD42*
21,1,0.7000,0.3000,0,0,180.0*
21,1,0.6000,0.4000,0,0,180.0*
1,1,0.1000,-0.3000,0.1500*
1,1,0.1000,0.3000,0.1500*
1,1,0.1000,0.3000,-0.1500*
1,1,0.1000,-0.3000,-0.1500*
%
%ADD42ROUNDEDRECTD42*%
%ADD43R,0.7600X1.2000*%
%ADD44R,1.2000X0.7600*%
%ADD45R,1.2000X0.7000*%
%ADD46R,0.2500X0.3500*%
%ADD47R,2.5000X1.7000*%
%ADD48R,0.5000X0.7000*%
G04:AMPARAMS|DCode=49|XSize=1.3mm|YSize=1mm|CornerRadius=0.125mm|HoleSize=0mm|Usage=FLASHONLY|Rotation=0.000|XOffset=0mm|YOffset=0mm|HoleType=Round|Shape=RoundedRectangle|*
%AMROUNDEDRECTD49*
21,1,1.3000,0.7500,0,0,0.0*
21,1,1.0500,1.0000,0,0,0.0*
1,1,0.2500,0.5250,-0.3750*
1,1,0.2500,-0.5250,-0.3750*
1,1,0.2500,-0.5250,0.3750*
1,1,0.2500,0.5250,0.3750*
%
%ADD49ROUNDEDRECTD49*%
%ADD64C,1.1000*%
%ADD65O,4.0000X1.6000*%
%ADD66C,3.0000*%
%ADD67C,3.5000*%
%ADD68O,1.8000X1.3000*%
G04:AMPARAMS|DCode=69|XSize=1.8mm|YSize=1.3mm|CornerRadius=0.325mm|HoleSize=0mm|Usage=FLASHONLY|Rotation=0.000|XOffset=0mm|YOffset=0mm|HoleType=Round|Shape=RoundedRectangle|*
%AMROUNDEDRECTD69*
21,1,1.8000,0.6500,0,0,0.0*
21,1,1.1500,1.3000,0,0,0.0*
1,1,0.6500,0.5750,-0.3250*
1,1,0.6500,-0.5750,-0.3250*
1,1,0.6500,-0.5750,0.3250*
1,1,0.6500,0.5750,0.3250*
%
%ADD69ROUNDEDRECTD69*%
G04:AMPARAMS|DCode=70|XSize=1.524mm|YSize=1.524mm|CornerRadius=0.1905mm|HoleSize=0mm|Usage=FLASHONLY|Rotation=0.000|XOffset=0mm|YOffset=0mm|HoleType=Round|Shape=RoundedRectangle|*
%AMROUNDEDRECTD70*
21,1,1.5240,1.1430,0,0,0.0*
21,1,1.1430,1.5240,0,0,0.0*
1,1,0.3810,0.5715,-0.5715*
1,1,0.3810,-0.5715,-0.5715*
1,1,0.3810,-0.5715,0.5715*
1,1,0.3810,0.5715,0.5715*
%
%ADD70ROUNDEDRECTD70*%
%ADD71C,1.6000*%
%ADD72C,0.8000*%
D10*
X72000Y-80000D02*
D03*
X618000D02*
D03*
X617999Y1482800D02*
D03*
X71999D02*
D03*
X346000Y196000D02*
D03*
Y559700D02*
D03*
Y923400D02*
D03*
Y1287100D02*
D03*
D14*
X628500Y79750D02*
D03*
Y84250D02*
D03*
Y224250D02*
D03*
Y228750D02*
D03*
Y443450D02*
D03*
Y447950D02*
D03*
Y587950D02*
D03*
Y592450D02*
D03*
Y807150D02*
D03*
Y811650D02*
D03*
Y951650D02*
D03*
Y956150D02*
D03*
Y1170850D02*
D03*
Y1175350D02*
D03*
Y1315350D02*
D03*
Y1319850D02*
D03*
D15*
X100750Y69750D02*
D03*
Y79750D02*
D03*
X84750Y64750D02*
D03*
Y74750D02*
D03*
X104750Y58750D02*
D03*
Y48750D02*
D03*
X357751Y143750D02*
D03*
Y153750D02*
D03*
X236250Y250250D02*
D03*
Y260250D02*
D03*
X224750Y71750D02*
D03*
Y61750D02*
D03*
X538750Y235500D02*
D03*
Y225500D02*
D03*
X484352Y60150D02*
D03*
Y70150D02*
D03*
X484352Y50150D02*
D03*
Y40150D02*
D03*
X100750Y433450D02*
D03*
Y443450D02*
D03*
X84750Y428450D02*
D03*
Y438450D02*
D03*
X104750Y422450D02*
D03*
Y412450D02*
D03*
X357751Y507450D02*
D03*
Y517450D02*
D03*
X236250Y613950D02*
D03*
Y623950D02*
D03*
X224750Y435450D02*
D03*
Y425450D02*
D03*
X538750Y599200D02*
D03*
Y589200D02*
D03*
X484352Y423850D02*
D03*
Y433850D02*
D03*
X484352Y413850D02*
D03*
Y403850D02*
D03*
X100750Y797150D02*
D03*
Y807150D02*
D03*
X84750Y792150D02*
D03*
Y802150D02*
D03*
X104750Y786150D02*
D03*
Y776150D02*
D03*
X357751Y871150D02*
D03*
Y881150D02*
D03*
X236250Y977650D02*
D03*
Y987650D02*
D03*
X224750Y799150D02*
D03*
Y789150D02*
D03*
X538750Y962900D02*
D03*
Y952900D02*
D03*
X484352Y787550D02*
D03*
Y797550D02*
D03*
X484352Y777550D02*
D03*
Y767550D02*
D03*
X100750Y1160850D02*
D03*
Y1170850D02*
D03*
X84750Y1155850D02*
D03*
Y1165850D02*
D03*
X104750Y1149850D02*
D03*
Y1139850D02*
D03*
X357751Y1234850D02*
D03*
Y1244850D02*
D03*
X236250Y1341350D02*
D03*
Y1351350D02*
D03*
X224750Y1162850D02*
D03*
Y1152850D02*
D03*
X538750Y1326600D02*
D03*
Y1316600D02*
D03*
X484352Y1151250D02*
D03*
Y1161250D02*
D03*
X484352Y1141250D02*
D03*
Y1131250D02*
D03*
D16*
X669450Y257075D02*
D03*
Y201675D02*
D03*
Y56675D02*
D03*
Y112075D02*
D03*
Y620775D02*
D03*
Y565375D02*
D03*
Y420375D02*
D03*
Y475775D02*
D03*
Y984475D02*
D03*
Y929075D02*
D03*
Y784075D02*
D03*
Y839475D02*
D03*
Y1348175D02*
D03*
Y1292775D02*
D03*
Y1147775D02*
D03*
Y1203175D02*
D03*
D17*
X668450Y229375D02*
D03*
Y84375D02*
D03*
Y593075D02*
D03*
Y448075D02*
D03*
Y956775D02*
D03*
Y811775D02*
D03*
Y1320475D02*
D03*
Y1175475D02*
D03*
D18*
X462750Y266750D02*
D03*
Y256750D02*
D03*
X85000Y95750D02*
D03*
Y85750D02*
D03*
X85251Y209500D02*
D03*
Y199500D02*
D03*
X80250Y219500D02*
D03*
Y229500D02*
D03*
X246750Y258250D02*
D03*
Y268250D02*
D03*
X247000Y239500D02*
D03*
Y229500D02*
D03*
X431250Y266750D02*
D03*
Y256750D02*
D03*
X225750Y256100D02*
D03*
Y266100D02*
D03*
X494852Y50150D02*
D03*
Y60150D02*
D03*
X525852Y60150D02*
D03*
Y50150D02*
D03*
X507324Y225579D02*
D03*
Y235579D02*
D03*
X550000Y119850D02*
D03*
Y129850D02*
D03*
X560000D02*
D03*
Y119850D02*
D03*
X589750Y62000D02*
D03*
Y72000D02*
D03*
X209500Y230250D02*
D03*
Y220250D02*
D03*
X594500Y216000D02*
D03*
Y226000D02*
D03*
X620250Y231250D02*
D03*
Y241250D02*
D03*
X589750Y127500D02*
D03*
Y117500D02*
D03*
X617500Y123750D02*
D03*
Y113750D02*
D03*
X462750Y630450D02*
D03*
Y620450D02*
D03*
X85000Y459450D02*
D03*
Y449450D02*
D03*
X85251Y573200D02*
D03*
Y563200D02*
D03*
X80250Y583200D02*
D03*
Y593200D02*
D03*
X246750Y621950D02*
D03*
Y631950D02*
D03*
X247000Y603200D02*
D03*
Y593200D02*
D03*
X431250Y630450D02*
D03*
Y620450D02*
D03*
X225750Y619800D02*
D03*
Y629800D02*
D03*
X494852Y413850D02*
D03*
Y423850D02*
D03*
X525852Y423850D02*
D03*
Y413850D02*
D03*
X507324Y589280D02*
D03*
Y599280D02*
D03*
X550000Y483550D02*
D03*
Y493550D02*
D03*
X560000D02*
D03*
Y483550D02*
D03*
X589750Y425700D02*
D03*
Y435700D02*
D03*
X209500Y593950D02*
D03*
Y583950D02*
D03*
X594500Y579700D02*
D03*
Y589700D02*
D03*
X620250Y594950D02*
D03*
Y604950D02*
D03*
X589750Y491200D02*
D03*
Y481200D02*
D03*
X617500Y487450D02*
D03*
Y477450D02*
D03*
X462750Y994150D02*
D03*
Y984150D02*
D03*
X85000Y823150D02*
D03*
Y813150D02*
D03*
X85251Y936900D02*
D03*
Y926900D02*
D03*
X80250Y946900D02*
D03*
Y956900D02*
D03*
X246750Y985650D02*
D03*
Y995650D02*
D03*
X247000Y966900D02*
D03*
Y956900D02*
D03*
X431250Y994150D02*
D03*
Y984150D02*
D03*
X225750Y983500D02*
D03*
Y993500D02*
D03*
X494852Y777550D02*
D03*
Y787550D02*
D03*
X525852Y787550D02*
D03*
Y777550D02*
D03*
X507324Y952980D02*
D03*
Y962980D02*
D03*
X550000Y847250D02*
D03*
Y857250D02*
D03*
X560000D02*
D03*
Y847250D02*
D03*
X589750Y789400D02*
D03*
Y799400D02*
D03*
X209500Y957650D02*
D03*
Y947650D02*
D03*
X594500Y943400D02*
D03*
Y953400D02*
D03*
X620250Y958650D02*
D03*
Y968650D02*
D03*
X589750Y854900D02*
D03*
Y844900D02*
D03*
X617500Y851150D02*
D03*
Y841150D02*
D03*
X462750Y1357850D02*
D03*
Y1347850D02*
D03*
X85000Y1186850D02*
D03*
Y1176850D02*
D03*
X85251Y1300600D02*
D03*
Y1290600D02*
D03*
X80250Y1310600D02*
D03*
Y1320600D02*
D03*
X246750Y1349350D02*
D03*
Y1359350D02*
D03*
X247000Y1330600D02*
D03*
Y1320600D02*
D03*
X431250Y1357850D02*
D03*
Y1347850D02*
D03*
X225750Y1347200D02*
D03*
Y1357200D02*
D03*
X494852Y1141250D02*
D03*
Y1151250D02*
D03*
X525852Y1151250D02*
D03*
Y1141250D02*
D03*
X507324Y1316680D02*
D03*
Y1326680D02*
D03*
X550000Y1210950D02*
D03*
Y1220950D02*
D03*
X560000D02*
D03*
Y1210950D02*
D03*
X589750Y1153100D02*
D03*
Y1163100D02*
D03*
X209500Y1321350D02*
D03*
Y1311350D02*
D03*
X594500Y1307100D02*
D03*
Y1317100D02*
D03*
X620250Y1322350D02*
D03*
Y1332350D02*
D03*
X589750Y1218600D02*
D03*
Y1208600D02*
D03*
X617500Y1214850D02*
D03*
Y1204850D02*
D03*
D19*
X440610Y101510D02*
D03*
X453930D02*
D03*
X467250D02*
D03*
X480570D02*
D03*
X487230D02*
D03*
X477240Y104839D02*
D03*
X470580D02*
D03*
X463920D02*
D03*
X457260D02*
D03*
X450600D02*
D03*
X443940D02*
D03*
X437280D02*
D03*
X483900D02*
D03*
X493890Y101510D02*
D03*
X487230Y108169D02*
D03*
X427290D02*
D03*
X433950D02*
D03*
X440610D02*
D03*
X447270D02*
D03*
X453930D02*
D03*
X460590D02*
D03*
X467250D02*
D03*
X473910D02*
D03*
X480570D02*
D03*
X430620Y111500D02*
D03*
X437280D02*
D03*
X443940D02*
D03*
X450600D02*
D03*
X457260D02*
D03*
X463920D02*
D03*
X470580D02*
D03*
X477240D02*
D03*
X483900D02*
D03*
X473910Y114830D02*
D03*
X480570D02*
D03*
X467250D02*
D03*
X460590D02*
D03*
X453930D02*
D03*
X447270D02*
D03*
X440610D02*
D03*
X433950D02*
D03*
X427290D02*
D03*
X503880Y118160D02*
D03*
X497220D02*
D03*
X490560D02*
D03*
X483900D02*
D03*
X477240D02*
D03*
X470580D02*
D03*
X463920D02*
D03*
X457260D02*
D03*
X450600D02*
D03*
X443940D02*
D03*
X437280D02*
D03*
X430620D02*
D03*
X423960D02*
D03*
X403980Y111500D02*
D03*
X407310Y108169D02*
D03*
X403980Y118160D02*
D03*
X407310Y114830D02*
D03*
X410640Y111500D02*
D03*
X413970Y108169D02*
D03*
X420630Y114830D02*
D03*
X423960Y111500D02*
D03*
X417300D02*
D03*
X420630Y108169D02*
D03*
X413970Y114830D02*
D03*
X410640Y118160D02*
D03*
X407310Y121489D02*
D03*
X400650Y128150D02*
D03*
X403980Y124820D02*
D03*
X397320Y131480D02*
D03*
X417300Y118160D02*
D03*
X413970Y121490D02*
D03*
X410640Y124820D02*
D03*
X403980Y131480D02*
D03*
X407310Y128150D02*
D03*
X400650Y134810D02*
D03*
X410640Y131480D02*
D03*
X407310Y134810D02*
D03*
X400650Y141470D02*
D03*
X403980Y138140D02*
D03*
X397320Y144800D02*
D03*
X410640Y138140D02*
D03*
X407310Y141470D02*
D03*
X400650Y148130D02*
D03*
X403980Y144800D02*
D03*
X410640Y144800D02*
D03*
X407310Y148130D02*
D03*
X400650Y154790D02*
D03*
X403980Y151460D02*
D03*
X397320Y158120D02*
D03*
X413970Y148130D02*
D03*
X410640Y151460D02*
D03*
X407310Y154790D02*
D03*
X400650Y161450D02*
D03*
X403980Y158120D02*
D03*
X413970Y154790D02*
D03*
X410640Y158120D02*
D03*
X407310Y161450D02*
D03*
X400650Y168110D02*
D03*
X403980Y164780D02*
D03*
X397320Y171440D02*
D03*
X413970Y161450D02*
D03*
X410640Y164780D02*
D03*
X407310Y168110D02*
D03*
X400650Y174770D02*
D03*
X403980Y171440D02*
D03*
X413970Y168110D02*
D03*
X410640Y171440D02*
D03*
X407310Y174770D02*
D03*
X400650Y181430D02*
D03*
X403980Y178100D02*
D03*
X397320Y184760D02*
D03*
X413970Y174770D02*
D03*
X410640Y178100D02*
D03*
X407310Y181430D02*
D03*
X400650Y188090D02*
D03*
X403980Y184760D02*
D03*
X413970Y181430D02*
D03*
X410640Y184760D02*
D03*
X407310Y188090D02*
D03*
X400650Y194750D02*
D03*
X403980Y191420D02*
D03*
X397320Y198080D02*
D03*
X413970Y188090D02*
D03*
X410640Y191420D02*
D03*
X407310Y194750D02*
D03*
X400650Y201410D02*
D03*
X403980Y198080D02*
D03*
X397320Y204740D02*
D03*
X413970Y194750D02*
D03*
X410640Y198080D02*
D03*
X407310Y201410D02*
D03*
X420630Y194750D02*
D03*
X417300Y198080D02*
D03*
X413970Y201410D02*
D03*
X407310Y208070D02*
D03*
X410640Y204740D02*
D03*
X403980Y211400D02*
D03*
X410640D02*
D03*
X417300Y204740D02*
D03*
X413970Y208070D02*
D03*
X420630Y201410D02*
D03*
X423960Y198080D02*
D03*
X427290Y194750D02*
D03*
X423960Y204740D02*
D03*
X420630Y208070D02*
D03*
X423960Y211400D02*
D03*
X427290Y208070D02*
D03*
X443940Y204740D02*
D03*
X430620D02*
D03*
X433950Y208070D02*
D03*
Y201410D02*
D03*
X437280Y204740D02*
D03*
X440610Y201410D02*
D03*
X437280Y198080D02*
D03*
X453930Y208070D02*
D03*
X450600Y204740D02*
D03*
X447270Y201410D02*
D03*
X443940Y198080D02*
D03*
X440610Y194750D02*
D03*
X447270D02*
D03*
X500550Y208070D02*
D03*
X493890Y108170D02*
D03*
X490560Y111500D02*
D03*
X497220Y104840D02*
D03*
X503880D02*
D03*
X493890Y114830D02*
D03*
X500550Y108170D02*
D03*
X497220Y111500D02*
D03*
X503880D02*
D03*
X507210Y108170D02*
D03*
X493890Y121490D02*
D03*
X490560Y124820D02*
D03*
X500550Y114830D02*
D03*
X493890Y128150D02*
D03*
X490560Y131480D02*
D03*
X500550Y121490D02*
D03*
X503880Y124820D02*
D03*
X507210Y121490D02*
D03*
X493890Y134810D02*
D03*
X490560Y138140D02*
D03*
X500550Y128150D02*
D03*
X497220Y131480D02*
D03*
X503880D02*
D03*
X507210Y128150D02*
D03*
X500550Y134810D02*
D03*
X497220Y138140D02*
D03*
X503880D02*
D03*
X493890Y148130D02*
D03*
X490560Y151460D02*
D03*
X500550Y141470D02*
D03*
X497220Y144800D02*
D03*
X503880D02*
D03*
X507210Y141470D02*
D03*
X493890Y154790D02*
D03*
X490560Y158120D02*
D03*
X500550Y148130D02*
D03*
X497220Y151460D02*
D03*
Y158120D02*
D03*
X500550Y154790D02*
D03*
X490560Y164780D02*
D03*
X497220D02*
D03*
X500550Y161450D02*
D03*
X490560Y171440D02*
D03*
X493890Y168110D02*
D03*
X507210Y154790D02*
D03*
X503880Y158120D02*
D03*
X493890Y174770D02*
D03*
X497220Y171440D02*
D03*
X490560Y178100D02*
D03*
X503880Y164780D02*
D03*
X500550Y168110D02*
D03*
X503880Y171440D02*
D03*
X507210Y168110D02*
D03*
X460590Y194750D02*
D03*
X463920Y198080D02*
D03*
X467250Y194750D02*
D03*
X473910D02*
D03*
X467250Y201410D02*
D03*
X470580Y198080D02*
D03*
X473910Y201410D02*
D03*
X470580Y204740D02*
D03*
X480570Y194750D02*
D03*
X477240Y198080D02*
D03*
X493890Y181430D02*
D03*
X490560Y184760D02*
D03*
X500550Y174770D02*
D03*
X497220Y178100D02*
D03*
X503880Y184760D02*
D03*
X507210Y181430D02*
D03*
X500550D02*
D03*
X503880Y178100D02*
D03*
X480570Y208070D02*
D03*
X477240Y211400D02*
D03*
Y204740D02*
D03*
X473910Y208070D02*
D03*
X493890Y188090D02*
D03*
X497220Y184760D02*
D03*
X487230Y194750D02*
D03*
X480570Y201410D02*
D03*
X483900Y198080D02*
D03*
X500550Y188090D02*
D03*
X497220Y191420D02*
D03*
X490560Y198080D02*
D03*
X493890Y194750D02*
D03*
X483900Y204740D02*
D03*
X487230Y201410D02*
D03*
X490560Y204740D02*
D03*
X487230Y208070D02*
D03*
X497220Y198080D02*
D03*
X493890Y201410D02*
D03*
X500550Y194750D02*
D03*
X503880Y191420D02*
D03*
X507210Y194750D02*
D03*
X503880Y198080D02*
D03*
X500550Y201410D02*
D03*
X497220Y204740D02*
D03*
X493890Y208070D02*
D03*
X490560Y211400D02*
D03*
X440610Y465210D02*
D03*
X453930D02*
D03*
X467250D02*
D03*
X480570D02*
D03*
X487230D02*
D03*
X477240Y468540D02*
D03*
X470580D02*
D03*
X463920D02*
D03*
X457260D02*
D03*
X450600D02*
D03*
X443940D02*
D03*
X437280D02*
D03*
X483900D02*
D03*
X493890Y465210D02*
D03*
X487230Y471870D02*
D03*
X427290D02*
D03*
X433950D02*
D03*
X440610D02*
D03*
X447270D02*
D03*
X453930D02*
D03*
X460590D02*
D03*
X467250D02*
D03*
X473910D02*
D03*
X480570D02*
D03*
X430620Y475200D02*
D03*
X437280D02*
D03*
X443940D02*
D03*
X450600D02*
D03*
X457260D02*
D03*
X463920D02*
D03*
X470580D02*
D03*
X477240D02*
D03*
X483900D02*
D03*
X473910Y478530D02*
D03*
X480570D02*
D03*
X467250D02*
D03*
X460590D02*
D03*
X453930D02*
D03*
X447270D02*
D03*
X440610D02*
D03*
X433950D02*
D03*
X427290D02*
D03*
X503880Y481860D02*
D03*
X497220D02*
D03*
X490560D02*
D03*
X483900D02*
D03*
X477240D02*
D03*
X470580D02*
D03*
X463920D02*
D03*
X457260D02*
D03*
X450600D02*
D03*
X443940D02*
D03*
X437280D02*
D03*
X430620D02*
D03*
X423960D02*
D03*
X403980Y475200D02*
D03*
X407310Y471870D02*
D03*
X403980Y481860D02*
D03*
X407310Y478530D02*
D03*
X410640Y475200D02*
D03*
X413970Y471870D02*
D03*
X420630Y478530D02*
D03*
X423960Y475200D02*
D03*
X417300D02*
D03*
X420630Y471870D02*
D03*
X413970Y478530D02*
D03*
X410640Y481860D02*
D03*
X407310Y485190D02*
D03*
X400650Y491850D02*
D03*
X403980Y488520D02*
D03*
X397320Y495180D02*
D03*
X417300Y481860D02*
D03*
X413970Y485190D02*
D03*
X410640Y488520D02*
D03*
X403980Y495180D02*
D03*
X407310Y491850D02*
D03*
X400650Y498510D02*
D03*
X410640Y495180D02*
D03*
X407310Y498510D02*
D03*
X400650Y505170D02*
D03*
X403980Y501840D02*
D03*
X397320Y508500D02*
D03*
X410640Y501840D02*
D03*
X407310Y505170D02*
D03*
X400650Y511830D02*
D03*
X403980Y508500D02*
D03*
X410640Y508500D02*
D03*
X407310Y511830D02*
D03*
X400650Y518490D02*
D03*
X403980Y515160D02*
D03*
X397320Y521820D02*
D03*
X413970Y511830D02*
D03*
X410640Y515160D02*
D03*
X407310Y518490D02*
D03*
X400650Y525150D02*
D03*
X403980Y521820D02*
D03*
X413970Y518490D02*
D03*
X410640Y521820D02*
D03*
X407310Y525150D02*
D03*
X400650Y531810D02*
D03*
X403980Y528480D02*
D03*
X397320Y535140D02*
D03*
X413970Y525150D02*
D03*
X410640Y528480D02*
D03*
X407310Y531810D02*
D03*
X400650Y538470D02*
D03*
X403980Y535140D02*
D03*
X413970Y531810D02*
D03*
X410640Y535140D02*
D03*
X407310Y538470D02*
D03*
X400650Y545130D02*
D03*
X403980Y541800D02*
D03*
X397320Y548460D02*
D03*
X413970Y538470D02*
D03*
X410640Y541800D02*
D03*
X407310Y545130D02*
D03*
X400650Y551790D02*
D03*
X403980Y548460D02*
D03*
X413970Y545130D02*
D03*
X410640Y548460D02*
D03*
X407310Y551790D02*
D03*
X400650Y558450D02*
D03*
X403980Y555120D02*
D03*
X397320Y561780D02*
D03*
X413970Y551790D02*
D03*
X410640Y555120D02*
D03*
X407310Y558450D02*
D03*
X400650Y565110D02*
D03*
X403980Y561780D02*
D03*
X397320Y568440D02*
D03*
X413970Y558450D02*
D03*
X410640Y561780D02*
D03*
X407310Y565110D02*
D03*
X420630Y558450D02*
D03*
X417300Y561780D02*
D03*
X413970Y565110D02*
D03*
X407310Y571770D02*
D03*
X410640Y568440D02*
D03*
X403980Y575100D02*
D03*
X410640D02*
D03*
X417300Y568440D02*
D03*
X413970Y571770D02*
D03*
X420630Y565110D02*
D03*
X423960Y561780D02*
D03*
X427290Y558450D02*
D03*
X423960Y568440D02*
D03*
X420630Y571770D02*
D03*
X423960Y575100D02*
D03*
X427290Y571770D02*
D03*
X443940Y568440D02*
D03*
X430620D02*
D03*
X433950Y571770D02*
D03*
Y565110D02*
D03*
X437280Y568440D02*
D03*
X440610Y565110D02*
D03*
X437280Y561780D02*
D03*
X453930Y571770D02*
D03*
X450600Y568440D02*
D03*
X447270Y565110D02*
D03*
X443940Y561780D02*
D03*
X440610Y558450D02*
D03*
X447270D02*
D03*
X500550Y571770D02*
D03*
X493890Y471870D02*
D03*
X490560Y475200D02*
D03*
X497220Y468540D02*
D03*
X503880D02*
D03*
X493890Y478530D02*
D03*
X500550Y471870D02*
D03*
X497220Y475200D02*
D03*
X503880D02*
D03*
X507210Y471870D02*
D03*
X493890Y485190D02*
D03*
X490560Y488520D02*
D03*
X500550Y478530D02*
D03*
X493890Y491850D02*
D03*
X490560Y495180D02*
D03*
X500550Y485190D02*
D03*
X503880Y488520D02*
D03*
X507210Y485190D02*
D03*
X493890Y498510D02*
D03*
X490560Y501840D02*
D03*
X500550Y491850D02*
D03*
X497220Y495180D02*
D03*
X503880D02*
D03*
X507210Y491850D02*
D03*
X500550Y498510D02*
D03*
X497220Y501840D02*
D03*
X503880D02*
D03*
X493890Y511830D02*
D03*
X490560Y515160D02*
D03*
X500550Y505170D02*
D03*
X497220Y508500D02*
D03*
X503880D02*
D03*
X507210Y505170D02*
D03*
X493890Y518490D02*
D03*
X490560Y521820D02*
D03*
X500550Y511830D02*
D03*
X497220Y515160D02*
D03*
Y521820D02*
D03*
X500550Y518490D02*
D03*
X490560Y528480D02*
D03*
X497220D02*
D03*
X500550Y525150D02*
D03*
X490560Y535140D02*
D03*
X493890Y531810D02*
D03*
X507210Y518490D02*
D03*
X503880Y521820D02*
D03*
X493890Y538470D02*
D03*
X497220Y535140D02*
D03*
X490560Y541800D02*
D03*
X503880Y528480D02*
D03*
X500550Y531810D02*
D03*
X503880Y535140D02*
D03*
X507210Y531810D02*
D03*
X460590Y558450D02*
D03*
X463920Y561780D02*
D03*
X467250Y558450D02*
D03*
X473910D02*
D03*
X467250Y565110D02*
D03*
X470580Y561780D02*
D03*
X473910Y565110D02*
D03*
X470580Y568440D02*
D03*
X480570Y558450D02*
D03*
X477240Y561780D02*
D03*
X493890Y545130D02*
D03*
X490560Y548460D02*
D03*
X500550Y538470D02*
D03*
X497220Y541800D02*
D03*
X503880Y548460D02*
D03*
X507210Y545130D02*
D03*
X500550D02*
D03*
X503880Y541800D02*
D03*
X480570Y571770D02*
D03*
X477240Y575100D02*
D03*
Y568440D02*
D03*
X473910Y571770D02*
D03*
X493890Y551790D02*
D03*
X497220Y548460D02*
D03*
X487230Y558450D02*
D03*
X480570Y565110D02*
D03*
X483900Y561780D02*
D03*
X500550Y551790D02*
D03*
X497220Y555120D02*
D03*
X490560Y561780D02*
D03*
X493890Y558450D02*
D03*
X483900Y568440D02*
D03*
X487230Y565110D02*
D03*
X490560Y568440D02*
D03*
X487230Y571770D02*
D03*
X497220Y561780D02*
D03*
X493890Y565110D02*
D03*
X500550Y558450D02*
D03*
X503880Y555120D02*
D03*
X507210Y558450D02*
D03*
X503880Y561780D02*
D03*
X500550Y565110D02*
D03*
X497220Y568440D02*
D03*
X493890Y571770D02*
D03*
X490560Y575100D02*
D03*
X440610Y828910D02*
D03*
X453930D02*
D03*
X467250D02*
D03*
X480570D02*
D03*
X487230D02*
D03*
X477240Y832240D02*
D03*
X470580D02*
D03*
X463920D02*
D03*
X457260D02*
D03*
X450600D02*
D03*
X443940D02*
D03*
X437280D02*
D03*
X483900D02*
D03*
X493890Y828910D02*
D03*
X487230Y835570D02*
D03*
X427290D02*
D03*
X433950D02*
D03*
X440610D02*
D03*
X447270D02*
D03*
X453930D02*
D03*
X460590D02*
D03*
X467250D02*
D03*
X473910D02*
D03*
X480570D02*
D03*
X430620Y838900D02*
D03*
X437280D02*
D03*
X443940D02*
D03*
X450600D02*
D03*
X457260D02*
D03*
X463920D02*
D03*
X470580D02*
D03*
X477240D02*
D03*
X483900D02*
D03*
X473910Y842230D02*
D03*
X480570D02*
D03*
X467250D02*
D03*
X460590D02*
D03*
X453930D02*
D03*
X447270D02*
D03*
X440610D02*
D03*
X433950D02*
D03*
X427290D02*
D03*
X503880Y845560D02*
D03*
X497220D02*
D03*
X490560D02*
D03*
X483900D02*
D03*
X477240D02*
D03*
X470580D02*
D03*
X463920D02*
D03*
X457260D02*
D03*
X450600D02*
D03*
X443940D02*
D03*
X437280D02*
D03*
X430620D02*
D03*
X423960D02*
D03*
X403980Y838900D02*
D03*
X407310Y835570D02*
D03*
X403980Y845560D02*
D03*
X407310Y842230D02*
D03*
X410640Y838900D02*
D03*
X413970Y835570D02*
D03*
X420630Y842230D02*
D03*
X423960Y838900D02*
D03*
X417300D02*
D03*
X420630Y835570D02*
D03*
X413970Y842230D02*
D03*
X410640Y845560D02*
D03*
X407310Y848890D02*
D03*
X400650Y855550D02*
D03*
X403980Y852220D02*
D03*
X397320Y858880D02*
D03*
X417300Y845560D02*
D03*
X413970Y848890D02*
D03*
X410640Y852220D02*
D03*
X403980Y858880D02*
D03*
X407310Y855550D02*
D03*
X400650Y862210D02*
D03*
X410640Y858880D02*
D03*
X407310Y862210D02*
D03*
X400650Y868870D02*
D03*
X403980Y865540D02*
D03*
X397320Y872200D02*
D03*
X410640Y865540D02*
D03*
X407310Y868870D02*
D03*
X400650Y875530D02*
D03*
X403980Y872200D02*
D03*
X410640Y872200D02*
D03*
X407310Y875530D02*
D03*
X400650Y882190D02*
D03*
X403980Y878860D02*
D03*
X397320Y885520D02*
D03*
X413970Y875530D02*
D03*
X410640Y878860D02*
D03*
X407310Y882190D02*
D03*
X400650Y888850D02*
D03*
X403980Y885520D02*
D03*
X413970Y882190D02*
D03*
X410640Y885520D02*
D03*
X407310Y888850D02*
D03*
X400650Y895510D02*
D03*
X403980Y892180D02*
D03*
X397320Y898840D02*
D03*
X413970Y888850D02*
D03*
X410640Y892180D02*
D03*
X407310Y895510D02*
D03*
X400650Y902170D02*
D03*
X403980Y898840D02*
D03*
X413970Y895510D02*
D03*
X410640Y898840D02*
D03*
X407310Y902170D02*
D03*
X400650Y908830D02*
D03*
X403980Y905500D02*
D03*
X397320Y912160D02*
D03*
X413970Y902170D02*
D03*
X410640Y905500D02*
D03*
X407310Y908830D02*
D03*
X400650Y915490D02*
D03*
X403980Y912160D02*
D03*
X413970Y908830D02*
D03*
X410640Y912160D02*
D03*
X407310Y915490D02*
D03*
X400650Y922150D02*
D03*
X403980Y918820D02*
D03*
X397320Y925480D02*
D03*
X413970Y915490D02*
D03*
X410640Y918820D02*
D03*
X407310Y922150D02*
D03*
X400650Y928810D02*
D03*
X403980Y925480D02*
D03*
X397320Y932140D02*
D03*
X413970Y922150D02*
D03*
X410640Y925480D02*
D03*
X407310Y928810D02*
D03*
X420630Y922150D02*
D03*
X417300Y925480D02*
D03*
X413970Y928810D02*
D03*
X407310Y935470D02*
D03*
X410640Y932140D02*
D03*
X403980Y938800D02*
D03*
X410640D02*
D03*
X417300Y932140D02*
D03*
X413970Y935470D02*
D03*
X420630Y928810D02*
D03*
X423960Y925480D02*
D03*
X427290Y922150D02*
D03*
X423960Y932140D02*
D03*
X420630Y935470D02*
D03*
X423960Y938800D02*
D03*
X427290Y935470D02*
D03*
X443940Y932140D02*
D03*
X430620D02*
D03*
X433950Y935470D02*
D03*
Y928810D02*
D03*
X437280Y932140D02*
D03*
X440610Y928810D02*
D03*
X437280Y925480D02*
D03*
X453930Y935470D02*
D03*
X450600Y932140D02*
D03*
X447270Y928810D02*
D03*
X443940Y925480D02*
D03*
X440610Y922150D02*
D03*
X447270D02*
D03*
X500550Y935470D02*
D03*
X493890Y835570D02*
D03*
X490560Y838900D02*
D03*
X497220Y832240D02*
D03*
X503880D02*
D03*
X493890Y842230D02*
D03*
X500550Y835570D02*
D03*
X497220Y838900D02*
D03*
X503880D02*
D03*
X507210Y835570D02*
D03*
X493890Y848890D02*
D03*
X490560Y852220D02*
D03*
X500550Y842230D02*
D03*
X493890Y855550D02*
D03*
X490560Y858880D02*
D03*
X500550Y848890D02*
D03*
X503880Y852220D02*
D03*
X507210Y848890D02*
D03*
X493890Y862210D02*
D03*
X490560Y865540D02*
D03*
X500550Y855550D02*
D03*
X497220Y858880D02*
D03*
X503880D02*
D03*
X507210Y855550D02*
D03*
X500550Y862210D02*
D03*
X497220Y865540D02*
D03*
X503880D02*
D03*
X493890Y875530D02*
D03*
X490560Y878860D02*
D03*
X500550Y868870D02*
D03*
X497220Y872200D02*
D03*
X503880D02*
D03*
X507210Y868870D02*
D03*
X493890Y882190D02*
D03*
X490560Y885520D02*
D03*
X500550Y875530D02*
D03*
X497220Y878860D02*
D03*
Y885520D02*
D03*
X500550Y882190D02*
D03*
X490560Y892180D02*
D03*
X497220D02*
D03*
X500550Y888850D02*
D03*
X490560Y898840D02*
D03*
X493890Y895510D02*
D03*
X507210Y882190D02*
D03*
X503880Y885520D02*
D03*
X493890Y902170D02*
D03*
X497220Y898840D02*
D03*
X490560Y905500D02*
D03*
X503880Y892180D02*
D03*
X500550Y895510D02*
D03*
X503880Y898840D02*
D03*
X507210Y895510D02*
D03*
X460590Y922150D02*
D03*
X463920Y925480D02*
D03*
X467250Y922150D02*
D03*
X473910D02*
D03*
X467250Y928810D02*
D03*
X470580Y925480D02*
D03*
X473910Y928810D02*
D03*
X470580Y932140D02*
D03*
X480570Y922150D02*
D03*
X477240Y925480D02*
D03*
X493890Y908830D02*
D03*
X490560Y912160D02*
D03*
X500550Y902170D02*
D03*
X497220Y905500D02*
D03*
X503880Y912160D02*
D03*
X507210Y908830D02*
D03*
X500550D02*
D03*
X503880Y905500D02*
D03*
X480570Y935470D02*
D03*
X477240Y938800D02*
D03*
Y932140D02*
D03*
X473910Y935470D02*
D03*
X493890Y915490D02*
D03*
X497220Y912160D02*
D03*
X487230Y922150D02*
D03*
X480570Y928810D02*
D03*
X483900Y925480D02*
D03*
X500550Y915490D02*
D03*
X497220Y918820D02*
D03*
X490560Y925480D02*
D03*
X493890Y922150D02*
D03*
X483900Y932140D02*
D03*
X487230Y928810D02*
D03*
X490560Y932140D02*
D03*
X487230Y935470D02*
D03*
X497220Y925480D02*
D03*
X493890Y928810D02*
D03*
X500550Y922150D02*
D03*
X503880Y918820D02*
D03*
X507210Y922150D02*
D03*
X503880Y925480D02*
D03*
X500550Y928810D02*
D03*
X497220Y932140D02*
D03*
X493890Y935470D02*
D03*
X490560Y938800D02*
D03*
X440610Y1192610D02*
D03*
X453930D02*
D03*
X467250D02*
D03*
X480570D02*
D03*
X487230D02*
D03*
X477240Y1195940D02*
D03*
X470580D02*
D03*
X463920D02*
D03*
X457260D02*
D03*
X450600D02*
D03*
X443940D02*
D03*
X437280D02*
D03*
X483900D02*
D03*
X493890Y1192610D02*
D03*
X487230Y1199270D02*
D03*
X427290D02*
D03*
X433950D02*
D03*
X440610D02*
D03*
X447270D02*
D03*
X453930D02*
D03*
X460590D02*
D03*
X467250D02*
D03*
X473910D02*
D03*
X480570D02*
D03*
X430620Y1202600D02*
D03*
X437280D02*
D03*
X443940D02*
D03*
X450600D02*
D03*
X457260D02*
D03*
X463920D02*
D03*
X470580D02*
D03*
X477240D02*
D03*
X483900D02*
D03*
X473910Y1205930D02*
D03*
X480570D02*
D03*
X467250D02*
D03*
X460590D02*
D03*
X453930D02*
D03*
X447270D02*
D03*
X440610D02*
D03*
X433950D02*
D03*
X427290D02*
D03*
X503880Y1209260D02*
D03*
X497220D02*
D03*
X490560D02*
D03*
X483900D02*
D03*
X477240D02*
D03*
X470580D02*
D03*
X463920D02*
D03*
X457260D02*
D03*
X450600D02*
D03*
X443940D02*
D03*
X437280D02*
D03*
X430620D02*
D03*
X423960D02*
D03*
X403980Y1202600D02*
D03*
X407310Y1199270D02*
D03*
X403980Y1209260D02*
D03*
X407310Y1205930D02*
D03*
X410640Y1202600D02*
D03*
X413970Y1199270D02*
D03*
X420630Y1205930D02*
D03*
X423960Y1202600D02*
D03*
X417300D02*
D03*
X420630Y1199270D02*
D03*
X413970Y1205930D02*
D03*
X410640Y1209260D02*
D03*
X407310Y1212590D02*
D03*
X400650Y1219250D02*
D03*
X403980Y1215920D02*
D03*
X397320Y1222580D02*
D03*
X417300Y1209260D02*
D03*
X413970Y1212590D02*
D03*
X410640Y1215920D02*
D03*
X403980Y1222580D02*
D03*
X407310Y1219250D02*
D03*
X400650Y1225910D02*
D03*
X410640Y1222580D02*
D03*
X407310Y1225910D02*
D03*
X400650Y1232570D02*
D03*
X403980Y1229240D02*
D03*
X397320Y1235900D02*
D03*
X410640Y1229240D02*
D03*
X407310Y1232570D02*
D03*
X400650Y1239230D02*
D03*
X403980Y1235900D02*
D03*
X410640Y1235900D02*
D03*
X407310Y1239230D02*
D03*
X400650Y1245890D02*
D03*
X403980Y1242560D02*
D03*
X397320Y1249220D02*
D03*
X413970Y1239230D02*
D03*
X410640Y1242560D02*
D03*
X407310Y1245890D02*
D03*
X400650Y1252550D02*
D03*
X403980Y1249220D02*
D03*
X413970Y1245890D02*
D03*
X410640Y1249220D02*
D03*
X407310Y1252550D02*
D03*
X400650Y1259210D02*
D03*
X403980Y1255880D02*
D03*
X397320Y1262540D02*
D03*
X413970Y1252550D02*
D03*
X410640Y1255880D02*
D03*
X407310Y1259210D02*
D03*
X400650Y1265870D02*
D03*
X403980Y1262540D02*
D03*
X413970Y1259210D02*
D03*
X410640Y1262540D02*
D03*
X407310Y1265870D02*
D03*
X400650Y1272530D02*
D03*
X403980Y1269200D02*
D03*
X397320Y1275860D02*
D03*
X413970Y1265870D02*
D03*
X410640Y1269200D02*
D03*
X407310Y1272530D02*
D03*
X400650Y1279190D02*
D03*
X403980Y1275860D02*
D03*
X413970Y1272530D02*
D03*
X410640Y1275860D02*
D03*
X407310Y1279190D02*
D03*
X400650Y1285850D02*
D03*
X403980Y1282520D02*
D03*
X397320Y1289180D02*
D03*
X413970Y1279190D02*
D03*
X410640Y1282520D02*
D03*
X407310Y1285850D02*
D03*
X400650Y1292510D02*
D03*
X403980Y1289180D02*
D03*
X397320Y1295840D02*
D03*
X413970Y1285850D02*
D03*
X410640Y1289180D02*
D03*
X407310Y1292510D02*
D03*
X420630Y1285850D02*
D03*
X417300Y1289180D02*
D03*
X413970Y1292510D02*
D03*
X407310Y1299170D02*
D03*
X410640Y1295840D02*
D03*
X403980Y1302500D02*
D03*
X410640D02*
D03*
X417300Y1295840D02*
D03*
X413970Y1299170D02*
D03*
X420630Y1292510D02*
D03*
X423960Y1289180D02*
D03*
X427290Y1285850D02*
D03*
X423960Y1295840D02*
D03*
X420630Y1299170D02*
D03*
X423960Y1302500D02*
D03*
X427290Y1299170D02*
D03*
X443940Y1295840D02*
D03*
X430620D02*
D03*
X433950Y1299170D02*
D03*
Y1292510D02*
D03*
X437280Y1295840D02*
D03*
X440610Y1292510D02*
D03*
X437280Y1289180D02*
D03*
X453930Y1299170D02*
D03*
X450600Y1295840D02*
D03*
X447270Y1292510D02*
D03*
X443940Y1289180D02*
D03*
X440610Y1285850D02*
D03*
X447270D02*
D03*
X500550Y1299170D02*
D03*
X493890Y1199270D02*
D03*
X490560Y1202600D02*
D03*
X497220Y1195940D02*
D03*
X503880D02*
D03*
X493890Y1205930D02*
D03*
X500550Y1199270D02*
D03*
X497220Y1202600D02*
D03*
X503880D02*
D03*
X507210Y1199270D02*
D03*
X493890Y1212590D02*
D03*
X490560Y1215920D02*
D03*
X500550Y1205930D02*
D03*
X493890Y1219250D02*
D03*
X490560Y1222580D02*
D03*
X500550Y1212590D02*
D03*
X503880Y1215920D02*
D03*
X507210Y1212590D02*
D03*
X493890Y1225910D02*
D03*
X490560Y1229240D02*
D03*
X500550Y1219250D02*
D03*
X497220Y1222580D02*
D03*
X503880D02*
D03*
X507210Y1219250D02*
D03*
X500550Y1225910D02*
D03*
X497220Y1229240D02*
D03*
X503880D02*
D03*
X493890Y1239230D02*
D03*
X490560Y1242560D02*
D03*
X500550Y1232570D02*
D03*
X497220Y1235900D02*
D03*
X503880D02*
D03*
X507210Y1232570D02*
D03*
X493890Y1245890D02*
D03*
X490560Y1249220D02*
D03*
X500550Y1239230D02*
D03*
X497220Y1242560D02*
D03*
Y1249220D02*
D03*
X500550Y1245890D02*
D03*
X490560Y1255880D02*
D03*
X497220D02*
D03*
X500550Y1252550D02*
D03*
X490560Y1262540D02*
D03*
X493890Y1259210D02*
D03*
X507210Y1245890D02*
D03*
X503880Y1249220D02*
D03*
X493890Y1265870D02*
D03*
X497220Y1262540D02*
D03*
X490560Y1269200D02*
D03*
X503880Y1255880D02*
D03*
X500550Y1259210D02*
D03*
X503880Y1262540D02*
D03*
X507210Y1259210D02*
D03*
X460590Y1285850D02*
D03*
X463920Y1289180D02*
D03*
X467250Y1285850D02*
D03*
X473910D02*
D03*
X467250Y1292510D02*
D03*
X470580Y1289180D02*
D03*
X473910Y1292510D02*
D03*
X470580Y1295840D02*
D03*
X480570Y1285850D02*
D03*
X477240Y1289180D02*
D03*
X493890Y1272530D02*
D03*
X490560Y1275860D02*
D03*
X500550Y1265870D02*
D03*
X497220Y1269200D02*
D03*
X503880Y1275860D02*
D03*
X507210Y1272530D02*
D03*
X500550D02*
D03*
X503880Y1269200D02*
D03*
X480570Y1299170D02*
D03*
X477240Y1302500D02*
D03*
Y1295840D02*
D03*
X473910Y1299170D02*
D03*
X493890Y1279190D02*
D03*
X497220Y1275860D02*
D03*
X487230Y1285850D02*
D03*
X480570Y1292510D02*
D03*
X483900Y1289180D02*
D03*
X500550Y1279190D02*
D03*
X497220Y1282520D02*
D03*
X490560Y1289180D02*
D03*
X493890Y1285850D02*
D03*
X483900Y1295840D02*
D03*
X487230Y1292510D02*
D03*
X490560Y1295840D02*
D03*
X487230Y1299170D02*
D03*
X497220Y1289180D02*
D03*
X493890Y1292510D02*
D03*
X500550Y1285850D02*
D03*
X503880Y1282520D02*
D03*
X507210Y1285850D02*
D03*
X503880Y1289180D02*
D03*
X500550Y1292510D02*
D03*
X497220Y1295840D02*
D03*
X493890Y1299170D02*
D03*
X490560Y1302500D02*
D03*
D20*
X452160Y156160D02*
D03*
Y519860D02*
D03*
Y883560D02*
D03*
Y1247260D02*
D03*
D21*
X118000Y95000D02*
D03*
X128000D02*
D03*
X94750Y37750D02*
D03*
X104750D02*
D03*
X207500Y209250D02*
D03*
X197500D02*
D03*
X300500Y95500D02*
D03*
X310500D02*
D03*
X226000Y239500D02*
D03*
X236000D02*
D03*
X194500Y266750D02*
D03*
X204500D02*
D03*
X549926Y98771D02*
D03*
X539927D02*
D03*
X559927Y98771D02*
D03*
X569926D02*
D03*
X321250Y39250D02*
D03*
X311250D02*
D03*
X321275Y50205D02*
D03*
X311275D02*
D03*
X321250Y61250D02*
D03*
X311250D02*
D03*
X118000Y458700D02*
D03*
X128000D02*
D03*
X94750Y401450D02*
D03*
X104750D02*
D03*
X207500Y572950D02*
D03*
X197500D02*
D03*
X300500Y459200D02*
D03*
X310500D02*
D03*
X226000Y603200D02*
D03*
X236000D02*
D03*
X194500Y630450D02*
D03*
X204500D02*
D03*
X549926Y462471D02*
D03*
X539927D02*
D03*
X559927Y462471D02*
D03*
X569926D02*
D03*
X321250Y402950D02*
D03*
X311250D02*
D03*
X321275Y413905D02*
D03*
X311275D02*
D03*
X321250Y424950D02*
D03*
X311250D02*
D03*
X118000Y822400D02*
D03*
X128000D02*
D03*
X94750Y765150D02*
D03*
X104750D02*
D03*
X207500Y936650D02*
D03*
X197500D02*
D03*
X300500Y822900D02*
D03*
X310500D02*
D03*
X226000Y966900D02*
D03*
X236000D02*
D03*
X194500Y994150D02*
D03*
X204500D02*
D03*
X549926Y826171D02*
D03*
X539927D02*
D03*
X559927Y826171D02*
D03*
X569926D02*
D03*
X321250Y766650D02*
D03*
X311250D02*
D03*
X321275Y777605D02*
D03*
X311275D02*
D03*
X321250Y788650D02*
D03*
X311250D02*
D03*
X118000Y1186100D02*
D03*
X128000D02*
D03*
X94750Y1128850D02*
D03*
X104750D02*
D03*
X207500Y1300350D02*
D03*
X197500D02*
D03*
X300500Y1186600D02*
D03*
X310500D02*
D03*
X226000Y1330600D02*
D03*
X236000D02*
D03*
X194500Y1357850D02*
D03*
X204500D02*
D03*
X549926Y1189871D02*
D03*
X539927D02*
D03*
X559927Y1189871D02*
D03*
X569926D02*
D03*
X321250Y1130350D02*
D03*
X311250D02*
D03*
X321275Y1141305D02*
D03*
X311275D02*
D03*
X321250Y1152350D02*
D03*
X311250D02*
D03*
D22*
X83000Y36500D02*
D03*
Y53500D02*
D03*
Y400200D02*
D03*
Y417200D02*
D03*
Y763900D02*
D03*
Y780900D02*
D03*
Y1127600D02*
D03*
Y1144600D02*
D03*
D23*
X127500Y43250D02*
D03*
X137500D02*
D03*
X161750Y245750D02*
D03*
X171750D02*
D03*
X161750Y255750D02*
D03*
X171750D02*
D03*
X161250Y228750D02*
D03*
X171250D02*
D03*
X451750Y266750D02*
D03*
X441750D02*
D03*
X451750Y256750D02*
D03*
X441750D02*
D03*
X183500Y266000D02*
D03*
X173500D02*
D03*
X198000Y226250D02*
D03*
X188000D02*
D03*
X213250Y257250D02*
D03*
X203250D02*
D03*
X215000Y244350D02*
D03*
X205000D02*
D03*
X198000Y235250D02*
D03*
X188000D02*
D03*
X172250Y276000D02*
D03*
X162250D02*
D03*
X550000Y140350D02*
D03*
X560000D02*
D03*
X505352Y60150D02*
D03*
X515352D02*
D03*
X517750Y235500D02*
D03*
X527750D02*
D03*
X517750Y225500D02*
D03*
X527750D02*
D03*
X515352Y50150D02*
D03*
X505353D02*
D03*
X560000Y109350D02*
D03*
X550000D02*
D03*
X202750Y279750D02*
D03*
X212750D02*
D03*
X555250Y270500D02*
D03*
X565250Y270500D02*
D03*
X627500Y272750D02*
D03*
X617500D02*
D03*
X616000Y92000D02*
D03*
X626000D02*
D03*
X127500Y406950D02*
D03*
X137500D02*
D03*
X161750Y609450D02*
D03*
X171750D02*
D03*
X161750Y619450D02*
D03*
X171750D02*
D03*
X161250Y592450D02*
D03*
X171250D02*
D03*
X451750Y630450D02*
D03*
X441750D02*
D03*
X451750Y620450D02*
D03*
X441750D02*
D03*
X183500Y629700D02*
D03*
X173500D02*
D03*
X198000Y589950D02*
D03*
X188000D02*
D03*
X213250Y620950D02*
D03*
X203250D02*
D03*
X215000Y608050D02*
D03*
X205000D02*
D03*
X198000Y598950D02*
D03*
X188000D02*
D03*
X172250Y639700D02*
D03*
X162250D02*
D03*
X550000Y504050D02*
D03*
X560000D02*
D03*
X505352Y423850D02*
D03*
X515352D02*
D03*
X517750Y599200D02*
D03*
X527750D02*
D03*
X517750Y589200D02*
D03*
X527750D02*
D03*
X515352Y413850D02*
D03*
X505353D02*
D03*
X560000Y473050D02*
D03*
X550000D02*
D03*
X202750Y643450D02*
D03*
X212750D02*
D03*
X555250Y634200D02*
D03*
X565250Y634200D02*
D03*
X627500Y636450D02*
D03*
X617500D02*
D03*
X616000Y455700D02*
D03*
X626000D02*
D03*
X127500Y770650D02*
D03*
X137500D02*
D03*
X161750Y973150D02*
D03*
X171750D02*
D03*
X161750Y983150D02*
D03*
X171750D02*
D03*
X161250Y956150D02*
D03*
X171250D02*
D03*
X451750Y994150D02*
D03*
X441750D02*
D03*
X451750Y984150D02*
D03*
X441750D02*
D03*
X183500Y993400D02*
D03*
X173500D02*
D03*
X198000Y953650D02*
D03*
X188000D02*
D03*
X213250Y984650D02*
D03*
X203250D02*
D03*
X215000Y971750D02*
D03*
X205000D02*
D03*
X198000Y962650D02*
D03*
X188000D02*
D03*
X172250Y1003400D02*
D03*
X162250D02*
D03*
X550000Y867750D02*
D03*
X560000D02*
D03*
X505352Y787550D02*
D03*
X515352D02*
D03*
X517750Y962900D02*
D03*
X527750D02*
D03*
X517750Y952900D02*
D03*
X527750D02*
D03*
X515352Y777550D02*
D03*
X505353D02*
D03*
X560000Y836750D02*
D03*
X550000D02*
D03*
X202750Y1007150D02*
D03*
X212750D02*
D03*
X555250Y997900D02*
D03*
X565250Y997900D02*
D03*
X627500Y1000150D02*
D03*
X617500D02*
D03*
X616000Y819400D02*
D03*
X626000D02*
D03*
X127500Y1134350D02*
D03*
X137500D02*
D03*
X161750Y1336850D02*
D03*
X171750D02*
D03*
X161750Y1346850D02*
D03*
X171750D02*
D03*
X161250Y1319850D02*
D03*
X171250D02*
D03*
X451750Y1357850D02*
D03*
X441750D02*
D03*
X451750Y1347850D02*
D03*
X441750D02*
D03*
X183500Y1357100D02*
D03*
X173500D02*
D03*
X198000Y1317350D02*
D03*
X188000D02*
D03*
X213250Y1348350D02*
D03*
X203250D02*
D03*
X215000Y1335450D02*
D03*
X205000D02*
D03*
X198000Y1326350D02*
D03*
X188000D02*
D03*
X172250Y1367100D02*
D03*
X162250D02*
D03*
X550000Y1231450D02*
D03*
X560000D02*
D03*
X505352Y1151250D02*
D03*
X515352D02*
D03*
X517750Y1326600D02*
D03*
X527750D02*
D03*
X517750Y1316600D02*
D03*
X527750D02*
D03*
X515352Y1141250D02*
D03*
X505353D02*
D03*
X560000Y1200450D02*
D03*
X550000D02*
D03*
X202750Y1370850D02*
D03*
X212750D02*
D03*
X555250Y1361600D02*
D03*
X565250Y1361600D02*
D03*
X627500Y1363850D02*
D03*
X617500D02*
D03*
X616000Y1183100D02*
D03*
X626000D02*
D03*
D24*
X306000Y222350D02*
D03*
X267000Y222350D02*
D03*
X306000Y235100D02*
D03*
X267000Y235100D02*
D03*
X306000Y247850D02*
D03*
X267000Y247850D02*
D03*
X306000Y260600D02*
D03*
X267000D02*
D03*
X306000Y273350D02*
D03*
X267000Y273350D02*
D03*
X141750Y221850D02*
D03*
X102751Y221850D02*
D03*
X141750Y234600D02*
D03*
X102751Y234600D02*
D03*
X141750Y247350D02*
D03*
X102751Y247350D02*
D03*
X141750Y260100D02*
D03*
X102751D02*
D03*
X141750Y272850D02*
D03*
X102751Y272850D02*
D03*
X306000Y586050D02*
D03*
X267000Y586050D02*
D03*
X306000Y598800D02*
D03*
X267000Y598800D02*
D03*
X306000Y611550D02*
D03*
X267000Y611550D02*
D03*
X306000Y624300D02*
D03*
X267000D02*
D03*
X306000Y637050D02*
D03*
X267000Y637050D02*
D03*
X141750Y585550D02*
D03*
X102751Y585550D02*
D03*
X141750Y598300D02*
D03*
X102751Y598300D02*
D03*
X141750Y611050D02*
D03*
X102751Y611050D02*
D03*
X141750Y623800D02*
D03*
X102751D02*
D03*
X141750Y636550D02*
D03*
X102751Y636550D02*
D03*
X306000Y949750D02*
D03*
X267000Y949750D02*
D03*
X306000Y962500D02*
D03*
X267000Y962500D02*
D03*
X306000Y975250D02*
D03*
X267000Y975250D02*
D03*
X306000Y988000D02*
D03*
X267000D02*
D03*
X306000Y1000750D02*
D03*
X267000Y1000750D02*
D03*
X141750Y949250D02*
D03*
X102751Y949250D02*
D03*
X141750Y962000D02*
D03*
X102751Y962000D02*
D03*
X141750Y974750D02*
D03*
X102751Y974750D02*
D03*
X141750Y987500D02*
D03*
X102751D02*
D03*
X141750Y1000250D02*
D03*
X102751Y1000250D02*
D03*
X306000Y1313450D02*
D03*
X267000Y1313450D02*
D03*
X306000Y1326200D02*
D03*
X267000Y1326200D02*
D03*
X306000Y1338950D02*
D03*
X267000Y1338950D02*
D03*
X306000Y1351700D02*
D03*
X267000D02*
D03*
X306000Y1364450D02*
D03*
X267000Y1364450D02*
D03*
X141750Y1312950D02*
D03*
X102751Y1312950D02*
D03*
X141750Y1325700D02*
D03*
X102751Y1325700D02*
D03*
X141750Y1338450D02*
D03*
X102751Y1338450D02*
D03*
X141750Y1351200D02*
D03*
X102751D02*
D03*
X141750Y1363950D02*
D03*
X102751Y1363950D02*
D03*
D25*
X316500Y204850D02*
D03*
Y196850D02*
D03*
Y188850D02*
D03*
Y180850D02*
D03*
Y172850D02*
D03*
Y164850D02*
D03*
Y156850D02*
D03*
Y148850D02*
D03*
Y140850D02*
D03*
Y132850D02*
D03*
Y124850D02*
D03*
Y116850D02*
D03*
Y108850D02*
D03*
X308500Y204850D02*
D03*
Y196850D02*
D03*
Y188850D02*
D03*
Y180850D02*
D03*
Y172850D02*
D03*
Y164850D02*
D03*
Y156850D02*
D03*
Y148850D02*
D03*
Y140850D02*
D03*
Y132850D02*
D03*
Y124850D02*
D03*
Y116850D02*
D03*
Y108850D02*
D03*
X300500Y204850D02*
D03*
Y196850D02*
D03*
Y188850D02*
D03*
Y180850D02*
D03*
Y172850D02*
D03*
Y164850D02*
D03*
Y156850D02*
D03*
Y148850D02*
D03*
Y140850D02*
D03*
Y132850D02*
D03*
Y124850D02*
D03*
Y116850D02*
D03*
Y108850D02*
D03*
X292500Y204850D02*
D03*
Y196850D02*
D03*
Y188850D02*
D03*
Y180850D02*
D03*
Y172850D02*
D03*
Y164850D02*
D03*
Y156850D02*
D03*
Y148850D02*
D03*
Y140850D02*
D03*
Y132850D02*
D03*
Y124850D02*
D03*
Y116850D02*
D03*
Y108850D02*
D03*
X284500Y204850D02*
D03*
Y196850D02*
D03*
Y188850D02*
D03*
Y180850D02*
D03*
Y172850D02*
D03*
Y164850D02*
D03*
Y156850D02*
D03*
Y148850D02*
D03*
Y140850D02*
D03*
Y132850D02*
D03*
Y124850D02*
D03*
Y116850D02*
D03*
Y108850D02*
D03*
X276500Y204850D02*
D03*
Y196850D02*
D03*
Y188850D02*
D03*
Y180850D02*
D03*
Y172850D02*
D03*
Y164850D02*
D03*
Y156850D02*
D03*
Y148850D02*
D03*
Y140850D02*
D03*
Y132850D02*
D03*
Y124850D02*
D03*
Y116850D02*
D03*
X268500Y204850D02*
D03*
Y196850D02*
D03*
Y188850D02*
D03*
Y180850D02*
D03*
Y172850D02*
D03*
Y164850D02*
D03*
Y156850D02*
D03*
Y148850D02*
D03*
Y140850D02*
D03*
Y132850D02*
D03*
Y124850D02*
D03*
Y116850D02*
D03*
X260500Y204850D02*
D03*
Y196850D02*
D03*
Y188850D02*
D03*
Y180850D02*
D03*
Y172850D02*
D03*
Y164850D02*
D03*
Y156850D02*
D03*
Y148850D02*
D03*
Y140850D02*
D03*
Y132850D02*
D03*
Y124850D02*
D03*
Y116850D02*
D03*
Y108850D02*
D03*
X252500Y204850D02*
D03*
Y196850D02*
D03*
Y188850D02*
D03*
Y180850D02*
D03*
Y172850D02*
D03*
Y164850D02*
D03*
Y156850D02*
D03*
Y148850D02*
D03*
Y140850D02*
D03*
Y132850D02*
D03*
Y124850D02*
D03*
Y116850D02*
D03*
Y108850D02*
D03*
X244500Y204850D02*
D03*
Y196850D02*
D03*
Y188850D02*
D03*
Y180850D02*
D03*
Y172850D02*
D03*
Y164850D02*
D03*
Y156850D02*
D03*
Y148850D02*
D03*
Y140850D02*
D03*
Y132850D02*
D03*
Y124850D02*
D03*
Y116850D02*
D03*
Y108850D02*
D03*
X236500Y204850D02*
D03*
Y196850D02*
D03*
Y188850D02*
D03*
Y180850D02*
D03*
Y172850D02*
D03*
Y164850D02*
D03*
Y156850D02*
D03*
Y148850D02*
D03*
Y140850D02*
D03*
Y132850D02*
D03*
Y124850D02*
D03*
Y116850D02*
D03*
Y108850D02*
D03*
X228500Y204850D02*
D03*
Y196850D02*
D03*
Y188850D02*
D03*
Y180850D02*
D03*
Y172850D02*
D03*
Y164850D02*
D03*
Y156850D02*
D03*
Y148850D02*
D03*
Y140850D02*
D03*
Y132850D02*
D03*
Y124850D02*
D03*
X220500Y204850D02*
D03*
Y196850D02*
D03*
Y188850D02*
D03*
Y180850D02*
D03*
Y172850D02*
D03*
Y164850D02*
D03*
Y156850D02*
D03*
Y148850D02*
D03*
Y140850D02*
D03*
Y132850D02*
D03*
Y124850D02*
D03*
Y116850D02*
D03*
X316500Y568550D02*
D03*
Y560550D02*
D03*
Y552550D02*
D03*
Y544550D02*
D03*
Y536550D02*
D03*
Y528550D02*
D03*
Y520550D02*
D03*
Y512550D02*
D03*
Y504550D02*
D03*
Y496550D02*
D03*
Y488550D02*
D03*
Y480550D02*
D03*
Y472550D02*
D03*
X308500Y568550D02*
D03*
Y560550D02*
D03*
Y552550D02*
D03*
Y544550D02*
D03*
Y536550D02*
D03*
Y528550D02*
D03*
Y520550D02*
D03*
Y512550D02*
D03*
Y504550D02*
D03*
Y496550D02*
D03*
Y488550D02*
D03*
Y480550D02*
D03*
Y472550D02*
D03*
X300500Y568550D02*
D03*
Y560550D02*
D03*
Y552550D02*
D03*
Y544550D02*
D03*
Y536550D02*
D03*
Y528550D02*
D03*
Y520550D02*
D03*
Y512550D02*
D03*
Y504550D02*
D03*
Y496550D02*
D03*
Y488550D02*
D03*
Y480550D02*
D03*
Y472550D02*
D03*
X292500Y568550D02*
D03*
Y560550D02*
D03*
Y552550D02*
D03*
Y544550D02*
D03*
Y536550D02*
D03*
Y528550D02*
D03*
Y520550D02*
D03*
Y512550D02*
D03*
Y504550D02*
D03*
Y496550D02*
D03*
Y488550D02*
D03*
Y480550D02*
D03*
Y472550D02*
D03*
X284500Y568550D02*
D03*
Y560550D02*
D03*
Y552550D02*
D03*
Y544550D02*
D03*
Y536550D02*
D03*
Y528550D02*
D03*
Y520550D02*
D03*
Y512550D02*
D03*
Y504550D02*
D03*
Y496550D02*
D03*
Y488550D02*
D03*
Y480550D02*
D03*
Y472550D02*
D03*
X276500Y568550D02*
D03*
Y560550D02*
D03*
Y552550D02*
D03*
Y544550D02*
D03*
Y536550D02*
D03*
Y528550D02*
D03*
Y520550D02*
D03*
Y512550D02*
D03*
Y504550D02*
D03*
Y496550D02*
D03*
Y488550D02*
D03*
Y480550D02*
D03*
X268500Y568550D02*
D03*
Y560550D02*
D03*
Y552550D02*
D03*
Y544550D02*
D03*
Y536550D02*
D03*
Y528550D02*
D03*
Y520550D02*
D03*
Y512550D02*
D03*
Y504550D02*
D03*
Y496550D02*
D03*
Y488550D02*
D03*
Y480550D02*
D03*
X260500Y568550D02*
D03*
Y560550D02*
D03*
Y552550D02*
D03*
Y544550D02*
D03*
Y536550D02*
D03*
Y528550D02*
D03*
Y520550D02*
D03*
Y512550D02*
D03*
Y504550D02*
D03*
Y496550D02*
D03*
Y488550D02*
D03*
Y480550D02*
D03*
Y472550D02*
D03*
X252500Y568550D02*
D03*
Y560550D02*
D03*
Y552550D02*
D03*
Y544550D02*
D03*
Y536550D02*
D03*
Y528550D02*
D03*
Y520550D02*
D03*
Y512550D02*
D03*
Y504550D02*
D03*
Y496550D02*
D03*
Y488550D02*
D03*
Y480550D02*
D03*
Y472550D02*
D03*
X244500Y568550D02*
D03*
Y560550D02*
D03*
Y552550D02*
D03*
Y544550D02*
D03*
Y536550D02*
D03*
Y528550D02*
D03*
Y520550D02*
D03*
Y512550D02*
D03*
Y504550D02*
D03*
Y496550D02*
D03*
Y488550D02*
D03*
Y480550D02*
D03*
Y472550D02*
D03*
X236500Y568550D02*
D03*
Y560550D02*
D03*
Y552550D02*
D03*
Y544550D02*
D03*
Y536550D02*
D03*
Y528550D02*
D03*
Y520550D02*
D03*
Y512550D02*
D03*
Y504550D02*
D03*
Y496550D02*
D03*
Y488550D02*
D03*
Y480550D02*
D03*
Y472550D02*
D03*
X228500Y568550D02*
D03*
Y560550D02*
D03*
Y552550D02*
D03*
Y544550D02*
D03*
Y536550D02*
D03*
Y528550D02*
D03*
Y520550D02*
D03*
Y512550D02*
D03*
Y504550D02*
D03*
Y496550D02*
D03*
Y488550D02*
D03*
X220500Y568550D02*
D03*
Y560550D02*
D03*
Y552550D02*
D03*
Y544550D02*
D03*
Y536550D02*
D03*
Y528550D02*
D03*
Y520550D02*
D03*
Y512550D02*
D03*
Y504550D02*
D03*
Y496550D02*
D03*
Y488550D02*
D03*
Y480550D02*
D03*
X316500Y932250D02*
D03*
Y924250D02*
D03*
Y916250D02*
D03*
Y908250D02*
D03*
Y900250D02*
D03*
Y892250D02*
D03*
Y884250D02*
D03*
Y876250D02*
D03*
Y868250D02*
D03*
Y860250D02*
D03*
Y852250D02*
D03*
Y844250D02*
D03*
Y836250D02*
D03*
X308500Y932250D02*
D03*
Y924250D02*
D03*
Y916250D02*
D03*
Y908250D02*
D03*
Y900250D02*
D03*
Y892250D02*
D03*
Y884250D02*
D03*
Y876250D02*
D03*
Y868250D02*
D03*
Y860250D02*
D03*
Y852250D02*
D03*
Y844250D02*
D03*
Y836250D02*
D03*
X300500Y932250D02*
D03*
Y924250D02*
D03*
Y916250D02*
D03*
Y908250D02*
D03*
Y900250D02*
D03*
Y892250D02*
D03*
Y884250D02*
D03*
Y876250D02*
D03*
Y868250D02*
D03*
Y860250D02*
D03*
Y852250D02*
D03*
Y844250D02*
D03*
Y836250D02*
D03*
X292500Y932250D02*
D03*
Y924250D02*
D03*
Y916250D02*
D03*
Y908250D02*
D03*
Y900250D02*
D03*
Y892250D02*
D03*
Y884250D02*
D03*
Y876250D02*
D03*
Y868250D02*
D03*
Y860250D02*
D03*
Y852250D02*
D03*
Y844250D02*
D03*
Y836250D02*
D03*
X284500Y932250D02*
D03*
Y924250D02*
D03*
Y916250D02*
D03*
Y908250D02*
D03*
Y900250D02*
D03*
Y892250D02*
D03*
Y884250D02*
D03*
Y876250D02*
D03*
Y868250D02*
D03*
Y860250D02*
D03*
Y852250D02*
D03*
Y844250D02*
D03*
Y836250D02*
D03*
X276500Y932250D02*
D03*
Y924250D02*
D03*
Y916250D02*
D03*
Y908250D02*
D03*
Y900250D02*
D03*
Y892250D02*
D03*
Y884250D02*
D03*
Y876250D02*
D03*
Y868250D02*
D03*
Y860250D02*
D03*
Y852250D02*
D03*
Y844250D02*
D03*
X268500Y932250D02*
D03*
Y924250D02*
D03*
Y916250D02*
D03*
Y908250D02*
D03*
Y900250D02*
D03*
Y892250D02*
D03*
Y884250D02*
D03*
Y876250D02*
D03*
Y868250D02*
D03*
Y860250D02*
D03*
Y852250D02*
D03*
Y844250D02*
D03*
X260500Y932250D02*
D03*
Y924250D02*
D03*
Y916250D02*
D03*
Y908250D02*
D03*
Y900250D02*
D03*
Y892250D02*
D03*
Y884250D02*
D03*
Y876250D02*
D03*
Y868250D02*
D03*
Y860250D02*
D03*
Y852250D02*
D03*
Y844250D02*
D03*
Y836250D02*
D03*
X252500Y932250D02*
D03*
Y924250D02*
D03*
Y916250D02*
D03*
Y908250D02*
D03*
Y900250D02*
D03*
Y892250D02*
D03*
Y884250D02*
D03*
Y876250D02*
D03*
Y868250D02*
D03*
Y860250D02*
D03*
Y852250D02*
D03*
Y844250D02*
D03*
Y836250D02*
D03*
X244500Y932250D02*
D03*
Y924250D02*
D03*
Y916250D02*
D03*
Y908250D02*
D03*
Y900250D02*
D03*
Y892250D02*
D03*
Y884250D02*
D03*
Y876250D02*
D03*
Y868250D02*
D03*
Y860250D02*
D03*
Y852250D02*
D03*
Y844250D02*
D03*
Y836250D02*
D03*
X236500Y932250D02*
D03*
Y924250D02*
D03*
Y916250D02*
D03*
Y908250D02*
D03*
Y900250D02*
D03*
Y892250D02*
D03*
Y884250D02*
D03*
Y876250D02*
D03*
Y868250D02*
D03*
Y860250D02*
D03*
Y852250D02*
D03*
Y844250D02*
D03*
Y836250D02*
D03*
X228500Y932250D02*
D03*
Y924250D02*
D03*
Y916250D02*
D03*
Y908250D02*
D03*
Y900250D02*
D03*
Y892250D02*
D03*
Y884250D02*
D03*
Y876250D02*
D03*
Y868250D02*
D03*
Y860250D02*
D03*
Y852250D02*
D03*
X220500Y932250D02*
D03*
Y924250D02*
D03*
Y916250D02*
D03*
Y908250D02*
D03*
Y900250D02*
D03*
Y892250D02*
D03*
Y884250D02*
D03*
Y876250D02*
D03*
Y868250D02*
D03*
Y860250D02*
D03*
Y852250D02*
D03*
Y844250D02*
D03*
X316500Y1295950D02*
D03*
Y1287950D02*
D03*
Y1279950D02*
D03*
Y1271950D02*
D03*
Y1263950D02*
D03*
Y1255950D02*
D03*
Y1247950D02*
D03*
Y1239950D02*
D03*
Y1231950D02*
D03*
Y1223950D02*
D03*
Y1215950D02*
D03*
Y1207950D02*
D03*
Y1199950D02*
D03*
X308500Y1295950D02*
D03*
Y1287950D02*
D03*
Y1279950D02*
D03*
Y1271950D02*
D03*
Y1263950D02*
D03*
Y1255950D02*
D03*
Y1247950D02*
D03*
Y1239950D02*
D03*
Y1231950D02*
D03*
Y1223950D02*
D03*
Y1215950D02*
D03*
Y1207950D02*
D03*
Y1199950D02*
D03*
X300500Y1295950D02*
D03*
Y1287950D02*
D03*
Y1279950D02*
D03*
Y1271950D02*
D03*
Y1263950D02*
D03*
Y1255950D02*
D03*
Y1247950D02*
D03*
Y1239950D02*
D03*
Y1231950D02*
D03*
Y1223950D02*
D03*
Y1215950D02*
D03*
Y1207950D02*
D03*
Y1199950D02*
D03*
X292500Y1295950D02*
D03*
Y1287950D02*
D03*
Y1279950D02*
D03*
Y1271950D02*
D03*
Y1263950D02*
D03*
Y1255950D02*
D03*
Y1247950D02*
D03*
Y1239950D02*
D03*
Y1231950D02*
D03*
Y1223950D02*
D03*
Y1215950D02*
D03*
Y1207950D02*
D03*
Y1199950D02*
D03*
X284500Y1295950D02*
D03*
Y1287950D02*
D03*
Y1279950D02*
D03*
Y1271950D02*
D03*
Y1263950D02*
D03*
Y1255950D02*
D03*
Y1247950D02*
D03*
Y1239950D02*
D03*
Y1231950D02*
D03*
Y1223950D02*
D03*
Y1215950D02*
D03*
Y1207950D02*
D03*
Y1199950D02*
D03*
X276500Y1295950D02*
D03*
Y1287950D02*
D03*
Y1279950D02*
D03*
Y1271950D02*
D03*
Y1263950D02*
D03*
Y1255950D02*
D03*
Y1247950D02*
D03*
Y1239950D02*
D03*
Y1231950D02*
D03*
Y1223950D02*
D03*
Y1215950D02*
D03*
Y1207950D02*
D03*
X268500Y1295950D02*
D03*
Y1287950D02*
D03*
Y1279950D02*
D03*
Y1271950D02*
D03*
Y1263950D02*
D03*
Y1255950D02*
D03*
Y1247950D02*
D03*
Y1239950D02*
D03*
Y1231950D02*
D03*
Y1223950D02*
D03*
Y1215950D02*
D03*
Y1207950D02*
D03*
X260500Y1295950D02*
D03*
Y1287950D02*
D03*
Y1279950D02*
D03*
Y1271950D02*
D03*
Y1263950D02*
D03*
Y1255950D02*
D03*
Y1247950D02*
D03*
Y1239950D02*
D03*
Y1231950D02*
D03*
Y1223950D02*
D03*
Y1215950D02*
D03*
Y1207950D02*
D03*
Y1199950D02*
D03*
X252500Y1295950D02*
D03*
Y1287950D02*
D03*
Y1279950D02*
D03*
Y1271950D02*
D03*
Y1263950D02*
D03*
Y1255950D02*
D03*
Y1247950D02*
D03*
Y1239950D02*
D03*
Y1231950D02*
D03*
Y1223950D02*
D03*
Y1215950D02*
D03*
Y1207950D02*
D03*
Y1199950D02*
D03*
X244500Y1295950D02*
D03*
Y1287950D02*
D03*
Y1279950D02*
D03*
Y1271950D02*
D03*
Y1263950D02*
D03*
Y1255950D02*
D03*
Y1247950D02*
D03*
Y1239950D02*
D03*
Y1231950D02*
D03*
Y1223950D02*
D03*
Y1215950D02*
D03*
Y1207950D02*
D03*
Y1199950D02*
D03*
X236500Y1295950D02*
D03*
Y1287950D02*
D03*
Y1279950D02*
D03*
Y1271950D02*
D03*
Y1263950D02*
D03*
Y1255950D02*
D03*
Y1247950D02*
D03*
Y1239950D02*
D03*
Y1231950D02*
D03*
Y1223950D02*
D03*
Y1215950D02*
D03*
Y1207950D02*
D03*
Y1199950D02*
D03*
X228500Y1295950D02*
D03*
Y1287950D02*
D03*
Y1279950D02*
D03*
Y1271950D02*
D03*
Y1263950D02*
D03*
Y1255950D02*
D03*
Y1247950D02*
D03*
Y1239950D02*
D03*
Y1231950D02*
D03*
Y1223950D02*
D03*
Y1215950D02*
D03*
X220500Y1295950D02*
D03*
Y1287950D02*
D03*
Y1279950D02*
D03*
Y1271950D02*
D03*
Y1263950D02*
D03*
Y1255950D02*
D03*
Y1247950D02*
D03*
Y1239950D02*
D03*
Y1231950D02*
D03*
Y1223950D02*
D03*
Y1215950D02*
D03*
Y1207950D02*
D03*
D26*
X276500Y108850D02*
D03*
X268500D02*
D03*
X220500D02*
D03*
X276500Y472550D02*
D03*
X268500D02*
D03*
X220500D02*
D03*
X276500Y836250D02*
D03*
X268500D02*
D03*
X220500D02*
D03*
X276500Y1199950D02*
D03*
X268500D02*
D03*
X220500D02*
D03*
D27*
X228500Y116850D02*
D03*
Y480550D02*
D03*
Y844250D02*
D03*
Y1207950D02*
D03*
D28*
Y108850D02*
D03*
Y472550D02*
D03*
Y836250D02*
D03*
Y1199950D02*
D03*
D29*
X48500Y156850D02*
D03*
X48500Y176850D02*
D03*
X48500Y196850D02*
D03*
Y186850D02*
D03*
Y166850D02*
D03*
Y146850D02*
D03*
Y126850D02*
D03*
Y136850D02*
D03*
Y116850D02*
D03*
Y520550D02*
D03*
X48500Y540550D02*
D03*
X48500Y560550D02*
D03*
Y550550D02*
D03*
Y530550D02*
D03*
Y510550D02*
D03*
Y490550D02*
D03*
Y500550D02*
D03*
Y480550D02*
D03*
Y884250D02*
D03*
X48500Y904250D02*
D03*
X48500Y924250D02*
D03*
Y914250D02*
D03*
Y894250D02*
D03*
Y874250D02*
D03*
Y854250D02*
D03*
Y864250D02*
D03*
Y844250D02*
D03*
Y1247950D02*
D03*
X48500Y1267950D02*
D03*
X48500Y1287950D02*
D03*
Y1277950D02*
D03*
Y1257950D02*
D03*
Y1237950D02*
D03*
Y1217950D02*
D03*
Y1227950D02*
D03*
Y1207950D02*
D03*
D30*
X150250Y156850D02*
D03*
Y520550D02*
D03*
Y884250D02*
D03*
Y1247950D02*
D03*
D31*
X195250Y192850D02*
D03*
Y188850D02*
D03*
Y184850D02*
D03*
Y180850D02*
D03*
Y176850D02*
D03*
Y172850D02*
D03*
Y168850D02*
D03*
Y164850D02*
D03*
Y160850D02*
D03*
Y156850D02*
D03*
Y152850D02*
D03*
Y148850D02*
D03*
Y144850D02*
D03*
Y140850D02*
D03*
Y136850D02*
D03*
Y132850D02*
D03*
Y128850D02*
D03*
Y124850D02*
D03*
Y120850D02*
D03*
X105250D02*
D03*
Y124850D02*
D03*
Y128850D02*
D03*
Y132850D02*
D03*
Y136850D02*
D03*
Y140850D02*
D03*
Y144850D02*
D03*
Y148850D02*
D03*
Y152850D02*
D03*
X105250Y156850D02*
D03*
X105250Y160850D02*
D03*
Y164850D02*
D03*
Y168850D02*
D03*
Y172850D02*
D03*
Y176850D02*
D03*
Y180850D02*
D03*
Y184850D02*
D03*
Y188850D02*
D03*
X105250Y192850D02*
D03*
X195250Y556550D02*
D03*
Y552550D02*
D03*
Y548550D02*
D03*
Y544550D02*
D03*
Y540550D02*
D03*
Y536550D02*
D03*
Y532550D02*
D03*
Y528550D02*
D03*
Y524550D02*
D03*
Y520550D02*
D03*
Y516550D02*
D03*
Y512550D02*
D03*
Y508550D02*
D03*
Y504550D02*
D03*
Y500550D02*
D03*
Y496550D02*
D03*
Y492550D02*
D03*
Y488550D02*
D03*
Y484550D02*
D03*
X105250D02*
D03*
Y488550D02*
D03*
Y492550D02*
D03*
Y496550D02*
D03*
Y500550D02*
D03*
Y504550D02*
D03*
Y508550D02*
D03*
Y512550D02*
D03*
Y516550D02*
D03*
X105250Y520550D02*
D03*
X105250Y524550D02*
D03*
Y528550D02*
D03*
Y532550D02*
D03*
Y536550D02*
D03*
Y540550D02*
D03*
Y544550D02*
D03*
Y548550D02*
D03*
Y552550D02*
D03*
X105250Y556550D02*
D03*
X195250Y920250D02*
D03*
Y916250D02*
D03*
Y912250D02*
D03*
Y908250D02*
D03*
Y904250D02*
D03*
Y900250D02*
D03*
Y896250D02*
D03*
Y892250D02*
D03*
Y888250D02*
D03*
Y884250D02*
D03*
Y880250D02*
D03*
Y876250D02*
D03*
Y872250D02*
D03*
Y868250D02*
D03*
Y864250D02*
D03*
Y860250D02*
D03*
Y856250D02*
D03*
Y852250D02*
D03*
Y848250D02*
D03*
X105250D02*
D03*
Y852250D02*
D03*
Y856250D02*
D03*
Y860250D02*
D03*
Y864250D02*
D03*
Y868250D02*
D03*
Y872250D02*
D03*
Y876250D02*
D03*
Y880250D02*
D03*
X105250Y884250D02*
D03*
X105250Y888250D02*
D03*
Y892250D02*
D03*
Y896250D02*
D03*
Y900250D02*
D03*
Y904250D02*
D03*
Y908250D02*
D03*
Y912250D02*
D03*
Y916250D02*
D03*
X105250Y920250D02*
D03*
X195250Y1283950D02*
D03*
Y1279950D02*
D03*
Y1275950D02*
D03*
Y1271950D02*
D03*
Y1267950D02*
D03*
Y1263950D02*
D03*
Y1259950D02*
D03*
Y1255950D02*
D03*
Y1251950D02*
D03*
Y1247950D02*
D03*
Y1243950D02*
D03*
Y1239950D02*
D03*
Y1235950D02*
D03*
Y1231950D02*
D03*
Y1227950D02*
D03*
Y1223950D02*
D03*
Y1219950D02*
D03*
Y1215950D02*
D03*
Y1211950D02*
D03*
X105250D02*
D03*
Y1215950D02*
D03*
Y1219950D02*
D03*
Y1223950D02*
D03*
Y1227950D02*
D03*
Y1231950D02*
D03*
Y1235950D02*
D03*
Y1239950D02*
D03*
Y1243950D02*
D03*
X105250Y1247950D02*
D03*
X105250Y1251950D02*
D03*
Y1255950D02*
D03*
Y1259950D02*
D03*
Y1263950D02*
D03*
Y1267950D02*
D03*
Y1271950D02*
D03*
Y1275950D02*
D03*
Y1279950D02*
D03*
X105250Y1283950D02*
D03*
D32*
X186250Y111850D02*
D03*
X182250Y111850D02*
D03*
X178250D02*
D03*
X174250D02*
D03*
X170250D02*
D03*
X166250D02*
D03*
X162250D02*
D03*
X158250D02*
D03*
X154250D02*
D03*
X150250Y111850D02*
D03*
X146250Y111850D02*
D03*
X142250D02*
D03*
X138250D02*
D03*
X134250D02*
D03*
X130250D02*
D03*
X126250D02*
D03*
X122250D02*
D03*
X118250D02*
D03*
X114250D02*
D03*
Y201850D02*
D03*
X118250D02*
D03*
X122250D02*
D03*
X126250D02*
D03*
X130250D02*
D03*
X134250D02*
D03*
X138250D02*
D03*
X142250D02*
D03*
X146250D02*
D03*
X150250D02*
D03*
X154250D02*
D03*
X158250D02*
D03*
X162250D02*
D03*
X166250D02*
D03*
X170250D02*
D03*
X174250D02*
D03*
X178250D02*
D03*
X182250D02*
D03*
X186250D02*
D03*
Y475550D02*
D03*
X182250Y475550D02*
D03*
X178250D02*
D03*
X174250D02*
D03*
X170250D02*
D03*
X166250D02*
D03*
X162250D02*
D03*
X158250D02*
D03*
X154250D02*
D03*
X150250Y475550D02*
D03*
X146250Y475550D02*
D03*
X142250D02*
D03*
X138250D02*
D03*
X134250D02*
D03*
X130250D02*
D03*
X126250D02*
D03*
X122250D02*
D03*
X118250D02*
D03*
X114250D02*
D03*
Y565550D02*
D03*
X118250D02*
D03*
X122250D02*
D03*
X126250D02*
D03*
X130250D02*
D03*
X134250D02*
D03*
X138250D02*
D03*
X142250D02*
D03*
X146250D02*
D03*
X150250D02*
D03*
X154250D02*
D03*
X158250D02*
D03*
X162250D02*
D03*
X166250D02*
D03*
X170250D02*
D03*
X174250D02*
D03*
X178250D02*
D03*
X182250D02*
D03*
X186250D02*
D03*
Y839250D02*
D03*
X182250Y839250D02*
D03*
X178250D02*
D03*
X174250D02*
D03*
X170250D02*
D03*
X166250D02*
D03*
X162250D02*
D03*
X158250D02*
D03*
X154250D02*
D03*
X150250Y839250D02*
D03*
X146250Y839250D02*
D03*
X142250D02*
D03*
X138250D02*
D03*
X134250D02*
D03*
X130250D02*
D03*
X126250D02*
D03*
X122250D02*
D03*
X118250D02*
D03*
X114250D02*
D03*
Y929250D02*
D03*
X118250D02*
D03*
X122250D02*
D03*
X126250D02*
D03*
X130250D02*
D03*
X134250D02*
D03*
X138250D02*
D03*
X142250D02*
D03*
X146250D02*
D03*
X150250D02*
D03*
X154250D02*
D03*
X158250D02*
D03*
X162250D02*
D03*
X166250D02*
D03*
X170250D02*
D03*
X174250D02*
D03*
X178250D02*
D03*
X182250D02*
D03*
X186250D02*
D03*
Y1202950D02*
D03*
X182250Y1202950D02*
D03*
X178250D02*
D03*
X174250D02*
D03*
X170250D02*
D03*
X166250D02*
D03*
X162250D02*
D03*
X158250D02*
D03*
X154250D02*
D03*
X150250Y1202950D02*
D03*
X146250Y1202950D02*
D03*
X142250D02*
D03*
X138250D02*
D03*
X134250D02*
D03*
X130250D02*
D03*
X126250D02*
D03*
X122250D02*
D03*
X118250D02*
D03*
X114250D02*
D03*
Y1292950D02*
D03*
X118250D02*
D03*
X122250D02*
D03*
X126250D02*
D03*
X130250D02*
D03*
X134250D02*
D03*
X138250D02*
D03*
X142250D02*
D03*
X146250D02*
D03*
X150250D02*
D03*
X154250D02*
D03*
X158250D02*
D03*
X162250D02*
D03*
X166250D02*
D03*
X170250D02*
D03*
X174250D02*
D03*
X178250D02*
D03*
X182250D02*
D03*
X186250D02*
D03*
D33*
X213250Y264800D02*
D03*
Y270400D02*
D03*
Y628500D02*
D03*
Y634100D02*
D03*
Y992200D02*
D03*
Y997800D02*
D03*
Y1355900D02*
D03*
Y1361500D02*
D03*
D34*
X169391Y48901D02*
D03*
Y59901D02*
D03*
Y81901D02*
D03*
X186391D02*
D03*
Y70901D02*
D03*
Y59901D02*
D03*
Y48901D02*
D03*
Y37901D02*
D03*
X169391D02*
D03*
X153391D02*
D03*
Y48901D02*
D03*
Y59901D02*
D03*
Y70901D02*
D03*
Y81901D02*
D03*
X246500Y82000D02*
D03*
Y71000D02*
D03*
Y60000D02*
D03*
Y49000D02*
D03*
Y38000D02*
D03*
X262500D02*
D03*
X279500D02*
D03*
Y49000D02*
D03*
Y60000D02*
D03*
Y71000D02*
D03*
Y82000D02*
D03*
X262500D02*
D03*
Y60000D02*
D03*
Y49000D02*
D03*
X169391Y412601D02*
D03*
Y423601D02*
D03*
Y445601D02*
D03*
X186391D02*
D03*
Y434601D02*
D03*
Y423601D02*
D03*
Y412601D02*
D03*
Y401601D02*
D03*
X169391D02*
D03*
X153391D02*
D03*
Y412601D02*
D03*
Y423601D02*
D03*
Y434601D02*
D03*
Y445601D02*
D03*
X246500Y445700D02*
D03*
Y434700D02*
D03*
Y423700D02*
D03*
Y412700D02*
D03*
Y401700D02*
D03*
X262500D02*
D03*
X279500D02*
D03*
Y412700D02*
D03*
Y423700D02*
D03*
Y434700D02*
D03*
Y445700D02*
D03*
X262500D02*
D03*
Y423700D02*
D03*
Y412700D02*
D03*
X169391Y776301D02*
D03*
Y787301D02*
D03*
Y809301D02*
D03*
X186391D02*
D03*
Y798301D02*
D03*
Y787301D02*
D03*
Y776301D02*
D03*
Y765301D02*
D03*
X169391D02*
D03*
X153391D02*
D03*
Y776301D02*
D03*
Y787301D02*
D03*
Y798301D02*
D03*
Y809301D02*
D03*
X246500Y809400D02*
D03*
Y798400D02*
D03*
Y787400D02*
D03*
Y776400D02*
D03*
Y765400D02*
D03*
X262500D02*
D03*
X279500D02*
D03*
Y776400D02*
D03*
Y787400D02*
D03*
Y798400D02*
D03*
Y809400D02*
D03*
X262500D02*
D03*
Y787400D02*
D03*
Y776400D02*
D03*
X169391Y1140001D02*
D03*
Y1151001D02*
D03*
Y1173001D02*
D03*
X186391D02*
D03*
Y1162001D02*
D03*
Y1151001D02*
D03*
Y1140001D02*
D03*
Y1129001D02*
D03*
X169391D02*
D03*
X153391D02*
D03*
Y1140001D02*
D03*
Y1151001D02*
D03*
Y1162001D02*
D03*
Y1173001D02*
D03*
X246500Y1173100D02*
D03*
Y1162100D02*
D03*
Y1151100D02*
D03*
Y1140100D02*
D03*
Y1129100D02*
D03*
X262500D02*
D03*
X279500D02*
D03*
Y1140100D02*
D03*
Y1151100D02*
D03*
Y1162100D02*
D03*
Y1173100D02*
D03*
X262500D02*
D03*
Y1151100D02*
D03*
Y1140100D02*
D03*
D35*
X84175Y141050D02*
D03*
Y152650D02*
D03*
Y504750D02*
D03*
Y516350D02*
D03*
Y868450D02*
D03*
Y880050D02*
D03*
Y1232150D02*
D03*
Y1243750D02*
D03*
D36*
X77425Y132850D02*
D03*
Y136850D02*
D03*
Y140850D02*
D03*
Y152850D02*
D03*
Y156850D02*
D03*
Y148850D02*
D03*
Y144850D02*
D03*
Y496550D02*
D03*
Y500550D02*
D03*
Y504550D02*
D03*
Y516550D02*
D03*
Y520550D02*
D03*
Y512550D02*
D03*
Y508550D02*
D03*
Y860250D02*
D03*
Y864250D02*
D03*
Y868250D02*
D03*
Y880250D02*
D03*
Y884250D02*
D03*
Y876250D02*
D03*
Y872250D02*
D03*
Y1223950D02*
D03*
Y1227950D02*
D03*
Y1231950D02*
D03*
Y1243950D02*
D03*
Y1247950D02*
D03*
Y1239950D02*
D03*
Y1235950D02*
D03*
D37*
X77925Y160850D02*
D03*
Y524550D02*
D03*
Y888250D02*
D03*
Y1251950D02*
D03*
D38*
X97300Y150000D02*
D03*
X91700D02*
D03*
X97300Y143700D02*
D03*
X91700D02*
D03*
X215450Y87500D02*
D03*
X221050D02*
D03*
X228050Y221750D02*
D03*
X222450D02*
D03*
X97300Y513700D02*
D03*
X91700D02*
D03*
X97300Y507400D02*
D03*
X91700D02*
D03*
X215450Y451200D02*
D03*
X221050D02*
D03*
X228050Y585450D02*
D03*
X222450D02*
D03*
X97300Y877400D02*
D03*
X91700D02*
D03*
X97300Y871100D02*
D03*
X91700D02*
D03*
X215450Y814900D02*
D03*
X221050D02*
D03*
X228050Y949150D02*
D03*
X222450D02*
D03*
X97300Y1241100D02*
D03*
X91700D02*
D03*
X97300Y1234800D02*
D03*
X91700D02*
D03*
X215450Y1178600D02*
D03*
X221050D02*
D03*
X228050Y1312850D02*
D03*
X222450D02*
D03*
D39*
X557500Y24250D02*
D03*
X392500Y24250D02*
D03*
X557500Y289250D02*
D03*
X392500Y289250D02*
D03*
X114750Y24250D02*
D03*
X279750D02*
D03*
X114750Y289250D02*
D03*
X279750D02*
D03*
X557500Y387950D02*
D03*
X392500Y387950D02*
D03*
X557500Y652950D02*
D03*
X392500Y652950D02*
D03*
X114750Y387950D02*
D03*
X279750D02*
D03*
X114750Y652950D02*
D03*
X279750D02*
D03*
X557500Y751650D02*
D03*
X392500Y751650D02*
D03*
X557500Y1016650D02*
D03*
X392500Y1016650D02*
D03*
X114750Y751650D02*
D03*
X279750D02*
D03*
X114750Y1016650D02*
D03*
X279750D02*
D03*
X557500Y1115350D02*
D03*
X392500Y1115350D02*
D03*
X557500Y1380350D02*
D03*
X392500Y1380350D02*
D03*
X114750Y1115350D02*
D03*
X279750D02*
D03*
X114750Y1380350D02*
D03*
X279750D02*
D03*
D40*
X537500Y24250D02*
D03*
X577500D02*
D03*
X412500Y24250D02*
D03*
X372500D02*
D03*
X537500Y289250D02*
D03*
X577500D02*
D03*
X412500Y289250D02*
D03*
X372500D02*
D03*
X94750Y24250D02*
D03*
X134750D02*
D03*
X299750D02*
D03*
X259750D02*
D03*
X94750Y289250D02*
D03*
X134750D02*
D03*
X299750D02*
D03*
X259750D02*
D03*
X537500Y387950D02*
D03*
X577500D02*
D03*
X412500Y387950D02*
D03*
X372500D02*
D03*
X537500Y652950D02*
D03*
X577500D02*
D03*
X412500Y652950D02*
D03*
X372500D02*
D03*
X94750Y387950D02*
D03*
X134750D02*
D03*
X299750D02*
D03*
X259750D02*
D03*
X94750Y652950D02*
D03*
X134750D02*
D03*
X299750D02*
D03*
X259750D02*
D03*
X537500Y751650D02*
D03*
X577500D02*
D03*
X412500Y751650D02*
D03*
X372500D02*
D03*
X537500Y1016650D02*
D03*
X577500D02*
D03*
X412500Y1016650D02*
D03*
X372500D02*
D03*
X94750Y751650D02*
D03*
X134750D02*
D03*
X299750D02*
D03*
X259750D02*
D03*
X94750Y1016650D02*
D03*
X134750D02*
D03*
X299750D02*
D03*
X259750D02*
D03*
X537500Y1115350D02*
D03*
X577500D02*
D03*
X412500Y1115350D02*
D03*
X372500D02*
D03*
X537500Y1380350D02*
D03*
X577500D02*
D03*
X412500Y1380350D02*
D03*
X372500D02*
D03*
X94750Y1115350D02*
D03*
X134750D02*
D03*
X299750D02*
D03*
X259750D02*
D03*
X94750Y1380350D02*
D03*
X134750D02*
D03*
X299750D02*
D03*
X259750D02*
D03*
D41*
X474121Y40668D02*
D03*
X454121D02*
D03*
X474121Y69667D02*
D03*
X454121D02*
D03*
X474121Y404367D02*
D03*
X454121D02*
D03*
X474121Y433367D02*
D03*
X454121D02*
D03*
X474121Y768068D02*
D03*
X454121D02*
D03*
X474121Y797067D02*
D03*
X454121D02*
D03*
X474121Y1131768D02*
D03*
X454121D02*
D03*
X474121Y1160767D02*
D03*
X454121D02*
D03*
D42*
X662000Y160500D02*
D03*
X648000D02*
D03*
X648000Y153500D02*
D03*
X662000D02*
D03*
X662000Y524200D02*
D03*
X648000D02*
D03*
X648000Y517200D02*
D03*
X662000D02*
D03*
X662000Y887900D02*
D03*
X648000D02*
D03*
X648000Y880900D02*
D03*
X662000D02*
D03*
X662000Y1251600D02*
D03*
X648000D02*
D03*
X648000Y1244600D02*
D03*
X662000D02*
D03*
D43*
X539800Y184500D02*
D03*
X555000D02*
D03*
X570200D02*
D03*
X539800Y154250D02*
D03*
X555000Y154000D02*
D03*
X570200D02*
D03*
X539800Y548200D02*
D03*
X555000D02*
D03*
X570200D02*
D03*
X539800Y517950D02*
D03*
X555000Y517700D02*
D03*
X570200D02*
D03*
X539800Y911900D02*
D03*
X555000D02*
D03*
X570200D02*
D03*
X539800Y881650D02*
D03*
X555000Y881400D02*
D03*
X570200D02*
D03*
X539800Y1275600D02*
D03*
X555000D02*
D03*
X570200D02*
D03*
X539800Y1245350D02*
D03*
X555000Y1245100D02*
D03*
X570200D02*
D03*
D44*
X539502Y39950D02*
D03*
Y55150D02*
D03*
X539752Y70350D02*
D03*
X570002Y39950D02*
D03*
Y55150D02*
D03*
Y70350D02*
D03*
X506900Y276950D02*
D03*
Y261750D02*
D03*
Y246550D02*
D03*
X476650Y276950D02*
D03*
X476400Y261750D02*
D03*
Y246550D02*
D03*
X551650Y215300D02*
D03*
Y230500D02*
D03*
X551900Y245700D02*
D03*
X582150Y215300D02*
D03*
Y230500D02*
D03*
Y245700D02*
D03*
X539502Y403650D02*
D03*
Y418850D02*
D03*
X539752Y434050D02*
D03*
X570002Y403650D02*
D03*
Y418850D02*
D03*
Y434050D02*
D03*
X506900Y640650D02*
D03*
Y625450D02*
D03*
Y610250D02*
D03*
X476650Y640650D02*
D03*
X476400Y625450D02*
D03*
Y610250D02*
D03*
X551650Y579000D02*
D03*
Y594200D02*
D03*
X551900Y609400D02*
D03*
X582150Y579000D02*
D03*
Y594200D02*
D03*
Y609400D02*
D03*
X539502Y767350D02*
D03*
Y782551D02*
D03*
X539752Y797750D02*
D03*
X570002Y767350D02*
D03*
Y782551D02*
D03*
Y797750D02*
D03*
X506900Y1004350D02*
D03*
Y989150D02*
D03*
Y973950D02*
D03*
X476650Y1004350D02*
D03*
X476400Y989150D02*
D03*
Y973950D02*
D03*
X551650Y942700D02*
D03*
Y957900D02*
D03*
X551900Y973100D02*
D03*
X582150Y942700D02*
D03*
Y957900D02*
D03*
Y973100D02*
D03*
X539502Y1131050D02*
D03*
Y1146251D02*
D03*
X539752Y1161451D02*
D03*
X570002Y1131050D02*
D03*
Y1146251D02*
D03*
Y1161451D02*
D03*
X506900Y1368050D02*
D03*
Y1352850D02*
D03*
Y1337650D02*
D03*
X476650Y1368050D02*
D03*
X476400Y1352850D02*
D03*
Y1337650D02*
D03*
X551650Y1306400D02*
D03*
Y1321600D02*
D03*
X551900Y1336800D02*
D03*
X582150Y1306400D02*
D03*
Y1321600D02*
D03*
Y1336800D02*
D03*
D45*
X594750Y95500D02*
D03*
X598500Y253750D02*
D03*
X594750Y459200D02*
D03*
X598500Y617450D02*
D03*
X594750Y822900D02*
D03*
X598500Y981150D02*
D03*
X594750Y1186600D02*
D03*
X598500Y1344850D02*
D03*
D46*
X589750Y102750D02*
D03*
X594750D02*
D03*
X599750D02*
D03*
Y88250D02*
D03*
X594750D02*
D03*
X589750D02*
D03*
X593500Y261000D02*
D03*
X598500D02*
D03*
X603500D02*
D03*
Y246500D02*
D03*
X598500D02*
D03*
X593500D02*
D03*
X589750Y466450D02*
D03*
X594750D02*
D03*
X599750D02*
D03*
Y451950D02*
D03*
X594750D02*
D03*
X589750D02*
D03*
X593500Y624700D02*
D03*
X598500D02*
D03*
X603500D02*
D03*
Y610200D02*
D03*
X598500D02*
D03*
X593500D02*
D03*
X589750Y830150D02*
D03*
X594750D02*
D03*
X599750D02*
D03*
Y815650D02*
D03*
X594750D02*
D03*
X589750D02*
D03*
X593500Y988400D02*
D03*
X598500D02*
D03*
X603500D02*
D03*
Y973900D02*
D03*
X598500D02*
D03*
X593500D02*
D03*
X589750Y1193850D02*
D03*
X594750D02*
D03*
X599750D02*
D03*
Y1179350D02*
D03*
X594750D02*
D03*
X589750D02*
D03*
X593500Y1352100D02*
D03*
X598500D02*
D03*
X603500D02*
D03*
Y1337600D02*
D03*
X598500D02*
D03*
X593500D02*
D03*
D47*
X126250Y67250D02*
D03*
Y430950D02*
D03*
Y794650D02*
D03*
Y1158350D02*
D03*
D48*
X135750Y53250D02*
D03*
X126250D02*
D03*
X116750D02*
D03*
Y81250D02*
D03*
X126250D02*
D03*
X135750D02*
D03*
Y416950D02*
D03*
X126250D02*
D03*
X116750D02*
D03*
Y444950D02*
D03*
X126250D02*
D03*
X135750D02*
D03*
Y780650D02*
D03*
X126250D02*
D03*
X116750D02*
D03*
Y808650D02*
D03*
X126250D02*
D03*
X135750D02*
D03*
Y1144350D02*
D03*
X126250D02*
D03*
X116750D02*
D03*
Y1172350D02*
D03*
X126250D02*
D03*
X135750D02*
D03*
D49*
X639500Y84250D02*
D03*
Y66250D02*
D03*
Y247250D02*
D03*
Y229250D02*
D03*
Y447950D02*
D03*
Y429950D02*
D03*
Y610950D02*
D03*
Y592950D02*
D03*
Y811650D02*
D03*
Y793650D02*
D03*
Y974650D02*
D03*
Y956650D02*
D03*
Y1175350D02*
D03*
Y1157350D02*
D03*
Y1338350D02*
D03*
Y1320350D02*
D03*
D64*
X24500Y179850D02*
D03*
Y134850D02*
D03*
Y543550D02*
D03*
Y498550D02*
D03*
Y907250D02*
D03*
Y862250D02*
D03*
Y1270950D02*
D03*
Y1225950D02*
D03*
D65*
Y214850D02*
D03*
Y98850D02*
D03*
Y578550D02*
D03*
Y462550D02*
D03*
Y942250D02*
D03*
Y826250D02*
D03*
Y1305950D02*
D03*
Y1189950D02*
D03*
D66*
X565000Y-2000D02*
D03*
X265000D02*
D03*
Y315700D02*
D03*
X565000D02*
D03*
Y361700D02*
D03*
X265000D02*
D03*
Y679400D02*
D03*
X565000D02*
D03*
Y725400D02*
D03*
X265000D02*
D03*
Y1043100D02*
D03*
X565000D02*
D03*
Y1089100D02*
D03*
X265000D02*
D03*
Y1406800D02*
D03*
X565000D02*
D03*
D67*
X20000Y30000D02*
D03*
Y283700D02*
D03*
Y393700D02*
D03*
Y647400D02*
D03*
Y757400D02*
D03*
Y1011100D02*
D03*
Y1121100D02*
D03*
Y1374800D02*
D03*
D68*
X233536Y305750D02*
D03*
X208107D02*
D03*
X106393D02*
D03*
X131821D02*
D03*
X157250D02*
D03*
X182679D02*
D03*
X106821Y7950D02*
D03*
X132250D02*
D03*
X157679D02*
D03*
X183107D02*
D03*
X233536Y669450D02*
D03*
X208107D02*
D03*
X106393D02*
D03*
X131821D02*
D03*
X157250D02*
D03*
X182679D02*
D03*
X106821Y371650D02*
D03*
X132250D02*
D03*
X157679D02*
D03*
X183107D02*
D03*
X233536Y1033150D02*
D03*
X208107D02*
D03*
X106393D02*
D03*
X131821D02*
D03*
X157250D02*
D03*
X182679D02*
D03*
X106821Y735350D02*
D03*
X132250D02*
D03*
X157679D02*
D03*
X183107D02*
D03*
X233536Y1396850D02*
D03*
X208107D02*
D03*
X106393D02*
D03*
X131821D02*
D03*
X157250D02*
D03*
X182679D02*
D03*
X106821Y1099050D02*
D03*
X132250D02*
D03*
X157679D02*
D03*
X183107D02*
D03*
D69*
X80964Y305750D02*
D03*
X81393Y7950D02*
D03*
X80964Y669450D02*
D03*
X81393Y371650D02*
D03*
X80964Y1033150D02*
D03*
X81393Y735350D02*
D03*
X80964Y1396850D02*
D03*
X81393Y1099050D02*
D03*
D70*
X49250Y37700D02*
D03*
Y401400D02*
D03*
Y765100D02*
D03*
Y1128800D02*
D03*
D71*
Y12300D02*
D03*
Y376000D02*
D03*
Y739700D02*
D03*
Y1103400D02*
D03*
D72*
X26250Y0D02*
D03*
X37000D02*
D03*
X653000Y0D02*
D03*
X663750D02*
D03*
X653000Y313700D02*
D03*
X663750D02*
D03*
X37000Y313700D02*
D03*
X26250D02*
D03*
X26250Y363700D02*
D03*
X37000D02*
D03*
X653000Y363700D02*
D03*
X663750D02*
D03*
X653000Y677400D02*
D03*
X663750D02*
D03*
X37000Y677400D02*
D03*
X26250D02*
D03*
X26250Y727400D02*
D03*
X37000D02*
D03*
X653000Y727400D02*
D03*
X663750D02*
D03*
X653000Y1041100D02*
D03*
X663750D02*
D03*
X37000Y1041100D02*
D03*
X26250D02*
D03*
X26250Y1091100D02*
D03*
X37000D02*
D03*
X653000Y1091100D02*
D03*
X663750D02*
D03*
X653000Y1404800D02*
D03*
X663750D02*
D03*
X37000Y1404800D02*
D03*
X26250D02*
D03*
M02*
