G04 Layer_Color=8421504*
%FSLAX44Y44*%
%MOMM*%
G71*
G01*
G75*
G04:AMPARAMS|DCode=15|XSize=0.6mm|YSize=0.6mm|CornerRadius=0.06mm|HoleSize=0mm|Usage=FLASHONLY|Rotation=180.000|XOffset=0mm|YOffset=0mm|HoleType=Round|Shape=RoundedRectangle|*
%AMROUNDEDRECTD15*
21,1,0.6000,0.4800,0,0,180.0*
21,1,0.4800,0.6000,0,0,180.0*
1,1,0.1200,-0.2400,0.2400*
1,1,0.1200,0.2400,0.2400*
1,1,0.1200,0.2400,-0.2400*
1,1,0.1200,-0.2400,-0.2400*
%
%ADD15ROUNDEDRECTD15*%
%ADD16R,4.0000X2.0000*%
%ADD17R,4.2500X2.0000*%
G04:AMPARAMS|DCode=18|XSize=0.5mm|YSize=0.6mm|CornerRadius=0.05mm|HoleSize=0mm|Usage=FLASHONLY|Rotation=0.000|XOffset=0mm|YOffset=0mm|HoleType=Round|Shape=RoundedRectangle|*
%AMROUNDEDRECTD18*
21,1,0.5000,0.5000,0,0,0.0*
21,1,0.4000,0.6000,0,0,0.0*
1,1,0.1000,0.2000,-0.2500*
1,1,0.1000,-0.2000,-0.2500*
1,1,0.1000,-0.2000,0.2500*
1,1,0.1000,0.2000,0.2500*
%
%ADD18ROUNDEDRECTD18*%
%ADD19C,0.3500*%
%ADD20R,0.2000X0.2000*%
G04:AMPARAMS|DCode=21|XSize=0.6mm|YSize=0.6mm|CornerRadius=0.06mm|HoleSize=0mm|Usage=FLASHONLY|Rotation=270.000|XOffset=0mm|YOffset=0mm|HoleType=Round|Shape=RoundedRectangle|*
%AMROUNDEDRECTD21*
21,1,0.6000,0.4800,0,0,270.0*
21,1,0.4800,0.6000,0,0,270.0*
1,1,0.1200,-0.2400,-0.2400*
1,1,0.1200,-0.2400,0.2400*
1,1,0.1200,0.2400,0.2400*
1,1,0.1200,0.2400,-0.2400*
%
%ADD21ROUNDEDRECTD21*%
G04:AMPARAMS|DCode=22|XSize=1mm|YSize=0.9mm|CornerRadius=0.1125mm|HoleSize=0mm|Usage=FLASHONLY|Rotation=180.000|XOffset=0mm|YOffset=0mm|HoleType=Round|Shape=RoundedRectangle|*
%AMROUNDEDRECTD22*
21,1,1.0000,0.6750,0,0,180.0*
21,1,0.7750,0.9000,0,0,180.0*
1,1,0.2250,-0.3875,0.3375*
1,1,0.2250,0.3875,0.3375*
1,1,0.2250,0.3875,-0.3375*
1,1,0.2250,-0.3875,-0.3375*
%
%ADD22ROUNDEDRECTD22*%
G04:AMPARAMS|DCode=23|XSize=0.5mm|YSize=0.6mm|CornerRadius=0.05mm|HoleSize=0mm|Usage=FLASHONLY|Rotation=90.000|XOffset=0mm|YOffset=0mm|HoleType=Round|Shape=RoundedRectangle|*
%AMROUNDEDRECTD23*
21,1,0.5000,0.5000,0,0,90.0*
21,1,0.4000,0.6000,0,0,90.0*
1,1,0.1000,0.2500,0.2000*
1,1,0.1000,0.2500,-0.2000*
1,1,0.1000,-0.2500,-0.2000*
1,1,0.1000,-0.2500,0.2000*
%
%ADD23ROUNDEDRECTD23*%
%ADD24R,2.4000X0.7500*%
%ADD25C,0.5000*%
%ADD26O,0.4700X0.5000*%
%ADD27O,0.5000X0.4500*%
%ADD28C,0.4700*%
%ADD29R,1.8000X0.7000*%
%ADD30R,5.5500X5.5500*%
%ADD31R,0.9000X0.2000*%
%ADD32R,0.2000X0.9000*%
%ADD33R,0.3500X0.3000*%
%ADD34R,1.1000X0.7000*%
%ADD35R,0.6500X0.4500*%
%ADD36R,0.4000X0.2500*%
%ADD37R,0.5000X0.2500*%
%ADD38R,0.3000X0.3500*%
%ADD39R,1.4000X1.3000*%
%ADD40R,2.0000X1.3000*%
G04:AMPARAMS|DCode=41|XSize=1.3mm|YSize=0.8mm|CornerRadius=0.1mm|HoleSize=0mm|Usage=FLASHONLY|Rotation=270.000|XOffset=0mm|YOffset=0mm|HoleType=Round|Shape=RoundedRectangle|*
%AMROUNDEDRECTD41*
21,1,1.3000,0.6000,0,0,270.0*
21,1,1.1000,0.8000,0,0,270.0*
1,1,0.2000,-0.3000,-0.5500*
1,1,0.2000,-0.3000,0.5500*
1,1,0.2000,0.3000,0.5500*
1,1,0.2000,0.3000,-0.5500*
%
%ADD41ROUNDEDRECTD41*%
G04:AMPARAMS|DCode=42|XSize=0.7mm|YSize=0.4mm|CornerRadius=0.05mm|HoleSize=0mm|Usage=FLASHONLY|Rotation=180.000|XOffset=0mm|YOffset=0mm|HoleType=Round|Shape=RoundedRectangle|*
%AMROUNDEDRECTD42*
21,1,0.7000,0.3000,0,0,180.0*
21,1,0.6000,0.4000,0,0,180.0*
1,1,0.1000,-0.3000,0.1500*
1,1,0.1000,0.3000,0.1500*
1,1,0.1000,0.3000,-0.1500*
1,1,0.1000,-0.3000,-0.1500*
%
%ADD42ROUNDEDRECTD42*%
%ADD43R,0.7600X1.2000*%
%ADD44R,1.2000X0.7600*%
%ADD45R,1.2000X0.7000*%
%ADD46R,0.2500X0.3500*%
%ADD47R,2.5000X1.7000*%
%ADD48R,0.5000X0.7000*%
G36*
X433351Y1281238D02*
X433633Y1280957D01*
X433785Y1280590D01*
X433784Y1280391D01*
X433785Y1280391D01*
X433785Y1275641D01*
X433784Y1275442D01*
X433632Y1275074D01*
X433351Y1274793D01*
X432983Y1274641D01*
X432784Y1274641D01*
X432784Y1274641D01*
X428034Y1274641D01*
X427835Y1274642D01*
X427468Y1274794D01*
X427187Y1275075D01*
X427034Y1275442D01*
X427034Y1275641D01*
Y1275641D01*
X427035Y1280391D01*
X427035Y1280590D01*
X427187Y1280957D01*
X427469Y1281239D01*
X427836Y1281390D01*
X428035Y1281390D01*
X428035Y1281390D01*
X432785Y1281390D01*
X432984Y1281390D01*
X433351Y1281238D01*
D02*
G37*
G36*
X442102Y1281238D02*
X442383Y1280957D01*
X442535Y1280590D01*
X442535Y1280391D01*
X442535Y1280391D01*
X442535Y1275641D01*
X442535Y1275442D01*
X442382Y1275074D01*
X442101Y1274793D01*
X441733Y1274641D01*
X441534Y1274641D01*
X441535Y1274641D01*
X436784Y1274641D01*
X436586Y1274641D01*
X436218Y1274794D01*
X435937Y1275075D01*
X435785Y1275442D01*
X435784Y1275641D01*
Y1275641D01*
X435785Y1280391D01*
X435785Y1280590D01*
X435937Y1280957D01*
X436219Y1281238D01*
X436586Y1281390D01*
X436785Y1281390D01*
X436786Y1281390D01*
X441535Y1281390D01*
X441734Y1281390D01*
X442102Y1281238D01*
D02*
G37*
G36*
X450852Y1281238D02*
X451133Y1280957D01*
X451285Y1280589D01*
X451285Y1280391D01*
X451285Y1280391D01*
X451285Y1275641D01*
X451285Y1275442D01*
X451133Y1275074D01*
X450851Y1274793D01*
X450484Y1274641D01*
X450285Y1274641D01*
X450285Y1274641D01*
X445535Y1274641D01*
X445336Y1274641D01*
X444968Y1274794D01*
X444687Y1275075D01*
X444535Y1275442D01*
X444535Y1275641D01*
Y1275641D01*
X444535Y1280391D01*
X444535Y1280589D01*
X444687Y1280957D01*
X444969Y1281238D01*
X445337Y1281390D01*
X445536Y1281390D01*
X445536Y1281390D01*
X450285Y1281390D01*
X450484Y1281390D01*
X450852Y1281238D01*
D02*
G37*
G36*
X459602Y1281238D02*
X459883Y1280957D01*
X460035Y1280589D01*
X460035Y1280390D01*
X460035Y1280390D01*
X460035Y1275640D01*
X460035Y1275442D01*
X459883Y1275074D01*
X459601Y1274793D01*
X459234Y1274641D01*
X459035Y1274641D01*
X459035Y1274641D01*
X454285Y1274641D01*
X454086Y1274641D01*
X453719Y1274794D01*
X453438Y1275075D01*
X453285Y1275442D01*
X453285Y1275641D01*
Y1275641D01*
X453285Y1280390D01*
X453285Y1280589D01*
X453438Y1280957D01*
X453719Y1281238D01*
X454087Y1281390D01*
X454286Y1281390D01*
X454286Y1281390D01*
X459036Y1281390D01*
X459235Y1281390D01*
X459602Y1281238D01*
D02*
G37*
G36*
X468352Y1281238D02*
X468633Y1280957D01*
X468785Y1280589D01*
X468785Y1280390D01*
X468785Y1280390D01*
X468785Y1275640D01*
X468785Y1275441D01*
X468633Y1275074D01*
X468352Y1274793D01*
X467984Y1274641D01*
X467785Y1274641D01*
X467785Y1274641D01*
X463035Y1274641D01*
X462836Y1274641D01*
X462469Y1274793D01*
X462188Y1275074D01*
X462035Y1275442D01*
X462035Y1275641D01*
Y1275641D01*
X462035Y1280390D01*
X462035Y1280589D01*
X462188Y1280957D01*
X462469Y1281238D01*
X462837Y1281390D01*
X463036Y1281389D01*
X463036Y1281390D01*
X467786Y1281390D01*
X467985Y1281390D01*
X468352Y1281238D01*
D02*
G37*
G36*
X477102Y1281238D02*
X477383Y1280956D01*
X477536Y1280589D01*
X477535Y1280390D01*
X477536Y1280390D01*
X477536Y1275640D01*
X477536Y1275441D01*
X477383Y1275074D01*
X477102Y1274792D01*
X476734Y1274641D01*
X476535Y1274641D01*
X476535Y1274640D01*
X471785Y1274641D01*
X471586Y1274641D01*
X471219Y1274793D01*
X470938Y1275074D01*
X470785Y1275442D01*
X470785Y1275640D01*
Y1275640D01*
X470786Y1280390D01*
X470786Y1280589D01*
X470938Y1280957D01*
X471220Y1281238D01*
X471587Y1281390D01*
X471786Y1281389D01*
X471786Y1281389D01*
X476536Y1281390D01*
X476735Y1281390D01*
X477102Y1281238D01*
D02*
G37*
G36*
X485853Y1281237D02*
X486134Y1280956D01*
X486286Y1280589D01*
X486286Y1280390D01*
X486286Y1280390D01*
X486286Y1275640D01*
X486286Y1275441D01*
X486133Y1275074D01*
X485852Y1274792D01*
X485484Y1274640D01*
X485285Y1274641D01*
X485285Y1274640D01*
X480535Y1274641D01*
X480336Y1274641D01*
X479969Y1274793D01*
X479688Y1275074D01*
X479536Y1275442D01*
X479535Y1275640D01*
Y1275640D01*
X479536Y1280390D01*
X479536Y1280589D01*
X479688Y1280956D01*
X479970Y1281238D01*
X480337Y1281389D01*
X480536Y1281389D01*
X480536Y1281389D01*
X485286Y1281389D01*
X485485Y1281389D01*
X485853Y1281237D01*
D02*
G37*
G36*
X424035Y1281391D02*
X424234Y1281391D01*
X424602Y1281239D01*
X424883Y1280957D01*
X425035Y1280590D01*
X425035Y1280391D01*
X425035Y1280391D01*
X425035Y1275641D01*
X425035Y1275442D01*
X424883Y1275074D01*
X424602Y1274793D01*
X424234Y1274641D01*
X424035Y1274641D01*
X424035Y1274641D01*
X419285Y1274641D01*
X419086Y1274641D01*
X419085Y1274642D01*
X419085D01*
X418718Y1274794D01*
X418437Y1275075D01*
X418284Y1275443D01*
X418284Y1275641D01*
Y1275641D01*
X418284Y1280391D01*
X418284Y1280590D01*
X418437Y1280957D01*
X418718Y1281239D01*
X418832Y1281286D01*
X419087Y1281391D01*
X419286Y1281392D01*
X419286Y1281392D01*
X424035Y1281391D01*
D02*
G37*
G36*
X485285Y1272640D02*
X485484Y1272640D01*
X485852Y1272488D01*
X486133Y1272206D01*
X486285Y1271839D01*
X486285Y1271640D01*
X486285Y1271640D01*
X486285Y1266890D01*
X486285Y1266691D01*
X486132Y1266324D01*
X485851Y1266043D01*
X485484Y1265890D01*
X485285Y1265890D01*
X480535Y1265890D01*
X480336Y1265890D01*
X479969Y1266043D01*
X479688Y1266324D01*
X479536Y1266692D01*
X479536Y1266891D01*
X479536Y1266891D01*
X479536Y1271641D01*
X479536Y1271840D01*
X479688Y1272207D01*
X479969Y1272488D01*
X480336Y1272640D01*
X480535Y1272640D01*
X480535Y1272640D01*
X485285Y1272640D01*
D02*
G37*
G36*
X434332Y1271653D02*
X434613Y1271372D01*
X434765Y1271005D01*
X434765Y1270806D01*
X434765Y1270806D01*
X434765Y1266056D01*
X434765Y1265857D01*
X434613Y1265489D01*
X434331Y1265208D01*
X433964Y1265056D01*
X433765Y1265056D01*
X433765Y1265056D01*
X429015Y1265056D01*
X428816Y1265056D01*
X428448Y1265209D01*
X428167Y1265490D01*
X428015Y1265857D01*
X428015Y1266056D01*
Y1266056D01*
X428015Y1270806D01*
X428015Y1271005D01*
X428167Y1271372D01*
X428449Y1271653D01*
X428817Y1271805D01*
X429016Y1271805D01*
X429016Y1271805D01*
X433766Y1271805D01*
X433964Y1271805D01*
X434332Y1271653D01*
D02*
G37*
G36*
X454765Y1271805D02*
X465765Y1271805D01*
X465765Y1271805D01*
X465964Y1271805D01*
X466331Y1271653D01*
X466612Y1271371D01*
X466764Y1271004D01*
X466764Y1270805D01*
X466765Y1266055D01*
X466764Y1266055D01*
X466764Y1265856D01*
X466612Y1265488D01*
X466330Y1265207D01*
X465963Y1265055D01*
X465764Y1265055D01*
X454764Y1265055D01*
X454764Y1265055D01*
X454565Y1265055D01*
X454198Y1265207D01*
X453917Y1265489D01*
X453764Y1265856D01*
X453765Y1266055D01*
X453764Y1270805D01*
Y1270805D01*
X453764Y1271004D01*
X453917Y1271372D01*
X454198Y1271653D01*
X454566Y1271805D01*
X454765Y1271805D01*
D02*
G37*
G36*
X424035Y1272641D02*
X424234Y1272641D01*
X424602Y1272489D01*
X424883Y1272207D01*
X425035Y1271839D01*
X425034Y1271640D01*
X425034Y1271640D01*
X425035Y1266890D01*
X425035Y1266692D01*
X424883Y1266324D01*
X424602Y1266043D01*
X424234Y1265891D01*
X424035Y1265891D01*
X424035Y1265891D01*
X419285Y1265891D01*
X419086Y1265891D01*
X418719Y1266043D01*
X418438Y1266325D01*
X418286Y1266693D01*
X418286Y1266891D01*
X418285Y1266891D01*
X418286Y1271642D01*
X418286Y1271840D01*
X418438Y1272208D01*
X418719Y1272489D01*
X419087Y1272641D01*
X419286Y1272641D01*
Y1272641D01*
X424035Y1272641D01*
D02*
G37*
G36*
X475516Y1271805D02*
X475715Y1271805D01*
X476082Y1271653D01*
X476363Y1271371D01*
X476515Y1271004D01*
X476515Y1270805D01*
X476515Y1270805D01*
X476515Y1266055D01*
X476515Y1265856D01*
X476363Y1265489D01*
X476082Y1265207D01*
X475715Y1265055D01*
X475516Y1265055D01*
X475516Y1265055D01*
X470766Y1265055D01*
X470567Y1265055D01*
X470199Y1265208D01*
X469918Y1265489D01*
X469766Y1265857D01*
X469766Y1266056D01*
X469766Y1266056D01*
X469766Y1270806D01*
X469766Y1271005D01*
X469919Y1271372D01*
X470200Y1271653D01*
X470567Y1271805D01*
X470766Y1271806D01*
X470766Y1271806D01*
X475516Y1271805D01*
D02*
G37*
G36*
X450331Y1271653D02*
X450613Y1271372D01*
X450765Y1271004D01*
X450765Y1270805D01*
X450765Y1270805D01*
X450765Y1266055D01*
X450765Y1265856D01*
X450613Y1265488D01*
X450331Y1265207D01*
X449964Y1265055D01*
X449765Y1265055D01*
X449765Y1265055D01*
X438765Y1265055D01*
X438566Y1265055D01*
X438199Y1265207D01*
X437917Y1265488D01*
X437765Y1265855D01*
X437765Y1266054D01*
X437765Y1266054D01*
X437765Y1270805D01*
X437765Y1271004D01*
X437917Y1271371D01*
X438198Y1271652D01*
X438566Y1271804D01*
X438765Y1271805D01*
X438765Y1271805D01*
X449765Y1271805D01*
X449964Y1271805D01*
X450331Y1271653D01*
D02*
G37*
G36*
X485285Y1263890D02*
X485484Y1263890D01*
X485852Y1263738D01*
X486133Y1263456D01*
X486285Y1263089D01*
X486285Y1262890D01*
X486285Y1262890D01*
X486285Y1258140D01*
X486284Y1257941D01*
X486132Y1257574D01*
X485851Y1257292D01*
X485484Y1257140D01*
X485285Y1257140D01*
X480535Y1257140D01*
X480336Y1257140D01*
X479969Y1257293D01*
X479688Y1257574D01*
X479536Y1257942D01*
X479536Y1258141D01*
X479536Y1258141D01*
X479536Y1262891D01*
X479536Y1263090D01*
X479688Y1263457D01*
X479969Y1263738D01*
X480336Y1263890D01*
X480535Y1263890D01*
X480535Y1263890D01*
X485285Y1263890D01*
D02*
G37*
G36*
X464265Y1262555D02*
X464862Y1262555D01*
X465965Y1262098D01*
X466808Y1261254D01*
X467265Y1260152D01*
X467265Y1259555D01*
X467265Y1235555D01*
X467265Y1235555D01*
X467265Y1234959D01*
X466809Y1233856D01*
X465965Y1233012D01*
X464862Y1232555D01*
X464265Y1232555D01*
X440265Y1232555D01*
X440265Y1232555D01*
X439668Y1232555D01*
X438566Y1233012D01*
X437722Y1233856D01*
X437265Y1234959D01*
X437266Y1235555D01*
X437265Y1259555D01*
X437265Y1259555D01*
X437265Y1260152D01*
X437722Y1261254D01*
X438565Y1262098D01*
X439668Y1262555D01*
X440265Y1262555D01*
X464265Y1262555D01*
X464265Y1262555D01*
D02*
G37*
G36*
X424035Y1263891D02*
X424234Y1263891D01*
X424602Y1263738D01*
X424883Y1263457D01*
X425035Y1263089D01*
X425034Y1262890D01*
X425034Y1262890D01*
X425034Y1258140D01*
X425035Y1257942D01*
X424883Y1257574D01*
X424601Y1257293D01*
X424234Y1257141D01*
X424035Y1257141D01*
X424035Y1257141D01*
X419285Y1257141D01*
X419086Y1257141D01*
X418719Y1257293D01*
X418438Y1257575D01*
X418285Y1257942D01*
X418286Y1258141D01*
X418285Y1258141D01*
X418286Y1262891D01*
X418286Y1263090D01*
X418438Y1263457D01*
X418719Y1263739D01*
X419087Y1263891D01*
X419285Y1263891D01*
X419285Y1263891D01*
X424035Y1263891D01*
D02*
G37*
G36*
X485285Y1255140D02*
X485484Y1255140D01*
X485852Y1254987D01*
X486133Y1254706D01*
X486285Y1254338D01*
X486285Y1254139D01*
X486285Y1254140D01*
X486284Y1249389D01*
X486284Y1249191D01*
X486132Y1248823D01*
X485851Y1248542D01*
X485484Y1248390D01*
X485285Y1248390D01*
X480535Y1248390D01*
X480336Y1248390D01*
X479969Y1248542D01*
X479688Y1248824D01*
X479536Y1249192D01*
X479536Y1249390D01*
X479536Y1249391D01*
X479536Y1254140D01*
X479536Y1254339D01*
X479688Y1254707D01*
X479969Y1254988D01*
X480336Y1255140D01*
X480535Y1255140D01*
X480535Y1255140D01*
X485285Y1255140D01*
D02*
G37*
G36*
X475515Y1262055D02*
X475714Y1262055D01*
X476081Y1261903D01*
X476362Y1261622D01*
X476515Y1261254D01*
X476515Y1261056D01*
X476515Y1261056D01*
X476515Y1250055D01*
X476515Y1249856D01*
X476363Y1249489D01*
X476082Y1249207D01*
X475714Y1249055D01*
X475515Y1249055D01*
X475515D01*
X470765Y1249056D01*
X470566Y1249055D01*
X470198Y1249208D01*
X469917Y1249489D01*
X469765Y1249856D01*
X469765Y1250055D01*
X469765Y1250055D01*
X469765Y1261055D01*
X469765Y1261254D01*
X469917Y1261621D01*
X470198Y1261903D01*
X470565Y1262055D01*
X470764Y1262055D01*
X470764Y1262056D01*
X475515Y1262055D01*
D02*
G37*
G36*
X429015Y1262055D02*
X429015Y1262055D01*
X433766Y1262054D01*
X433965Y1262054D01*
X434332Y1261902D01*
X434613Y1261621D01*
X434765Y1261254D01*
X434765Y1261055D01*
X434765Y1261055D01*
X434765Y1250055D01*
X434765Y1249856D01*
X434613Y1249489D01*
X434332Y1249207D01*
X433965Y1249055D01*
X433766Y1249054D01*
X433766Y1249054D01*
X429016Y1249055D01*
X428817Y1249055D01*
X428449Y1249207D01*
X428168Y1249488D01*
X428016Y1249855D01*
X428016Y1250054D01*
Y1250054D01*
X428015Y1261055D01*
X428015Y1261253D01*
X428167Y1261621D01*
X428449Y1261902D01*
X428816Y1262055D01*
X429015Y1262055D01*
D02*
G37*
G36*
X424035Y1255141D02*
X424234Y1255141D01*
X424601Y1254988D01*
X424883Y1254707D01*
X425034Y1254339D01*
X425034Y1254140D01*
X425034Y1254140D01*
X425034Y1249390D01*
X425034Y1249191D01*
X424882Y1248824D01*
X424601Y1248543D01*
X424234Y1248391D01*
X424035Y1248391D01*
X424035Y1248391D01*
X419285Y1248391D01*
X419086Y1248391D01*
X418718Y1248543D01*
X418437Y1248825D01*
X418285Y1249192D01*
X418285Y1249391D01*
X418285Y1249391D01*
X418285Y1254141D01*
X418286Y1254340D01*
X418438Y1254707D01*
X418719Y1254988D01*
X419086Y1255141D01*
X419285Y1255141D01*
X419285Y1255141D01*
X424035Y1255141D01*
D02*
G37*
G36*
X485285Y1246390D02*
X485484Y1246390D01*
X485851Y1246237D01*
X486133Y1245956D01*
X486285Y1245588D01*
X486284Y1245389D01*
X486285Y1245389D01*
X486284Y1240639D01*
X486284Y1240440D01*
X486132Y1240073D01*
X485851Y1239792D01*
X485484Y1239640D01*
X485285Y1239639D01*
X485285D01*
X480535Y1239640D01*
X480336Y1239640D01*
X479968Y1239792D01*
X479687Y1240074D01*
X479535Y1240441D01*
X479536Y1240640D01*
X479536Y1240640D01*
X479535Y1245390D01*
X479535Y1245589D01*
X479688Y1245956D01*
X479969Y1246238D01*
X480336Y1246390D01*
X480535Y1246390D01*
X480535Y1246390D01*
X485285Y1246390D01*
D02*
G37*
G36*
X424035Y1246390D02*
X424234Y1246390D01*
X424601Y1246238D01*
X424882Y1245956D01*
X425034Y1245589D01*
X425034Y1245390D01*
X425034Y1245390D01*
X425034Y1240640D01*
X425034Y1240441D01*
X424882Y1240074D01*
X424601Y1239793D01*
X424234Y1239641D01*
X424035Y1239641D01*
X424035Y1239641D01*
X419285Y1239641D01*
X419086Y1239641D01*
X418718Y1239793D01*
X418437Y1240074D01*
X418285Y1240442D01*
X418285Y1240641D01*
X418285Y1240641D01*
X418285Y1245391D01*
X418286Y1245590D01*
X418438Y1245957D01*
X418719Y1246238D01*
X419086Y1246391D01*
X419285Y1246391D01*
X419285Y1246391D01*
X424035Y1246390D01*
D02*
G37*
G36*
X485285Y1237639D02*
X485484Y1237639D01*
X485851Y1237487D01*
X486132Y1237206D01*
X486284Y1236838D01*
X486284Y1236639D01*
X486284Y1236639D01*
X486284Y1231889D01*
X486284Y1231690D01*
X486132Y1231323D01*
X485850Y1231042D01*
X485483Y1230889D01*
X485285Y1230889D01*
X480535Y1230890D01*
X480336Y1230890D01*
X479968Y1231042D01*
X479687Y1231323D01*
X479535Y1231691D01*
X479536Y1231890D01*
X479535Y1231890D01*
X479535Y1236640D01*
X479535Y1236839D01*
X479687Y1237206D01*
X479968Y1237487D01*
X480336Y1237639D01*
X480535Y1237639D01*
X480535Y1237639D01*
X485285Y1237639D01*
D02*
G37*
G36*
X475515Y1246056D02*
X475714Y1246056D01*
X476081Y1245903D01*
X476362Y1245622D01*
X476514Y1245255D01*
X476514Y1245056D01*
X476514Y1245056D01*
X476515Y1234056D01*
X476515Y1233857D01*
X476363Y1233489D01*
X476082Y1233208D01*
X475714Y1233055D01*
X475515Y1233055D01*
X475515D01*
X470764Y1233056D01*
X470566Y1233056D01*
X470198Y1233208D01*
X469917Y1233489D01*
X469765Y1233856D01*
X469765Y1234055D01*
X469765Y1234055D01*
X469765Y1245055D01*
X469765Y1245254D01*
X469917Y1245622D01*
X470198Y1245903D01*
X470565Y1246056D01*
X470764Y1246056D01*
X470764Y1246056D01*
X475515Y1246056D01*
D02*
G37*
G36*
X429015Y1246055D02*
X429015Y1246055D01*
X433766Y1246055D01*
X433965Y1246055D01*
X434332Y1245903D01*
X434613Y1245621D01*
X434765Y1245254D01*
X434765Y1245055D01*
X434765Y1245055D01*
X434765Y1234055D01*
X434765Y1233856D01*
X434613Y1233489D01*
X434332Y1233207D01*
X433965Y1233055D01*
X433766Y1233055D01*
X433766Y1233055D01*
X429015Y1233055D01*
X428817Y1233055D01*
X428449Y1233207D01*
X428168Y1233488D01*
X428016Y1233856D01*
X428016Y1234055D01*
Y1234055D01*
X428015Y1245055D01*
X428015Y1245254D01*
X428167Y1245621D01*
X428448Y1245903D01*
X428816Y1246055D01*
X429015Y1246055D01*
D02*
G37*
G36*
X424035Y1237640D02*
X424234Y1237640D01*
X424601Y1237488D01*
X424882Y1237206D01*
X425034Y1236839D01*
X425034Y1236640D01*
X425034Y1236640D01*
X425034Y1231890D01*
X425034Y1231691D01*
X424882Y1231323D01*
X424601Y1231042D01*
X424234Y1230890D01*
X424035Y1230891D01*
X424035Y1230890D01*
X419285Y1230890D01*
X419086Y1230890D01*
X418718Y1231043D01*
X418437Y1231324D01*
X418285Y1231692D01*
X418285Y1231891D01*
X418285Y1231891D01*
X418285Y1236641D01*
X418285Y1236840D01*
X418438Y1237207D01*
X418719Y1237488D01*
X419086Y1237640D01*
X419285Y1237641D01*
X419285Y1237641D01*
X424035Y1237640D01*
D02*
G37*
G36*
X465765Y1230055D02*
X465964Y1230055D01*
X466331Y1229903D01*
X466613Y1229622D01*
X466765Y1229255D01*
X466766Y1229056D01*
X466766Y1229056D01*
X466765Y1224305D01*
X466765Y1224107D01*
X466613Y1223739D01*
X466332Y1223458D01*
X465964Y1223306D01*
X465766Y1223306D01*
X465766D01*
X454766Y1223305D01*
X454566Y1223305D01*
X454199Y1223457D01*
X453918Y1223738D01*
X453765Y1224106D01*
X453765Y1224305D01*
Y1224305D01*
X453766Y1229056D01*
X453765Y1229255D01*
X453918Y1229622D01*
X454199Y1229903D01*
X454566Y1230055D01*
X454765Y1230055D01*
X454765Y1230055D01*
X465765Y1230055D01*
D02*
G37*
G36*
X449766Y1230055D02*
X449965Y1230055D01*
X450332Y1229903D01*
X450614Y1229622D01*
X450766Y1229254D01*
X450765Y1229055D01*
X450766Y1224305D01*
X450766Y1224305D01*
X450766Y1224106D01*
X450614Y1223738D01*
X450332Y1223457D01*
X449965Y1223305D01*
X449766Y1223305D01*
X438765Y1223305D01*
X438766D01*
X438567Y1223305D01*
X438199Y1223458D01*
X437918Y1223739D01*
X437766Y1224106D01*
X437766Y1224305D01*
X437766Y1229056D01*
X437766Y1229055D01*
X437766Y1229254D01*
X437918Y1229622D01*
X438200Y1229903D01*
X438567Y1230055D01*
X438766Y1230055D01*
X449766Y1230055D01*
X449766Y1230055D01*
D02*
G37*
G36*
X475516Y1230054D02*
X475714Y1230054D01*
X476082Y1229901D01*
X476363Y1229620D01*
X476515Y1229253D01*
X476516Y1229054D01*
X476516D01*
X476515Y1224305D01*
X476515Y1224106D01*
X476363Y1223738D01*
X476081Y1223457D01*
X475714Y1223305D01*
X475514Y1223305D01*
X475514Y1223305D01*
X470765Y1223305D01*
X470566Y1223305D01*
X470198Y1223457D01*
X469917Y1223738D01*
X469765Y1224106D01*
X469765Y1224304D01*
X469765Y1224305D01*
X469765Y1229054D01*
X469765Y1229253D01*
X469918Y1229621D01*
X470199Y1229902D01*
X470567Y1230054D01*
X470766Y1230054D01*
X470765Y1230054D01*
X475516Y1230054D01*
D02*
G37*
G36*
X433767Y1230053D02*
X433965Y1230053D01*
X434333Y1229900D01*
X434614Y1229619D01*
X434766Y1229252D01*
X434767Y1229053D01*
X434767D01*
X434766Y1224304D01*
X434766Y1224105D01*
X434614Y1223737D01*
X434332Y1223456D01*
X433965Y1223304D01*
X433766Y1223304D01*
X433765Y1223304D01*
X429016Y1223304D01*
X428817Y1223304D01*
X428449Y1223456D01*
X428168Y1223737D01*
X428016Y1224105D01*
X428016Y1224303D01*
X428016Y1224304D01*
X428016Y1229053D01*
X428016Y1229252D01*
X428169Y1229620D01*
X428450Y1229901D01*
X428818Y1230053D01*
X429017Y1230053D01*
X429016Y1230053D01*
X433767Y1230053D01*
D02*
G37*
G36*
X485285Y1228889D02*
X485484Y1228889D01*
X485851Y1228737D01*
X486132Y1228455D01*
X486284Y1228088D01*
X486284Y1227889D01*
X486284Y1227889D01*
X486284Y1223139D01*
X486284Y1222940D01*
X486132Y1222573D01*
X485850Y1222292D01*
X485483Y1222139D01*
X485284Y1222139D01*
X485284D01*
X485284D01*
D01*
X480535Y1222139D01*
X480336Y1222139D01*
X479968Y1222292D01*
X479687Y1222573D01*
X479535Y1222941D01*
X479535Y1223140D01*
X479535Y1223140D01*
X479535Y1227890D01*
X479535Y1228089D01*
X479687Y1228456D01*
X479968Y1228737D01*
X480336Y1228889D01*
X480535Y1228889D01*
X480535Y1228889D01*
X485285Y1228889D01*
D02*
G37*
G36*
X424035Y1228890D02*
X424233Y1228890D01*
X424601Y1228738D01*
X424882Y1228456D01*
X425034Y1228088D01*
X425034Y1227889D01*
X425034Y1227889D01*
X425034Y1223139D01*
X425034Y1222941D01*
X424882Y1222573D01*
X424601Y1222292D01*
X424233Y1222140D01*
X424035Y1222140D01*
X424035Y1222140D01*
X419285Y1222140D01*
X419086Y1222140D01*
X418718Y1222292D01*
X418437Y1222574D01*
X418285Y1222942D01*
X418285Y1223140D01*
X418285Y1223140D01*
X418285Y1227891D01*
X418285Y1228089D01*
X418438Y1228457D01*
X418719Y1228738D01*
X419086Y1228890D01*
X419285Y1228890D01*
X419285Y1228890D01*
X424035Y1228890D01*
D02*
G37*
G36*
X424601Y1219988D02*
X424882Y1219707D01*
X425034Y1219340D01*
X425034Y1219141D01*
X425034Y1219141D01*
X425034Y1214391D01*
X425034Y1214192D01*
X424881Y1213824D01*
X424600Y1213543D01*
X424232Y1213391D01*
X424034Y1213391D01*
X424034Y1213391D01*
X419283Y1213391D01*
X419085Y1213391D01*
X418717Y1213544D01*
X418436Y1213825D01*
X418284Y1214192D01*
X418284Y1214391D01*
Y1214391D01*
X418284Y1219141D01*
X418284Y1219340D01*
X418436Y1219707D01*
X418718Y1219988D01*
X419086Y1220140D01*
X419285Y1220140D01*
X419285Y1220140D01*
X424034Y1220140D01*
X424233Y1220140D01*
X424601Y1219988D01*
D02*
G37*
G36*
X433351Y1219988D02*
X433632Y1219707D01*
X433784Y1219339D01*
X433784Y1219141D01*
X433784Y1219140D01*
X433784Y1214390D01*
X433784Y1214192D01*
X433632Y1213824D01*
X433350Y1213543D01*
X432983Y1213391D01*
X432784Y1213391D01*
X432784Y1213391D01*
X428034Y1213391D01*
X427835Y1213391D01*
X427467Y1213544D01*
X427186Y1213825D01*
X427034Y1214192D01*
X427034Y1214391D01*
X427034Y1219140D01*
X427034Y1219339D01*
X427187Y1219707D01*
X427468Y1219988D01*
X427836Y1220140D01*
X428035Y1220140D01*
X428035Y1220140D01*
X432785Y1220140D01*
X432984Y1220140D01*
X433351Y1219988D01*
D02*
G37*
G36*
X442101Y1219988D02*
X442382Y1219707D01*
X442534Y1219339D01*
X442534Y1219140D01*
X442534Y1219140D01*
X442534Y1214390D01*
X442534Y1214192D01*
X442382Y1213824D01*
X442100Y1213543D01*
X441733Y1213391D01*
X441534Y1213391D01*
X441534Y1213391D01*
X436784Y1213391D01*
X436585Y1213391D01*
X436218Y1213543D01*
X435937Y1213825D01*
X435784Y1214192D01*
X435784Y1214391D01*
Y1214391D01*
X435784Y1219140D01*
X435784Y1219339D01*
X435937Y1219707D01*
X436218Y1219988D01*
X436586Y1220140D01*
X436785Y1220140D01*
X436785Y1220140D01*
X441535Y1220140D01*
X441734Y1220140D01*
X442101Y1219988D01*
D02*
G37*
G36*
X450851Y1219988D02*
X451132Y1219706D01*
X451284Y1219339D01*
X451284Y1219140D01*
X451284Y1219140D01*
X451284Y1214390D01*
X451284Y1214191D01*
X451132Y1213824D01*
X450851Y1213543D01*
X450483Y1213391D01*
X450284Y1213391D01*
X450284Y1213391D01*
X445534Y1213391D01*
X445335Y1213391D01*
X444968Y1213543D01*
X444687Y1213824D01*
X444534Y1214192D01*
X444534Y1214390D01*
Y1214390D01*
X444535Y1219140D01*
X444534Y1219339D01*
X444687Y1219707D01*
X444968Y1219988D01*
X445336Y1220140D01*
X445535Y1220139D01*
X445535Y1220139D01*
X450285Y1220140D01*
X450484Y1220140D01*
X450851Y1219988D01*
D02*
G37*
G36*
X459601Y1219987D02*
X459883Y1219706D01*
X460035Y1219339D01*
X460034Y1219140D01*
X460035Y1219140D01*
X460035Y1214390D01*
X460035Y1214191D01*
X459882Y1213824D01*
X459601Y1213542D01*
X459233Y1213390D01*
X459034Y1213391D01*
X459034Y1213390D01*
X454284Y1213391D01*
X454085Y1213391D01*
X453718Y1213543D01*
X453437Y1213824D01*
X453285Y1214192D01*
X453284Y1214390D01*
Y1214390D01*
X453285Y1219140D01*
X453285Y1219339D01*
X453437Y1219706D01*
X453719Y1219988D01*
X454086Y1220139D01*
X454285Y1220139D01*
X454285Y1220139D01*
X459035Y1220139D01*
X459234Y1220140D01*
X459601Y1219987D01*
D02*
G37*
G36*
X468352Y1219987D02*
X468633Y1219706D01*
X468785Y1219339D01*
X468785Y1219140D01*
X468785Y1219140D01*
X468785Y1214390D01*
X468785Y1214191D01*
X468632Y1213823D01*
X468351Y1213542D01*
X467983Y1213390D01*
X467785Y1213390D01*
X467785Y1213390D01*
X463034Y1213391D01*
X462836Y1213391D01*
X462468Y1213543D01*
X462187Y1213824D01*
X462035Y1214191D01*
X462035Y1214390D01*
Y1214390D01*
X462035Y1219140D01*
X462035Y1219339D01*
X462187Y1219706D01*
X462469Y1219987D01*
X462837Y1220139D01*
X463036Y1220139D01*
X463036Y1220139D01*
X467785Y1220139D01*
X467984Y1220139D01*
X468352Y1219987D01*
D02*
G37*
G36*
X485285Y1220139D02*
X485483Y1220139D01*
X485851Y1219987D01*
X486132Y1219705D01*
X486284Y1219338D01*
X486284Y1219139D01*
X486284Y1219139D01*
X486284Y1214389D01*
X486284Y1214190D01*
X486131Y1213823D01*
X485850Y1213541D01*
X485483Y1213389D01*
X485284Y1213389D01*
X480535Y1213389D01*
X480336Y1213389D01*
X479968Y1213542D01*
X479687Y1213823D01*
X479535Y1214191D01*
X479535Y1214390D01*
X479535Y1214390D01*
X479535Y1219140D01*
X479535Y1219339D01*
X479687Y1219706D01*
X479968Y1219987D01*
X480336Y1220139D01*
X480534Y1220139D01*
X480535Y1220139D01*
X485285Y1220139D01*
D02*
G37*
G36*
X477102Y1219987D02*
X477383Y1219706D01*
X477535Y1219339D01*
X477535Y1219140D01*
X477535Y1219140D01*
X477535Y1214390D01*
X477535Y1214191D01*
X477383Y1213823D01*
X477101Y1213542D01*
X476734Y1213390D01*
X476535Y1213390D01*
X476535Y1213390D01*
X471785Y1213390D01*
X471586Y1213391D01*
X471218Y1213543D01*
X470937Y1213824D01*
X470785Y1214191D01*
X470785Y1214390D01*
Y1214390D01*
X470785Y1219140D01*
X470785Y1219339D01*
X470938Y1219706D01*
X471219Y1219987D01*
X471587Y1220139D01*
X471786Y1220139D01*
X471786Y1220139D01*
X476536Y1220139D01*
X476735Y1220139D01*
X477102Y1219987D01*
D02*
G37*
G36*
X433351Y917538D02*
X433633Y917257D01*
X433785Y916890D01*
X433784Y916691D01*
X433785Y916691D01*
X433785Y911941D01*
X433784Y911742D01*
X433632Y911374D01*
X433351Y911093D01*
X432983Y910941D01*
X432784Y910941D01*
X432784Y910941D01*
X428034Y910941D01*
X427835Y910942D01*
X427468Y911094D01*
X427187Y911375D01*
X427034Y911742D01*
X427034Y911941D01*
Y911941D01*
X427035Y916691D01*
X427035Y916890D01*
X427187Y917257D01*
X427469Y917538D01*
X427836Y917690D01*
X428035Y917690D01*
X428035Y917690D01*
X432785Y917690D01*
X432984Y917690D01*
X433351Y917538D01*
D02*
G37*
G36*
X442102Y917538D02*
X442383Y917257D01*
X442535Y916890D01*
X442535Y916691D01*
X442535Y916691D01*
X442535Y911941D01*
X442535Y911742D01*
X442382Y911374D01*
X442101Y911093D01*
X441733Y910941D01*
X441534Y910941D01*
X441535Y910941D01*
X436784Y910941D01*
X436586Y910941D01*
X436218Y911094D01*
X435937Y911375D01*
X435785Y911742D01*
X435784Y911941D01*
Y911941D01*
X435785Y916691D01*
X435785Y916890D01*
X435937Y917257D01*
X436219Y917538D01*
X436586Y917690D01*
X436785Y917690D01*
X436786Y917690D01*
X441535Y917690D01*
X441734Y917690D01*
X442102Y917538D01*
D02*
G37*
G36*
X450852Y917538D02*
X451133Y917257D01*
X451285Y916889D01*
X451285Y916691D01*
X451285Y916691D01*
X451285Y911941D01*
X451285Y911742D01*
X451133Y911374D01*
X450851Y911093D01*
X450484Y910941D01*
X450285Y910941D01*
X450285Y910941D01*
X445535Y910941D01*
X445336Y910941D01*
X444968Y911094D01*
X444687Y911375D01*
X444535Y911742D01*
X444535Y911941D01*
Y911941D01*
X444535Y916691D01*
X444535Y916889D01*
X444687Y917257D01*
X444969Y917538D01*
X445337Y917690D01*
X445536Y917690D01*
X445536Y917690D01*
X450285Y917690D01*
X450484Y917690D01*
X450852Y917538D01*
D02*
G37*
G36*
X459602Y917538D02*
X459883Y917257D01*
X460035Y916889D01*
X460035Y916691D01*
X460035Y916690D01*
X460035Y911940D01*
X460035Y911741D01*
X459883Y911374D01*
X459601Y911093D01*
X459234Y910941D01*
X459035Y910941D01*
X459035Y910941D01*
X454285Y910941D01*
X454086Y910941D01*
X453719Y911094D01*
X453438Y911375D01*
X453285Y911742D01*
X453285Y911941D01*
Y911941D01*
X453285Y916690D01*
X453285Y916889D01*
X453438Y917257D01*
X453719Y917538D01*
X454087Y917690D01*
X454286Y917690D01*
X454286Y917690D01*
X459036Y917690D01*
X459235Y917690D01*
X459602Y917538D01*
D02*
G37*
G36*
X468352Y917538D02*
X468633Y917256D01*
X468785Y916889D01*
X468785Y916690D01*
X468785Y916690D01*
X468785Y911940D01*
X468785Y911741D01*
X468633Y911374D01*
X468352Y911093D01*
X467984Y910941D01*
X467785Y910941D01*
X467785Y910940D01*
X463035Y910941D01*
X462836Y910941D01*
X462469Y911093D01*
X462188Y911375D01*
X462035Y911742D01*
X462035Y911941D01*
Y911941D01*
X462035Y916690D01*
X462035Y916889D01*
X462188Y917257D01*
X462469Y917538D01*
X462837Y917690D01*
X463036Y917690D01*
X463036Y917690D01*
X467786Y917690D01*
X467985Y917690D01*
X468352Y917538D01*
D02*
G37*
G36*
X477102Y917538D02*
X477383Y917256D01*
X477536Y916889D01*
X477535Y916690D01*
X477536Y916690D01*
X477536Y911940D01*
X477536Y911741D01*
X477383Y911374D01*
X477102Y911093D01*
X476734Y910940D01*
X476535Y910940D01*
X476535Y910940D01*
X471785Y910941D01*
X471586Y910941D01*
X471219Y911093D01*
X470938Y911374D01*
X470785Y911742D01*
X470785Y911940D01*
Y911940D01*
X470786Y916690D01*
X470786Y916889D01*
X470938Y917256D01*
X471220Y917538D01*
X471587Y917690D01*
X471786Y917689D01*
X471786Y917689D01*
X476536Y917690D01*
X476735Y917690D01*
X477102Y917538D01*
D02*
G37*
G36*
X485853Y917537D02*
X486134Y917256D01*
X486286Y916889D01*
X486286Y916690D01*
X486286Y916690D01*
X486286Y911940D01*
X486286Y911741D01*
X486133Y911374D01*
X485852Y911092D01*
X485484Y910940D01*
X485285Y910940D01*
X485285Y910940D01*
X480535Y910940D01*
X480336Y910941D01*
X479969Y911093D01*
X479688Y911374D01*
X479536Y911741D01*
X479535Y911940D01*
Y911940D01*
X479536Y916690D01*
X479536Y916889D01*
X479688Y917256D01*
X479970Y917538D01*
X480337Y917689D01*
X480536Y917689D01*
X480536Y917689D01*
X485286Y917689D01*
X485485Y917690D01*
X485853Y917537D01*
D02*
G37*
G36*
X424035Y917691D02*
X424234Y917691D01*
X424602Y917539D01*
X424883Y917257D01*
X425035Y916889D01*
X425035Y916691D01*
X425035Y916691D01*
X425035Y911941D01*
X425035Y911742D01*
X424883Y911375D01*
X424602Y911093D01*
X424234Y910941D01*
X424035Y910941D01*
X424035Y910941D01*
X419285Y910941D01*
X419086Y910941D01*
X419085Y910942D01*
X419085D01*
X418718Y911094D01*
X418437Y911375D01*
X418284Y911742D01*
X418284Y911941D01*
Y911941D01*
X418284Y916691D01*
X418284Y916890D01*
X418437Y917257D01*
X418718Y917539D01*
X418832Y917585D01*
X419087Y917691D01*
X419286Y917691D01*
X419286Y917692D01*
X424035Y917691D01*
D02*
G37*
G36*
X485285Y908940D02*
X485484Y908940D01*
X485852Y908788D01*
X486133Y908506D01*
X486285Y908139D01*
X486285Y907940D01*
X486285Y907940D01*
X486285Y903190D01*
X486285Y902991D01*
X486132Y902624D01*
X485851Y902343D01*
X485484Y902190D01*
X485285Y902190D01*
X480535Y902190D01*
X480336Y902190D01*
X479969Y902343D01*
X479688Y902624D01*
X479536Y902992D01*
X479536Y903191D01*
X479536Y903191D01*
X479536Y907941D01*
X479536Y908140D01*
X479688Y908507D01*
X479969Y908788D01*
X480336Y908940D01*
X480535Y908940D01*
X480535Y908940D01*
X485285Y908940D01*
D02*
G37*
G36*
X434332Y907953D02*
X434613Y907672D01*
X434765Y907305D01*
X434765Y907106D01*
X434765Y907106D01*
X434765Y902356D01*
X434765Y902157D01*
X434613Y901789D01*
X434331Y901508D01*
X433964Y901356D01*
X433765Y901356D01*
X433765Y901356D01*
X429015Y901356D01*
X428816Y901356D01*
X428448Y901509D01*
X428167Y901790D01*
X428015Y902157D01*
X428015Y902356D01*
Y902356D01*
X428015Y907106D01*
X428015Y907305D01*
X428167Y907672D01*
X428449Y907953D01*
X428817Y908105D01*
X429016Y908105D01*
X429016Y908105D01*
X433766Y908105D01*
X433964Y908105D01*
X434332Y907953D01*
D02*
G37*
G36*
X454765Y908105D02*
X465765Y908105D01*
X465765Y908105D01*
X465964Y908105D01*
X466331Y907952D01*
X466612Y907671D01*
X466764Y907304D01*
X466764Y907105D01*
X466765Y902355D01*
X466764Y902355D01*
X466764Y902156D01*
X466612Y901788D01*
X466330Y901507D01*
X465963Y901355D01*
X465764Y901355D01*
X454764Y901355D01*
X454764Y901355D01*
X454565Y901355D01*
X454198Y901507D01*
X453917Y901788D01*
X453764Y902156D01*
X453765Y902355D01*
X453764Y907105D01*
Y907105D01*
X453764Y907304D01*
X453917Y907672D01*
X454198Y907953D01*
X454566Y908105D01*
X454765Y908105D01*
D02*
G37*
G36*
X424035Y908941D02*
X424234Y908941D01*
X424602Y908789D01*
X424883Y908507D01*
X425035Y908139D01*
X425034Y907940D01*
X425034Y907940D01*
X425035Y903191D01*
X425035Y902992D01*
X424883Y902624D01*
X424602Y902343D01*
X424234Y902191D01*
X424035Y902191D01*
X424035Y902191D01*
X419285Y902191D01*
X419086Y902191D01*
X418719Y902344D01*
X418438Y902625D01*
X418286Y902992D01*
X418286Y903192D01*
X418285Y903191D01*
X418286Y907942D01*
X418286Y908140D01*
X418438Y908508D01*
X418719Y908789D01*
X419087Y908941D01*
X419286Y908941D01*
Y908941D01*
X424035Y908941D01*
D02*
G37*
G36*
X475516Y908105D02*
X475715Y908105D01*
X476082Y907953D01*
X476363Y907671D01*
X476515Y907304D01*
X476515Y907105D01*
X476515Y907105D01*
X476515Y902355D01*
X476515Y902156D01*
X476363Y901788D01*
X476082Y901507D01*
X475715Y901355D01*
X475516Y901355D01*
X475516Y901355D01*
X470766Y901355D01*
X470567Y901355D01*
X470199Y901508D01*
X469918Y901789D01*
X469766Y902157D01*
X469766Y902356D01*
X469766Y902356D01*
X469766Y907106D01*
X469766Y907305D01*
X469919Y907672D01*
X470200Y907953D01*
X470567Y908105D01*
X470766Y908106D01*
X470766Y908106D01*
X475516Y908105D01*
D02*
G37*
G36*
X450331Y907953D02*
X450613Y907672D01*
X450765Y907304D01*
X450765Y907105D01*
X450765Y907105D01*
X450765Y902354D01*
X450765Y902156D01*
X450613Y901788D01*
X450331Y901507D01*
X449964Y901355D01*
X449765Y901355D01*
X449765Y901355D01*
X438765Y901355D01*
X438566Y901355D01*
X438199Y901507D01*
X437917Y901788D01*
X437765Y902155D01*
X437765Y902354D01*
X437765Y902354D01*
X437765Y907105D01*
X437765Y907303D01*
X437917Y907671D01*
X438198Y907952D01*
X438566Y908104D01*
X438765Y908104D01*
X438765Y908104D01*
X449765Y908105D01*
X449964Y908105D01*
X450331Y907953D01*
D02*
G37*
G36*
X485285Y900190D02*
X485484Y900190D01*
X485852Y900038D01*
X486133Y899756D01*
X486285Y899389D01*
X486285Y899190D01*
X486285Y899190D01*
X486285Y894440D01*
X486284Y894241D01*
X486132Y893874D01*
X485851Y893592D01*
X485484Y893440D01*
X485285Y893440D01*
X480535Y893440D01*
X480336Y893440D01*
X479969Y893593D01*
X479688Y893874D01*
X479536Y894242D01*
X479536Y894441D01*
X479536Y894441D01*
X479536Y899191D01*
X479536Y899389D01*
X479688Y899757D01*
X479969Y900038D01*
X480336Y900190D01*
X480535Y900190D01*
X480535Y900190D01*
X485285Y900190D01*
D02*
G37*
G36*
X464265Y898855D02*
X464862Y898855D01*
X465965Y898398D01*
X466808Y897554D01*
X467265Y896452D01*
X467265Y895855D01*
X467265Y871855D01*
X467265Y871855D01*
X467265Y871259D01*
X466809Y870156D01*
X465965Y869312D01*
X464862Y868855D01*
X464265Y868855D01*
X440265Y868855D01*
X440265Y868855D01*
X439668Y868855D01*
X438566Y869312D01*
X437722Y870156D01*
X437265Y871259D01*
X437266Y871855D01*
X437265Y895855D01*
X437265Y895855D01*
X437265Y896452D01*
X437722Y897554D01*
X438565Y898398D01*
X439668Y898855D01*
X440265Y898855D01*
X464265Y898855D01*
X464265Y898855D01*
D02*
G37*
G36*
X424035Y900191D02*
X424234Y900191D01*
X424602Y900038D01*
X424883Y899757D01*
X425035Y899389D01*
X425034Y899190D01*
X425034Y899190D01*
X425034Y894440D01*
X425035Y894241D01*
X424883Y893874D01*
X424601Y893593D01*
X424234Y893441D01*
X424035Y893441D01*
X424035Y893441D01*
X419285Y893441D01*
X419086Y893441D01*
X418719Y893593D01*
X418438Y893875D01*
X418285Y894242D01*
X418286Y894441D01*
X418285Y894441D01*
X418286Y899191D01*
X418286Y899390D01*
X418438Y899757D01*
X418719Y900039D01*
X419087Y900191D01*
X419285Y900191D01*
X419285Y900191D01*
X424035Y900191D01*
D02*
G37*
G36*
X485285Y891440D02*
X485484Y891440D01*
X485852Y891287D01*
X486133Y891006D01*
X486285Y890638D01*
X486285Y890439D01*
X486285Y890440D01*
X486284Y885689D01*
X486284Y885491D01*
X486132Y885123D01*
X485851Y884842D01*
X485484Y884690D01*
X485285Y884689D01*
X480535Y884690D01*
X480336Y884690D01*
X479969Y884842D01*
X479688Y885124D01*
X479536Y885491D01*
X479536Y885691D01*
X479536Y885691D01*
X479536Y890440D01*
X479536Y890639D01*
X479688Y891007D01*
X479969Y891288D01*
X480336Y891440D01*
X480535Y891440D01*
X480535Y891440D01*
X485285Y891440D01*
D02*
G37*
G36*
X475515Y898355D02*
X475714Y898355D01*
X476081Y898203D01*
X476362Y897922D01*
X476515Y897554D01*
X476515Y897355D01*
X476515Y897355D01*
X476515Y886355D01*
X476515Y886156D01*
X476363Y885789D01*
X476082Y885507D01*
X475714Y885355D01*
X475515Y885355D01*
X475515D01*
X470765Y885356D01*
X470566Y885355D01*
X470198Y885507D01*
X469917Y885789D01*
X469765Y886156D01*
X469765Y886355D01*
X469765Y886355D01*
X469765Y897355D01*
X469765Y897554D01*
X469917Y897921D01*
X470198Y898203D01*
X470565Y898355D01*
X470764Y898355D01*
X470764Y898355D01*
X475515Y898355D01*
D02*
G37*
G36*
X429015Y898355D02*
X429015Y898355D01*
X433766Y898354D01*
X433965Y898354D01*
X434332Y898202D01*
X434613Y897921D01*
X434765Y897554D01*
X434765Y897355D01*
X434765Y897355D01*
X434765Y886355D01*
X434765Y886156D01*
X434613Y885788D01*
X434332Y885507D01*
X433965Y885355D01*
X433766Y885354D01*
X433766Y885354D01*
X429016Y885355D01*
X428817Y885355D01*
X428449Y885507D01*
X428168Y885788D01*
X428016Y886155D01*
X428016Y886354D01*
Y886354D01*
X428015Y897354D01*
X428015Y897553D01*
X428167Y897921D01*
X428449Y898202D01*
X428816Y898355D01*
X429015Y898355D01*
D02*
G37*
G36*
X424035Y891441D02*
X424234Y891441D01*
X424601Y891288D01*
X424883Y891007D01*
X425034Y890639D01*
X425034Y890440D01*
X425034Y890440D01*
X425034Y885690D01*
X425034Y885491D01*
X424882Y885124D01*
X424601Y884843D01*
X424234Y884691D01*
X424035Y884691D01*
X424035Y884691D01*
X419285Y884691D01*
X419086Y884691D01*
X418718Y884843D01*
X418437Y885125D01*
X418285Y885492D01*
X418285Y885691D01*
X418285Y885691D01*
X418285Y890441D01*
X418286Y890640D01*
X418438Y891007D01*
X418719Y891288D01*
X419086Y891441D01*
X419285Y891441D01*
X419285Y891441D01*
X424035Y891441D01*
D02*
G37*
G36*
X485285Y882690D02*
X485484Y882690D01*
X485851Y882537D01*
X486133Y882256D01*
X486285Y881888D01*
X486284Y881689D01*
X486285Y881689D01*
X486284Y876939D01*
X486284Y876740D01*
X486132Y876373D01*
X485851Y876092D01*
X485484Y875940D01*
X485285Y875939D01*
X485285D01*
X480535Y875940D01*
X480336Y875940D01*
X479968Y876092D01*
X479687Y876374D01*
X479535Y876741D01*
X479536Y876940D01*
X479536Y876940D01*
X479535Y881690D01*
X479535Y881889D01*
X479688Y882256D01*
X479969Y882538D01*
X480336Y882690D01*
X480535Y882690D01*
X480535Y882690D01*
X485285Y882690D01*
D02*
G37*
G36*
X424035Y882690D02*
X424234Y882690D01*
X424601Y882538D01*
X424882Y882256D01*
X425034Y881889D01*
X425034Y881690D01*
X425034Y881690D01*
X425034Y876940D01*
X425034Y876741D01*
X424882Y876374D01*
X424601Y876093D01*
X424234Y875940D01*
X424035Y875941D01*
X424035Y875940D01*
X419285Y875940D01*
X419086Y875940D01*
X418718Y876093D01*
X418437Y876374D01*
X418285Y876742D01*
X418285Y876941D01*
X418285Y876941D01*
X418285Y881691D01*
X418286Y881890D01*
X418438Y882257D01*
X418719Y882538D01*
X419086Y882691D01*
X419285Y882691D01*
X419285Y882691D01*
X424035Y882690D01*
D02*
G37*
G36*
X485285Y873939D02*
X485484Y873939D01*
X485851Y873787D01*
X486132Y873506D01*
X486284Y873138D01*
X486284Y872939D01*
X486284Y872939D01*
X486284Y868189D01*
X486284Y867990D01*
X486132Y867623D01*
X485850Y867342D01*
X485483Y867189D01*
X485285Y867189D01*
X480535Y867190D01*
X480336Y867189D01*
X479968Y867342D01*
X479687Y867623D01*
X479535Y867991D01*
X479536Y868190D01*
X479535Y868190D01*
X479535Y872940D01*
X479535Y873139D01*
X479687Y873506D01*
X479968Y873787D01*
X480336Y873939D01*
X480535Y873939D01*
X480535Y873940D01*
X485285Y873939D01*
D02*
G37*
G36*
X475515Y882355D02*
X475714Y882355D01*
X476081Y882203D01*
X476362Y881922D01*
X476514Y881554D01*
X476514Y881356D01*
X476514Y881356D01*
X476515Y870356D01*
X476515Y870157D01*
X476363Y869789D01*
X476082Y869508D01*
X475714Y869355D01*
X475515Y869355D01*
X475515D01*
X470764Y869356D01*
X470566Y869356D01*
X470198Y869508D01*
X469917Y869789D01*
X469765Y870156D01*
X469765Y870355D01*
X469765Y870355D01*
X469765Y881355D01*
X469765Y881554D01*
X469917Y881922D01*
X470198Y882203D01*
X470565Y882355D01*
X470764Y882356D01*
X470764Y882356D01*
X475515Y882355D01*
D02*
G37*
G36*
X429015Y882355D02*
X429015Y882355D01*
X433766Y882354D01*
X433965Y882355D01*
X434332Y882203D01*
X434613Y881921D01*
X434765Y881554D01*
X434765Y881355D01*
X434765Y881355D01*
X434765Y870355D01*
X434765Y870156D01*
X434613Y869789D01*
X434332Y869507D01*
X433965Y869355D01*
X433766Y869355D01*
X433766Y869355D01*
X429015Y869355D01*
X428817Y869355D01*
X428449Y869507D01*
X428168Y869788D01*
X428016Y870156D01*
X428016Y870355D01*
Y870355D01*
X428015Y881355D01*
X428015Y881554D01*
X428167Y881921D01*
X428448Y882203D01*
X428816Y882355D01*
X429015Y882355D01*
D02*
G37*
G36*
X424035Y873940D02*
X424234Y873940D01*
X424601Y873788D01*
X424882Y873506D01*
X425034Y873139D01*
X425034Y872940D01*
X425034Y872940D01*
X425034Y868190D01*
X425034Y867991D01*
X424882Y867624D01*
X424601Y867342D01*
X424234Y867190D01*
X424035Y867190D01*
X424035Y867190D01*
X419285Y867190D01*
X419086Y867190D01*
X418718Y867343D01*
X418437Y867624D01*
X418285Y867992D01*
X418285Y868191D01*
X418285Y868191D01*
X418285Y872941D01*
X418285Y873139D01*
X418438Y873507D01*
X418719Y873788D01*
X419086Y873940D01*
X419285Y873941D01*
X419285Y873941D01*
X424035Y873940D01*
D02*
G37*
G36*
X465765Y866355D02*
X465964Y866355D01*
X466331Y866203D01*
X466613Y865922D01*
X466765Y865555D01*
X466766Y865356D01*
X466766Y865356D01*
X466765Y860605D01*
X466765Y860406D01*
X466613Y860039D01*
X466332Y859758D01*
X465964Y859606D01*
X465766Y859606D01*
X465766D01*
X454766Y859605D01*
X454566Y859605D01*
X454199Y859757D01*
X453918Y860038D01*
X453765Y860406D01*
X453765Y860605D01*
Y860605D01*
X453766Y865356D01*
X453765Y865554D01*
X453918Y865922D01*
X454199Y866203D01*
X454566Y866355D01*
X454765Y866355D01*
X454765Y866355D01*
X465765Y866355D01*
D02*
G37*
G36*
X449766Y866355D02*
X449965Y866355D01*
X450332Y866203D01*
X450614Y865922D01*
X450766Y865554D01*
X450765Y865355D01*
X450766Y860605D01*
X450766Y860605D01*
X450766Y860406D01*
X450614Y860038D01*
X450332Y859757D01*
X449965Y859605D01*
X449766Y859605D01*
X438765Y859605D01*
X438766D01*
X438567Y859605D01*
X438199Y859758D01*
X437918Y860039D01*
X437766Y860406D01*
X437766Y860605D01*
X437766Y865356D01*
X437766Y865355D01*
X437766Y865554D01*
X437918Y865922D01*
X438200Y866203D01*
X438567Y866355D01*
X438766Y866355D01*
X449766Y866355D01*
X449766Y866355D01*
D02*
G37*
G36*
X475516Y866354D02*
X475714Y866354D01*
X476082Y866201D01*
X476363Y865920D01*
X476515Y865553D01*
X476516Y865354D01*
X476516D01*
X476515Y860604D01*
X476515Y860406D01*
X476363Y860038D01*
X476081Y859757D01*
X475714Y859605D01*
X475514Y859605D01*
X475514Y859605D01*
X470765Y859605D01*
X470566Y859605D01*
X470198Y859757D01*
X469917Y860038D01*
X469765Y860406D01*
X469765Y860604D01*
X469765Y860604D01*
X469765Y865354D01*
X469765Y865553D01*
X469918Y865921D01*
X470199Y866202D01*
X470567Y866354D01*
X470766Y866354D01*
X470765Y866354D01*
X475516Y866354D01*
D02*
G37*
G36*
X433767Y866353D02*
X433965Y866353D01*
X434333Y866200D01*
X434614Y865919D01*
X434766Y865552D01*
X434767Y865353D01*
X434767D01*
X434766Y860603D01*
X434766Y860405D01*
X434614Y860037D01*
X434332Y859756D01*
X433965Y859604D01*
X433766Y859604D01*
X433765Y859604D01*
X429016Y859604D01*
X428817Y859604D01*
X428449Y859756D01*
X428168Y860037D01*
X428016Y860405D01*
X428016Y860603D01*
X428016Y860603D01*
X428016Y865353D01*
X428016Y865552D01*
X428169Y865920D01*
X428450Y866201D01*
X428818Y866353D01*
X429017Y866353D01*
X429016Y866353D01*
X433767Y866353D01*
D02*
G37*
G36*
X485285Y865189D02*
X485484Y865189D01*
X485851Y865037D01*
X486132Y864755D01*
X486284Y864388D01*
X486284Y864189D01*
X486284Y864189D01*
X486284Y859439D01*
X486284Y859240D01*
X486132Y858873D01*
X485850Y858592D01*
X485483Y858439D01*
X485284Y858439D01*
X485284D01*
X485284D01*
D01*
X480535Y858439D01*
X480336Y858439D01*
X479968Y858592D01*
X479687Y858873D01*
X479535Y859241D01*
X479535Y859440D01*
X479535Y859440D01*
X479535Y864190D01*
X479535Y864389D01*
X479687Y864756D01*
X479968Y865037D01*
X480336Y865189D01*
X480535Y865189D01*
X480535Y865189D01*
X485285Y865189D01*
D02*
G37*
G36*
X424035Y865190D02*
X424233Y865190D01*
X424601Y865038D01*
X424882Y864756D01*
X425034Y864388D01*
X425034Y864189D01*
X425034Y864189D01*
X425034Y859439D01*
X425034Y859241D01*
X424882Y858873D01*
X424601Y858592D01*
X424233Y858440D01*
X424035Y858440D01*
X424035Y858440D01*
X419285Y858440D01*
X419086Y858440D01*
X418718Y858593D01*
X418437Y858874D01*
X418285Y859241D01*
X418285Y859440D01*
X418285Y859440D01*
X418285Y864191D01*
X418285Y864389D01*
X418438Y864757D01*
X418719Y865038D01*
X419086Y865190D01*
X419285Y865190D01*
X419285Y865190D01*
X424035Y865190D01*
D02*
G37*
G36*
X424601Y856288D02*
X424882Y856007D01*
X425034Y855639D01*
X425034Y855441D01*
X425034Y855441D01*
X425034Y850691D01*
X425034Y850492D01*
X424881Y850124D01*
X424600Y849843D01*
X424232Y849691D01*
X424034Y849691D01*
X424034Y849691D01*
X419283Y849691D01*
X419085Y849691D01*
X418717Y849844D01*
X418436Y850125D01*
X418284Y850492D01*
X418284Y850691D01*
Y850691D01*
X418284Y855441D01*
X418284Y855639D01*
X418436Y856007D01*
X418718Y856288D01*
X419086Y856440D01*
X419285Y856440D01*
X419285Y856440D01*
X424034Y856440D01*
X424233Y856440D01*
X424601Y856288D01*
D02*
G37*
G36*
X433351Y856288D02*
X433632Y856007D01*
X433784Y855639D01*
X433784Y855441D01*
X433784Y855440D01*
X433784Y850691D01*
X433784Y850491D01*
X433632Y850124D01*
X433350Y849843D01*
X432983Y849691D01*
X432784Y849691D01*
X432784Y849691D01*
X428034Y849691D01*
X427835Y849691D01*
X427467Y849844D01*
X427186Y850125D01*
X427034Y850492D01*
X427034Y850691D01*
X427034Y855440D01*
X427034Y855639D01*
X427187Y856007D01*
X427468Y856288D01*
X427836Y856440D01*
X428035Y856440D01*
X428035Y856440D01*
X432785Y856440D01*
X432984Y856440D01*
X433351Y856288D01*
D02*
G37*
G36*
X442101Y856288D02*
X442382Y856007D01*
X442534Y855639D01*
X442534Y855440D01*
X442534Y855440D01*
X442534Y850690D01*
X442534Y850491D01*
X442382Y850124D01*
X442100Y849843D01*
X441733Y849691D01*
X441534Y849691D01*
X441534Y849691D01*
X436784Y849691D01*
X436585Y849691D01*
X436218Y849843D01*
X435937Y850125D01*
X435784Y850492D01*
X435784Y850691D01*
Y850691D01*
X435784Y855440D01*
X435784Y855639D01*
X435937Y856007D01*
X436218Y856288D01*
X436586Y856440D01*
X436785Y856440D01*
X436785Y856440D01*
X441535Y856440D01*
X441734Y856440D01*
X442101Y856288D01*
D02*
G37*
G36*
X450851Y856288D02*
X451132Y856006D01*
X451284Y855639D01*
X451284Y855440D01*
X451284Y855440D01*
X451284Y850690D01*
X451284Y850491D01*
X451132Y850124D01*
X450851Y849843D01*
X450483Y849690D01*
X450284Y849691D01*
X450284Y849690D01*
X445534Y849691D01*
X445335Y849691D01*
X444968Y849843D01*
X444687Y850124D01*
X444534Y850492D01*
X444534Y850690D01*
Y850691D01*
X444535Y855440D01*
X444534Y855639D01*
X444687Y856007D01*
X444968Y856288D01*
X445336Y856440D01*
X445535Y856439D01*
X445535Y856439D01*
X450285Y856440D01*
X450484Y856440D01*
X450851Y856288D01*
D02*
G37*
G36*
X459601Y856287D02*
X459883Y856006D01*
X460035Y855639D01*
X460034Y855440D01*
X460035Y855440D01*
X460035Y850690D01*
X460035Y850491D01*
X459882Y850124D01*
X459601Y849842D01*
X459233Y849690D01*
X459034Y849690D01*
X459034Y849690D01*
X454284Y849691D01*
X454085Y849691D01*
X453718Y849843D01*
X453437Y850124D01*
X453285Y850491D01*
X453284Y850690D01*
Y850690D01*
X453285Y855440D01*
X453285Y855639D01*
X453437Y856006D01*
X453719Y856288D01*
X454086Y856440D01*
X454285Y856439D01*
X454285Y856439D01*
X459035Y856439D01*
X459234Y856440D01*
X459601Y856287D01*
D02*
G37*
G36*
X468352Y856287D02*
X468633Y856006D01*
X468785Y855639D01*
X468785Y855440D01*
X468785Y855440D01*
X468785Y850690D01*
X468785Y850491D01*
X468632Y850123D01*
X468351Y849842D01*
X467983Y849690D01*
X467785Y849690D01*
X467785Y849690D01*
X463034Y849690D01*
X462836Y849691D01*
X462468Y849843D01*
X462187Y850124D01*
X462035Y850491D01*
X462035Y850690D01*
Y850690D01*
X462035Y855440D01*
X462035Y855639D01*
X462187Y856006D01*
X462469Y856287D01*
X462837Y856439D01*
X463036Y856439D01*
X463036Y856439D01*
X467785Y856439D01*
X467984Y856439D01*
X468352Y856287D01*
D02*
G37*
G36*
X485285Y856439D02*
X485483Y856439D01*
X485851Y856287D01*
X486132Y856005D01*
X486284Y855638D01*
X486284Y855439D01*
X486284Y855439D01*
X486284Y850689D01*
X486284Y850490D01*
X486131Y850123D01*
X485850Y849841D01*
X485483Y849689D01*
X485284Y849689D01*
X480535Y849689D01*
X480336Y849689D01*
X479968Y849842D01*
X479687Y850123D01*
X479535Y850491D01*
X479535Y850690D01*
X479535Y850690D01*
X479535Y855440D01*
X479535Y855638D01*
X479687Y856006D01*
X479968Y856287D01*
X480336Y856439D01*
X480534Y856439D01*
X480535Y856439D01*
X485285Y856439D01*
D02*
G37*
G36*
X477102Y856287D02*
X477383Y856006D01*
X477535Y855639D01*
X477535Y855440D01*
X477535Y855440D01*
X477535Y850690D01*
X477535Y850491D01*
X477383Y850123D01*
X477101Y849842D01*
X476734Y849690D01*
X476535Y849690D01*
X476535Y849690D01*
X471785Y849690D01*
X471586Y849690D01*
X471218Y849843D01*
X470937Y850124D01*
X470785Y850491D01*
X470785Y850690D01*
Y850690D01*
X470785Y855440D01*
X470785Y855639D01*
X470938Y856006D01*
X471219Y856287D01*
X471587Y856439D01*
X471786Y856439D01*
X471786Y856439D01*
X476536Y856439D01*
X476735Y856439D01*
X477102Y856287D01*
D02*
G37*
G36*
X433351Y553838D02*
X433633Y553557D01*
X433785Y553190D01*
X433784Y552991D01*
X433785Y552991D01*
X433785Y548241D01*
X433784Y548042D01*
X433632Y547674D01*
X433351Y547393D01*
X432983Y547241D01*
X432784Y547241D01*
X432784Y547241D01*
X428034Y547241D01*
X427835Y547242D01*
X427468Y547394D01*
X427187Y547675D01*
X427034Y548042D01*
X427034Y548241D01*
Y548241D01*
X427035Y552991D01*
X427035Y553190D01*
X427187Y553557D01*
X427469Y553838D01*
X427836Y553990D01*
X428035Y553990D01*
X428035Y553990D01*
X432785Y553990D01*
X432984Y553990D01*
X433351Y553838D01*
D02*
G37*
G36*
X442102Y553838D02*
X442383Y553557D01*
X442535Y553190D01*
X442535Y552991D01*
X442535Y552991D01*
X442535Y548241D01*
X442535Y548042D01*
X442382Y547674D01*
X442101Y547393D01*
X441733Y547241D01*
X441534Y547241D01*
X441535Y547241D01*
X436784Y547241D01*
X436586Y547241D01*
X436218Y547394D01*
X435937Y547675D01*
X435785Y548042D01*
X435784Y548241D01*
Y548241D01*
X435785Y552991D01*
X435785Y553190D01*
X435937Y553557D01*
X436219Y553838D01*
X436586Y553990D01*
X436785Y553990D01*
X436786Y553990D01*
X441535Y553990D01*
X441734Y553990D01*
X442102Y553838D01*
D02*
G37*
G36*
X450852Y553838D02*
X451133Y553557D01*
X451285Y553189D01*
X451285Y552991D01*
X451285Y552990D01*
X451285Y548241D01*
X451285Y548042D01*
X451133Y547674D01*
X450851Y547393D01*
X450484Y547241D01*
X450285Y547241D01*
X450285Y547241D01*
X445535Y547241D01*
X445336Y547241D01*
X444968Y547394D01*
X444687Y547675D01*
X444535Y548042D01*
X444535Y548241D01*
Y548241D01*
X444535Y552990D01*
X444535Y553189D01*
X444687Y553557D01*
X444969Y553838D01*
X445337Y553990D01*
X445536Y553990D01*
X445536Y553990D01*
X450285Y553990D01*
X450484Y553990D01*
X450852Y553838D01*
D02*
G37*
G36*
X459602Y553838D02*
X459883Y553557D01*
X460035Y553189D01*
X460035Y552990D01*
X460035Y552990D01*
X460035Y548240D01*
X460035Y548041D01*
X459883Y547674D01*
X459601Y547393D01*
X459234Y547241D01*
X459035Y547241D01*
X459035Y547241D01*
X454285Y547241D01*
X454086Y547241D01*
X453719Y547393D01*
X453438Y547675D01*
X453285Y548042D01*
X453285Y548241D01*
Y548241D01*
X453285Y552990D01*
X453285Y553189D01*
X453438Y553557D01*
X453719Y553838D01*
X454087Y553990D01*
X454286Y553989D01*
X454286Y553990D01*
X459036Y553990D01*
X459235Y553990D01*
X459602Y553838D01*
D02*
G37*
G36*
X468352Y553838D02*
X468633Y553556D01*
X468785Y553189D01*
X468785Y552990D01*
X468785Y552990D01*
X468785Y548240D01*
X468785Y548041D01*
X468633Y547674D01*
X468352Y547393D01*
X467984Y547240D01*
X467785Y547241D01*
X467785Y547240D01*
X463035Y547241D01*
X462836Y547241D01*
X462469Y547393D01*
X462188Y547674D01*
X462035Y548042D01*
X462035Y548241D01*
Y548241D01*
X462035Y552990D01*
X462035Y553189D01*
X462188Y553557D01*
X462469Y553838D01*
X462837Y553990D01*
X463036Y553989D01*
X463036Y553989D01*
X467786Y553990D01*
X467985Y553990D01*
X468352Y553838D01*
D02*
G37*
G36*
X477102Y553838D02*
X477383Y553556D01*
X477536Y553189D01*
X477535Y552990D01*
X477536Y552990D01*
X477536Y548240D01*
X477536Y548041D01*
X477383Y547674D01*
X477102Y547392D01*
X476734Y547240D01*
X476535Y547240D01*
X476535Y547240D01*
X471785Y547241D01*
X471586Y547241D01*
X471219Y547393D01*
X470938Y547674D01*
X470785Y548041D01*
X470785Y548240D01*
Y548240D01*
X470786Y552990D01*
X470786Y553189D01*
X470938Y553557D01*
X471220Y553838D01*
X471587Y553989D01*
X471786Y553989D01*
X471786Y553989D01*
X476536Y553989D01*
X476735Y553989D01*
X477102Y553838D01*
D02*
G37*
G36*
X485853Y553837D02*
X486134Y553556D01*
X486286Y553189D01*
X486286Y552990D01*
X486286Y552990D01*
X486286Y548240D01*
X486286Y548041D01*
X486133Y547673D01*
X485852Y547392D01*
X485484Y547240D01*
X485285Y547240D01*
X485285Y547240D01*
X480535Y547240D01*
X480336Y547241D01*
X479969Y547393D01*
X479688Y547674D01*
X479536Y548041D01*
X479535Y548240D01*
Y548240D01*
X479536Y552990D01*
X479536Y553189D01*
X479688Y553556D01*
X479970Y553838D01*
X480337Y553989D01*
X480536Y553989D01*
X480536Y553989D01*
X485286Y553989D01*
X485485Y553989D01*
X485853Y553837D01*
D02*
G37*
G36*
X424035Y553991D02*
X424234Y553991D01*
X424602Y553839D01*
X424883Y553557D01*
X425035Y553190D01*
X425035Y552990D01*
X425035Y552990D01*
X425035Y548241D01*
X425035Y548042D01*
X424883Y547674D01*
X424602Y547393D01*
X424234Y547241D01*
X424035Y547241D01*
X424035Y547241D01*
X419285Y547241D01*
X419086Y547241D01*
X419085Y547242D01*
X419085D01*
X418718Y547394D01*
X418437Y547675D01*
X418284Y548042D01*
X418284Y548241D01*
Y548241D01*
X418284Y552991D01*
X418284Y553190D01*
X418437Y553557D01*
X418718Y553839D01*
X418832Y553885D01*
X419087Y553991D01*
X419286Y553992D01*
X419286Y553992D01*
X424035Y553991D01*
D02*
G37*
G36*
X485285Y545240D02*
X485484Y545240D01*
X485852Y545088D01*
X486133Y544806D01*
X486285Y544439D01*
X486285Y544240D01*
X486285Y544240D01*
X486285Y539490D01*
X486285Y539291D01*
X486132Y538924D01*
X485851Y538643D01*
X485484Y538490D01*
X485285Y538490D01*
X480535Y538490D01*
X480336Y538490D01*
X479969Y538643D01*
X479688Y538924D01*
X479536Y539292D01*
X479536Y539491D01*
X479536Y539491D01*
X479536Y544241D01*
X479536Y544440D01*
X479688Y544807D01*
X479969Y545088D01*
X480336Y545240D01*
X480535Y545240D01*
X480535Y545240D01*
X485285Y545240D01*
D02*
G37*
G36*
X434332Y544253D02*
X434613Y543972D01*
X434765Y543604D01*
X434765Y543406D01*
X434765Y543405D01*
X434765Y538656D01*
X434765Y538457D01*
X434613Y538089D01*
X434331Y537808D01*
X433964Y537656D01*
X433765Y537656D01*
X433765Y537656D01*
X429015Y537656D01*
X428816Y537656D01*
X428448Y537809D01*
X428167Y538090D01*
X428015Y538457D01*
X428015Y538656D01*
Y538656D01*
X428015Y543405D01*
X428015Y543605D01*
X428167Y543972D01*
X428449Y544253D01*
X428817Y544405D01*
X429016Y544405D01*
X429016Y544405D01*
X433766Y544405D01*
X433964Y544405D01*
X434332Y544253D01*
D02*
G37*
G36*
X454765Y544405D02*
X465765Y544405D01*
X465765Y544405D01*
X465964Y544405D01*
X466331Y544252D01*
X466612Y543971D01*
X466764Y543604D01*
X466764Y543405D01*
X466765Y538655D01*
X466764Y538655D01*
X466764Y538456D01*
X466612Y538088D01*
X466330Y537807D01*
X465963Y537655D01*
X465764Y537655D01*
X454764Y537655D01*
X454764Y537655D01*
X454565Y537655D01*
X454198Y537807D01*
X453917Y538088D01*
X453764Y538456D01*
X453765Y538655D01*
X453764Y543405D01*
Y543405D01*
X453764Y543604D01*
X453917Y543972D01*
X454198Y544253D01*
X454566Y544405D01*
X454765Y544405D01*
D02*
G37*
G36*
X424035Y545241D02*
X424234Y545241D01*
X424602Y545089D01*
X424883Y544807D01*
X425035Y544439D01*
X425034Y544240D01*
X425034Y544240D01*
X425035Y539490D01*
X425035Y539292D01*
X424883Y538924D01*
X424602Y538643D01*
X424234Y538491D01*
X424035Y538491D01*
X424035Y538491D01*
X419285Y538491D01*
X419086Y538491D01*
X418719Y538643D01*
X418438Y538925D01*
X418286Y539292D01*
X418286Y539491D01*
X418285Y539491D01*
X418286Y544241D01*
X418286Y544440D01*
X418438Y544808D01*
X418719Y545089D01*
X419087Y545241D01*
X419286Y545241D01*
Y545241D01*
X424035Y545241D01*
D02*
G37*
G36*
X475516Y544405D02*
X475715Y544405D01*
X476082Y544253D01*
X476363Y543971D01*
X476515Y543604D01*
X476515Y543405D01*
X476515Y543405D01*
X476515Y538655D01*
X476515Y538456D01*
X476363Y538088D01*
X476082Y537807D01*
X475715Y537655D01*
X475516Y537655D01*
X475516Y537655D01*
X470766Y537655D01*
X470567Y537655D01*
X470199Y537808D01*
X469918Y538089D01*
X469766Y538457D01*
X469766Y538656D01*
X469766Y538656D01*
X469766Y543406D01*
X469766Y543605D01*
X469919Y543972D01*
X470200Y544253D01*
X470567Y544405D01*
X470766Y544406D01*
X470766Y544406D01*
X475516Y544405D01*
D02*
G37*
G36*
X450331Y544253D02*
X450613Y543971D01*
X450765Y543604D01*
X450765Y543405D01*
X450765Y543405D01*
X450765Y538654D01*
X450765Y538456D01*
X450613Y538088D01*
X450331Y537807D01*
X449964Y537655D01*
X449765Y537655D01*
X449765Y537655D01*
X438765Y537655D01*
X438566Y537655D01*
X438199Y537807D01*
X437917Y538088D01*
X437765Y538455D01*
X437765Y538654D01*
X437765Y538654D01*
X437765Y543405D01*
X437765Y543604D01*
X437917Y543971D01*
X438198Y544252D01*
X438566Y544404D01*
X438765Y544404D01*
X438765Y544404D01*
X449765Y544405D01*
X449964Y544405D01*
X450331Y544253D01*
D02*
G37*
G36*
X485285Y536490D02*
X485484Y536490D01*
X485852Y536338D01*
X486133Y536056D01*
X486285Y535689D01*
X486285Y535490D01*
X486285Y535490D01*
X486285Y530740D01*
X486284Y530541D01*
X486132Y530173D01*
X485851Y529892D01*
X485484Y529740D01*
X485285Y529740D01*
X480535Y529740D01*
X480336Y529740D01*
X479969Y529892D01*
X479688Y530174D01*
X479536Y530542D01*
X479536Y530741D01*
X479536Y530741D01*
X479536Y535490D01*
X479536Y535689D01*
X479688Y536057D01*
X479969Y536338D01*
X480336Y536490D01*
X480535Y536490D01*
X480535Y536490D01*
X485285Y536490D01*
D02*
G37*
G36*
X464265Y535155D02*
X464862Y535155D01*
X465965Y534698D01*
X466808Y533854D01*
X467265Y532752D01*
X467265Y532155D01*
X467265Y508155D01*
X467265Y508155D01*
X467265Y507559D01*
X466809Y506456D01*
X465965Y505612D01*
X464862Y505155D01*
X464265Y505155D01*
X440265Y505155D01*
X440265Y505155D01*
X439668Y505155D01*
X438566Y505612D01*
X437722Y506456D01*
X437265Y507559D01*
X437266Y508155D01*
X437265Y532155D01*
X437265Y532155D01*
X437265Y532752D01*
X437722Y533854D01*
X438565Y534698D01*
X439668Y535155D01*
X440265Y535155D01*
X464265Y535155D01*
X464265Y535155D01*
D02*
G37*
G36*
X424035Y536491D02*
X424234Y536491D01*
X424602Y536338D01*
X424883Y536057D01*
X425035Y535689D01*
X425034Y535490D01*
X425034Y535490D01*
X425034Y530740D01*
X425035Y530541D01*
X424883Y530174D01*
X424601Y529893D01*
X424234Y529741D01*
X424035Y529741D01*
X424035Y529741D01*
X419285Y529741D01*
X419086Y529741D01*
X418719Y529893D01*
X418438Y530175D01*
X418285Y530542D01*
X418286Y530741D01*
X418285Y530741D01*
X418286Y535491D01*
X418286Y535690D01*
X418438Y536057D01*
X418719Y536339D01*
X419087Y536491D01*
X419285Y536491D01*
X419285Y536491D01*
X424035Y536491D01*
D02*
G37*
G36*
X485285Y527740D02*
X485484Y527740D01*
X485852Y527587D01*
X486133Y527306D01*
X486285Y526938D01*
X486285Y526739D01*
X486285Y526740D01*
X486284Y521989D01*
X486284Y521791D01*
X486132Y521423D01*
X485851Y521142D01*
X485484Y520990D01*
X485285Y520989D01*
X480535Y520990D01*
X480336Y520990D01*
X479969Y521142D01*
X479688Y521424D01*
X479536Y521791D01*
X479536Y521990D01*
X479536Y521991D01*
X479536Y526740D01*
X479536Y526939D01*
X479688Y527307D01*
X479969Y527588D01*
X480336Y527740D01*
X480535Y527740D01*
X480535Y527740D01*
X485285Y527740D01*
D02*
G37*
G36*
X475515Y534655D02*
X475714Y534655D01*
X476081Y534503D01*
X476362Y534222D01*
X476515Y533854D01*
X476515Y533655D01*
X476515Y533655D01*
X476515Y522655D01*
X476515Y522456D01*
X476363Y522089D01*
X476082Y521807D01*
X475714Y521655D01*
X475515Y521655D01*
X475515D01*
X470765Y521656D01*
X470566Y521655D01*
X470198Y521807D01*
X469917Y522089D01*
X469765Y522456D01*
X469765Y522655D01*
X469765Y522655D01*
X469765Y533655D01*
X469765Y533854D01*
X469917Y534221D01*
X470198Y534503D01*
X470565Y534655D01*
X470764Y534655D01*
X470764Y534655D01*
X475515Y534655D01*
D02*
G37*
G36*
X429015Y534655D02*
X429015Y534655D01*
X433766Y534654D01*
X433965Y534654D01*
X434332Y534502D01*
X434613Y534221D01*
X434765Y533854D01*
X434765Y533655D01*
X434765Y533655D01*
X434765Y522655D01*
X434765Y522456D01*
X434613Y522088D01*
X434332Y521807D01*
X433965Y521655D01*
X433766Y521654D01*
X433766Y521654D01*
X429016Y521655D01*
X428817Y521655D01*
X428449Y521807D01*
X428168Y522088D01*
X428016Y522455D01*
X428016Y522654D01*
Y522654D01*
X428015Y533654D01*
X428015Y533853D01*
X428167Y534221D01*
X428449Y534502D01*
X428816Y534655D01*
X429015Y534655D01*
D02*
G37*
G36*
X424035Y527741D02*
X424234Y527741D01*
X424601Y527588D01*
X424883Y527307D01*
X425034Y526939D01*
X425034Y526740D01*
X425034Y526740D01*
X425034Y521990D01*
X425034Y521791D01*
X424882Y521424D01*
X424601Y521143D01*
X424234Y520991D01*
X424035Y520991D01*
X424035Y520991D01*
X419285Y520991D01*
X419086Y520991D01*
X418718Y521143D01*
X418437Y521424D01*
X418285Y521792D01*
X418285Y521991D01*
X418285Y521991D01*
X418285Y526741D01*
X418286Y526940D01*
X418438Y527307D01*
X418719Y527588D01*
X419086Y527741D01*
X419285Y527741D01*
X419285Y527741D01*
X424035Y527741D01*
D02*
G37*
G36*
X485285Y518990D02*
X485484Y518989D01*
X485851Y518837D01*
X486133Y518556D01*
X486285Y518188D01*
X486284Y517989D01*
X486285Y517989D01*
X486284Y513239D01*
X486284Y513040D01*
X486132Y512673D01*
X485851Y512392D01*
X485484Y512239D01*
X485285Y512239D01*
X485285D01*
X480535Y512240D01*
X480336Y512240D01*
X479968Y512392D01*
X479687Y512674D01*
X479535Y513041D01*
X479536Y513240D01*
X479536Y513240D01*
X479535Y517990D01*
X479535Y518189D01*
X479688Y518556D01*
X479969Y518838D01*
X480336Y518990D01*
X480535Y518989D01*
X480535Y518990D01*
X485285Y518990D01*
D02*
G37*
G36*
X424035Y518990D02*
X424234Y518990D01*
X424601Y518838D01*
X424882Y518556D01*
X425034Y518189D01*
X425034Y517990D01*
X425034Y517990D01*
X425034Y513240D01*
X425034Y513041D01*
X424882Y512674D01*
X424601Y512393D01*
X424234Y512240D01*
X424035Y512241D01*
X424035Y512240D01*
X419285Y512240D01*
X419086Y512240D01*
X418718Y512393D01*
X418437Y512674D01*
X418285Y513042D01*
X418285Y513241D01*
X418285Y513241D01*
X418285Y517991D01*
X418286Y518190D01*
X418438Y518557D01*
X418719Y518838D01*
X419086Y518991D01*
X419285Y518991D01*
X419285Y518991D01*
X424035Y518990D01*
D02*
G37*
G36*
X485285Y510239D02*
X485484Y510239D01*
X485851Y510087D01*
X486132Y509805D01*
X486284Y509438D01*
X486284Y509239D01*
X486284Y509239D01*
X486284Y504489D01*
X486284Y504290D01*
X486132Y503923D01*
X485850Y503642D01*
X485483Y503489D01*
X485285Y503489D01*
X480535Y503489D01*
X480336Y503489D01*
X479968Y503642D01*
X479687Y503923D01*
X479535Y504291D01*
X479536Y504490D01*
X479535Y504490D01*
X479535Y509240D01*
X479535Y509439D01*
X479687Y509806D01*
X479968Y510087D01*
X480336Y510239D01*
X480535Y510239D01*
X480535Y510239D01*
X485285Y510239D01*
D02*
G37*
G36*
X475515Y518655D02*
X475714Y518655D01*
X476081Y518503D01*
X476362Y518222D01*
X476514Y517854D01*
X476514Y517656D01*
X476514Y517656D01*
X476515Y506656D01*
X476515Y506457D01*
X476363Y506089D01*
X476082Y505807D01*
X475714Y505655D01*
X475515Y505655D01*
X475515D01*
X470764Y505656D01*
X470566Y505656D01*
X470198Y505808D01*
X469917Y506089D01*
X469765Y506456D01*
X469765Y506655D01*
X469765Y506655D01*
X469765Y517655D01*
X469765Y517854D01*
X469917Y518222D01*
X470198Y518503D01*
X470565Y518655D01*
X470764Y518656D01*
X470764Y518656D01*
X475515Y518655D01*
D02*
G37*
G36*
X429015Y518655D02*
X429015Y518655D01*
X433766Y518654D01*
X433965Y518655D01*
X434332Y518503D01*
X434613Y518221D01*
X434765Y517854D01*
X434765Y517655D01*
X434765Y517655D01*
X434765Y506655D01*
X434765Y506456D01*
X434613Y506089D01*
X434332Y505807D01*
X433965Y505655D01*
X433766Y505655D01*
X433766Y505654D01*
X429015Y505655D01*
X428817Y505655D01*
X428449Y505807D01*
X428168Y506088D01*
X428016Y506456D01*
X428016Y506655D01*
Y506655D01*
X428015Y517655D01*
X428015Y517854D01*
X428167Y518221D01*
X428448Y518503D01*
X428816Y518655D01*
X429015Y518655D01*
D02*
G37*
G36*
X424035Y510240D02*
X424234Y510240D01*
X424601Y510088D01*
X424882Y509806D01*
X425034Y509439D01*
X425034Y509240D01*
X425034Y509240D01*
X425034Y504490D01*
X425034Y504291D01*
X424882Y503923D01*
X424601Y503642D01*
X424234Y503490D01*
X424035Y503490D01*
X424035Y503490D01*
X419285Y503490D01*
X419086Y503490D01*
X418718Y503643D01*
X418437Y503924D01*
X418285Y504292D01*
X418285Y504491D01*
X418285Y504491D01*
X418285Y509241D01*
X418285Y509440D01*
X418438Y509807D01*
X418719Y510088D01*
X419086Y510240D01*
X419285Y510241D01*
X419285Y510241D01*
X424035Y510240D01*
D02*
G37*
G36*
X465765Y502655D02*
X465964Y502655D01*
X466331Y502503D01*
X466613Y502222D01*
X466765Y501855D01*
X466766Y501656D01*
X466766Y501656D01*
X466765Y496905D01*
X466765Y496706D01*
X466613Y496339D01*
X466332Y496058D01*
X465964Y495906D01*
X465766Y495905D01*
X465766D01*
X454766Y495905D01*
X454566Y495905D01*
X454199Y496057D01*
X453918Y496338D01*
X453765Y496706D01*
X453765Y496905D01*
Y496905D01*
X453766Y501656D01*
X453765Y501854D01*
X453918Y502222D01*
X454199Y502503D01*
X454566Y502655D01*
X454765Y502655D01*
X454765Y502655D01*
X465765Y502655D01*
D02*
G37*
G36*
X449766Y502654D02*
X449965Y502655D01*
X450332Y502503D01*
X450614Y502221D01*
X450766Y501854D01*
X450765Y501655D01*
X450766Y496905D01*
X450766Y496905D01*
X450766Y496706D01*
X450614Y496338D01*
X450332Y496057D01*
X449965Y495905D01*
X449766Y495905D01*
X438765Y495905D01*
X438766D01*
X438567Y495905D01*
X438199Y496058D01*
X437918Y496339D01*
X437766Y496706D01*
X437766Y496905D01*
X437766Y501655D01*
X437766Y501655D01*
X437766Y501854D01*
X437918Y502222D01*
X438200Y502503D01*
X438567Y502655D01*
X438766Y502655D01*
X449766Y502655D01*
X449766Y502654D01*
D02*
G37*
G36*
X475516Y502654D02*
X475714Y502654D01*
X476082Y502501D01*
X476363Y502220D01*
X476515Y501853D01*
X476516Y501654D01*
X476516D01*
X476515Y496904D01*
X476515Y496705D01*
X476363Y496338D01*
X476081Y496057D01*
X475714Y495905D01*
X475514Y495905D01*
X475514Y495905D01*
X470765Y495905D01*
X470566Y495905D01*
X470198Y496057D01*
X469917Y496338D01*
X469765Y496705D01*
X469765Y496904D01*
X469765Y496904D01*
X469765Y501654D01*
X469765Y501853D01*
X469918Y502221D01*
X470199Y502502D01*
X470567Y502654D01*
X470766Y502654D01*
X470765Y502654D01*
X475516Y502654D01*
D02*
G37*
G36*
X433767Y502653D02*
X433965Y502653D01*
X434333Y502500D01*
X434614Y502219D01*
X434766Y501852D01*
X434767Y501653D01*
X434767D01*
X434766Y496903D01*
X434766Y496704D01*
X434614Y496337D01*
X434332Y496056D01*
X433965Y495904D01*
X433766Y495904D01*
X433765Y495904D01*
X429016Y495904D01*
X428817Y495904D01*
X428449Y496056D01*
X428168Y496337D01*
X428016Y496704D01*
X428016Y496903D01*
X428016Y496903D01*
X428016Y501653D01*
X428016Y501852D01*
X428169Y502220D01*
X428450Y502501D01*
X428818Y502653D01*
X429017Y502653D01*
X429016Y502653D01*
X433767Y502653D01*
D02*
G37*
G36*
X485285Y501489D02*
X485484Y501489D01*
X485851Y501337D01*
X486132Y501055D01*
X486284Y500688D01*
X486284Y500489D01*
X486284Y500489D01*
X486284Y495739D01*
X486284Y495540D01*
X486132Y495173D01*
X485850Y494892D01*
X485483Y494739D01*
X485284Y494739D01*
X485284D01*
X485284D01*
D01*
X480535Y494739D01*
X480336Y494739D01*
X479968Y494892D01*
X479687Y495173D01*
X479535Y495541D01*
X479535Y495740D01*
X479535Y495740D01*
X479535Y500490D01*
X479535Y500689D01*
X479687Y501056D01*
X479968Y501337D01*
X480336Y501489D01*
X480535Y501489D01*
X480535Y501489D01*
X485285Y501489D01*
D02*
G37*
G36*
X424035Y501490D02*
X424233Y501490D01*
X424601Y501338D01*
X424882Y501056D01*
X425034Y500688D01*
X425034Y500489D01*
X425034Y500489D01*
X425034Y495739D01*
X425034Y495541D01*
X424882Y495173D01*
X424601Y494892D01*
X424233Y494740D01*
X424035Y494740D01*
X424035Y494740D01*
X419285Y494740D01*
X419086Y494740D01*
X418718Y494892D01*
X418437Y495174D01*
X418285Y495541D01*
X418285Y495740D01*
X418285Y495740D01*
X418285Y500490D01*
X418285Y500689D01*
X418438Y501057D01*
X418719Y501338D01*
X419086Y501490D01*
X419285Y501490D01*
X419285Y501490D01*
X424035Y501490D01*
D02*
G37*
G36*
X424601Y492588D02*
X424882Y492307D01*
X425034Y491939D01*
X425034Y491741D01*
X425034Y491740D01*
X425034Y486991D01*
X425034Y486792D01*
X424881Y486424D01*
X424600Y486143D01*
X424232Y485991D01*
X424034Y485991D01*
X424034Y485991D01*
X419283Y485991D01*
X419085Y485991D01*
X418717Y486144D01*
X418436Y486425D01*
X418284Y486792D01*
X418284Y486991D01*
Y486991D01*
X418284Y491740D01*
X418284Y491940D01*
X418436Y492307D01*
X418718Y492588D01*
X419086Y492740D01*
X419285Y492740D01*
X419285Y492740D01*
X424034Y492740D01*
X424233Y492740D01*
X424601Y492588D01*
D02*
G37*
G36*
X433351Y492588D02*
X433632Y492307D01*
X433784Y491939D01*
X433784Y491740D01*
X433784Y491740D01*
X433784Y486990D01*
X433784Y486791D01*
X433632Y486424D01*
X433350Y486143D01*
X432983Y485991D01*
X432784Y485991D01*
X432784Y485991D01*
X428034Y485991D01*
X427835Y485991D01*
X427467Y486143D01*
X427186Y486425D01*
X427034Y486792D01*
X427034Y486991D01*
X427034Y491740D01*
X427034Y491939D01*
X427187Y492307D01*
X427468Y492588D01*
X427836Y492740D01*
X428035Y492740D01*
X428035Y492740D01*
X432785Y492740D01*
X432984Y492740D01*
X433351Y492588D01*
D02*
G37*
G36*
X442101Y492588D02*
X442382Y492307D01*
X442534Y491939D01*
X442534Y491740D01*
X442534Y491740D01*
X442534Y486990D01*
X442534Y486791D01*
X442382Y486424D01*
X442100Y486143D01*
X441733Y485991D01*
X441534Y485991D01*
X441534Y485990D01*
X436784Y485991D01*
X436585Y485991D01*
X436218Y486143D01*
X435937Y486424D01*
X435784Y486792D01*
X435784Y486991D01*
Y486991D01*
X435784Y491740D01*
X435784Y491939D01*
X435937Y492307D01*
X436218Y492588D01*
X436586Y492740D01*
X436785Y492739D01*
X436785Y492739D01*
X441535Y492740D01*
X441734Y492740D01*
X442101Y492588D01*
D02*
G37*
G36*
X450851Y492588D02*
X451132Y492306D01*
X451284Y491939D01*
X451284Y491740D01*
X451284Y491740D01*
X451284Y486990D01*
X451284Y486791D01*
X451132Y486424D01*
X450851Y486143D01*
X450483Y485990D01*
X450284Y485990D01*
X450284Y485990D01*
X445534Y485991D01*
X445335Y485991D01*
X444968Y486143D01*
X444687Y486424D01*
X444534Y486792D01*
X444534Y486990D01*
Y486990D01*
X444535Y491740D01*
X444534Y491939D01*
X444687Y492307D01*
X444968Y492588D01*
X445336Y492740D01*
X445535Y492739D01*
X445535Y492739D01*
X450285Y492739D01*
X450484Y492740D01*
X450851Y492588D01*
D02*
G37*
G36*
X459601Y492587D02*
X459883Y492306D01*
X460035Y491939D01*
X460034Y491740D01*
X460035Y491740D01*
X460035Y486990D01*
X460035Y486791D01*
X459882Y486423D01*
X459601Y486142D01*
X459233Y485990D01*
X459034Y485990D01*
X459034Y485990D01*
X454284Y485990D01*
X454085Y485991D01*
X453718Y486143D01*
X453437Y486424D01*
X453285Y486791D01*
X453284Y486990D01*
Y486990D01*
X453285Y491740D01*
X453285Y491939D01*
X453437Y492306D01*
X453719Y492588D01*
X454086Y492739D01*
X454285Y492739D01*
X454285Y492739D01*
X459035Y492739D01*
X459234Y492739D01*
X459601Y492587D01*
D02*
G37*
G36*
X468352Y492587D02*
X468633Y492306D01*
X468785Y491939D01*
X468785Y491740D01*
X468785Y491740D01*
X468785Y486990D01*
X468785Y486791D01*
X468632Y486423D01*
X468351Y486142D01*
X467983Y485990D01*
X467785Y485990D01*
X467785Y485990D01*
X463034Y485990D01*
X462836Y485990D01*
X462468Y486143D01*
X462187Y486424D01*
X462035Y486791D01*
X462035Y486990D01*
Y486990D01*
X462035Y491740D01*
X462035Y491939D01*
X462187Y492306D01*
X462469Y492587D01*
X462837Y492739D01*
X463036Y492739D01*
X463036Y492739D01*
X467785Y492739D01*
X467984Y492739D01*
X468352Y492587D01*
D02*
G37*
G36*
X485285Y492739D02*
X485483Y492739D01*
X485851Y492587D01*
X486132Y492305D01*
X486284Y491937D01*
X486284Y491739D01*
X486284Y491739D01*
X486284Y486988D01*
X486284Y486790D01*
X486131Y486422D01*
X485850Y486141D01*
X485483Y485989D01*
X485284Y485989D01*
X480535Y485989D01*
X480336Y485989D01*
X479968Y486141D01*
X479687Y486423D01*
X479535Y486791D01*
X479535Y486990D01*
X479535Y486990D01*
X479535Y491740D01*
X479535Y491938D01*
X479687Y492306D01*
X479968Y492587D01*
X480336Y492739D01*
X480534Y492739D01*
X480535Y492739D01*
X485285Y492739D01*
D02*
G37*
G36*
X477102Y492587D02*
X477383Y492306D01*
X477535Y491939D01*
X477535Y491740D01*
X477535Y491740D01*
X477535Y486990D01*
X477535Y486791D01*
X477383Y486423D01*
X477101Y486142D01*
X476734Y485990D01*
X476535Y485990D01*
X476535Y485990D01*
X471785Y485990D01*
X471586Y485990D01*
X471218Y486143D01*
X470937Y486424D01*
X470785Y486791D01*
X470785Y486990D01*
Y486990D01*
X470785Y491740D01*
X470785Y491939D01*
X470938Y492306D01*
X471219Y492587D01*
X471587Y492739D01*
X471786Y492739D01*
X471786Y492739D01*
X476536Y492739D01*
X476735Y492739D01*
X477102Y492587D01*
D02*
G37*
G36*
X433351Y190138D02*
X433633Y189857D01*
X433785Y189490D01*
X433784Y189291D01*
X433785Y189291D01*
X433785Y184541D01*
X433784Y184342D01*
X433632Y183974D01*
X433351Y183693D01*
X432983Y183541D01*
X432784Y183541D01*
X432784Y183541D01*
X428034Y183541D01*
X427835Y183542D01*
X427468Y183694D01*
X427187Y183975D01*
X427034Y184342D01*
X427034Y184541D01*
Y184541D01*
X427035Y189291D01*
X427035Y189490D01*
X427187Y189857D01*
X427469Y190138D01*
X427836Y190290D01*
X428035Y190290D01*
X428035Y190290D01*
X432785Y190290D01*
X432984Y190290D01*
X433351Y190138D01*
D02*
G37*
G36*
X442102Y190138D02*
X442383Y189857D01*
X442535Y189489D01*
X442535Y189291D01*
X442535Y189291D01*
X442535Y184541D01*
X442535Y184342D01*
X442382Y183974D01*
X442101Y183693D01*
X441733Y183541D01*
X441534Y183541D01*
X441535Y183541D01*
X436784Y183541D01*
X436586Y183541D01*
X436218Y183694D01*
X435937Y183975D01*
X435785Y184342D01*
X435784Y184541D01*
Y184541D01*
X435785Y189291D01*
X435785Y189489D01*
X435937Y189857D01*
X436219Y190138D01*
X436586Y190290D01*
X436785Y190290D01*
X436786Y190290D01*
X441535Y190290D01*
X441734Y190290D01*
X442102Y190138D01*
D02*
G37*
G36*
X450852Y190138D02*
X451133Y189857D01*
X451285Y189489D01*
X451285Y189291D01*
X451285Y189290D01*
X451285Y184540D01*
X451285Y184342D01*
X451133Y183974D01*
X450851Y183693D01*
X450484Y183541D01*
X450285Y183541D01*
X450285Y183541D01*
X445535Y183541D01*
X445336Y183541D01*
X444968Y183694D01*
X444687Y183975D01*
X444535Y184342D01*
X444535Y184541D01*
Y184541D01*
X444535Y189290D01*
X444535Y189489D01*
X444687Y189857D01*
X444969Y190138D01*
X445337Y190290D01*
X445536Y190290D01*
X445536Y190290D01*
X450285Y190290D01*
X450484Y190290D01*
X450852Y190138D01*
D02*
G37*
G36*
X459602Y190138D02*
X459883Y189856D01*
X460035Y189489D01*
X460035Y189290D01*
X460035Y189290D01*
X460035Y184540D01*
X460035Y184341D01*
X459883Y183974D01*
X459601Y183693D01*
X459234Y183541D01*
X459035Y183541D01*
X459035Y183541D01*
X454285Y183541D01*
X454086Y183541D01*
X453719Y183693D01*
X453438Y183974D01*
X453285Y184342D01*
X453285Y184541D01*
Y184541D01*
X453285Y189290D01*
X453285Y189489D01*
X453438Y189857D01*
X453719Y190138D01*
X454087Y190290D01*
X454286Y190289D01*
X454286Y190289D01*
X459036Y190290D01*
X459235Y190290D01*
X459602Y190138D01*
D02*
G37*
G36*
X468352Y190138D02*
X468633Y189856D01*
X468785Y189489D01*
X468785Y189290D01*
X468785Y189290D01*
X468785Y184540D01*
X468785Y184341D01*
X468633Y183974D01*
X468352Y183692D01*
X467984Y183540D01*
X467785Y183541D01*
X467785Y183540D01*
X463035Y183541D01*
X462836Y183541D01*
X462469Y183693D01*
X462188Y183974D01*
X462035Y184342D01*
X462035Y184540D01*
Y184540D01*
X462035Y189290D01*
X462035Y189489D01*
X462188Y189857D01*
X462469Y190138D01*
X462837Y190290D01*
X463036Y190289D01*
X463036Y190289D01*
X467786Y190289D01*
X467985Y190290D01*
X468352Y190138D01*
D02*
G37*
G36*
X477102Y190137D02*
X477383Y189856D01*
X477536Y189489D01*
X477535Y189290D01*
X477536Y189290D01*
X477536Y184540D01*
X477536Y184341D01*
X477383Y183974D01*
X477102Y183692D01*
X476734Y183540D01*
X476535Y183540D01*
X476535Y183540D01*
X471785Y183540D01*
X471586Y183541D01*
X471219Y183693D01*
X470938Y183974D01*
X470785Y184342D01*
X470785Y184540D01*
Y184540D01*
X470786Y189290D01*
X470786Y189489D01*
X470938Y189856D01*
X471220Y190138D01*
X471587Y190289D01*
X471786Y190289D01*
X471786Y190289D01*
X476536Y190289D01*
X476735Y190289D01*
X477102Y190137D01*
D02*
G37*
G36*
X485853Y190137D02*
X486134Y189856D01*
X486286Y189489D01*
X486286Y189290D01*
X486286Y189290D01*
X486286Y184540D01*
X486286Y184341D01*
X486133Y183973D01*
X485852Y183692D01*
X485484Y183540D01*
X485285Y183540D01*
X485285Y183540D01*
X480535Y183540D01*
X480336Y183541D01*
X479969Y183693D01*
X479688Y183974D01*
X479536Y184341D01*
X479535Y184540D01*
Y184540D01*
X479536Y189290D01*
X479536Y189489D01*
X479688Y189856D01*
X479970Y190137D01*
X480337Y190289D01*
X480536Y190289D01*
X480536Y190289D01*
X485286Y190289D01*
X485485Y190289D01*
X485853Y190137D01*
D02*
G37*
G36*
X424035Y190291D02*
X424234Y190291D01*
X424602Y190139D01*
X424883Y189857D01*
X425035Y189489D01*
X425035Y189291D01*
X425035Y189291D01*
X425035Y184541D01*
X425035Y184342D01*
X424883Y183974D01*
X424602Y183693D01*
X424234Y183541D01*
X424035Y183541D01*
X424035Y183541D01*
X419285Y183541D01*
X419086Y183541D01*
X419085Y183542D01*
X419085D01*
X418718Y183694D01*
X418437Y183975D01*
X418284Y184342D01*
X418284Y184541D01*
Y184541D01*
X418284Y189291D01*
X418284Y189490D01*
X418437Y189857D01*
X418718Y190138D01*
X418832Y190185D01*
X419087Y190291D01*
X419286Y190291D01*
X419286Y190291D01*
X424035Y190291D01*
D02*
G37*
G36*
X485285Y181540D02*
X485484Y181540D01*
X485852Y181388D01*
X486133Y181106D01*
X486285Y180739D01*
X486285Y180540D01*
X486285Y180540D01*
X486285Y175790D01*
X486285Y175591D01*
X486132Y175224D01*
X485851Y174942D01*
X485484Y174790D01*
X485285Y174790D01*
X480535Y174790D01*
X480336Y174790D01*
X479969Y174943D01*
X479688Y175224D01*
X479536Y175592D01*
X479536Y175791D01*
X479536Y175791D01*
X479536Y180541D01*
X479536Y180739D01*
X479688Y181107D01*
X479969Y181388D01*
X480336Y181540D01*
X480535Y181540D01*
X480535Y181540D01*
X485285Y181540D01*
D02*
G37*
G36*
X434332Y180553D02*
X434613Y180272D01*
X434765Y179904D01*
X434765Y179706D01*
X434765Y179706D01*
X434765Y174956D01*
X434765Y174757D01*
X434613Y174389D01*
X434331Y174108D01*
X433964Y173956D01*
X433765Y173956D01*
X433765Y173956D01*
X429015Y173956D01*
X428816Y173956D01*
X428448Y174109D01*
X428167Y174390D01*
X428015Y174757D01*
X428015Y174956D01*
Y174956D01*
X428015Y179706D01*
X428015Y179904D01*
X428167Y180272D01*
X428449Y180553D01*
X428817Y180705D01*
X429016Y180705D01*
X429016Y180705D01*
X433766Y180705D01*
X433964Y180705D01*
X434332Y180553D01*
D02*
G37*
G36*
X454765Y180705D02*
X465765Y180705D01*
X465765Y180705D01*
X465964Y180705D01*
X466331Y180552D01*
X466612Y180271D01*
X466764Y179904D01*
X466764Y179705D01*
X466765Y174954D01*
X466764Y174954D01*
X466764Y174756D01*
X466612Y174388D01*
X466330Y174107D01*
X465963Y173955D01*
X465764Y173955D01*
X454764Y173955D01*
X454764Y173955D01*
X454565Y173955D01*
X454198Y174107D01*
X453917Y174388D01*
X453764Y174756D01*
X453765Y174955D01*
X453764Y179705D01*
Y179705D01*
X453764Y179904D01*
X453917Y180272D01*
X454198Y180553D01*
X454566Y180705D01*
X454765Y180705D01*
D02*
G37*
G36*
X424035Y181541D02*
X424234Y181541D01*
X424602Y181388D01*
X424883Y181107D01*
X425035Y180739D01*
X425034Y180540D01*
X425034Y180540D01*
X425035Y175790D01*
X425035Y175592D01*
X424883Y175224D01*
X424602Y174943D01*
X424234Y174791D01*
X424035Y174791D01*
X424035Y174791D01*
X419285Y174791D01*
X419086Y174791D01*
X418719Y174943D01*
X418438Y175225D01*
X418286Y175592D01*
X418286Y175791D01*
X418285Y175791D01*
X418286Y180541D01*
X418286Y180740D01*
X418438Y181108D01*
X418719Y181389D01*
X419087Y181541D01*
X419286Y181541D01*
Y181541D01*
X424035Y181541D01*
D02*
G37*
G36*
X475516Y180705D02*
X475715Y180705D01*
X476082Y180553D01*
X476363Y180271D01*
X476515Y179904D01*
X476515Y179704D01*
X476515Y179704D01*
X476515Y174955D01*
X476515Y174756D01*
X476363Y174388D01*
X476082Y174107D01*
X475715Y173955D01*
X475516Y173955D01*
X475516Y173955D01*
X470766Y173955D01*
X470567Y173955D01*
X470199Y174108D01*
X469918Y174389D01*
X469766Y174757D01*
X469766Y174956D01*
X469766Y174956D01*
X469766Y179706D01*
X469766Y179904D01*
X469919Y180272D01*
X470200Y180553D01*
X470567Y180705D01*
X470766Y180706D01*
X470766Y180706D01*
X475516Y180705D01*
D02*
G37*
G36*
X450331Y180553D02*
X450613Y180271D01*
X450765Y179904D01*
X450765Y179705D01*
X450765Y179705D01*
X450765Y174954D01*
X450765Y174755D01*
X450613Y174388D01*
X450331Y174107D01*
X449964Y173955D01*
X449765Y173955D01*
X449765Y173955D01*
X438765Y173955D01*
X438566Y173955D01*
X438199Y174107D01*
X437917Y174388D01*
X437765Y174755D01*
X437765Y174954D01*
X437765Y174954D01*
X437765Y179705D01*
X437765Y179903D01*
X437917Y180271D01*
X438198Y180552D01*
X438566Y180704D01*
X438765Y180704D01*
X438765Y180704D01*
X449765Y180705D01*
X449964Y180705D01*
X450331Y180553D01*
D02*
G37*
G36*
X485285Y172790D02*
X485484Y172790D01*
X485852Y172638D01*
X486133Y172356D01*
X486285Y171989D01*
X486285Y171789D01*
X486285Y171790D01*
X486285Y167039D01*
X486284Y166841D01*
X486132Y166473D01*
X485851Y166192D01*
X485484Y166040D01*
X485285Y166040D01*
X480535Y166040D01*
X480336Y166040D01*
X479969Y166192D01*
X479688Y166474D01*
X479536Y166842D01*
X479536Y167041D01*
X479536Y167041D01*
X479536Y171791D01*
X479536Y171989D01*
X479688Y172357D01*
X479969Y172638D01*
X480336Y172790D01*
X480535Y172790D01*
X480535Y172790D01*
X485285Y172790D01*
D02*
G37*
G36*
X464265Y171455D02*
X464862Y171455D01*
X465965Y170998D01*
X466808Y170154D01*
X467265Y169051D01*
X467265Y168455D01*
X467265Y144455D01*
X467265Y144455D01*
X467265Y143859D01*
X466809Y142756D01*
X465965Y141912D01*
X464862Y141455D01*
X464265Y141455D01*
X440265Y141455D01*
X440265Y141455D01*
X439668Y141455D01*
X438566Y141912D01*
X437722Y142756D01*
X437265Y143859D01*
X437266Y144455D01*
X437265Y168455D01*
X437265Y168455D01*
X437265Y169052D01*
X437722Y170154D01*
X438565Y170998D01*
X439668Y171455D01*
X440265Y171455D01*
X464265Y171455D01*
X464265Y171455D01*
D02*
G37*
G36*
X424035Y172791D02*
X424234Y172791D01*
X424602Y172638D01*
X424883Y172357D01*
X425035Y171989D01*
X425034Y171790D01*
X425034Y171790D01*
X425034Y167040D01*
X425035Y166841D01*
X424883Y166474D01*
X424601Y166193D01*
X424234Y166041D01*
X424035Y166041D01*
X424035Y166041D01*
X419285Y166041D01*
X419086Y166041D01*
X418719Y166193D01*
X418438Y166475D01*
X418285Y166842D01*
X418286Y167041D01*
X418285Y167041D01*
X418286Y171791D01*
X418286Y171990D01*
X418438Y172357D01*
X418719Y172638D01*
X419087Y172791D01*
X419285Y172791D01*
X419285Y172791D01*
X424035Y172791D01*
D02*
G37*
G36*
X485285Y164040D02*
X485484Y164040D01*
X485852Y163887D01*
X486133Y163606D01*
X486285Y163238D01*
X486285Y163039D01*
X486285Y163039D01*
X486284Y158289D01*
X486284Y158090D01*
X486132Y157723D01*
X485851Y157442D01*
X485484Y157290D01*
X485285Y157289D01*
X480535Y157290D01*
X480336Y157290D01*
X479969Y157442D01*
X479688Y157724D01*
X479536Y158091D01*
X479536Y158290D01*
X479536Y158290D01*
X479536Y163040D01*
X479536Y163239D01*
X479688Y163606D01*
X479969Y163888D01*
X480336Y164040D01*
X480535Y164039D01*
X480535Y164040D01*
X485285Y164040D01*
D02*
G37*
G36*
X475515Y170955D02*
X475714Y170955D01*
X476081Y170803D01*
X476362Y170522D01*
X476515Y170154D01*
X476515Y169955D01*
X476515Y169955D01*
X476515Y158955D01*
X476515Y158756D01*
X476363Y158389D01*
X476082Y158107D01*
X475714Y157955D01*
X475515Y157955D01*
X475515D01*
X470765Y157955D01*
X470566Y157955D01*
X470198Y158107D01*
X469917Y158389D01*
X469765Y158756D01*
X469765Y158955D01*
X469765Y158955D01*
X469765Y169955D01*
X469765Y170154D01*
X469917Y170521D01*
X470198Y170803D01*
X470565Y170955D01*
X470764Y170955D01*
X470764Y170955D01*
X475515Y170955D01*
D02*
G37*
G36*
X429015Y170954D02*
X429015Y170954D01*
X433766Y170954D01*
X433965Y170954D01*
X434332Y170802D01*
X434613Y170521D01*
X434765Y170154D01*
X434765Y169955D01*
X434765Y169955D01*
X434765Y158955D01*
X434765Y158756D01*
X434613Y158388D01*
X434332Y158107D01*
X433965Y157954D01*
X433766Y157954D01*
X433766Y157954D01*
X429016Y157954D01*
X428817Y157955D01*
X428449Y158107D01*
X428168Y158388D01*
X428016Y158755D01*
X428016Y158954D01*
Y158954D01*
X428015Y169954D01*
X428015Y170153D01*
X428167Y170521D01*
X428449Y170802D01*
X428816Y170954D01*
X429015Y170954D01*
D02*
G37*
G36*
X424035Y164040D02*
X424234Y164040D01*
X424601Y163888D01*
X424883Y163606D01*
X425034Y163239D01*
X425034Y163040D01*
X425034Y163040D01*
X425034Y158290D01*
X425034Y158091D01*
X424882Y157724D01*
X424601Y157443D01*
X424234Y157290D01*
X424035Y157291D01*
X424035Y157290D01*
X419285Y157290D01*
X419086Y157291D01*
X418718Y157443D01*
X418437Y157724D01*
X418285Y158092D01*
X418285Y158291D01*
X418285Y158291D01*
X418285Y163041D01*
X418286Y163240D01*
X418438Y163607D01*
X418719Y163888D01*
X419086Y164041D01*
X419285Y164041D01*
X419285Y164041D01*
X424035Y164040D01*
D02*
G37*
G36*
X485285Y155289D02*
X485484Y155289D01*
X485851Y155137D01*
X486133Y154856D01*
X486285Y154488D01*
X486284Y154289D01*
X486285Y154289D01*
X486284Y149539D01*
X486284Y149340D01*
X486132Y148973D01*
X485851Y148692D01*
X485484Y148539D01*
X485285Y148539D01*
X485285D01*
X480535Y148540D01*
X480336Y148540D01*
X479968Y148692D01*
X479687Y148974D01*
X479535Y149341D01*
X479536Y149540D01*
X479536Y149540D01*
X479535Y154290D01*
X479535Y154489D01*
X479688Y154856D01*
X479969Y155138D01*
X480336Y155289D01*
X480535Y155289D01*
X480535Y155290D01*
X485285Y155289D01*
D02*
G37*
G36*
X424035Y155290D02*
X424234Y155290D01*
X424601Y155138D01*
X424882Y154856D01*
X425034Y154489D01*
X425034Y154290D01*
X425034Y154290D01*
X425034Y149540D01*
X425034Y149341D01*
X424882Y148974D01*
X424601Y148692D01*
X424234Y148540D01*
X424035Y148540D01*
X424035Y148540D01*
X419285Y148540D01*
X419086Y148540D01*
X418718Y148693D01*
X418437Y148974D01*
X418285Y149342D01*
X418285Y149541D01*
X418285Y149541D01*
X418285Y154291D01*
X418286Y154490D01*
X418438Y154857D01*
X418719Y155138D01*
X419086Y155290D01*
X419285Y155291D01*
X419285Y155291D01*
X424035Y155290D01*
D02*
G37*
G36*
X485285Y146539D02*
X485484Y146539D01*
X485851Y146387D01*
X486132Y146105D01*
X486284Y145738D01*
X486284Y145539D01*
X486284Y145539D01*
X486284Y140789D01*
X486284Y140590D01*
X486132Y140223D01*
X485850Y139942D01*
X485483Y139789D01*
X485285Y139789D01*
X480535Y139789D01*
X480336Y139789D01*
X479968Y139942D01*
X479687Y140223D01*
X479535Y140591D01*
X479536Y140790D01*
X479535Y140790D01*
X479535Y145540D01*
X479535Y145739D01*
X479687Y146106D01*
X479968Y146387D01*
X480336Y146539D01*
X480535Y146539D01*
X480535Y146539D01*
X485285Y146539D01*
D02*
G37*
G36*
X475515Y154955D02*
X475714Y154955D01*
X476081Y154803D01*
X476362Y154522D01*
X476514Y154154D01*
X476514Y153956D01*
X476514Y153956D01*
X476515Y142956D01*
X476515Y142757D01*
X476363Y142389D01*
X476082Y142107D01*
X475714Y141955D01*
X475515Y141955D01*
X475515D01*
X470764Y141956D01*
X470566Y141955D01*
X470198Y142107D01*
X469917Y142389D01*
X469765Y142756D01*
X469765Y142955D01*
X469765Y142955D01*
X469765Y153955D01*
X469765Y154154D01*
X469917Y154522D01*
X470198Y154803D01*
X470565Y154955D01*
X470764Y154956D01*
X470764Y154956D01*
X475515Y154955D01*
D02*
G37*
G36*
X429015Y154955D02*
X429015Y154955D01*
X433766Y154954D01*
X433965Y154955D01*
X434332Y154803D01*
X434613Y154521D01*
X434765Y154154D01*
X434765Y153955D01*
X434765Y153955D01*
X434765Y142955D01*
X434765Y142756D01*
X434613Y142388D01*
X434332Y142107D01*
X433965Y141955D01*
X433766Y141954D01*
X433766Y141954D01*
X429015Y141955D01*
X428817Y141955D01*
X428449Y142107D01*
X428168Y142388D01*
X428016Y142756D01*
X428016Y142954D01*
Y142954D01*
X428015Y153954D01*
X428015Y154153D01*
X428167Y154521D01*
X428448Y154803D01*
X428816Y154955D01*
X429015Y154955D01*
D02*
G37*
G36*
X424035Y146540D02*
X424234Y146540D01*
X424601Y146388D01*
X424882Y146106D01*
X425034Y145738D01*
X425034Y145540D01*
X425034Y145540D01*
X425034Y140790D01*
X425034Y140591D01*
X424882Y140223D01*
X424601Y139942D01*
X424234Y139790D01*
X424035Y139790D01*
X424035Y139790D01*
X419285Y139790D01*
X419086Y139790D01*
X418718Y139943D01*
X418437Y140224D01*
X418285Y140592D01*
X418285Y140791D01*
X418285Y140790D01*
X418285Y145541D01*
X418285Y145739D01*
X418438Y146107D01*
X418719Y146388D01*
X419086Y146540D01*
X419285Y146540D01*
X419285Y146540D01*
X424035Y146540D01*
D02*
G37*
G36*
X465765Y138955D02*
X465964Y138955D01*
X466331Y138803D01*
X466613Y138522D01*
X466765Y138154D01*
X466766Y137956D01*
X466766Y137956D01*
X466765Y133205D01*
X466765Y133006D01*
X466613Y132639D01*
X466332Y132358D01*
X465964Y132205D01*
X465766Y132205D01*
X465766D01*
X454766Y132205D01*
X454566Y132205D01*
X454199Y132357D01*
X453918Y132638D01*
X453765Y133006D01*
X453765Y133205D01*
Y133205D01*
X453766Y137956D01*
X453765Y138154D01*
X453918Y138522D01*
X454199Y138803D01*
X454566Y138955D01*
X454765Y138955D01*
X454765Y138955D01*
X465765Y138955D01*
D02*
G37*
G36*
X449766Y138954D02*
X449965Y138955D01*
X450332Y138803D01*
X450614Y138521D01*
X450766Y138154D01*
X450765Y137955D01*
X450766Y133205D01*
X450766Y133205D01*
X450766Y133006D01*
X450614Y132638D01*
X450332Y132357D01*
X449965Y132205D01*
X449766Y132205D01*
X438765Y132205D01*
X438766D01*
X438567Y132205D01*
X438199Y132357D01*
X437918Y132639D01*
X437766Y133006D01*
X437766Y133205D01*
X437766Y137955D01*
X437766Y137955D01*
X437766Y138154D01*
X437918Y138521D01*
X438200Y138803D01*
X438567Y138955D01*
X438766Y138954D01*
X449766Y138955D01*
X449766Y138954D01*
D02*
G37*
G36*
X475516Y138954D02*
X475714Y138954D01*
X476082Y138801D01*
X476363Y138520D01*
X476515Y138153D01*
X476516Y137954D01*
X476516D01*
X476515Y133204D01*
X476515Y133005D01*
X476363Y132638D01*
X476081Y132357D01*
X475714Y132205D01*
X475514Y132205D01*
X475514Y132205D01*
X470765Y132205D01*
X470566Y132205D01*
X470198Y132357D01*
X469917Y132638D01*
X469765Y133005D01*
X469765Y133204D01*
X469765Y133204D01*
X469765Y137954D01*
X469765Y138153D01*
X469918Y138521D01*
X470199Y138802D01*
X470567Y138954D01*
X470766Y138954D01*
X470765Y138954D01*
X475516Y138954D01*
D02*
G37*
G36*
X433767Y138953D02*
X433965Y138953D01*
X434333Y138800D01*
X434614Y138519D01*
X434766Y138152D01*
X434767Y137953D01*
X434767D01*
X434766Y133203D01*
X434766Y133004D01*
X434614Y132637D01*
X434332Y132356D01*
X433965Y132204D01*
X433766Y132204D01*
X433765Y132204D01*
X429016Y132204D01*
X428817Y132204D01*
X428449Y132356D01*
X428168Y132637D01*
X428016Y133005D01*
X428016Y133203D01*
X428016Y133203D01*
X428016Y137953D01*
X428016Y138152D01*
X428169Y138520D01*
X428450Y138801D01*
X428818Y138953D01*
X429017Y138953D01*
X429016Y138953D01*
X433767Y138953D01*
D02*
G37*
G36*
X485285Y137789D02*
X485484Y137789D01*
X485851Y137637D01*
X486132Y137355D01*
X486284Y136988D01*
X486284Y136789D01*
X486284Y136789D01*
X486284Y132039D01*
X486284Y131840D01*
X486132Y131473D01*
X485850Y131191D01*
X485483Y131039D01*
X485284Y131039D01*
X485284D01*
X485284D01*
D01*
X480535Y131039D01*
X480336Y131039D01*
X479968Y131192D01*
X479687Y131473D01*
X479535Y131841D01*
X479535Y132040D01*
X479535Y132040D01*
X479535Y136790D01*
X479535Y136988D01*
X479687Y137356D01*
X479968Y137637D01*
X480336Y137789D01*
X480535Y137789D01*
X480535Y137789D01*
X485285Y137789D01*
D02*
G37*
G36*
X424035Y137790D02*
X424233Y137790D01*
X424601Y137638D01*
X424882Y137356D01*
X425034Y136988D01*
X425034Y136789D01*
X425034Y136789D01*
X425034Y132039D01*
X425034Y131840D01*
X424882Y131473D01*
X424601Y131192D01*
X424233Y131040D01*
X424035Y131040D01*
X424035Y131040D01*
X419285Y131040D01*
X419086Y131040D01*
X418718Y131192D01*
X418437Y131474D01*
X418285Y131841D01*
X418285Y132040D01*
X418285Y132040D01*
X418285Y136790D01*
X418285Y136989D01*
X418438Y137357D01*
X418719Y137638D01*
X419086Y137790D01*
X419285Y137790D01*
X419285Y137790D01*
X424035Y137790D01*
D02*
G37*
G36*
X424601Y128888D02*
X424882Y128607D01*
X425034Y128239D01*
X425034Y128041D01*
X425034Y128041D01*
X425034Y123291D01*
X425034Y123092D01*
X424881Y122724D01*
X424600Y122443D01*
X424232Y122291D01*
X424034Y122291D01*
X424034Y122291D01*
X419283Y122291D01*
X419085Y122291D01*
X418717Y122444D01*
X418436Y122725D01*
X418284Y123092D01*
X418284Y123291D01*
Y123291D01*
X418284Y128041D01*
X418284Y128239D01*
X418436Y128607D01*
X418718Y128888D01*
X419086Y129040D01*
X419285Y129040D01*
X419285Y129040D01*
X424034Y129040D01*
X424233Y129040D01*
X424601Y128888D01*
D02*
G37*
G36*
X433351Y128888D02*
X433632Y128607D01*
X433784Y128239D01*
X433784Y128040D01*
X433784Y128040D01*
X433784Y123290D01*
X433784Y123091D01*
X433632Y122724D01*
X433350Y122443D01*
X432983Y122291D01*
X432784Y122291D01*
X432784Y122291D01*
X428034Y122291D01*
X427835Y122291D01*
X427467Y122443D01*
X427186Y122725D01*
X427034Y123092D01*
X427034Y123291D01*
X427034Y128040D01*
X427034Y128239D01*
X427187Y128607D01*
X427468Y128888D01*
X427836Y129040D01*
X428035Y129039D01*
X428035Y129040D01*
X432785Y129040D01*
X432984Y129040D01*
X433351Y128888D01*
D02*
G37*
G36*
X442101Y128888D02*
X442382Y128606D01*
X442534Y128239D01*
X442534Y128040D01*
X442534Y128040D01*
X442534Y123290D01*
X442534Y123091D01*
X442382Y122724D01*
X442100Y122443D01*
X441733Y122290D01*
X441534Y122291D01*
X441534Y122290D01*
X436784Y122291D01*
X436585Y122291D01*
X436218Y122443D01*
X435937Y122724D01*
X435784Y123092D01*
X435784Y123291D01*
Y123291D01*
X435784Y128040D01*
X435784Y128239D01*
X435937Y128607D01*
X436218Y128888D01*
X436586Y129040D01*
X436785Y129039D01*
X436785Y129039D01*
X441535Y129040D01*
X441734Y129040D01*
X442101Y128888D01*
D02*
G37*
G36*
X450851Y128888D02*
X451132Y128606D01*
X451284Y128239D01*
X451284Y128040D01*
X451284Y128040D01*
X451284Y123290D01*
X451284Y123091D01*
X451132Y122724D01*
X450851Y122442D01*
X450483Y122290D01*
X450284Y122290D01*
X450284Y122290D01*
X445534Y122291D01*
X445335Y122291D01*
X444968Y122443D01*
X444687Y122724D01*
X444534Y123091D01*
X444534Y123290D01*
Y123290D01*
X444535Y128040D01*
X444534Y128239D01*
X444687Y128607D01*
X444968Y128888D01*
X445336Y129039D01*
X445535Y129039D01*
X445535Y129039D01*
X450285Y129039D01*
X450484Y129039D01*
X450851Y128888D01*
D02*
G37*
G36*
X459601Y128887D02*
X459883Y128606D01*
X460035Y128239D01*
X460034Y128040D01*
X460035Y128040D01*
X460035Y123290D01*
X460035Y123091D01*
X459882Y122724D01*
X459601Y122442D01*
X459233Y122290D01*
X459034Y122290D01*
X459034Y122290D01*
X454284Y122290D01*
X454085Y122291D01*
X453718Y122443D01*
X453437Y122724D01*
X453285Y123091D01*
X453284Y123290D01*
Y123290D01*
X453285Y128040D01*
X453285Y128239D01*
X453437Y128606D01*
X453719Y128888D01*
X454086Y129039D01*
X454285Y129039D01*
X454285Y129039D01*
X459035Y129039D01*
X459234Y129039D01*
X459601Y128887D01*
D02*
G37*
G36*
X468352Y128887D02*
X468633Y128606D01*
X468785Y128239D01*
X468785Y128040D01*
X468785Y128040D01*
X468785Y123290D01*
X468785Y123091D01*
X468632Y122723D01*
X468351Y122442D01*
X467983Y122290D01*
X467785Y122290D01*
X467785Y122290D01*
X463034Y122290D01*
X462836Y122290D01*
X462468Y122443D01*
X462187Y122724D01*
X462035Y123091D01*
X462035Y123290D01*
Y123290D01*
X462035Y128040D01*
X462035Y128239D01*
X462187Y128606D01*
X462469Y128887D01*
X462837Y129039D01*
X463036Y129039D01*
X463036Y129039D01*
X467785Y129039D01*
X467984Y129039D01*
X468352Y128887D01*
D02*
G37*
G36*
X485285Y129039D02*
X485483Y129039D01*
X485851Y128886D01*
X486132Y128605D01*
X486284Y128237D01*
X486284Y128039D01*
X486284Y128039D01*
X486284Y123288D01*
X486284Y123090D01*
X486131Y122722D01*
X485850Y122441D01*
X485483Y122289D01*
X485284Y122289D01*
X480535Y122289D01*
X480336Y122289D01*
X479968Y122441D01*
X479687Y122723D01*
X479535Y123091D01*
X479535Y123290D01*
X479535Y123290D01*
X479535Y128040D01*
X479535Y128238D01*
X479687Y128606D01*
X479968Y128887D01*
X480336Y129039D01*
X480534Y129039D01*
X480535Y129039D01*
X485285Y129039D01*
D02*
G37*
G36*
X477102Y128887D02*
X477383Y128606D01*
X477535Y128238D01*
X477535Y128040D01*
X477535Y128040D01*
X477535Y123290D01*
X477535Y123091D01*
X477383Y122723D01*
X477101Y122442D01*
X476734Y122290D01*
X476535Y122290D01*
X476535Y122290D01*
X471785Y122290D01*
X471586Y122290D01*
X471218Y122443D01*
X470937Y122724D01*
X470785Y123091D01*
X470785Y123290D01*
Y123290D01*
X470785Y128040D01*
X470785Y128238D01*
X470938Y128606D01*
X471219Y128887D01*
X471587Y129039D01*
X471786Y129039D01*
X471786Y129039D01*
X476536Y129039D01*
X476735Y129039D01*
X477102Y128887D01*
D02*
G37*
D15*
X100750Y69750D02*
D03*
Y79750D02*
D03*
X84750Y64750D02*
D03*
Y74750D02*
D03*
X104750Y58750D02*
D03*
Y48750D02*
D03*
X357751Y143750D02*
D03*
Y153750D02*
D03*
X236250Y250250D02*
D03*
Y260250D02*
D03*
X224750Y71750D02*
D03*
Y61750D02*
D03*
X538750Y235500D02*
D03*
Y225500D02*
D03*
X484352Y60150D02*
D03*
Y70150D02*
D03*
X484352Y50150D02*
D03*
Y40150D02*
D03*
X100750Y433450D02*
D03*
Y443450D02*
D03*
X84750Y428450D02*
D03*
Y438450D02*
D03*
X104750Y422450D02*
D03*
Y412450D02*
D03*
X357751Y507450D02*
D03*
Y517450D02*
D03*
X236250Y613950D02*
D03*
Y623950D02*
D03*
X224750Y435450D02*
D03*
Y425450D02*
D03*
X538750Y599200D02*
D03*
Y589200D02*
D03*
X484352Y423850D02*
D03*
Y433850D02*
D03*
X484352Y413850D02*
D03*
Y403850D02*
D03*
X100750Y797150D02*
D03*
Y807150D02*
D03*
X84750Y792150D02*
D03*
Y802150D02*
D03*
X104750Y786150D02*
D03*
Y776150D02*
D03*
X357751Y871150D02*
D03*
Y881150D02*
D03*
X236250Y977650D02*
D03*
Y987650D02*
D03*
X224750Y799150D02*
D03*
Y789150D02*
D03*
X538750Y962900D02*
D03*
Y952900D02*
D03*
X484352Y787550D02*
D03*
Y797550D02*
D03*
X484352Y777550D02*
D03*
Y767550D02*
D03*
X100750Y1160850D02*
D03*
Y1170850D02*
D03*
X84750Y1155850D02*
D03*
Y1165850D02*
D03*
X104750Y1149850D02*
D03*
Y1139850D02*
D03*
X357751Y1234850D02*
D03*
Y1244850D02*
D03*
X236250Y1341350D02*
D03*
Y1351350D02*
D03*
X224750Y1162850D02*
D03*
Y1152850D02*
D03*
X538750Y1326600D02*
D03*
Y1316600D02*
D03*
X484352Y1151250D02*
D03*
Y1161250D02*
D03*
X484352Y1141250D02*
D03*
Y1131250D02*
D03*
D16*
X669450Y257075D02*
D03*
Y201675D02*
D03*
Y56675D02*
D03*
Y112075D02*
D03*
Y620775D02*
D03*
Y565375D02*
D03*
Y420375D02*
D03*
Y475775D02*
D03*
Y984475D02*
D03*
Y929075D02*
D03*
Y784075D02*
D03*
Y839475D02*
D03*
Y1348175D02*
D03*
Y1292775D02*
D03*
Y1147775D02*
D03*
Y1203175D02*
D03*
D17*
X668450Y229375D02*
D03*
Y84375D02*
D03*
Y593075D02*
D03*
Y448075D02*
D03*
Y956775D02*
D03*
Y811775D02*
D03*
Y1320475D02*
D03*
Y1175475D02*
D03*
D18*
X462750Y266750D02*
D03*
Y256750D02*
D03*
X85000Y95750D02*
D03*
Y85750D02*
D03*
X85251Y209500D02*
D03*
Y199500D02*
D03*
X80250Y219500D02*
D03*
Y229500D02*
D03*
X246750Y258250D02*
D03*
Y268250D02*
D03*
X247000Y239500D02*
D03*
Y229500D02*
D03*
X431250Y266750D02*
D03*
Y256750D02*
D03*
X225750Y256100D02*
D03*
Y266100D02*
D03*
X494852Y50150D02*
D03*
Y60150D02*
D03*
X525852Y60150D02*
D03*
Y50150D02*
D03*
X507324Y225579D02*
D03*
Y235579D02*
D03*
X550000Y119850D02*
D03*
Y129850D02*
D03*
X560000D02*
D03*
Y119850D02*
D03*
X589750Y62000D02*
D03*
Y72000D02*
D03*
X209500Y230250D02*
D03*
Y220250D02*
D03*
X594500Y216000D02*
D03*
Y226000D02*
D03*
X620250Y231250D02*
D03*
Y241250D02*
D03*
X589750Y127500D02*
D03*
Y117500D02*
D03*
X617500Y123750D02*
D03*
Y113750D02*
D03*
X462750Y630450D02*
D03*
Y620450D02*
D03*
X85000Y459450D02*
D03*
Y449450D02*
D03*
X85251Y573200D02*
D03*
Y563200D02*
D03*
X80250Y583200D02*
D03*
Y593200D02*
D03*
X246750Y621950D02*
D03*
Y631950D02*
D03*
X247000Y603200D02*
D03*
Y593200D02*
D03*
X431250Y630450D02*
D03*
Y620450D02*
D03*
X225750Y619800D02*
D03*
Y629800D02*
D03*
X494852Y413850D02*
D03*
Y423850D02*
D03*
X525852Y423850D02*
D03*
Y413850D02*
D03*
X507324Y589280D02*
D03*
Y599280D02*
D03*
X550000Y483550D02*
D03*
Y493550D02*
D03*
X560000D02*
D03*
Y483550D02*
D03*
X589750Y425700D02*
D03*
Y435700D02*
D03*
X209500Y593950D02*
D03*
Y583950D02*
D03*
X594500Y579700D02*
D03*
Y589700D02*
D03*
X620250Y594950D02*
D03*
Y604950D02*
D03*
X589750Y491200D02*
D03*
Y481200D02*
D03*
X617500Y487450D02*
D03*
Y477450D02*
D03*
X462750Y994150D02*
D03*
Y984150D02*
D03*
X85000Y823150D02*
D03*
Y813150D02*
D03*
X85251Y936900D02*
D03*
Y926900D02*
D03*
X80250Y946900D02*
D03*
Y956900D02*
D03*
X246750Y985650D02*
D03*
Y995650D02*
D03*
X247000Y966900D02*
D03*
Y956900D02*
D03*
X431250Y994150D02*
D03*
Y984150D02*
D03*
X225750Y983500D02*
D03*
Y993500D02*
D03*
X494852Y777550D02*
D03*
Y787550D02*
D03*
X525852Y787550D02*
D03*
Y777550D02*
D03*
X507324Y952980D02*
D03*
Y962980D02*
D03*
X550000Y847250D02*
D03*
Y857250D02*
D03*
X560000D02*
D03*
Y847250D02*
D03*
X589750Y789400D02*
D03*
Y799400D02*
D03*
X209500Y957650D02*
D03*
Y947650D02*
D03*
X594500Y943400D02*
D03*
Y953400D02*
D03*
X620250Y958650D02*
D03*
Y968650D02*
D03*
X589750Y854900D02*
D03*
Y844900D02*
D03*
X617500Y851150D02*
D03*
Y841150D02*
D03*
X462750Y1357850D02*
D03*
Y1347850D02*
D03*
X85000Y1186850D02*
D03*
Y1176850D02*
D03*
X85251Y1300600D02*
D03*
Y1290600D02*
D03*
X80250Y1310600D02*
D03*
Y1320600D02*
D03*
X246750Y1349350D02*
D03*
Y1359350D02*
D03*
X247000Y1330600D02*
D03*
Y1320600D02*
D03*
X431250Y1357850D02*
D03*
Y1347850D02*
D03*
X225750Y1347200D02*
D03*
Y1357200D02*
D03*
X494852Y1141250D02*
D03*
Y1151250D02*
D03*
X525852Y1151250D02*
D03*
Y1141250D02*
D03*
X507324Y1316680D02*
D03*
Y1326680D02*
D03*
X550000Y1210950D02*
D03*
Y1220950D02*
D03*
X560000D02*
D03*
Y1210950D02*
D03*
X589750Y1153100D02*
D03*
Y1163100D02*
D03*
X209500Y1321350D02*
D03*
Y1311350D02*
D03*
X594500Y1307100D02*
D03*
Y1317100D02*
D03*
X620250Y1322350D02*
D03*
Y1332350D02*
D03*
X589750Y1218600D02*
D03*
Y1208600D02*
D03*
X617500Y1214850D02*
D03*
Y1204850D02*
D03*
D19*
X440610Y101510D02*
D03*
X453930D02*
D03*
X467250D02*
D03*
X480570D02*
D03*
X487230D02*
D03*
X477240Y104839D02*
D03*
X470580D02*
D03*
X463920D02*
D03*
X457260D02*
D03*
X450600D02*
D03*
X443940D02*
D03*
X437280D02*
D03*
X483900D02*
D03*
X493890Y101510D02*
D03*
X487230Y108169D02*
D03*
X427290D02*
D03*
X433950D02*
D03*
X440610D02*
D03*
X447270D02*
D03*
X453930D02*
D03*
X460590D02*
D03*
X467250D02*
D03*
X473910D02*
D03*
X480570D02*
D03*
X430620Y111500D02*
D03*
X437280D02*
D03*
X443940D02*
D03*
X450600D02*
D03*
X457260D02*
D03*
X463920D02*
D03*
X470580D02*
D03*
X477240D02*
D03*
X483900D02*
D03*
X473910Y114830D02*
D03*
X480570D02*
D03*
X467250D02*
D03*
X460590D02*
D03*
X453930D02*
D03*
X447270D02*
D03*
X440610D02*
D03*
X433950D02*
D03*
X427290D02*
D03*
X503880Y118160D02*
D03*
X497220D02*
D03*
X490560D02*
D03*
X483900D02*
D03*
X477240D02*
D03*
X470580D02*
D03*
X463920D02*
D03*
X457260D02*
D03*
X450600D02*
D03*
X443940D02*
D03*
X437280D02*
D03*
X430620D02*
D03*
X423960D02*
D03*
X403980Y111500D02*
D03*
X407310Y108169D02*
D03*
X403980Y118160D02*
D03*
X407310Y114830D02*
D03*
X410640Y111500D02*
D03*
X413970Y108169D02*
D03*
X420630Y114830D02*
D03*
X423960Y111500D02*
D03*
X417300D02*
D03*
X420630Y108169D02*
D03*
X413970Y114830D02*
D03*
X410640Y118160D02*
D03*
X407310Y121489D02*
D03*
X400650Y128150D02*
D03*
X403980Y124820D02*
D03*
X397320Y131480D02*
D03*
X417300Y118160D02*
D03*
X413970Y121490D02*
D03*
X410640Y124820D02*
D03*
X403980Y131480D02*
D03*
X407310Y128150D02*
D03*
X400650Y134810D02*
D03*
X410640Y131480D02*
D03*
X407310Y134810D02*
D03*
X400650Y141470D02*
D03*
X403980Y138140D02*
D03*
X397320Y144800D02*
D03*
X410640Y138140D02*
D03*
X407310Y141470D02*
D03*
X400650Y148130D02*
D03*
X403980Y144800D02*
D03*
X410640Y144800D02*
D03*
X407310Y148130D02*
D03*
X400650Y154790D02*
D03*
X403980Y151460D02*
D03*
X397320Y158120D02*
D03*
X413970Y148130D02*
D03*
X410640Y151460D02*
D03*
X407310Y154790D02*
D03*
X400650Y161450D02*
D03*
X403980Y158120D02*
D03*
X413970Y154790D02*
D03*
X410640Y158120D02*
D03*
X407310Y161450D02*
D03*
X400650Y168110D02*
D03*
X403980Y164780D02*
D03*
X397320Y171440D02*
D03*
X413970Y161450D02*
D03*
X410640Y164780D02*
D03*
X407310Y168110D02*
D03*
X400650Y174770D02*
D03*
X403980Y171440D02*
D03*
X413970Y168110D02*
D03*
X410640Y171440D02*
D03*
X407310Y174770D02*
D03*
X400650Y181430D02*
D03*
X403980Y178100D02*
D03*
X397320Y184760D02*
D03*
X413970Y174770D02*
D03*
X410640Y178100D02*
D03*
X407310Y181430D02*
D03*
X400650Y188090D02*
D03*
X403980Y184760D02*
D03*
X413970Y181430D02*
D03*
X410640Y184760D02*
D03*
X407310Y188090D02*
D03*
X400650Y194750D02*
D03*
X403980Y191420D02*
D03*
X397320Y198080D02*
D03*
X413970Y188090D02*
D03*
X410640Y191420D02*
D03*
X407310Y194750D02*
D03*
X400650Y201410D02*
D03*
X403980Y198080D02*
D03*
X397320Y204740D02*
D03*
X413970Y194750D02*
D03*
X410640Y198080D02*
D03*
X407310Y201410D02*
D03*
X420630Y194750D02*
D03*
X417300Y198080D02*
D03*
X413970Y201410D02*
D03*
X407310Y208070D02*
D03*
X410640Y204740D02*
D03*
X403980Y211400D02*
D03*
X410640D02*
D03*
X417300Y204740D02*
D03*
X413970Y208070D02*
D03*
X420630Y201410D02*
D03*
X423960Y198080D02*
D03*
X427290Y194750D02*
D03*
X423960Y204740D02*
D03*
X420630Y208070D02*
D03*
X423960Y211400D02*
D03*
X427290Y208070D02*
D03*
X443940Y204740D02*
D03*
X430620D02*
D03*
X433950Y208070D02*
D03*
Y201410D02*
D03*
X437280Y204740D02*
D03*
X440610Y201410D02*
D03*
X437280Y198080D02*
D03*
X453930Y208070D02*
D03*
X450600Y204740D02*
D03*
X447270Y201410D02*
D03*
X443940Y198080D02*
D03*
X440610Y194750D02*
D03*
X447270D02*
D03*
X500550Y208070D02*
D03*
X493890Y108170D02*
D03*
X490560Y111500D02*
D03*
X497220Y104840D02*
D03*
X503880D02*
D03*
X493890Y114830D02*
D03*
X500550Y108170D02*
D03*
X497220Y111500D02*
D03*
X503880D02*
D03*
X507210Y108170D02*
D03*
X493890Y121490D02*
D03*
X490560Y124820D02*
D03*
X500550Y114830D02*
D03*
X493890Y128150D02*
D03*
X490560Y131480D02*
D03*
X500550Y121490D02*
D03*
X503880Y124820D02*
D03*
X507210Y121490D02*
D03*
X493890Y134810D02*
D03*
X490560Y138140D02*
D03*
X500550Y128150D02*
D03*
X497220Y131480D02*
D03*
X503880D02*
D03*
X507210Y128150D02*
D03*
X500550Y134810D02*
D03*
X497220Y138140D02*
D03*
X503880D02*
D03*
X493890Y148130D02*
D03*
X490560Y151460D02*
D03*
X500550Y141470D02*
D03*
X497220Y144800D02*
D03*
X503880D02*
D03*
X507210Y141470D02*
D03*
X493890Y154790D02*
D03*
X490560Y158120D02*
D03*
X500550Y148130D02*
D03*
X497220Y151460D02*
D03*
Y158120D02*
D03*
X500550Y154790D02*
D03*
X490560Y164780D02*
D03*
X497220D02*
D03*
X500550Y161450D02*
D03*
X490560Y171440D02*
D03*
X493890Y168110D02*
D03*
X507210Y154790D02*
D03*
X503880Y158120D02*
D03*
X493890Y174770D02*
D03*
X497220Y171440D02*
D03*
X490560Y178100D02*
D03*
X503880Y164780D02*
D03*
X500550Y168110D02*
D03*
X503880Y171440D02*
D03*
X507210Y168110D02*
D03*
X460590Y194750D02*
D03*
X463920Y198080D02*
D03*
X467250Y194750D02*
D03*
X473910D02*
D03*
X467250Y201410D02*
D03*
X470580Y198080D02*
D03*
X473910Y201410D02*
D03*
X470580Y204740D02*
D03*
X480570Y194750D02*
D03*
X477240Y198080D02*
D03*
X493890Y181430D02*
D03*
X490560Y184760D02*
D03*
X500550Y174770D02*
D03*
X497220Y178100D02*
D03*
X503880Y184760D02*
D03*
X507210Y181430D02*
D03*
X500550D02*
D03*
X503880Y178100D02*
D03*
X480570Y208070D02*
D03*
X477240Y211400D02*
D03*
Y204740D02*
D03*
X473910Y208070D02*
D03*
X493890Y188090D02*
D03*
X497220Y184760D02*
D03*
X487230Y194750D02*
D03*
X480570Y201410D02*
D03*
X483900Y198080D02*
D03*
X500550Y188090D02*
D03*
X497220Y191420D02*
D03*
X490560Y198080D02*
D03*
X493890Y194750D02*
D03*
X483900Y204740D02*
D03*
X487230Y201410D02*
D03*
X490560Y204740D02*
D03*
X487230Y208070D02*
D03*
X497220Y198080D02*
D03*
X493890Y201410D02*
D03*
X500550Y194750D02*
D03*
X503880Y191420D02*
D03*
X507210Y194750D02*
D03*
X503880Y198080D02*
D03*
X500550Y201410D02*
D03*
X497220Y204740D02*
D03*
X493890Y208070D02*
D03*
X490560Y211400D02*
D03*
X440610Y465210D02*
D03*
X453930D02*
D03*
X467250D02*
D03*
X480570D02*
D03*
X487230D02*
D03*
X477240Y468540D02*
D03*
X470580D02*
D03*
X463920D02*
D03*
X457260D02*
D03*
X450600D02*
D03*
X443940D02*
D03*
X437280D02*
D03*
X483900D02*
D03*
X493890Y465210D02*
D03*
X487230Y471870D02*
D03*
X427290D02*
D03*
X433950D02*
D03*
X440610D02*
D03*
X447270D02*
D03*
X453930D02*
D03*
X460590D02*
D03*
X467250D02*
D03*
X473910D02*
D03*
X480570D02*
D03*
X430620Y475200D02*
D03*
X437280D02*
D03*
X443940D02*
D03*
X450600D02*
D03*
X457260D02*
D03*
X463920D02*
D03*
X470580D02*
D03*
X477240D02*
D03*
X483900D02*
D03*
X473910Y478530D02*
D03*
X480570D02*
D03*
X467250D02*
D03*
X460590D02*
D03*
X453930D02*
D03*
X447270D02*
D03*
X440610D02*
D03*
X433950D02*
D03*
X427290D02*
D03*
X503880Y481860D02*
D03*
X497220D02*
D03*
X490560D02*
D03*
X483900D02*
D03*
X477240D02*
D03*
X470580D02*
D03*
X463920D02*
D03*
X457260D02*
D03*
X450600D02*
D03*
X443940D02*
D03*
X437280D02*
D03*
X430620D02*
D03*
X423960D02*
D03*
X403980Y475200D02*
D03*
X407310Y471870D02*
D03*
X403980Y481860D02*
D03*
X407310Y478530D02*
D03*
X410640Y475200D02*
D03*
X413970Y471870D02*
D03*
X420630Y478530D02*
D03*
X423960Y475200D02*
D03*
X417300D02*
D03*
X420630Y471870D02*
D03*
X413970Y478530D02*
D03*
X410640Y481860D02*
D03*
X407310Y485190D02*
D03*
X400650Y491850D02*
D03*
X403980Y488520D02*
D03*
X397320Y495180D02*
D03*
X417300Y481860D02*
D03*
X413970Y485190D02*
D03*
X410640Y488520D02*
D03*
X403980Y495180D02*
D03*
X407310Y491850D02*
D03*
X400650Y498510D02*
D03*
X410640Y495180D02*
D03*
X407310Y498510D02*
D03*
X400650Y505170D02*
D03*
X403980Y501840D02*
D03*
X397320Y508500D02*
D03*
X410640Y501840D02*
D03*
X407310Y505170D02*
D03*
X400650Y511830D02*
D03*
X403980Y508500D02*
D03*
X410640Y508500D02*
D03*
X407310Y511830D02*
D03*
X400650Y518490D02*
D03*
X403980Y515160D02*
D03*
X397320Y521820D02*
D03*
X413970Y511830D02*
D03*
X410640Y515160D02*
D03*
X407310Y518490D02*
D03*
X400650Y525150D02*
D03*
X403980Y521820D02*
D03*
X413970Y518490D02*
D03*
X410640Y521820D02*
D03*
X407310Y525150D02*
D03*
X400650Y531810D02*
D03*
X403980Y528480D02*
D03*
X397320Y535140D02*
D03*
X413970Y525150D02*
D03*
X410640Y528480D02*
D03*
X407310Y531810D02*
D03*
X400650Y538470D02*
D03*
X403980Y535140D02*
D03*
X413970Y531810D02*
D03*
X410640Y535140D02*
D03*
X407310Y538470D02*
D03*
X400650Y545130D02*
D03*
X403980Y541800D02*
D03*
X397320Y548460D02*
D03*
X413970Y538470D02*
D03*
X410640Y541800D02*
D03*
X407310Y545130D02*
D03*
X400650Y551790D02*
D03*
X403980Y548460D02*
D03*
X413970Y545130D02*
D03*
X410640Y548460D02*
D03*
X407310Y551790D02*
D03*
X400650Y558450D02*
D03*
X403980Y555120D02*
D03*
X397320Y561780D02*
D03*
X413970Y551790D02*
D03*
X410640Y555120D02*
D03*
X407310Y558450D02*
D03*
X400650Y565110D02*
D03*
X403980Y561780D02*
D03*
X397320Y568440D02*
D03*
X413970Y558450D02*
D03*
X410640Y561780D02*
D03*
X407310Y565110D02*
D03*
X420630Y558450D02*
D03*
X417300Y561780D02*
D03*
X413970Y565110D02*
D03*
X407310Y571770D02*
D03*
X410640Y568440D02*
D03*
X403980Y575100D02*
D03*
X410640D02*
D03*
X417300Y568440D02*
D03*
X413970Y571770D02*
D03*
X420630Y565110D02*
D03*
X423960Y561780D02*
D03*
X427290Y558450D02*
D03*
X423960Y568440D02*
D03*
X420630Y571770D02*
D03*
X423960Y575100D02*
D03*
X427290Y571770D02*
D03*
X443940Y568440D02*
D03*
X430620D02*
D03*
X433950Y571770D02*
D03*
Y565110D02*
D03*
X437280Y568440D02*
D03*
X440610Y565110D02*
D03*
X437280Y561780D02*
D03*
X453930Y571770D02*
D03*
X450600Y568440D02*
D03*
X447270Y565110D02*
D03*
X443940Y561780D02*
D03*
X440610Y558450D02*
D03*
X447270D02*
D03*
X500550Y571770D02*
D03*
X493890Y471870D02*
D03*
X490560Y475200D02*
D03*
X497220Y468540D02*
D03*
X503880D02*
D03*
X493890Y478530D02*
D03*
X500550Y471870D02*
D03*
X497220Y475200D02*
D03*
X503880D02*
D03*
X507210Y471870D02*
D03*
X493890Y485190D02*
D03*
X490560Y488520D02*
D03*
X500550Y478530D02*
D03*
X493890Y491850D02*
D03*
X490560Y495180D02*
D03*
X500550Y485190D02*
D03*
X503880Y488520D02*
D03*
X507210Y485190D02*
D03*
X493890Y498510D02*
D03*
X490560Y501840D02*
D03*
X500550Y491850D02*
D03*
X497220Y495180D02*
D03*
X503880D02*
D03*
X507210Y491850D02*
D03*
X500550Y498510D02*
D03*
X497220Y501840D02*
D03*
X503880D02*
D03*
X493890Y511830D02*
D03*
X490560Y515160D02*
D03*
X500550Y505170D02*
D03*
X497220Y508500D02*
D03*
X503880D02*
D03*
X507210Y505170D02*
D03*
X493890Y518490D02*
D03*
X490560Y521820D02*
D03*
X500550Y511830D02*
D03*
X497220Y515160D02*
D03*
Y521820D02*
D03*
X500550Y518490D02*
D03*
X490560Y528480D02*
D03*
X497220D02*
D03*
X500550Y525150D02*
D03*
X490560Y535140D02*
D03*
X493890Y531810D02*
D03*
X507210Y518490D02*
D03*
X503880Y521820D02*
D03*
X493890Y538470D02*
D03*
X497220Y535140D02*
D03*
X490560Y541800D02*
D03*
X503880Y528480D02*
D03*
X500550Y531810D02*
D03*
X503880Y535140D02*
D03*
X507210Y531810D02*
D03*
X460590Y558450D02*
D03*
X463920Y561780D02*
D03*
X467250Y558450D02*
D03*
X473910D02*
D03*
X467250Y565110D02*
D03*
X470580Y561780D02*
D03*
X473910Y565110D02*
D03*
X470580Y568440D02*
D03*
X480570Y558450D02*
D03*
X477240Y561780D02*
D03*
X493890Y545130D02*
D03*
X490560Y548460D02*
D03*
X500550Y538470D02*
D03*
X497220Y541800D02*
D03*
X503880Y548460D02*
D03*
X507210Y545130D02*
D03*
X500550D02*
D03*
X503880Y541800D02*
D03*
X480570Y571770D02*
D03*
X477240Y575100D02*
D03*
Y568440D02*
D03*
X473910Y571770D02*
D03*
X493890Y551790D02*
D03*
X497220Y548460D02*
D03*
X487230Y558450D02*
D03*
X480570Y565110D02*
D03*
X483900Y561780D02*
D03*
X500550Y551790D02*
D03*
X497220Y555120D02*
D03*
X490560Y561780D02*
D03*
X493890Y558450D02*
D03*
X483900Y568440D02*
D03*
X487230Y565110D02*
D03*
X490560Y568440D02*
D03*
X487230Y571770D02*
D03*
X497220Y561780D02*
D03*
X493890Y565110D02*
D03*
X500550Y558450D02*
D03*
X503880Y555120D02*
D03*
X507210Y558450D02*
D03*
X503880Y561780D02*
D03*
X500550Y565110D02*
D03*
X497220Y568440D02*
D03*
X493890Y571770D02*
D03*
X490560Y575100D02*
D03*
X440610Y828910D02*
D03*
X453930D02*
D03*
X467250D02*
D03*
X480570D02*
D03*
X487230D02*
D03*
X477240Y832240D02*
D03*
X470580D02*
D03*
X463920D02*
D03*
X457260D02*
D03*
X450600D02*
D03*
X443940D02*
D03*
X437280D02*
D03*
X483900D02*
D03*
X493890Y828910D02*
D03*
X487230Y835570D02*
D03*
X427290D02*
D03*
X433950D02*
D03*
X440610D02*
D03*
X447270D02*
D03*
X453930D02*
D03*
X460590D02*
D03*
X467250D02*
D03*
X473910D02*
D03*
X480570D02*
D03*
X430620Y838900D02*
D03*
X437280D02*
D03*
X443940D02*
D03*
X450600D02*
D03*
X457260D02*
D03*
X463920D02*
D03*
X470580D02*
D03*
X477240D02*
D03*
X483900D02*
D03*
X473910Y842230D02*
D03*
X480570D02*
D03*
X467250D02*
D03*
X460590D02*
D03*
X453930D02*
D03*
X447270D02*
D03*
X440610D02*
D03*
X433950D02*
D03*
X427290D02*
D03*
X503880Y845560D02*
D03*
X497220D02*
D03*
X490560D02*
D03*
X483900D02*
D03*
X477240D02*
D03*
X470580D02*
D03*
X463920D02*
D03*
X457260D02*
D03*
X450600D02*
D03*
X443940D02*
D03*
X437280D02*
D03*
X430620D02*
D03*
X423960D02*
D03*
X403980Y838900D02*
D03*
X407310Y835570D02*
D03*
X403980Y845560D02*
D03*
X407310Y842230D02*
D03*
X410640Y838900D02*
D03*
X413970Y835570D02*
D03*
X420630Y842230D02*
D03*
X423960Y838900D02*
D03*
X417300D02*
D03*
X420630Y835570D02*
D03*
X413970Y842230D02*
D03*
X410640Y845560D02*
D03*
X407310Y848890D02*
D03*
X400650Y855550D02*
D03*
X403980Y852220D02*
D03*
X397320Y858880D02*
D03*
X417300Y845560D02*
D03*
X413970Y848890D02*
D03*
X410640Y852220D02*
D03*
X403980Y858880D02*
D03*
X407310Y855550D02*
D03*
X400650Y862210D02*
D03*
X410640Y858880D02*
D03*
X407310Y862210D02*
D03*
X400650Y868870D02*
D03*
X403980Y865540D02*
D03*
X397320Y872200D02*
D03*
X410640Y865540D02*
D03*
X407310Y868870D02*
D03*
X400650Y875530D02*
D03*
X403980Y872200D02*
D03*
X410640Y872200D02*
D03*
X407310Y875530D02*
D03*
X400650Y882190D02*
D03*
X403980Y878860D02*
D03*
X397320Y885520D02*
D03*
X413970Y875530D02*
D03*
X410640Y878860D02*
D03*
X407310Y882190D02*
D03*
X400650Y888850D02*
D03*
X403980Y885520D02*
D03*
X413970Y882190D02*
D03*
X410640Y885520D02*
D03*
X407310Y888850D02*
D03*
X400650Y895510D02*
D03*
X403980Y892180D02*
D03*
X397320Y898840D02*
D03*
X413970Y888850D02*
D03*
X410640Y892180D02*
D03*
X407310Y895510D02*
D03*
X400650Y902170D02*
D03*
X403980Y898840D02*
D03*
X413970Y895510D02*
D03*
X410640Y898840D02*
D03*
X407310Y902170D02*
D03*
X400650Y908830D02*
D03*
X403980Y905500D02*
D03*
X397320Y912160D02*
D03*
X413970Y902170D02*
D03*
X410640Y905500D02*
D03*
X407310Y908830D02*
D03*
X400650Y915490D02*
D03*
X403980Y912160D02*
D03*
X413970Y908830D02*
D03*
X410640Y912160D02*
D03*
X407310Y915490D02*
D03*
X400650Y922150D02*
D03*
X403980Y918820D02*
D03*
X397320Y925480D02*
D03*
X413970Y915490D02*
D03*
X410640Y918820D02*
D03*
X407310Y922150D02*
D03*
X400650Y928810D02*
D03*
X403980Y925480D02*
D03*
X397320Y932140D02*
D03*
X413970Y922150D02*
D03*
X410640Y925480D02*
D03*
X407310Y928810D02*
D03*
X420630Y922150D02*
D03*
X417300Y925480D02*
D03*
X413970Y928810D02*
D03*
X407310Y935470D02*
D03*
X410640Y932140D02*
D03*
X403980Y938800D02*
D03*
X410640D02*
D03*
X417300Y932140D02*
D03*
X413970Y935470D02*
D03*
X420630Y928810D02*
D03*
X423960Y925480D02*
D03*
X427290Y922150D02*
D03*
X423960Y932140D02*
D03*
X420630Y935470D02*
D03*
X423960Y938800D02*
D03*
X427290Y935470D02*
D03*
X443940Y932140D02*
D03*
X430620D02*
D03*
X433950Y935470D02*
D03*
Y928810D02*
D03*
X437280Y932140D02*
D03*
X440610Y928810D02*
D03*
X437280Y925480D02*
D03*
X453930Y935470D02*
D03*
X450600Y932140D02*
D03*
X447270Y928810D02*
D03*
X443940Y925480D02*
D03*
X440610Y922150D02*
D03*
X447270D02*
D03*
X500550Y935470D02*
D03*
X493890Y835570D02*
D03*
X490560Y838900D02*
D03*
X497220Y832240D02*
D03*
X503880D02*
D03*
X493890Y842230D02*
D03*
X500550Y835570D02*
D03*
X497220Y838900D02*
D03*
X503880D02*
D03*
X507210Y835570D02*
D03*
X493890Y848890D02*
D03*
X490560Y852220D02*
D03*
X500550Y842230D02*
D03*
X493890Y855550D02*
D03*
X490560Y858880D02*
D03*
X500550Y848890D02*
D03*
X503880Y852220D02*
D03*
X507210Y848890D02*
D03*
X493890Y862210D02*
D03*
X490560Y865540D02*
D03*
X500550Y855550D02*
D03*
X497220Y858880D02*
D03*
X503880D02*
D03*
X507210Y855550D02*
D03*
X500550Y862210D02*
D03*
X497220Y865540D02*
D03*
X503880D02*
D03*
X493890Y875530D02*
D03*
X490560Y878860D02*
D03*
X500550Y868870D02*
D03*
X497220Y872200D02*
D03*
X503880D02*
D03*
X507210Y868870D02*
D03*
X493890Y882190D02*
D03*
X490560Y885520D02*
D03*
X500550Y875530D02*
D03*
X497220Y878860D02*
D03*
Y885520D02*
D03*
X500550Y882190D02*
D03*
X490560Y892180D02*
D03*
X497220D02*
D03*
X500550Y888850D02*
D03*
X490560Y898840D02*
D03*
X493890Y895510D02*
D03*
X507210Y882190D02*
D03*
X503880Y885520D02*
D03*
X493890Y902170D02*
D03*
X497220Y898840D02*
D03*
X490560Y905500D02*
D03*
X503880Y892180D02*
D03*
X500550Y895510D02*
D03*
X503880Y898840D02*
D03*
X507210Y895510D02*
D03*
X460590Y922150D02*
D03*
X463920Y925480D02*
D03*
X467250Y922150D02*
D03*
X473910D02*
D03*
X467250Y928810D02*
D03*
X470580Y925480D02*
D03*
X473910Y928810D02*
D03*
X470580Y932140D02*
D03*
X480570Y922150D02*
D03*
X477240Y925480D02*
D03*
X493890Y908830D02*
D03*
X490560Y912160D02*
D03*
X500550Y902170D02*
D03*
X497220Y905500D02*
D03*
X503880Y912160D02*
D03*
X507210Y908830D02*
D03*
X500550D02*
D03*
X503880Y905500D02*
D03*
X480570Y935470D02*
D03*
X477240Y938800D02*
D03*
Y932140D02*
D03*
X473910Y935470D02*
D03*
X493890Y915490D02*
D03*
X497220Y912160D02*
D03*
X487230Y922150D02*
D03*
X480570Y928810D02*
D03*
X483900Y925480D02*
D03*
X500550Y915490D02*
D03*
X497220Y918820D02*
D03*
X490560Y925480D02*
D03*
X493890Y922150D02*
D03*
X483900Y932140D02*
D03*
X487230Y928810D02*
D03*
X490560Y932140D02*
D03*
X487230Y935470D02*
D03*
X497220Y925480D02*
D03*
X493890Y928810D02*
D03*
X500550Y922150D02*
D03*
X503880Y918820D02*
D03*
X507210Y922150D02*
D03*
X503880Y925480D02*
D03*
X500550Y928810D02*
D03*
X497220Y932140D02*
D03*
X493890Y935470D02*
D03*
X490560Y938800D02*
D03*
X440610Y1192610D02*
D03*
X453930D02*
D03*
X467250D02*
D03*
X480570D02*
D03*
X487230D02*
D03*
X477240Y1195940D02*
D03*
X470580D02*
D03*
X463920D02*
D03*
X457260D02*
D03*
X450600D02*
D03*
X443940D02*
D03*
X437280D02*
D03*
X483900D02*
D03*
X493890Y1192610D02*
D03*
X487230Y1199270D02*
D03*
X427290D02*
D03*
X433950D02*
D03*
X440610D02*
D03*
X447270D02*
D03*
X453930D02*
D03*
X460590D02*
D03*
X467250D02*
D03*
X473910D02*
D03*
X480570D02*
D03*
X430620Y1202600D02*
D03*
X437280D02*
D03*
X443940D02*
D03*
X450600D02*
D03*
X457260D02*
D03*
X463920D02*
D03*
X470580D02*
D03*
X477240D02*
D03*
X483900D02*
D03*
X473910Y1205930D02*
D03*
X480570D02*
D03*
X467250D02*
D03*
X460590D02*
D03*
X453930D02*
D03*
X447270D02*
D03*
X440610D02*
D03*
X433950D02*
D03*
X427290D02*
D03*
X503880Y1209260D02*
D03*
X497220D02*
D03*
X490560D02*
D03*
X483900D02*
D03*
X477240D02*
D03*
X470580D02*
D03*
X463920D02*
D03*
X457260D02*
D03*
X450600D02*
D03*
X443940D02*
D03*
X437280D02*
D03*
X430620D02*
D03*
X423960D02*
D03*
X403980Y1202600D02*
D03*
X407310Y1199270D02*
D03*
X403980Y1209260D02*
D03*
X407310Y1205930D02*
D03*
X410640Y1202600D02*
D03*
X413970Y1199270D02*
D03*
X420630Y1205930D02*
D03*
X423960Y1202600D02*
D03*
X417300D02*
D03*
X420630Y1199270D02*
D03*
X413970Y1205930D02*
D03*
X410640Y1209260D02*
D03*
X407310Y1212590D02*
D03*
X400650Y1219250D02*
D03*
X403980Y1215920D02*
D03*
X397320Y1222580D02*
D03*
X417300Y1209260D02*
D03*
X413970Y1212590D02*
D03*
X410640Y1215920D02*
D03*
X403980Y1222580D02*
D03*
X407310Y1219250D02*
D03*
X400650Y1225910D02*
D03*
X410640Y1222580D02*
D03*
X407310Y1225910D02*
D03*
X400650Y1232570D02*
D03*
X403980Y1229240D02*
D03*
X397320Y1235900D02*
D03*
X410640Y1229240D02*
D03*
X407310Y1232570D02*
D03*
X400650Y1239230D02*
D03*
X403980Y1235900D02*
D03*
X410640Y1235900D02*
D03*
X407310Y1239230D02*
D03*
X400650Y1245890D02*
D03*
X403980Y1242560D02*
D03*
X397320Y1249220D02*
D03*
X413970Y1239230D02*
D03*
X410640Y1242560D02*
D03*
X407310Y1245890D02*
D03*
X400650Y1252550D02*
D03*
X403980Y1249220D02*
D03*
X413970Y1245890D02*
D03*
X410640Y1249220D02*
D03*
X407310Y1252550D02*
D03*
X400650Y1259210D02*
D03*
X403980Y1255880D02*
D03*
X397320Y1262540D02*
D03*
X413970Y1252550D02*
D03*
X410640Y1255880D02*
D03*
X407310Y1259210D02*
D03*
X400650Y1265870D02*
D03*
X403980Y1262540D02*
D03*
X413970Y1259210D02*
D03*
X410640Y1262540D02*
D03*
X407310Y1265870D02*
D03*
X400650Y1272530D02*
D03*
X403980Y1269200D02*
D03*
X397320Y1275860D02*
D03*
X413970Y1265870D02*
D03*
X410640Y1269200D02*
D03*
X407310Y1272530D02*
D03*
X400650Y1279190D02*
D03*
X403980Y1275860D02*
D03*
X413970Y1272530D02*
D03*
X410640Y1275860D02*
D03*
X407310Y1279190D02*
D03*
X400650Y1285850D02*
D03*
X403980Y1282520D02*
D03*
X397320Y1289180D02*
D03*
X413970Y1279190D02*
D03*
X410640Y1282520D02*
D03*
X407310Y1285850D02*
D03*
X400650Y1292510D02*
D03*
X403980Y1289180D02*
D03*
X397320Y1295840D02*
D03*
X413970Y1285850D02*
D03*
X410640Y1289180D02*
D03*
X407310Y1292510D02*
D03*
X420630Y1285850D02*
D03*
X417300Y1289180D02*
D03*
X413970Y1292510D02*
D03*
X407310Y1299170D02*
D03*
X410640Y1295840D02*
D03*
X403980Y1302500D02*
D03*
X410640D02*
D03*
X417300Y1295840D02*
D03*
X413970Y1299170D02*
D03*
X420630Y1292510D02*
D03*
X423960Y1289180D02*
D03*
X427290Y1285850D02*
D03*
X423960Y1295840D02*
D03*
X420630Y1299170D02*
D03*
X423960Y1302500D02*
D03*
X427290Y1299170D02*
D03*
X443940Y1295840D02*
D03*
X430620D02*
D03*
X433950Y1299170D02*
D03*
Y1292510D02*
D03*
X437280Y1295840D02*
D03*
X440610Y1292510D02*
D03*
X437280Y1289180D02*
D03*
X453930Y1299170D02*
D03*
X450600Y1295840D02*
D03*
X447270Y1292510D02*
D03*
X443940Y1289180D02*
D03*
X440610Y1285850D02*
D03*
X447270D02*
D03*
X500550Y1299170D02*
D03*
X493890Y1199270D02*
D03*
X490560Y1202600D02*
D03*
X497220Y1195940D02*
D03*
X503880D02*
D03*
X493890Y1205930D02*
D03*
X500550Y1199270D02*
D03*
X497220Y1202600D02*
D03*
X503880D02*
D03*
X507210Y1199270D02*
D03*
X493890Y1212590D02*
D03*
X490560Y1215920D02*
D03*
X500550Y1205930D02*
D03*
X493890Y1219250D02*
D03*
X490560Y1222580D02*
D03*
X500550Y1212590D02*
D03*
X503880Y1215920D02*
D03*
X507210Y1212590D02*
D03*
X493890Y1225910D02*
D03*
X490560Y1229240D02*
D03*
X500550Y1219250D02*
D03*
X497220Y1222580D02*
D03*
X503880D02*
D03*
X507210Y1219250D02*
D03*
X500550Y1225910D02*
D03*
X497220Y1229240D02*
D03*
X503880D02*
D03*
X493890Y1239230D02*
D03*
X490560Y1242560D02*
D03*
X500550Y1232570D02*
D03*
X497220Y1235900D02*
D03*
X503880D02*
D03*
X507210Y1232570D02*
D03*
X493890Y1245890D02*
D03*
X490560Y1249220D02*
D03*
X500550Y1239230D02*
D03*
X497220Y1242560D02*
D03*
Y1249220D02*
D03*
X500550Y1245890D02*
D03*
X490560Y1255880D02*
D03*
X497220D02*
D03*
X500550Y1252550D02*
D03*
X490560Y1262540D02*
D03*
X493890Y1259210D02*
D03*
X507210Y1245890D02*
D03*
X503880Y1249220D02*
D03*
X493890Y1265870D02*
D03*
X497220Y1262540D02*
D03*
X490560Y1269200D02*
D03*
X503880Y1255880D02*
D03*
X500550Y1259210D02*
D03*
X503880Y1262540D02*
D03*
X507210Y1259210D02*
D03*
X460590Y1285850D02*
D03*
X463920Y1289180D02*
D03*
X467250Y1285850D02*
D03*
X473910D02*
D03*
X467250Y1292510D02*
D03*
X470580Y1289180D02*
D03*
X473910Y1292510D02*
D03*
X470580Y1295840D02*
D03*
X480570Y1285850D02*
D03*
X477240Y1289180D02*
D03*
X493890Y1272530D02*
D03*
X490560Y1275860D02*
D03*
X500550Y1265870D02*
D03*
X497220Y1269200D02*
D03*
X503880Y1275860D02*
D03*
X507210Y1272530D02*
D03*
X500550D02*
D03*
X503880Y1269200D02*
D03*
X480570Y1299170D02*
D03*
X477240Y1302500D02*
D03*
Y1295840D02*
D03*
X473910Y1299170D02*
D03*
X493890Y1279190D02*
D03*
X497220Y1275860D02*
D03*
X487230Y1285850D02*
D03*
X480570Y1292510D02*
D03*
X483900Y1289180D02*
D03*
X500550Y1279190D02*
D03*
X497220Y1282520D02*
D03*
X490560Y1289180D02*
D03*
X493890Y1285850D02*
D03*
X483900Y1295840D02*
D03*
X487230Y1292510D02*
D03*
X490560Y1295840D02*
D03*
X487230Y1299170D02*
D03*
X497220Y1289180D02*
D03*
X493890Y1292510D02*
D03*
X500550Y1285850D02*
D03*
X503880Y1282520D02*
D03*
X507210Y1285850D02*
D03*
X503880Y1289180D02*
D03*
X500550Y1292510D02*
D03*
X497220Y1295840D02*
D03*
X493890Y1299170D02*
D03*
X490560Y1302500D02*
D03*
D20*
X452160Y156160D02*
D03*
Y519860D02*
D03*
Y883560D02*
D03*
Y1247260D02*
D03*
D21*
X118000Y95000D02*
D03*
X128000D02*
D03*
X94750Y37750D02*
D03*
X104750D02*
D03*
X207500Y209250D02*
D03*
X197500D02*
D03*
X300500Y95500D02*
D03*
X310500D02*
D03*
X226000Y239500D02*
D03*
X236000D02*
D03*
X194500Y266750D02*
D03*
X204500D02*
D03*
X549926Y98771D02*
D03*
X539927D02*
D03*
X559927Y98771D02*
D03*
X569926D02*
D03*
X321250Y39250D02*
D03*
X311250D02*
D03*
X321275Y50205D02*
D03*
X311275D02*
D03*
X321250Y61250D02*
D03*
X311250D02*
D03*
X118000Y458700D02*
D03*
X128000D02*
D03*
X94750Y401450D02*
D03*
X104750D02*
D03*
X207500Y572950D02*
D03*
X197500D02*
D03*
X300500Y459200D02*
D03*
X310500D02*
D03*
X226000Y603200D02*
D03*
X236000D02*
D03*
X194500Y630450D02*
D03*
X204500D02*
D03*
X549926Y462471D02*
D03*
X539927D02*
D03*
X559927Y462471D02*
D03*
X569926D02*
D03*
X321250Y402950D02*
D03*
X311250D02*
D03*
X321275Y413905D02*
D03*
X311275D02*
D03*
X321250Y424950D02*
D03*
X311250D02*
D03*
X118000Y822400D02*
D03*
X128000D02*
D03*
X94750Y765150D02*
D03*
X104750D02*
D03*
X207500Y936650D02*
D03*
X197500D02*
D03*
X300500Y822900D02*
D03*
X310500D02*
D03*
X226000Y966900D02*
D03*
X236000D02*
D03*
X194500Y994150D02*
D03*
X204500D02*
D03*
X549926Y826171D02*
D03*
X539927D02*
D03*
X559927Y826171D02*
D03*
X569926D02*
D03*
X321250Y766650D02*
D03*
X311250D02*
D03*
X321275Y777605D02*
D03*
X311275D02*
D03*
X321250Y788650D02*
D03*
X311250D02*
D03*
X118000Y1186100D02*
D03*
X128000D02*
D03*
X94750Y1128850D02*
D03*
X104750D02*
D03*
X207500Y1300350D02*
D03*
X197500D02*
D03*
X300500Y1186600D02*
D03*
X310500D02*
D03*
X226000Y1330600D02*
D03*
X236000D02*
D03*
X194500Y1357850D02*
D03*
X204500D02*
D03*
X549926Y1189871D02*
D03*
X539927D02*
D03*
X559927Y1189871D02*
D03*
X569926D02*
D03*
X321250Y1130350D02*
D03*
X311250D02*
D03*
X321275Y1141305D02*
D03*
X311275D02*
D03*
X321250Y1152350D02*
D03*
X311250D02*
D03*
D22*
X83000Y36500D02*
D03*
Y53500D02*
D03*
Y400200D02*
D03*
Y417200D02*
D03*
Y763900D02*
D03*
Y780900D02*
D03*
Y1127600D02*
D03*
Y1144600D02*
D03*
D23*
X127500Y43250D02*
D03*
X137500D02*
D03*
X161750Y245750D02*
D03*
X171750D02*
D03*
X161750Y255750D02*
D03*
X171750D02*
D03*
X161250Y228750D02*
D03*
X171250D02*
D03*
X451750Y266750D02*
D03*
X441750D02*
D03*
X451750Y256750D02*
D03*
X441750D02*
D03*
X183500Y266000D02*
D03*
X173500D02*
D03*
X198000Y226250D02*
D03*
X188000D02*
D03*
X213250Y257250D02*
D03*
X203250D02*
D03*
X215000Y244350D02*
D03*
X205000D02*
D03*
X198000Y235250D02*
D03*
X188000D02*
D03*
X172250Y276000D02*
D03*
X162250D02*
D03*
X550000Y140350D02*
D03*
X560000D02*
D03*
X505352Y60150D02*
D03*
X515352D02*
D03*
X517750Y235500D02*
D03*
X527750D02*
D03*
X517750Y225500D02*
D03*
X527750D02*
D03*
X515352Y50150D02*
D03*
X505353D02*
D03*
X560000Y109350D02*
D03*
X550000D02*
D03*
X202750Y279750D02*
D03*
X212750D02*
D03*
X555250Y270500D02*
D03*
X565250Y270500D02*
D03*
X627500Y272750D02*
D03*
X617500D02*
D03*
X616000Y92000D02*
D03*
X626000D02*
D03*
X127500Y406950D02*
D03*
X137500D02*
D03*
X161750Y609450D02*
D03*
X171750D02*
D03*
X161750Y619450D02*
D03*
X171750D02*
D03*
X161250Y592450D02*
D03*
X171250D02*
D03*
X451750Y630450D02*
D03*
X441750D02*
D03*
X451750Y620450D02*
D03*
X441750D02*
D03*
X183500Y629700D02*
D03*
X173500D02*
D03*
X198000Y589950D02*
D03*
X188000D02*
D03*
X213250Y620950D02*
D03*
X203250D02*
D03*
X215000Y608050D02*
D03*
X205000D02*
D03*
X198000Y598950D02*
D03*
X188000D02*
D03*
X172250Y639700D02*
D03*
X162250D02*
D03*
X550000Y504050D02*
D03*
X560000D02*
D03*
X505352Y423850D02*
D03*
X515352D02*
D03*
X517750Y599200D02*
D03*
X527750D02*
D03*
X517750Y589200D02*
D03*
X527750D02*
D03*
X515352Y413850D02*
D03*
X505353D02*
D03*
X560000Y473050D02*
D03*
X550000D02*
D03*
X202750Y643450D02*
D03*
X212750D02*
D03*
X555250Y634200D02*
D03*
X565250Y634200D02*
D03*
X627500Y636450D02*
D03*
X617500D02*
D03*
X616000Y455700D02*
D03*
X626000D02*
D03*
X127500Y770650D02*
D03*
X137500D02*
D03*
X161750Y973150D02*
D03*
X171750D02*
D03*
X161750Y983150D02*
D03*
X171750D02*
D03*
X161250Y956150D02*
D03*
X171250D02*
D03*
X451750Y994150D02*
D03*
X441750D02*
D03*
X451750Y984150D02*
D03*
X441750D02*
D03*
X183500Y993400D02*
D03*
X173500D02*
D03*
X198000Y953650D02*
D03*
X188000D02*
D03*
X213250Y984650D02*
D03*
X203250D02*
D03*
X215000Y971750D02*
D03*
X205000D02*
D03*
X198000Y962650D02*
D03*
X188000D02*
D03*
X172250Y1003400D02*
D03*
X162250D02*
D03*
X550000Y867750D02*
D03*
X560000D02*
D03*
X505352Y787550D02*
D03*
X515352D02*
D03*
X517750Y962900D02*
D03*
X527750D02*
D03*
X517750Y952900D02*
D03*
X527750D02*
D03*
X515352Y777550D02*
D03*
X505353D02*
D03*
X560000Y836750D02*
D03*
X550000D02*
D03*
X202750Y1007150D02*
D03*
X212750D02*
D03*
X555250Y997900D02*
D03*
X565250Y997900D02*
D03*
X627500Y1000150D02*
D03*
X617500D02*
D03*
X616000Y819400D02*
D03*
X626000D02*
D03*
X127500Y1134350D02*
D03*
X137500D02*
D03*
X161750Y1336850D02*
D03*
X171750D02*
D03*
X161750Y1346850D02*
D03*
X171750D02*
D03*
X161250Y1319850D02*
D03*
X171250D02*
D03*
X451750Y1357850D02*
D03*
X441750D02*
D03*
X451750Y1347850D02*
D03*
X441750D02*
D03*
X183500Y1357100D02*
D03*
X173500D02*
D03*
X198000Y1317350D02*
D03*
X188000D02*
D03*
X213250Y1348350D02*
D03*
X203250D02*
D03*
X215000Y1335450D02*
D03*
X205000D02*
D03*
X198000Y1326350D02*
D03*
X188000D02*
D03*
X172250Y1367100D02*
D03*
X162250D02*
D03*
X550000Y1231450D02*
D03*
X560000D02*
D03*
X505352Y1151250D02*
D03*
X515352D02*
D03*
X517750Y1326600D02*
D03*
X527750D02*
D03*
X517750Y1316600D02*
D03*
X527750D02*
D03*
X515352Y1141250D02*
D03*
X505353D02*
D03*
X560000Y1200450D02*
D03*
X550000D02*
D03*
X202750Y1370850D02*
D03*
X212750D02*
D03*
X555250Y1361600D02*
D03*
X565250Y1361600D02*
D03*
X627500Y1363850D02*
D03*
X617500D02*
D03*
X616000Y1183100D02*
D03*
X626000D02*
D03*
D24*
X306000Y222350D02*
D03*
X267000Y222350D02*
D03*
X306000Y235100D02*
D03*
X267000Y235100D02*
D03*
X306000Y247850D02*
D03*
X267000Y247850D02*
D03*
X306000Y260600D02*
D03*
X267000D02*
D03*
X306000Y273350D02*
D03*
X267000Y273350D02*
D03*
X141750Y221850D02*
D03*
X102751Y221850D02*
D03*
X141750Y234600D02*
D03*
X102751Y234600D02*
D03*
X141750Y247350D02*
D03*
X102751Y247350D02*
D03*
X141750Y260100D02*
D03*
X102751D02*
D03*
X141750Y272850D02*
D03*
X102751Y272850D02*
D03*
X306000Y586050D02*
D03*
X267000Y586050D02*
D03*
X306000Y598800D02*
D03*
X267000Y598800D02*
D03*
X306000Y611550D02*
D03*
X267000Y611550D02*
D03*
X306000Y624300D02*
D03*
X267000D02*
D03*
X306000Y637050D02*
D03*
X267000Y637050D02*
D03*
X141750Y585550D02*
D03*
X102751Y585550D02*
D03*
X141750Y598300D02*
D03*
X102751Y598300D02*
D03*
X141750Y611050D02*
D03*
X102751Y611050D02*
D03*
X141750Y623800D02*
D03*
X102751D02*
D03*
X141750Y636550D02*
D03*
X102751Y636550D02*
D03*
X306000Y949750D02*
D03*
X267000Y949750D02*
D03*
X306000Y962500D02*
D03*
X267000Y962500D02*
D03*
X306000Y975250D02*
D03*
X267000Y975250D02*
D03*
X306000Y988000D02*
D03*
X267000D02*
D03*
X306000Y1000750D02*
D03*
X267000Y1000750D02*
D03*
X141750Y949250D02*
D03*
X102751Y949250D02*
D03*
X141750Y962000D02*
D03*
X102751Y962000D02*
D03*
X141750Y974750D02*
D03*
X102751Y974750D02*
D03*
X141750Y987500D02*
D03*
X102751D02*
D03*
X141750Y1000250D02*
D03*
X102751Y1000250D02*
D03*
X306000Y1313450D02*
D03*
X267000Y1313450D02*
D03*
X306000Y1326200D02*
D03*
X267000Y1326200D02*
D03*
X306000Y1338950D02*
D03*
X267000Y1338950D02*
D03*
X306000Y1351700D02*
D03*
X267000D02*
D03*
X306000Y1364450D02*
D03*
X267000Y1364450D02*
D03*
X141750Y1312950D02*
D03*
X102751Y1312950D02*
D03*
X141750Y1325700D02*
D03*
X102751Y1325700D02*
D03*
X141750Y1338450D02*
D03*
X102751Y1338450D02*
D03*
X141750Y1351200D02*
D03*
X102751D02*
D03*
X141750Y1363950D02*
D03*
X102751Y1363950D02*
D03*
D25*
X316500Y204850D02*
D03*
Y196850D02*
D03*
Y188850D02*
D03*
Y180850D02*
D03*
Y172850D02*
D03*
Y164850D02*
D03*
Y156850D02*
D03*
Y148850D02*
D03*
Y140850D02*
D03*
Y132850D02*
D03*
Y124850D02*
D03*
Y116850D02*
D03*
Y108850D02*
D03*
X308500Y204850D02*
D03*
Y196850D02*
D03*
Y188850D02*
D03*
Y180850D02*
D03*
Y172850D02*
D03*
Y164850D02*
D03*
Y156850D02*
D03*
Y148850D02*
D03*
Y140850D02*
D03*
Y132850D02*
D03*
Y124850D02*
D03*
Y116850D02*
D03*
Y108850D02*
D03*
X300500Y204850D02*
D03*
Y196850D02*
D03*
Y188850D02*
D03*
Y180850D02*
D03*
Y172850D02*
D03*
Y164850D02*
D03*
Y156850D02*
D03*
Y148850D02*
D03*
Y140850D02*
D03*
Y132850D02*
D03*
Y124850D02*
D03*
Y116850D02*
D03*
Y108850D02*
D03*
X292500Y204850D02*
D03*
Y196850D02*
D03*
Y188850D02*
D03*
Y180850D02*
D03*
Y172850D02*
D03*
Y164850D02*
D03*
Y156850D02*
D03*
Y148850D02*
D03*
Y140850D02*
D03*
Y132850D02*
D03*
Y124850D02*
D03*
Y116850D02*
D03*
Y108850D02*
D03*
X284500Y204850D02*
D03*
Y196850D02*
D03*
Y188850D02*
D03*
Y180850D02*
D03*
Y172850D02*
D03*
Y164850D02*
D03*
Y156850D02*
D03*
Y148850D02*
D03*
Y140850D02*
D03*
Y132850D02*
D03*
Y124850D02*
D03*
Y116850D02*
D03*
Y108850D02*
D03*
X276500Y204850D02*
D03*
Y196850D02*
D03*
Y188850D02*
D03*
Y180850D02*
D03*
Y172850D02*
D03*
Y164850D02*
D03*
Y156850D02*
D03*
Y148850D02*
D03*
Y140850D02*
D03*
Y132850D02*
D03*
Y124850D02*
D03*
Y116850D02*
D03*
X268500Y204850D02*
D03*
Y196850D02*
D03*
Y188850D02*
D03*
Y180850D02*
D03*
Y172850D02*
D03*
Y164850D02*
D03*
Y156850D02*
D03*
Y148850D02*
D03*
Y140850D02*
D03*
Y132850D02*
D03*
Y124850D02*
D03*
Y116850D02*
D03*
X260500Y204850D02*
D03*
Y196850D02*
D03*
Y188850D02*
D03*
Y180850D02*
D03*
Y172850D02*
D03*
Y164850D02*
D03*
Y156850D02*
D03*
Y148850D02*
D03*
Y140850D02*
D03*
Y132850D02*
D03*
Y124850D02*
D03*
Y116850D02*
D03*
Y108850D02*
D03*
X252500Y204850D02*
D03*
Y196850D02*
D03*
Y188850D02*
D03*
Y180850D02*
D03*
Y172850D02*
D03*
Y164850D02*
D03*
Y156850D02*
D03*
Y148850D02*
D03*
Y140850D02*
D03*
Y132850D02*
D03*
Y124850D02*
D03*
Y116850D02*
D03*
Y108850D02*
D03*
X244500Y204850D02*
D03*
Y196850D02*
D03*
Y188850D02*
D03*
Y180850D02*
D03*
Y172850D02*
D03*
Y164850D02*
D03*
Y156850D02*
D03*
Y148850D02*
D03*
Y140850D02*
D03*
Y132850D02*
D03*
Y124850D02*
D03*
Y116850D02*
D03*
Y108850D02*
D03*
X236500Y204850D02*
D03*
Y196850D02*
D03*
Y188850D02*
D03*
Y180850D02*
D03*
Y172850D02*
D03*
Y164850D02*
D03*
Y156850D02*
D03*
Y148850D02*
D03*
Y140850D02*
D03*
Y132850D02*
D03*
Y124850D02*
D03*
Y116850D02*
D03*
Y108850D02*
D03*
X228500Y204850D02*
D03*
Y196850D02*
D03*
Y188850D02*
D03*
Y180850D02*
D03*
Y172850D02*
D03*
Y164850D02*
D03*
Y156850D02*
D03*
Y148850D02*
D03*
Y140850D02*
D03*
Y132850D02*
D03*
Y124850D02*
D03*
X220500Y204850D02*
D03*
Y196850D02*
D03*
Y188850D02*
D03*
Y180850D02*
D03*
Y172850D02*
D03*
Y164850D02*
D03*
Y156850D02*
D03*
Y148850D02*
D03*
Y140850D02*
D03*
Y132850D02*
D03*
Y124850D02*
D03*
Y116850D02*
D03*
X316500Y568550D02*
D03*
Y560550D02*
D03*
Y552550D02*
D03*
Y544550D02*
D03*
Y536550D02*
D03*
Y528550D02*
D03*
Y520550D02*
D03*
Y512550D02*
D03*
Y504550D02*
D03*
Y496550D02*
D03*
Y488550D02*
D03*
Y480550D02*
D03*
Y472550D02*
D03*
X308500Y568550D02*
D03*
Y560550D02*
D03*
Y552550D02*
D03*
Y544550D02*
D03*
Y536550D02*
D03*
Y528550D02*
D03*
Y520550D02*
D03*
Y512550D02*
D03*
Y504550D02*
D03*
Y496550D02*
D03*
Y488550D02*
D03*
Y480550D02*
D03*
Y472550D02*
D03*
X300500Y568550D02*
D03*
Y560550D02*
D03*
Y552550D02*
D03*
Y544550D02*
D03*
Y536550D02*
D03*
Y528550D02*
D03*
Y520550D02*
D03*
Y512550D02*
D03*
Y504550D02*
D03*
Y496550D02*
D03*
Y488550D02*
D03*
Y480550D02*
D03*
Y472550D02*
D03*
X292500Y568550D02*
D03*
Y560550D02*
D03*
Y552550D02*
D03*
Y544550D02*
D03*
Y536550D02*
D03*
Y528550D02*
D03*
Y520550D02*
D03*
Y512550D02*
D03*
Y504550D02*
D03*
Y496550D02*
D03*
Y488550D02*
D03*
Y480550D02*
D03*
Y472550D02*
D03*
X284500Y568550D02*
D03*
Y560550D02*
D03*
Y552550D02*
D03*
Y544550D02*
D03*
Y536550D02*
D03*
Y528550D02*
D03*
Y520550D02*
D03*
Y512550D02*
D03*
Y504550D02*
D03*
Y496550D02*
D03*
Y488550D02*
D03*
Y480550D02*
D03*
Y472550D02*
D03*
X276500Y568550D02*
D03*
Y560550D02*
D03*
Y552550D02*
D03*
Y544550D02*
D03*
Y536550D02*
D03*
Y528550D02*
D03*
Y520550D02*
D03*
Y512550D02*
D03*
Y504550D02*
D03*
Y496550D02*
D03*
Y488550D02*
D03*
Y480550D02*
D03*
X268500Y568550D02*
D03*
Y560550D02*
D03*
Y552550D02*
D03*
Y544550D02*
D03*
Y536550D02*
D03*
Y528550D02*
D03*
Y520550D02*
D03*
Y512550D02*
D03*
Y504550D02*
D03*
Y496550D02*
D03*
Y488550D02*
D03*
Y480550D02*
D03*
X260500Y568550D02*
D03*
Y560550D02*
D03*
Y552550D02*
D03*
Y544550D02*
D03*
Y536550D02*
D03*
Y528550D02*
D03*
Y520550D02*
D03*
Y512550D02*
D03*
Y504550D02*
D03*
Y496550D02*
D03*
Y488550D02*
D03*
Y480550D02*
D03*
Y472550D02*
D03*
X252500Y568550D02*
D03*
Y560550D02*
D03*
Y552550D02*
D03*
Y544550D02*
D03*
Y536550D02*
D03*
Y528550D02*
D03*
Y520550D02*
D03*
Y512550D02*
D03*
Y504550D02*
D03*
Y496550D02*
D03*
Y488550D02*
D03*
Y480550D02*
D03*
Y472550D02*
D03*
X244500Y568550D02*
D03*
Y560550D02*
D03*
Y552550D02*
D03*
Y544550D02*
D03*
Y536550D02*
D03*
Y528550D02*
D03*
Y520550D02*
D03*
Y512550D02*
D03*
Y504550D02*
D03*
Y496550D02*
D03*
Y488550D02*
D03*
Y480550D02*
D03*
Y472550D02*
D03*
X236500Y568550D02*
D03*
Y560550D02*
D03*
Y552550D02*
D03*
Y544550D02*
D03*
Y536550D02*
D03*
Y528550D02*
D03*
Y520550D02*
D03*
Y512550D02*
D03*
Y504550D02*
D03*
Y496550D02*
D03*
Y488550D02*
D03*
Y480550D02*
D03*
Y472550D02*
D03*
X228500Y568550D02*
D03*
Y560550D02*
D03*
Y552550D02*
D03*
Y544550D02*
D03*
Y536550D02*
D03*
Y528550D02*
D03*
Y520550D02*
D03*
Y512550D02*
D03*
Y504550D02*
D03*
Y496550D02*
D03*
Y488550D02*
D03*
X220500Y568550D02*
D03*
Y560550D02*
D03*
Y552550D02*
D03*
Y544550D02*
D03*
Y536550D02*
D03*
Y528550D02*
D03*
Y520550D02*
D03*
Y512550D02*
D03*
Y504550D02*
D03*
Y496550D02*
D03*
Y488550D02*
D03*
Y480550D02*
D03*
X316500Y932250D02*
D03*
Y924250D02*
D03*
Y916250D02*
D03*
Y908250D02*
D03*
Y900250D02*
D03*
Y892250D02*
D03*
Y884250D02*
D03*
Y876250D02*
D03*
Y868250D02*
D03*
Y860250D02*
D03*
Y852250D02*
D03*
Y844250D02*
D03*
Y836250D02*
D03*
X308500Y932250D02*
D03*
Y924250D02*
D03*
Y916250D02*
D03*
Y908250D02*
D03*
Y900250D02*
D03*
Y892250D02*
D03*
Y884250D02*
D03*
Y876250D02*
D03*
Y868250D02*
D03*
Y860250D02*
D03*
Y852250D02*
D03*
Y844250D02*
D03*
Y836250D02*
D03*
X300500Y932250D02*
D03*
Y924250D02*
D03*
Y916250D02*
D03*
Y908250D02*
D03*
Y900250D02*
D03*
Y892250D02*
D03*
Y884250D02*
D03*
Y876250D02*
D03*
Y868250D02*
D03*
Y860250D02*
D03*
Y852250D02*
D03*
Y844250D02*
D03*
Y836250D02*
D03*
X292500Y932250D02*
D03*
Y924250D02*
D03*
Y916250D02*
D03*
Y908250D02*
D03*
Y900250D02*
D03*
Y892250D02*
D03*
Y884250D02*
D03*
Y876250D02*
D03*
Y868250D02*
D03*
Y860250D02*
D03*
Y852250D02*
D03*
Y844250D02*
D03*
Y836250D02*
D03*
X284500Y932250D02*
D03*
Y924250D02*
D03*
Y916250D02*
D03*
Y908250D02*
D03*
Y900250D02*
D03*
Y892250D02*
D03*
Y884250D02*
D03*
Y876250D02*
D03*
Y868250D02*
D03*
Y860250D02*
D03*
Y852250D02*
D03*
Y844250D02*
D03*
Y836250D02*
D03*
X276500Y932250D02*
D03*
Y924250D02*
D03*
Y916250D02*
D03*
Y908250D02*
D03*
Y900250D02*
D03*
Y892250D02*
D03*
Y884250D02*
D03*
Y876250D02*
D03*
Y868250D02*
D03*
Y860250D02*
D03*
Y852250D02*
D03*
Y844250D02*
D03*
X268500Y932250D02*
D03*
Y924250D02*
D03*
Y916250D02*
D03*
Y908250D02*
D03*
Y900250D02*
D03*
Y892250D02*
D03*
Y884250D02*
D03*
Y876250D02*
D03*
Y868250D02*
D03*
Y860250D02*
D03*
Y852250D02*
D03*
Y844250D02*
D03*
X260500Y932250D02*
D03*
Y924250D02*
D03*
Y916250D02*
D03*
Y908250D02*
D03*
Y900250D02*
D03*
Y892250D02*
D03*
Y884250D02*
D03*
Y876250D02*
D03*
Y868250D02*
D03*
Y860250D02*
D03*
Y852250D02*
D03*
Y844250D02*
D03*
Y836250D02*
D03*
X252500Y932250D02*
D03*
Y924250D02*
D03*
Y916250D02*
D03*
Y908250D02*
D03*
Y900250D02*
D03*
Y892250D02*
D03*
Y884250D02*
D03*
Y876250D02*
D03*
Y868250D02*
D03*
Y860250D02*
D03*
Y852250D02*
D03*
Y844250D02*
D03*
Y836250D02*
D03*
X244500Y932250D02*
D03*
Y924250D02*
D03*
Y916250D02*
D03*
Y908250D02*
D03*
Y900250D02*
D03*
Y892250D02*
D03*
Y884250D02*
D03*
Y876250D02*
D03*
Y868250D02*
D03*
Y860250D02*
D03*
Y852250D02*
D03*
Y844250D02*
D03*
Y836250D02*
D03*
X236500Y932250D02*
D03*
Y924250D02*
D03*
Y916250D02*
D03*
Y908250D02*
D03*
Y900250D02*
D03*
Y892250D02*
D03*
Y884250D02*
D03*
Y876250D02*
D03*
Y868250D02*
D03*
Y860250D02*
D03*
Y852250D02*
D03*
Y844250D02*
D03*
Y836250D02*
D03*
X228500Y932250D02*
D03*
Y924250D02*
D03*
Y916250D02*
D03*
Y908250D02*
D03*
Y900250D02*
D03*
Y892250D02*
D03*
Y884250D02*
D03*
Y876250D02*
D03*
Y868250D02*
D03*
Y860250D02*
D03*
Y852250D02*
D03*
X220500Y932250D02*
D03*
Y924250D02*
D03*
Y916250D02*
D03*
Y908250D02*
D03*
Y900250D02*
D03*
Y892250D02*
D03*
Y884250D02*
D03*
Y876250D02*
D03*
Y868250D02*
D03*
Y860250D02*
D03*
Y852250D02*
D03*
Y844250D02*
D03*
X316500Y1295950D02*
D03*
Y1287950D02*
D03*
Y1279950D02*
D03*
Y1271950D02*
D03*
Y1263950D02*
D03*
Y1255950D02*
D03*
Y1247950D02*
D03*
Y1239950D02*
D03*
Y1231950D02*
D03*
Y1223950D02*
D03*
Y1215950D02*
D03*
Y1207950D02*
D03*
Y1199950D02*
D03*
X308500Y1295950D02*
D03*
Y1287950D02*
D03*
Y1279950D02*
D03*
Y1271950D02*
D03*
Y1263950D02*
D03*
Y1255950D02*
D03*
Y1247950D02*
D03*
Y1239950D02*
D03*
Y1231950D02*
D03*
Y1223950D02*
D03*
Y1215950D02*
D03*
Y1207950D02*
D03*
Y1199950D02*
D03*
X300500Y1295950D02*
D03*
Y1287950D02*
D03*
Y1279950D02*
D03*
Y1271950D02*
D03*
Y1263950D02*
D03*
Y1255950D02*
D03*
Y1247950D02*
D03*
Y1239950D02*
D03*
Y1231950D02*
D03*
Y1223950D02*
D03*
Y1215950D02*
D03*
Y1207950D02*
D03*
Y1199950D02*
D03*
X292500Y1295950D02*
D03*
Y1287950D02*
D03*
Y1279950D02*
D03*
Y1271950D02*
D03*
Y1263950D02*
D03*
Y1255950D02*
D03*
Y1247950D02*
D03*
Y1239950D02*
D03*
Y1231950D02*
D03*
Y1223950D02*
D03*
Y1215950D02*
D03*
Y1207950D02*
D03*
Y1199950D02*
D03*
X284500Y1295950D02*
D03*
Y1287950D02*
D03*
Y1279950D02*
D03*
Y1271950D02*
D03*
Y1263950D02*
D03*
Y1255950D02*
D03*
Y1247950D02*
D03*
Y1239950D02*
D03*
Y1231950D02*
D03*
Y1223950D02*
D03*
Y1215950D02*
D03*
Y1207950D02*
D03*
Y1199950D02*
D03*
X276500Y1295950D02*
D03*
Y1287950D02*
D03*
Y1279950D02*
D03*
Y1271950D02*
D03*
Y1263950D02*
D03*
Y1255950D02*
D03*
Y1247950D02*
D03*
Y1239950D02*
D03*
Y1231950D02*
D03*
Y1223950D02*
D03*
Y1215950D02*
D03*
Y1207950D02*
D03*
X268500Y1295950D02*
D03*
Y1287950D02*
D03*
Y1279950D02*
D03*
Y1271950D02*
D03*
Y1263950D02*
D03*
Y1255950D02*
D03*
Y1247950D02*
D03*
Y1239950D02*
D03*
Y1231950D02*
D03*
Y1223950D02*
D03*
Y1215950D02*
D03*
Y1207950D02*
D03*
X260500Y1295950D02*
D03*
Y1287950D02*
D03*
Y1279950D02*
D03*
Y1271950D02*
D03*
Y1263950D02*
D03*
Y1255950D02*
D03*
Y1247950D02*
D03*
Y1239950D02*
D03*
Y1231950D02*
D03*
Y1223950D02*
D03*
Y1215950D02*
D03*
Y1207950D02*
D03*
Y1199950D02*
D03*
X252500Y1295950D02*
D03*
Y1287950D02*
D03*
Y1279950D02*
D03*
Y1271950D02*
D03*
Y1263950D02*
D03*
Y1255950D02*
D03*
Y1247950D02*
D03*
Y1239950D02*
D03*
Y1231950D02*
D03*
Y1223950D02*
D03*
Y1215950D02*
D03*
Y1207950D02*
D03*
Y1199950D02*
D03*
X244500Y1295950D02*
D03*
Y1287950D02*
D03*
Y1279950D02*
D03*
Y1271950D02*
D03*
Y1263950D02*
D03*
Y1255950D02*
D03*
Y1247950D02*
D03*
Y1239950D02*
D03*
Y1231950D02*
D03*
Y1223950D02*
D03*
Y1215950D02*
D03*
Y1207950D02*
D03*
Y1199950D02*
D03*
X236500Y1295950D02*
D03*
Y1287950D02*
D03*
Y1279950D02*
D03*
Y1271950D02*
D03*
Y1263950D02*
D03*
Y1255950D02*
D03*
Y1247950D02*
D03*
Y1239950D02*
D03*
Y1231950D02*
D03*
Y1223950D02*
D03*
Y1215950D02*
D03*
Y1207950D02*
D03*
Y1199950D02*
D03*
X228500Y1295950D02*
D03*
Y1287950D02*
D03*
Y1279950D02*
D03*
Y1271950D02*
D03*
Y1263950D02*
D03*
Y1255950D02*
D03*
Y1247950D02*
D03*
Y1239950D02*
D03*
Y1231950D02*
D03*
Y1223950D02*
D03*
Y1215950D02*
D03*
X220500Y1295950D02*
D03*
Y1287950D02*
D03*
Y1279950D02*
D03*
Y1271950D02*
D03*
Y1263950D02*
D03*
Y1255950D02*
D03*
Y1247950D02*
D03*
Y1239950D02*
D03*
Y1231950D02*
D03*
Y1223950D02*
D03*
Y1215950D02*
D03*
Y1207950D02*
D03*
D26*
X276500Y108850D02*
D03*
X268500D02*
D03*
X220500D02*
D03*
X276500Y472550D02*
D03*
X268500D02*
D03*
X220500D02*
D03*
X276500Y836250D02*
D03*
X268500D02*
D03*
X220500D02*
D03*
X276500Y1199950D02*
D03*
X268500D02*
D03*
X220500D02*
D03*
D27*
X228500Y116850D02*
D03*
Y480550D02*
D03*
Y844250D02*
D03*
Y1207950D02*
D03*
D28*
Y108850D02*
D03*
Y472550D02*
D03*
Y836250D02*
D03*
Y1199950D02*
D03*
D29*
X48500Y156850D02*
D03*
X48500Y176850D02*
D03*
X48500Y196850D02*
D03*
Y186850D02*
D03*
Y166850D02*
D03*
Y146850D02*
D03*
Y126850D02*
D03*
Y136850D02*
D03*
Y116850D02*
D03*
Y520550D02*
D03*
X48500Y540550D02*
D03*
X48500Y560550D02*
D03*
Y550550D02*
D03*
Y530550D02*
D03*
Y510550D02*
D03*
Y490550D02*
D03*
Y500550D02*
D03*
Y480550D02*
D03*
Y884250D02*
D03*
X48500Y904250D02*
D03*
X48500Y924250D02*
D03*
Y914250D02*
D03*
Y894250D02*
D03*
Y874250D02*
D03*
Y854250D02*
D03*
Y864250D02*
D03*
Y844250D02*
D03*
Y1247950D02*
D03*
X48500Y1267950D02*
D03*
X48500Y1287950D02*
D03*
Y1277950D02*
D03*
Y1257950D02*
D03*
Y1237950D02*
D03*
Y1217950D02*
D03*
Y1227950D02*
D03*
Y1207950D02*
D03*
D30*
X150250Y156850D02*
D03*
Y520550D02*
D03*
Y884250D02*
D03*
Y1247950D02*
D03*
D31*
X195250Y192850D02*
D03*
Y188850D02*
D03*
Y184850D02*
D03*
Y180850D02*
D03*
Y176850D02*
D03*
Y172850D02*
D03*
Y168850D02*
D03*
Y164850D02*
D03*
Y160850D02*
D03*
Y156850D02*
D03*
Y152850D02*
D03*
Y148850D02*
D03*
Y144850D02*
D03*
Y140850D02*
D03*
Y136850D02*
D03*
Y132850D02*
D03*
Y128850D02*
D03*
Y124850D02*
D03*
Y120850D02*
D03*
X105250D02*
D03*
Y124850D02*
D03*
Y128850D02*
D03*
Y132850D02*
D03*
Y136850D02*
D03*
Y140850D02*
D03*
Y144850D02*
D03*
Y148850D02*
D03*
Y152850D02*
D03*
X105250Y156850D02*
D03*
X105250Y160850D02*
D03*
Y164850D02*
D03*
Y168850D02*
D03*
Y172850D02*
D03*
Y176850D02*
D03*
Y180850D02*
D03*
Y184850D02*
D03*
Y188850D02*
D03*
X105250Y192850D02*
D03*
X195250Y556550D02*
D03*
Y552550D02*
D03*
Y548550D02*
D03*
Y544550D02*
D03*
Y540550D02*
D03*
Y536550D02*
D03*
Y532550D02*
D03*
Y528550D02*
D03*
Y524550D02*
D03*
Y520550D02*
D03*
Y516550D02*
D03*
Y512550D02*
D03*
Y508550D02*
D03*
Y504550D02*
D03*
Y500550D02*
D03*
Y496550D02*
D03*
Y492550D02*
D03*
Y488550D02*
D03*
Y484550D02*
D03*
X105250D02*
D03*
Y488550D02*
D03*
Y492550D02*
D03*
Y496550D02*
D03*
Y500550D02*
D03*
Y504550D02*
D03*
Y508550D02*
D03*
Y512550D02*
D03*
Y516550D02*
D03*
X105250Y520550D02*
D03*
X105250Y524550D02*
D03*
Y528550D02*
D03*
Y532550D02*
D03*
Y536550D02*
D03*
Y540550D02*
D03*
Y544550D02*
D03*
Y548550D02*
D03*
Y552550D02*
D03*
X105250Y556550D02*
D03*
X195250Y920250D02*
D03*
Y916250D02*
D03*
Y912250D02*
D03*
Y908250D02*
D03*
Y904250D02*
D03*
Y900250D02*
D03*
Y896250D02*
D03*
Y892250D02*
D03*
Y888250D02*
D03*
Y884250D02*
D03*
Y880250D02*
D03*
Y876250D02*
D03*
Y872250D02*
D03*
Y868250D02*
D03*
Y864250D02*
D03*
Y860250D02*
D03*
Y856250D02*
D03*
Y852250D02*
D03*
Y848250D02*
D03*
X105250D02*
D03*
Y852250D02*
D03*
Y856250D02*
D03*
Y860250D02*
D03*
Y864250D02*
D03*
Y868250D02*
D03*
Y872250D02*
D03*
Y876250D02*
D03*
Y880250D02*
D03*
X105250Y884250D02*
D03*
X105250Y888250D02*
D03*
Y892250D02*
D03*
Y896250D02*
D03*
Y900250D02*
D03*
Y904250D02*
D03*
Y908250D02*
D03*
Y912250D02*
D03*
Y916250D02*
D03*
X105250Y920250D02*
D03*
X195250Y1283950D02*
D03*
Y1279950D02*
D03*
Y1275950D02*
D03*
Y1271950D02*
D03*
Y1267950D02*
D03*
Y1263950D02*
D03*
Y1259950D02*
D03*
Y1255950D02*
D03*
Y1251950D02*
D03*
Y1247950D02*
D03*
Y1243950D02*
D03*
Y1239950D02*
D03*
Y1235950D02*
D03*
Y1231950D02*
D03*
Y1227950D02*
D03*
Y1223950D02*
D03*
Y1219950D02*
D03*
Y1215950D02*
D03*
Y1211950D02*
D03*
X105250D02*
D03*
Y1215950D02*
D03*
Y1219950D02*
D03*
Y1223950D02*
D03*
Y1227950D02*
D03*
Y1231950D02*
D03*
Y1235950D02*
D03*
Y1239950D02*
D03*
Y1243950D02*
D03*
X105250Y1247950D02*
D03*
X105250Y1251950D02*
D03*
Y1255950D02*
D03*
Y1259950D02*
D03*
Y1263950D02*
D03*
Y1267950D02*
D03*
Y1271950D02*
D03*
Y1275950D02*
D03*
Y1279950D02*
D03*
X105250Y1283950D02*
D03*
D32*
X186250Y111850D02*
D03*
X182250Y111850D02*
D03*
X178250D02*
D03*
X174250D02*
D03*
X170250D02*
D03*
X166250D02*
D03*
X162250D02*
D03*
X158250D02*
D03*
X154250D02*
D03*
X150250Y111850D02*
D03*
X146250Y111850D02*
D03*
X142250D02*
D03*
X138250D02*
D03*
X134250D02*
D03*
X130250D02*
D03*
X126250D02*
D03*
X122250D02*
D03*
X118250D02*
D03*
X114250D02*
D03*
Y201850D02*
D03*
X118250D02*
D03*
X122250D02*
D03*
X126250D02*
D03*
X130250D02*
D03*
X134250D02*
D03*
X138250D02*
D03*
X142250D02*
D03*
X146250D02*
D03*
X150250D02*
D03*
X154250D02*
D03*
X158250D02*
D03*
X162250D02*
D03*
X166250D02*
D03*
X170250D02*
D03*
X174250D02*
D03*
X178250D02*
D03*
X182250D02*
D03*
X186250D02*
D03*
Y475550D02*
D03*
X182250Y475550D02*
D03*
X178250D02*
D03*
X174250D02*
D03*
X170250D02*
D03*
X166250D02*
D03*
X162250D02*
D03*
X158250D02*
D03*
X154250D02*
D03*
X150250Y475550D02*
D03*
X146250Y475550D02*
D03*
X142250D02*
D03*
X138250D02*
D03*
X134250D02*
D03*
X130250D02*
D03*
X126250D02*
D03*
X122250D02*
D03*
X118250D02*
D03*
X114250D02*
D03*
Y565550D02*
D03*
X118250D02*
D03*
X122250D02*
D03*
X126250D02*
D03*
X130250D02*
D03*
X134250D02*
D03*
X138250D02*
D03*
X142250D02*
D03*
X146250D02*
D03*
X150250D02*
D03*
X154250D02*
D03*
X158250D02*
D03*
X162250D02*
D03*
X166250D02*
D03*
X170250D02*
D03*
X174250D02*
D03*
X178250D02*
D03*
X182250D02*
D03*
X186250D02*
D03*
Y839250D02*
D03*
X182250Y839250D02*
D03*
X178250D02*
D03*
X174250D02*
D03*
X170250D02*
D03*
X166250D02*
D03*
X162250D02*
D03*
X158250D02*
D03*
X154250D02*
D03*
X150250Y839250D02*
D03*
X146250Y839250D02*
D03*
X142250D02*
D03*
X138250D02*
D03*
X134250D02*
D03*
X130250D02*
D03*
X126250D02*
D03*
X122250D02*
D03*
X118250D02*
D03*
X114250D02*
D03*
Y929250D02*
D03*
X118250D02*
D03*
X122250D02*
D03*
X126250D02*
D03*
X130250D02*
D03*
X134250D02*
D03*
X138250D02*
D03*
X142250D02*
D03*
X146250D02*
D03*
X150250D02*
D03*
X154250D02*
D03*
X158250D02*
D03*
X162250D02*
D03*
X166250D02*
D03*
X170250D02*
D03*
X174250D02*
D03*
X178250D02*
D03*
X182250D02*
D03*
X186250D02*
D03*
Y1202950D02*
D03*
X182250Y1202950D02*
D03*
X178250D02*
D03*
X174250D02*
D03*
X170250D02*
D03*
X166250D02*
D03*
X162250D02*
D03*
X158250D02*
D03*
X154250D02*
D03*
X150250Y1202950D02*
D03*
X146250Y1202950D02*
D03*
X142250D02*
D03*
X138250D02*
D03*
X134250D02*
D03*
X130250D02*
D03*
X126250D02*
D03*
X122250D02*
D03*
X118250D02*
D03*
X114250D02*
D03*
Y1292950D02*
D03*
X118250D02*
D03*
X122250D02*
D03*
X126250D02*
D03*
X130250D02*
D03*
X134250D02*
D03*
X138250D02*
D03*
X142250D02*
D03*
X146250D02*
D03*
X150250D02*
D03*
X154250D02*
D03*
X158250D02*
D03*
X162250D02*
D03*
X166250D02*
D03*
X170250D02*
D03*
X174250D02*
D03*
X178250D02*
D03*
X182250D02*
D03*
X186250D02*
D03*
D33*
X213250Y264800D02*
D03*
Y270400D02*
D03*
Y628500D02*
D03*
Y634100D02*
D03*
Y992200D02*
D03*
Y997800D02*
D03*
Y1355900D02*
D03*
Y1361500D02*
D03*
D34*
X169391Y48901D02*
D03*
Y59901D02*
D03*
Y81901D02*
D03*
X186391D02*
D03*
Y70901D02*
D03*
Y59901D02*
D03*
Y48901D02*
D03*
Y37901D02*
D03*
X169391D02*
D03*
X153391D02*
D03*
Y48901D02*
D03*
Y59901D02*
D03*
Y70901D02*
D03*
Y81901D02*
D03*
X246500Y82000D02*
D03*
Y71000D02*
D03*
Y60000D02*
D03*
Y49000D02*
D03*
Y38000D02*
D03*
X262500D02*
D03*
X279500D02*
D03*
Y49000D02*
D03*
Y60000D02*
D03*
Y71000D02*
D03*
Y82000D02*
D03*
X262500D02*
D03*
Y60000D02*
D03*
Y49000D02*
D03*
X169391Y412601D02*
D03*
Y423601D02*
D03*
Y445601D02*
D03*
X186391D02*
D03*
Y434601D02*
D03*
Y423601D02*
D03*
Y412601D02*
D03*
Y401601D02*
D03*
X169391D02*
D03*
X153391D02*
D03*
Y412601D02*
D03*
Y423601D02*
D03*
Y434601D02*
D03*
Y445601D02*
D03*
X246500Y445700D02*
D03*
Y434700D02*
D03*
Y423700D02*
D03*
Y412700D02*
D03*
Y401700D02*
D03*
X262500D02*
D03*
X279500D02*
D03*
Y412700D02*
D03*
Y423700D02*
D03*
Y434700D02*
D03*
Y445700D02*
D03*
X262500D02*
D03*
Y423700D02*
D03*
Y412700D02*
D03*
X169391Y776301D02*
D03*
Y787301D02*
D03*
Y809301D02*
D03*
X186391D02*
D03*
Y798301D02*
D03*
Y787301D02*
D03*
Y776301D02*
D03*
Y765301D02*
D03*
X169391D02*
D03*
X153391D02*
D03*
Y776301D02*
D03*
Y787301D02*
D03*
Y798301D02*
D03*
Y809301D02*
D03*
X246500Y809400D02*
D03*
Y798400D02*
D03*
Y787400D02*
D03*
Y776400D02*
D03*
Y765400D02*
D03*
X262500D02*
D03*
X279500D02*
D03*
Y776400D02*
D03*
Y787400D02*
D03*
Y798400D02*
D03*
Y809400D02*
D03*
X262500D02*
D03*
Y787400D02*
D03*
Y776400D02*
D03*
X169391Y1140001D02*
D03*
Y1151001D02*
D03*
Y1173001D02*
D03*
X186391D02*
D03*
Y1162001D02*
D03*
Y1151001D02*
D03*
Y1140001D02*
D03*
Y1129001D02*
D03*
X169391D02*
D03*
X153391D02*
D03*
Y1140001D02*
D03*
Y1151001D02*
D03*
Y1162001D02*
D03*
Y1173001D02*
D03*
X246500Y1173100D02*
D03*
Y1162100D02*
D03*
Y1151100D02*
D03*
Y1140100D02*
D03*
Y1129100D02*
D03*
X262500D02*
D03*
X279500D02*
D03*
Y1140100D02*
D03*
Y1151100D02*
D03*
Y1162100D02*
D03*
Y1173100D02*
D03*
X262500D02*
D03*
Y1151100D02*
D03*
Y1140100D02*
D03*
D35*
X84175Y141050D02*
D03*
Y152650D02*
D03*
Y504750D02*
D03*
Y516350D02*
D03*
Y868450D02*
D03*
Y880050D02*
D03*
Y1232150D02*
D03*
Y1243750D02*
D03*
D36*
X77425Y132850D02*
D03*
Y136850D02*
D03*
Y140850D02*
D03*
Y152850D02*
D03*
Y156850D02*
D03*
Y148850D02*
D03*
Y144850D02*
D03*
Y496550D02*
D03*
Y500550D02*
D03*
Y504550D02*
D03*
Y516550D02*
D03*
Y520550D02*
D03*
Y512550D02*
D03*
Y508550D02*
D03*
Y860250D02*
D03*
Y864250D02*
D03*
Y868250D02*
D03*
Y880250D02*
D03*
Y884250D02*
D03*
Y876250D02*
D03*
Y872250D02*
D03*
Y1223950D02*
D03*
Y1227950D02*
D03*
Y1231950D02*
D03*
Y1243950D02*
D03*
Y1247950D02*
D03*
Y1239950D02*
D03*
Y1235950D02*
D03*
D37*
X77925Y160850D02*
D03*
Y524550D02*
D03*
Y888250D02*
D03*
Y1251950D02*
D03*
D38*
X97300Y150000D02*
D03*
X91700D02*
D03*
X97300Y143700D02*
D03*
X91700D02*
D03*
X215450Y87500D02*
D03*
X221050D02*
D03*
X228050Y221750D02*
D03*
X222450D02*
D03*
X97300Y513700D02*
D03*
X91700D02*
D03*
X97300Y507400D02*
D03*
X91700D02*
D03*
X215450Y451200D02*
D03*
X221050D02*
D03*
X228050Y585450D02*
D03*
X222450D02*
D03*
X97300Y877400D02*
D03*
X91700D02*
D03*
X97300Y871100D02*
D03*
X91700D02*
D03*
X215450Y814900D02*
D03*
X221050D02*
D03*
X228050Y949150D02*
D03*
X222450D02*
D03*
X97300Y1241100D02*
D03*
X91700D02*
D03*
X97300Y1234800D02*
D03*
X91700D02*
D03*
X215450Y1178600D02*
D03*
X221050D02*
D03*
X228050Y1312850D02*
D03*
X222450D02*
D03*
D39*
X557500Y24250D02*
D03*
X392500Y24250D02*
D03*
X557500Y289250D02*
D03*
X392500Y289250D02*
D03*
X114750Y24250D02*
D03*
X279750D02*
D03*
X114750Y289250D02*
D03*
X279750D02*
D03*
X557500Y387950D02*
D03*
X392500Y387950D02*
D03*
X557500Y652950D02*
D03*
X392500Y652950D02*
D03*
X114750Y387950D02*
D03*
X279750D02*
D03*
X114750Y652950D02*
D03*
X279750D02*
D03*
X557500Y751650D02*
D03*
X392500Y751650D02*
D03*
X557500Y1016650D02*
D03*
X392500Y1016650D02*
D03*
X114750Y751650D02*
D03*
X279750D02*
D03*
X114750Y1016650D02*
D03*
X279750D02*
D03*
X557500Y1115350D02*
D03*
X392500Y1115350D02*
D03*
X557500Y1380350D02*
D03*
X392500Y1380350D02*
D03*
X114750Y1115350D02*
D03*
X279750D02*
D03*
X114750Y1380350D02*
D03*
X279750D02*
D03*
D40*
X537500Y24250D02*
D03*
X577500D02*
D03*
X412500Y24250D02*
D03*
X372500D02*
D03*
X537500Y289250D02*
D03*
X577500D02*
D03*
X412500Y289250D02*
D03*
X372500D02*
D03*
X94750Y24250D02*
D03*
X134750D02*
D03*
X299750D02*
D03*
X259750D02*
D03*
X94750Y289250D02*
D03*
X134750D02*
D03*
X299750D02*
D03*
X259750D02*
D03*
X537500Y387950D02*
D03*
X577500D02*
D03*
X412500Y387950D02*
D03*
X372500D02*
D03*
X537500Y652950D02*
D03*
X577500D02*
D03*
X412500Y652950D02*
D03*
X372500D02*
D03*
X94750Y387950D02*
D03*
X134750D02*
D03*
X299750D02*
D03*
X259750D02*
D03*
X94750Y652950D02*
D03*
X134750D02*
D03*
X299750D02*
D03*
X259750D02*
D03*
X537500Y751650D02*
D03*
X577500D02*
D03*
X412500Y751650D02*
D03*
X372500D02*
D03*
X537500Y1016650D02*
D03*
X577500D02*
D03*
X412500Y1016650D02*
D03*
X372500D02*
D03*
X94750Y751650D02*
D03*
X134750D02*
D03*
X299750D02*
D03*
X259750D02*
D03*
X94750Y1016650D02*
D03*
X134750D02*
D03*
X299750D02*
D03*
X259750D02*
D03*
X537500Y1115350D02*
D03*
X577500D02*
D03*
X412500Y1115350D02*
D03*
X372500D02*
D03*
X537500Y1380350D02*
D03*
X577500D02*
D03*
X412500Y1380350D02*
D03*
X372500D02*
D03*
X94750Y1115350D02*
D03*
X134750D02*
D03*
X299750D02*
D03*
X259750D02*
D03*
X94750Y1380350D02*
D03*
X134750D02*
D03*
X299750D02*
D03*
X259750D02*
D03*
D41*
X474121Y40668D02*
D03*
X454121D02*
D03*
X474121Y69667D02*
D03*
X454121D02*
D03*
X474121Y404367D02*
D03*
X454121D02*
D03*
X474121Y433367D02*
D03*
X454121D02*
D03*
X474121Y768068D02*
D03*
X454121D02*
D03*
X474121Y797067D02*
D03*
X454121D02*
D03*
X474121Y1131768D02*
D03*
X454121D02*
D03*
X474121Y1160767D02*
D03*
X454121D02*
D03*
D42*
X662000Y160500D02*
D03*
X648000D02*
D03*
X648000Y153500D02*
D03*
X662000D02*
D03*
X662000Y524200D02*
D03*
X648000D02*
D03*
X648000Y517200D02*
D03*
X662000D02*
D03*
X662000Y887900D02*
D03*
X648000D02*
D03*
X648000Y880900D02*
D03*
X662000D02*
D03*
X662000Y1251600D02*
D03*
X648000D02*
D03*
X648000Y1244600D02*
D03*
X662000D02*
D03*
D43*
X539800Y184500D02*
D03*
X555000D02*
D03*
X570200D02*
D03*
X539800Y154250D02*
D03*
X555000Y154000D02*
D03*
X570200D02*
D03*
X539800Y548200D02*
D03*
X555000D02*
D03*
X570200D02*
D03*
X539800Y517950D02*
D03*
X555000Y517700D02*
D03*
X570200D02*
D03*
X539800Y911900D02*
D03*
X555000D02*
D03*
X570200D02*
D03*
X539800Y881650D02*
D03*
X555000Y881400D02*
D03*
X570200D02*
D03*
X539800Y1275600D02*
D03*
X555000D02*
D03*
X570200D02*
D03*
X539800Y1245350D02*
D03*
X555000Y1245100D02*
D03*
X570200D02*
D03*
D44*
X539502Y39950D02*
D03*
Y55150D02*
D03*
X539752Y70350D02*
D03*
X570002Y39950D02*
D03*
Y55150D02*
D03*
Y70350D02*
D03*
X506900Y276950D02*
D03*
Y261750D02*
D03*
Y246550D02*
D03*
X476650Y276950D02*
D03*
X476400Y261750D02*
D03*
Y246550D02*
D03*
X551650Y215300D02*
D03*
Y230500D02*
D03*
X551900Y245700D02*
D03*
X582150Y215300D02*
D03*
Y230500D02*
D03*
Y245700D02*
D03*
X539502Y403650D02*
D03*
Y418850D02*
D03*
X539752Y434050D02*
D03*
X570002Y403650D02*
D03*
Y418850D02*
D03*
Y434050D02*
D03*
X506900Y640650D02*
D03*
Y625450D02*
D03*
Y610250D02*
D03*
X476650Y640650D02*
D03*
X476400Y625450D02*
D03*
Y610250D02*
D03*
X551650Y579000D02*
D03*
Y594200D02*
D03*
X551900Y609400D02*
D03*
X582150Y579000D02*
D03*
Y594200D02*
D03*
Y609400D02*
D03*
X539502Y767350D02*
D03*
Y782551D02*
D03*
X539752Y797750D02*
D03*
X570002Y767350D02*
D03*
Y782551D02*
D03*
Y797750D02*
D03*
X506900Y1004350D02*
D03*
Y989150D02*
D03*
Y973950D02*
D03*
X476650Y1004350D02*
D03*
X476400Y989150D02*
D03*
Y973950D02*
D03*
X551650Y942700D02*
D03*
Y957900D02*
D03*
X551900Y973100D02*
D03*
X582150Y942700D02*
D03*
Y957900D02*
D03*
Y973100D02*
D03*
X539502Y1131050D02*
D03*
Y1146251D02*
D03*
X539752Y1161451D02*
D03*
X570002Y1131050D02*
D03*
Y1146251D02*
D03*
Y1161451D02*
D03*
X506900Y1368050D02*
D03*
Y1352850D02*
D03*
Y1337650D02*
D03*
X476650Y1368050D02*
D03*
X476400Y1352850D02*
D03*
Y1337650D02*
D03*
X551650Y1306400D02*
D03*
Y1321600D02*
D03*
X551900Y1336800D02*
D03*
X582150Y1306400D02*
D03*
Y1321600D02*
D03*
Y1336800D02*
D03*
D45*
X594750Y95500D02*
D03*
X598500Y253750D02*
D03*
X594750Y459200D02*
D03*
X598500Y617450D02*
D03*
X594750Y822900D02*
D03*
X598500Y981150D02*
D03*
X594750Y1186600D02*
D03*
X598500Y1344850D02*
D03*
D46*
X589750Y102750D02*
D03*
X594750D02*
D03*
X599750D02*
D03*
Y88250D02*
D03*
X594750D02*
D03*
X589750D02*
D03*
X593500Y261000D02*
D03*
X598500D02*
D03*
X603500D02*
D03*
Y246500D02*
D03*
X598500D02*
D03*
X593500D02*
D03*
X589750Y466450D02*
D03*
X594750D02*
D03*
X599750D02*
D03*
Y451950D02*
D03*
X594750D02*
D03*
X589750D02*
D03*
X593500Y624700D02*
D03*
X598500D02*
D03*
X603500D02*
D03*
Y610200D02*
D03*
X598500D02*
D03*
X593500D02*
D03*
X589750Y830150D02*
D03*
X594750D02*
D03*
X599750D02*
D03*
Y815650D02*
D03*
X594750D02*
D03*
X589750D02*
D03*
X593500Y988400D02*
D03*
X598500D02*
D03*
X603500D02*
D03*
Y973900D02*
D03*
X598500D02*
D03*
X593500D02*
D03*
X589750Y1193850D02*
D03*
X594750D02*
D03*
X599750D02*
D03*
Y1179350D02*
D03*
X594750D02*
D03*
X589750D02*
D03*
X593500Y1352100D02*
D03*
X598500D02*
D03*
X603500D02*
D03*
Y1337600D02*
D03*
X598500D02*
D03*
X593500D02*
D03*
D47*
X126250Y67250D02*
D03*
Y430950D02*
D03*
Y794650D02*
D03*
Y1158350D02*
D03*
D48*
X135750Y53250D02*
D03*
X126250D02*
D03*
X116750D02*
D03*
Y81250D02*
D03*
X126250D02*
D03*
X135750D02*
D03*
Y416950D02*
D03*
X126250D02*
D03*
X116750D02*
D03*
Y444950D02*
D03*
X126250D02*
D03*
X135750D02*
D03*
Y780650D02*
D03*
X126250D02*
D03*
X116750D02*
D03*
Y808650D02*
D03*
X126250D02*
D03*
X135750D02*
D03*
Y1144350D02*
D03*
X126250D02*
D03*
X116750D02*
D03*
Y1172350D02*
D03*
X126250D02*
D03*
X135750D02*
D03*
M02*
